<svg version="1.1" viewBox="0.0 0.0 600.0 371.0" fill="none" stroke="none" stroke-linecap="square" stroke-miterlimit="10" width="600" height="371" xmlns:xlink="http://www.w3.org/1999/xlink" xmlns="http://www.w3.org/2000/svg"><path fill="#ffffff" d="M0 0L600.0 0L600.0 371.0L0 371.0L0 0Z" fill-rule="nonzero"/><path stroke="#333333" stroke-width="1.0" stroke-linecap="butt" d="M85.5 62.5L85.5 298.5" fill-rule="nonzero"/><path stroke="#cccccc" stroke-width="1.0" stroke-linecap="butt" d="M184.5 62.5L184.5 298.5" fill-rule="nonzero"/><path stroke="#cccccc" stroke-width="1.0" stroke-linecap="butt" d="M283.5 62.5L283.5 298.5" fill-rule="nonzero"/><path stroke="#cccccc" stroke-width="1.0" stroke-linecap="butt" d="M383.5 62.5L383.5 298.5" fill-rule="nonzero"/><path stroke="#cccccc" stroke-width="1.0" stroke-linecap="butt" d="M482.5 62.5L482.5 298.5" fill-rule="nonzero"/><path stroke="#cccccc" stroke-width="1.0" stroke-linecap="butt" d="M581.5 62.5L581.5 298.5" fill-rule="nonzero"/><path stroke="#333333" stroke-width="1.0" stroke-linecap="butt" d="M85.5 298.5L581.5 298.5" fill-rule="nonzero"/><path stroke="#cccccc" stroke-width="1.0" stroke-linecap="butt" d="M85.5 219.5L581.5 219.5" fill-rule="nonzero"/><path stroke="#cccccc" stroke-width="1.0" stroke-linecap="butt" d="M85.5 141.5L581.5 141.5" fill-rule="nonzero"/><path stroke="#cccccc" stroke-width="1.0" stroke-linecap="butt" d="M85.5 62.5L581.5 62.5" fill-rule="nonzero"/><clipPath id="id_0"><path d="M85.55 62.416668L581.45 62.416668L581.45 298.45L85.55 298.45L85.55 62.416668Z" clip-rule="nonzero"/></clipPath><path stroke="#4285f4" stroke-width="2.0" stroke-linecap="butt" clip-path="url(#id_0)" d="M85.55 298.45L95.468 298.45L105.386 298.45L115.304 298.45L125.222 298.45L135.14 298.45L145.058 298.45L154.976 298.45L164.894 298.45L174.812 298.45L184.73 298.45L194.648 273.43048L204.566 248.56828L214.484 232.99008L224.402 223.54875L234.32 216.6251L244.238 210.33089L254.156 204.35138L264.074 198.21451L273.992 192.235L283.91 186.72755L293.828 181.53482L303.746 176.18474L313.664 170.992L323.582 166.58604L333.5 162.18008L343.418 157.30206L353.336 152.89612L363.254 148.49016L373.172 144.39891L383.09 139.8356L393.008 136.37378L402.926 132.12518L412.844 127.71922L422.762 123.78533L432.68 120.0088L442.598 116.07491L452.516 112.77045L462.434 108.52184L472.352 105.37473L482.27 102.22762L492.188 98.92316L502.106 94.989265L512.024 91.52744L521.942 88.695045L531.86 85.23322L541.778 81.29933L551.696 79.09636L561.614 77.68015L571.532 77.68015L581.45 77.68015" fill-rule="nonzero"/><path fill="#000000" fill-opacity="0.0" clip-path="url(#id_0)" d="M88.55 298.45C88.55 300.10684 87.206856 301.45 85.55 301.45C83.89314 301.45 82.55 300.10684 82.55 298.45C82.55 296.79315 83.89314 295.45 85.55 295.45C87.206856 295.45 88.55 296.79315 88.55 298.45Z" fill-rule="nonzero"/><path fill="#000000" fill-opacity="0.0" clip-path="url(#id_0)" d="M98.468 298.45C98.468 300.10684 97.124855 301.45 95.468 301.45C93.81114 301.45 92.468 300.10684 92.468 298.45C92.468 296.79315 93.81114 295.45 95.468 295.45C97.124855 295.45 98.468 296.79315 98.468 298.45Z" fill-rule="nonzero"/><path fill="#000000" fill-opacity="0.0" clip-path="url(#id_0)" d="M108.386 298.45C108.386 300.10684 107.042854 301.45 105.386 301.45C103.72915 301.45 102.386 300.10684 102.386 298.45C102.386 296.79315 103.72915 295.45 105.386 295.45C107.042854 295.45 108.386 296.79315 108.386 298.45Z" fill-rule="nonzero"/><path fill="#000000" fill-opacity="0.0" clip-path="url(#id_0)" d="M118.304 298.45C118.304 300.10684 116.96085 301.45 115.304 301.45C113.64715 301.45 112.304 300.10684 112.304 298.45C112.304 296.79315 113.64715 295.45 115.304 295.45C116.96085 295.45 118.304 296.79315 118.304 298.45Z" fill-rule="nonzero"/><path fill="#000000" fill-opacity="0.0" clip-path="url(#id_0)" d="M128.222 298.45C128.222 300.10684 126.87885 301.45 125.222 301.45C123.56515 301.45 122.222 300.10684 122.222 298.45C122.222 296.79315 123.56515 295.45 125.222 295.45C126.87885 295.45 128.222 296.79315 128.222 298.45Z" fill-rule="nonzero"/><path fill="#000000" fill-opacity="0.0" clip-path="url(#id_0)" d="M138.14 298.45C138.14 300.10684 136.79686 301.45 135.14 301.45C133.48314 301.45 132.14 300.10684 132.14 298.45C132.14 296.79315 133.48314 295.45 135.14 295.45C136.79686 295.45 138.14 296.79315 138.14 298.45Z" fill-rule="nonzero"/><path fill="#000000" fill-opacity="0.0" clip-path="url(#id_0)" d="M148.058 298.45C148.058 300.10684 146.71486 301.45 145.058 301.45C143.40114 301.45 142.058 300.10684 142.058 298.45C142.058 296.79315 143.40114 295.45 145.058 295.45C146.71486 295.45 148.058 296.79315 148.058 298.45Z" fill-rule="nonzero"/><path fill="#000000" fill-opacity="0.0" clip-path="url(#id_0)" d="M157.976 298.45C157.976 300.10684 156.63286 301.45 154.976 301.45C153.31915 301.45 151.976 300.10684 151.976 298.45C151.976 296.79315 153.31915 295.45 154.976 295.45C156.63286 295.45 157.976 296.79315 157.976 298.45Z" fill-rule="nonzero"/><path fill="#000000" fill-opacity="0.0" clip-path="url(#id_0)" d="M167.894 298.45C167.894 300.10684 166.55086 301.45 164.894 301.45C163.23715 301.45 161.894 300.10684 161.894 298.45C161.894 296.79315 163.23715 295.45 164.894 295.45C166.55086 295.45 167.894 296.79315 167.894 298.45Z" fill-rule="nonzero"/><path fill="#000000" fill-opacity="0.0" clip-path="url(#id_0)" d="M177.812 298.45C177.812 300.10684 176.46886 301.45 174.812 301.45C173.15515 301.45 171.812 300.10684 171.812 298.45C171.812 296.79315 173.15515 295.45 174.812 295.45C176.46886 295.45 177.812 296.79315 177.812 298.45Z" fill-rule="nonzero"/><path fill="#000000" fill-opacity="0.0" clip-path="url(#id_0)" d="M187.73 298.45C187.73 300.10684 186.38686 301.45 184.73 301.45C183.07315 301.45 181.73 300.10684 181.73 298.45C181.73 296.79315 183.07315 295.45 184.73 295.45C186.38686 295.45 187.73 296.79315 187.73 298.45Z" fill-rule="nonzero"/><path fill="#000000" fill-opacity="0.0" clip-path="url(#id_0)" d="M197.648 273.43048C197.648 275.0873 196.30486 276.43048 194.648 276.43048C192.99115 276.43048 191.648 275.0873 191.648 273.43048C191.648 271.77362 192.99115 270.43048 194.648 270.43048C196.30486 270.43048 197.648 271.77362 197.648 273.43048Z" fill-rule="nonzero"/><path fill="#000000" fill-opacity="0.0" clip-path="url(#id_0)" d="M207.566 248.56828C207.566 250.22514 206.22285 251.56828 204.566 251.56828C202.90915 251.56828 201.566 250.22514 201.566 248.56828C201.566 246.91144 202.90915 245.56828 204.566 245.56828C206.22285 245.56828 207.566 246.91144 207.566 248.56828Z" fill-rule="nonzero"/><path fill="#000000" fill-opacity="0.0" clip-path="url(#id_0)" d="M217.484 232.99008C217.484 234.64694 216.14085 235.99008 214.484 235.99008C212.82715 235.99008 211.484 234.64694 211.484 232.99008C211.484 231.33324 212.82715 229.99008 214.484 229.99008C216.14085 229.99008 217.484 231.33324 217.484 232.99008Z" fill-rule="nonzero"/><path fill="#000000" fill-opacity="0.0" clip-path="url(#id_0)" d="M227.402 223.54875C227.402 225.20561 226.05885 226.54875 224.402 226.54875C222.74515 226.54875 221.402 225.20561 221.402 223.54875C221.402 221.8919 222.74515 220.54875 224.402 220.54875C226.05885 220.54875 227.402 221.8919 227.402 223.54875Z" fill-rule="nonzero"/><path fill="#000000" fill-opacity="0.0" clip-path="url(#id_0)" d="M237.32 216.6251C237.32 218.28197 235.97685 219.6251 234.32 219.6251C232.66315 219.6251 231.32 218.28197 231.32 216.6251C231.32 214.96826 232.66315 213.6251 234.32 213.6251C235.97685 213.6251 237.32 214.96826 237.32 216.6251Z" fill-rule="nonzero"/><path fill="#000000" fill-opacity="0.0" clip-path="url(#id_0)" d="M247.238 210.33089C247.238 211.98775 245.89485 213.33089 244.238 213.33089C242.58115 213.33089 241.238 211.98775 241.238 210.33089C241.238 208.67404 242.58115 207.33089 244.238 207.33089C245.89485 207.33089 247.238 208.67404 247.238 210.33089Z" fill-rule="nonzero"/><path fill="#000000" fill-opacity="0.0" clip-path="url(#id_0)" d="M257.156 204.35138C257.156 206.00822 255.81285 207.35138 254.156 207.35138C252.49915 207.35138 251.156 206.00822 251.156 204.35138C251.156 202.69452 252.49915 201.35138 254.156 201.35138C255.81285 201.35138 257.156 202.69452 257.156 204.35138Z" fill-rule="nonzero"/><path fill="#000000" fill-opacity="0.0" clip-path="url(#id_0)" d="M267.074 198.21451C267.074 199.87137 265.73087 201.21451 264.074 201.21451C262.41714 201.21451 261.074 199.87137 261.074 198.21451C261.074 196.55766 262.41714 195.21451 264.074 195.21451C265.73087 195.21451 267.074 196.55766 267.074 198.21451Z" fill-rule="nonzero"/><path fill="#000000" fill-opacity="0.0" clip-path="url(#id_0)" d="M276.992 192.235C276.992 193.89186 275.64886 195.235 273.992 195.235C272.33514 195.235 270.992 193.89186 270.992 192.235C270.992 190.57814 272.33514 189.235 273.992 189.235C275.64886 189.235 276.992 190.57814 276.992 192.235Z" fill-rule="nonzero"/><path fill="#000000" fill-opacity="0.0" clip-path="url(#id_0)" d="M286.91 186.72755C286.91 188.38441 285.56686 189.72755 283.91 189.72755C282.25314 189.72755 280.91 188.38441 280.91 186.72755C280.91 185.0707 282.25314 183.72755 283.91 183.72755C285.56686 183.72755 286.91 185.0707 286.91 186.72755Z" fill-rule="nonzero"/><path fill="#000000" fill-opacity="0.0" clip-path="url(#id_0)" d="M296.828 181.53482C296.828 183.19168 295.48486 184.53482 293.828 184.53482C292.17114 184.53482 290.828 183.19168 290.828 181.53482C290.828 179.87798 292.17114 178.53482 293.828 178.53482C295.48486 178.53482 296.828 179.87798 296.828 181.53482Z" fill-rule="nonzero"/><path fill="#000000" fill-opacity="0.0" clip-path="url(#id_0)" d="M306.746 176.18474C306.746 177.84158 305.40286 179.18474 303.746 179.18474C302.08914 179.18474 300.746 177.84158 300.746 176.18474C300.746 174.52788 302.08914 173.18474 303.746 173.18474C305.40286 173.18474 306.746 174.52788 306.746 176.18474Z" fill-rule="nonzero"/><path fill="#000000" fill-opacity="0.0" clip-path="url(#id_0)" d="M316.664 170.992C316.664 172.64885 315.32086 173.992 313.664 173.992C312.00714 173.992 310.664 172.64885 310.664 170.992C310.664 169.33514 312.00714 167.992 313.664 167.992C315.32086 167.992 316.664 169.33514 316.664 170.992Z" fill-rule="nonzero"/><path fill="#000000" fill-opacity="0.0" clip-path="url(#id_0)" d="M326.582 166.58604C326.582 168.2429 325.23886 169.58604 323.582 169.58604C321.92514 169.58604 320.582 168.2429 320.582 166.58604C320.582 164.92918 321.92514 163.58604 323.582 163.58604C325.23886 163.58604 326.582 164.92918 326.582 166.58604Z" fill-rule="nonzero"/><path fill="#000000" fill-opacity="0.0" clip-path="url(#id_0)" d="M336.5 162.18008C336.5 163.83694 335.15686 165.18008 333.5 165.18008C331.84314 165.18008 330.5 163.83694 330.5 162.18008C330.5 160.52324 331.84314 159.18008 333.5 159.18008C335.15686 159.18008 336.5 160.52324 336.5 162.18008Z" fill-rule="nonzero"/><path fill="#000000" fill-opacity="0.0" clip-path="url(#id_0)" d="M346.418 157.30206C346.418 158.95892 345.07486 160.30206 343.418 160.30206C341.76114 160.30206 340.418 158.95892 340.418 157.30206C340.418 155.64522 341.76114 154.30206 343.418 154.30206C345.07486 154.30206 346.418 155.64522 346.418 157.30206Z" fill-rule="nonzero"/><path fill="#000000" fill-opacity="0.0" clip-path="url(#id_0)" d="M356.336 152.89612C356.336 154.55296 354.99286 155.89612 353.336 155.89612C351.67914 155.89612 350.336 154.55296 350.336 152.89612C350.336 151.23926 351.67914 149.89612 353.336 149.89612C354.99286 149.89612 356.336 151.23926 356.336 152.89612Z" fill-rule="nonzero"/><path fill="#000000" fill-opacity="0.0" clip-path="url(#id_0)" d="M366.254 148.49016C366.254 150.147 364.91086 151.49016 363.254 151.49016C361.59714 151.49016 360.254 150.147 360.254 148.49016C360.254 146.8333 361.59714 145.49016 363.254 145.49016C364.91086 145.49016 366.254 146.8333 366.254 148.49016Z" fill-rule="nonzero"/><path fill="#000000" fill-opacity="0.0" clip-path="url(#id_0)" d="M376.172 144.39891C376.172 146.05577 374.82886 147.39891 373.172 147.39891C371.51514 147.39891 370.172 146.05577 370.172 144.39891C370.172 142.74205 371.51514 141.39891 373.172 141.39891C374.82886 141.39891 376.172 142.74205 376.172 144.39891Z" fill-rule="nonzero"/><path fill="#000000" fill-opacity="0.0" clip-path="url(#id_0)" d="M386.09 139.8356C386.09 141.49245 384.74686 142.8356 383.09 142.8356C381.43314 142.8356 380.09 141.49245 380.09 139.8356C380.09 138.17874 381.43314 136.8356 383.09 136.8356C384.74686 136.8356 386.09 138.17874 386.09 139.8356Z" fill-rule="nonzero"/><path fill="#000000" fill-opacity="0.0" clip-path="url(#id_0)" d="M396.008 136.37378C396.008 138.03064 394.66486 139.37378 393.008 139.37378C391.35114 139.37378 390.008 138.03064 390.008 136.37378C390.008 134.71692 391.35114 133.37378 393.008 133.37378C394.66486 133.37378 396.008 134.71692 396.008 136.37378Z" fill-rule="nonzero"/><path fill="#000000" fill-opacity="0.0" clip-path="url(#id_0)" d="M405.926 132.12518C405.926 133.78203 404.58286 135.12518 402.926 135.12518C401.26913 135.12518 399.926 133.78203 399.926 132.12518C399.926 130.46832 401.26913 129.12518 402.926 129.12518C404.58286 129.12518 405.926 130.46832 405.926 132.12518Z" fill-rule="nonzero"/><path fill="#000000" fill-opacity="0.0" clip-path="url(#id_0)" d="M415.844 127.71922C415.844 129.37608 414.50085 130.71922 412.844 130.71922C411.18713 130.71922 409.844 129.37608 409.844 127.71922C409.844 126.06237 411.18713 124.71922 412.844 124.71922C414.50085 124.71922 415.844 126.06237 415.844 127.71922Z" fill-rule="nonzero"/><path fill="#000000" fill-opacity="0.0" clip-path="url(#id_0)" d="M425.762 123.78533C425.762 125.442184 424.41885 126.78533 422.762 126.78533C421.10513 126.78533 419.762 125.442184 419.762 123.78533C419.762 122.12848 421.10513 120.78533 422.762 120.78533C424.41885 120.78533 425.762 122.12848 425.762 123.78533Z" fill-rule="nonzero"/><path fill="#000000" fill-opacity="0.0" clip-path="url(#id_0)" d="M435.68 120.0088C435.68 121.66566 434.33685 123.0088 432.68 123.0088C431.02313 123.0088 429.68 121.66566 429.68 120.0088C429.68 118.351944 431.02313 117.0088 432.68 117.0088C434.33685 117.0088 435.68 118.351944 435.68 120.0088Z" fill-rule="nonzero"/><path fill="#000000" fill-opacity="0.0" clip-path="url(#id_0)" d="M445.598 116.07491C445.598 117.731766 444.25485 119.07491 442.598 119.07491C440.94113 119.07491 439.598 117.731766 439.598 116.07491C439.598 114.41806 440.94113 113.07491 442.598 113.07491C444.25485 113.07491 445.598 114.41806 445.598 116.07491Z" fill-rule="nonzero"/><path fill="#000000" fill-opacity="0.0" clip-path="url(#id_0)" d="M455.516 112.77045C455.516 114.4273 454.17285 115.77045 452.516 115.77045C450.85913 115.77045 449.516 114.4273 449.516 112.77045C449.516 111.11359 450.85913 109.77045 452.516 109.77045C454.17285 109.77045 455.516 111.11359 455.516 112.77045Z" fill-rule="nonzero"/><path fill="#000000" fill-opacity="0.0" clip-path="url(#id_0)" d="M465.434 108.52184C465.434 110.178696 464.09085 111.52184 462.434 111.52184C460.77716 111.52184 459.434 110.178696 459.434 108.52184C459.434 106.86499 460.77716 105.52184 462.434 105.52184C464.09085 105.52184 465.434 106.86499 465.434 108.52184Z" fill-rule="nonzero"/><path fill="#000000" fill-opacity="0.0" clip-path="url(#id_0)" d="M475.352 105.37473C475.352 107.031586 474.00885 108.37473 472.352 108.37473C470.69516 108.37473 469.352 107.031586 469.352 105.37473C469.352 103.71788 470.69516 102.37473 472.352 102.37473C474.00885 102.37473 475.352 103.71788 475.352 105.37473Z" fill-rule="nonzero"/><path fill="#000000" fill-opacity="0.0" clip-path="url(#id_0)" d="M485.27 102.22762C485.27 103.884476 483.92685 105.22762 482.27 105.22762C480.61316 105.22762 479.27 103.884476 479.27 102.22762C479.27 100.57077 480.61316 99.22762 482.27 99.22762C483.92685 99.22762 485.27 100.57077 485.27 102.22762Z" fill-rule="nonzero"/><path fill="#000000" fill-opacity="0.0" clip-path="url(#id_0)" d="M495.188 98.92316C495.188 100.58001 493.84485 101.92316 492.188 101.92316C490.53116 101.92316 489.188 100.58001 489.188 98.92316C489.188 97.266304 490.53116 95.92316 492.188 95.92316C493.84485 95.92316 495.188 97.266304 495.188 98.92316Z" fill-rule="nonzero"/><path fill="#000000" fill-opacity="0.0" clip-path="url(#id_0)" d="M505.106 94.989265C505.106 96.64612 503.76285 97.989265 502.106 97.989265C500.44916 97.989265 499.106 96.64612 499.106 94.989265C499.106 93.33241 500.44916 91.989265 502.106 91.989265C503.76285 91.989265 505.106 93.33241 505.106 94.989265Z" fill-rule="nonzero"/><path fill="#000000" fill-opacity="0.0" clip-path="url(#id_0)" d="M515.024 91.52744C515.024 93.184296 513.68085 94.52744 512.024 94.52744C510.36716 94.52744 509.024 93.184296 509.024 91.52744C509.024 89.87059 510.36716 88.52744 512.024 88.52744C513.68085 88.52744 515.024 89.87059 515.024 91.52744Z" fill-rule="nonzero"/><path fill="#000000" fill-opacity="0.0" clip-path="url(#id_0)" d="M524.942 88.695045C524.942 90.3519 523.5989 91.695045 521.942 91.695045C520.28516 91.695045 518.942 90.3519 518.942 88.695045C518.942 87.03819 520.28516 85.695045 521.942 85.695045C523.5989 85.695045 524.942 87.03819 524.942 88.695045Z" fill-rule="nonzero"/><path fill="#000000" fill-opacity="0.0" clip-path="url(#id_0)" d="M534.86 85.23322C534.86 86.890076 533.51685 88.23322 531.86 88.23322C530.2031 88.23322 528.86 86.890076 528.86 85.23322C528.86 83.57637 530.2031 82.23322 531.86 82.23322C533.51685 82.23322 534.86 83.57637 534.86 85.23322Z" fill-rule="nonzero"/><path fill="#000000" fill-opacity="0.0" clip-path="url(#id_0)" d="M544.778 81.29933C544.778 82.956184 543.4349 84.29933 541.778 84.29933C540.12115 84.29933 538.778 82.956184 538.778 81.29933C538.778 79.64248 540.12115 78.29933 541.778 78.29933C543.4349 78.29933 544.778 79.64248 544.778 81.29933Z" fill-rule="nonzero"/><path fill="#000000" fill-opacity="0.0" clip-path="url(#id_0)" d="M554.696 79.09636C554.696 80.75321 553.35284 82.09636 551.696 82.09636C550.0391 82.09636 548.696 80.75321 548.696 79.09636C548.696 77.4395 550.0391 76.09636 551.696 76.09636C553.35284 76.09636 554.696 77.4395 554.696 79.09636Z" fill-rule="nonzero"/><path fill="#000000" fill-opacity="0.0" clip-path="url(#id_0)" d="M564.614 77.68015C564.614 79.33701 563.2709 80.68015 561.614 80.68015C559.95715 80.68015 558.614 79.33701 558.614 77.68015C558.614 76.0233 559.95715 74.68015 561.614 74.68015C563.2709 74.68015 564.614 76.0233 564.614 77.68015Z" fill-rule="nonzero"/><path fill="#000000" fill-opacity="0.0" clip-path="url(#id_0)" d="M574.532 77.68015C574.532 79.33701 573.18884 80.68015 571.532 80.68015C569.8751 80.68015 568.532 79.33701 568.532 77.68015C568.532 76.0233 569.8751 74.68015 571.532 74.68015C573.18884 74.68015 574.532 76.0233 574.532 77.68015Z" fill-rule="nonzero"/><path fill="#000000" fill-opacity="0.0" clip-path="url(#id_0)" d="M584.45 77.68015C584.45 79.33701 583.1069 80.68015 581.45 80.68015C579.79315 80.68015 578.45 79.33701 578.45 77.68015C578.45 76.0233 579.79315 74.68015 581.45 74.68015C583.1069 74.68015 584.45 76.0233 584.45 77.68015Z" fill-rule="nonzero"/><path fill="#424242" d="M321.10938 346.10626L321.10938 349.45L319.98438 349.45L319.98438 340.91876L323.14062 340.91876Q324.53125 340.91876 325.32812 341.6375Q326.125 342.34064 326.125 343.52814Q326.125 344.7625 325.34375 345.4344Q324.57812 346.10626 323.125 346.10626L321.10938 346.10626ZM321.10938 345.1844L323.14062 345.1844Q324.04688 345.1844 324.51562 344.7625Q325.0 344.34064 325.0 343.54376Q325.0 342.77814 324.51562 342.325Q324.04688 341.85626 323.20312 341.84064L321.10938 341.84064L321.10938 345.1844ZM329.82812 346.7625L330.0 347.8875L330.23438 346.8719L331.92188 340.91876L332.875 340.91876L334.51562 346.8719L334.75 347.90314L334.9375 346.7469L336.26562 340.91876L337.39062 340.91876L335.32812 349.45L334.29688 349.45L332.53125 343.23126L332.40625 342.575L332.26562 343.23126L330.45312 349.45L329.42188 349.45L327.35938 340.91876L328.48438 340.91876L329.82812 346.7625ZM340.4375 340.91876L343.23438 347.8719L346.01562 340.91876L347.48438 340.91876L347.48438 349.45L346.35938 349.45L346.35938 346.1219L346.46875 342.54376L343.65625 349.45L342.79688 349.45L340.0 342.5594L340.10938 346.1219L340.10938 349.45L338.98438 349.45L338.98438 340.91876L340.4375 340.91876Z" fill-rule="nonzero"/><path fill="#424242" d="M27.096888 195.55833L27.096888 197.57396L30.550013 197.57396L30.550013 198.69896L22.018763 198.69896L22.018763 195.87083Q22.018763 194.43333 22.675013 193.66771Q23.331263 192.88646 24.581263 192.88646Q25.378138 192.88646 25.971888 193.32396Q26.565638 193.74583 26.862513 194.51146L30.471888 192.51146L30.550013 192.51146L30.550013 193.71458L27.096888 195.55833ZM26.175013 197.57396L26.175013 195.83958Q26.175013 194.99583 25.753138 194.51146Q25.315638 194.01146 24.581263 194.01146Q23.800013 194.01146 23.378138 194.48021Q22.956263 194.94896 22.940638 195.83958L22.940638 197.57396L26.175013 197.57396ZM27.206263 190.57396L30.550013 190.57396L30.550013 191.69896L22.018763 191.69896L22.018763 188.54271Q22.018763 187.15208 22.737513 186.35521Q23.440638 185.55833 24.628138 185.55833Q25.862513 185.55833 26.534388 186.33958Q27.206263 187.10521 27.206263 188.55833L27.206263 190.57396ZM26.284388 190.57396L26.284388 188.54271Q26.284388 187.63646 25.862513 187.16771Q25.440638 186.68333 24.643763 186.68333Q23.878138 186.68333 23.425013 187.16771Q22.956263 187.63646 22.940638 188.48021L22.940638 190.57396L26.284388 190.57396ZM22.018763 182.24583L28.971888 179.44896L22.018763 176.66771L22.018763 175.19896L30.550013 175.19896L30.550013 176.32396L27.221888 176.32396L23.643763 176.21458L30.550013 179.02708L30.550013 179.88646L23.659388 182.68333L27.221888 182.57396L30.550013 182.57396L30.550013 183.69896L22.018763 183.69896L22.018763 182.24583Z" fill-rule="nonzero"/><path fill="#757575" d="M78.6125 299.3094Q78.6125 301.21564 77.95625 302.15314Q77.31563 303.075 75.925 303.075Q74.56563 303.075 73.90938 302.16876Q73.25313 301.2625 73.22188 299.45L73.22188 298.0125Q73.22188 296.1219 73.8625 295.21564Q74.51875 294.29376 75.90938 294.29376Q77.28438 294.29376 77.94063 295.1844Q78.59688 296.0594 78.6125 297.90314L78.6125 299.3094ZM77.51875 297.825Q77.51875 296.45 77.12813 295.825Q76.75313 295.1844 75.90938 295.1844Q75.08125 295.1844 74.69063 295.825Q74.31563 296.45 74.31563 297.7469L74.31563 299.48126Q74.31563 300.85626 74.70625 301.52814Q75.1125 302.1844 75.925 302.1844Q76.72188 302.1844 77.1125 301.5594Q77.50313 300.9344 77.51875 299.60626L77.51875 297.825Z" fill-rule="nonzero"/><path fill="#757575" d="M59.753124 219.99097L60.190624 215.74097L64.56563 215.74097L64.56563 216.74097L61.1125 216.74097L60.846874 219.06909Q61.4875 218.69409 62.284374 218.69409Q63.440624 218.69409 64.12813 219.47534Q64.81563 220.24097 64.81563 221.55347Q64.81563 222.86597 64.09688 223.63159Q63.39375 224.39722 62.1125 224.39722Q60.9875 224.39722 60.26875 223.77222Q59.55 223.13159 59.45625 222.02222L60.471874 222.02222Q60.58125 222.75659 61.003124 223.13159Q61.425 223.50659 62.1125 223.50659Q62.8625 223.50659 63.3 222.99097Q63.7375 222.47534 63.7375 221.56909Q63.7375 220.70972 63.26875 220.19409Q62.8 219.67847 62.01875 219.67847Q61.315624 219.67847 60.909374 219.97534L60.628124 220.20972L59.753124 219.99097ZM71.6125 220.63159Q71.6125 222.53784 70.95625 223.47534Q70.31563 224.39722 68.925 224.39722Q67.56563 224.39722 66.90938 223.49097Q66.25313 222.58472 66.22188 220.77222L66.22188 219.33472Q66.22188 217.44409 66.8625 216.53784Q67.51875 215.61597 68.90938 215.61597Q70.28438 215.61597 70.94063 216.50659Q71.59688 217.38159 71.6125 219.22534L71.6125 220.63159ZM70.51875 219.14722Q70.51875 217.77222 70.12813 217.14722Q69.75313 216.50659 68.90938 216.50659Q68.08125 216.50659 67.69063 217.14722Q67.31563 217.77222 67.31563 219.06909L67.31563 220.80347Q67.31563 222.17847 67.70625 222.85034Q68.1125 223.50659 68.925 223.50659Q69.72188 223.50659 70.1125 222.88159Q70.50313 222.25659 70.51875 220.92847L70.51875 219.14722ZM78.6125 220.63159Q78.6125 222.53784 77.95625 223.47534Q77.31563 224.39722 75.925 224.39722Q74.56563 224.39722 73.90938 223.49097Q73.25313 222.58472 73.22188 220.77222L73.22188 219.33472Q73.22188 217.44409 73.8625 216.53784Q74.51875 215.61597 75.90938 215.61597Q77.28438 215.61597 77.94063 216.50659Q78.59688 217.38159 78.6125 219.22534L78.6125 220.63159ZM77.51875 219.14722Q77.51875 217.77222 77.12813 217.14722Q76.75313 216.50659 75.90938 216.50659Q75.08125 216.50659 74.69063 217.14722Q74.31563 217.77222 74.31563 219.06909L74.31563 220.80347Q74.31563 222.17847 74.70625 222.85034Q75.1125 223.50659 75.925 223.50659Q76.72188 223.50659 77.1125 222.88159Q77.50313 222.25659 77.51875 220.92847L77.51875 219.14722Z" fill-rule="nonzero"/><path fill="#757575" d="M55.815624 145.59445L54.7375 145.59445L54.7375 138.3757L52.55 139.17258L52.55 138.1882L55.659374 137.01633L55.815624 137.01633L55.815624 145.59445ZM64.6125 141.95383Q64.6125 143.86008 63.95625 144.79758Q63.315624 145.71945 61.925 145.71945Q60.565624 145.71945 59.909374 144.8132Q59.253124 143.90695 59.221874 142.09445L59.221874 140.65695Q59.221874 138.76633 59.8625 137.86008Q60.51875 136.9382 61.909374 136.9382Q63.284374 136.9382 63.940624 137.82883Q64.59688 138.70383 64.6125 140.54758L64.6125 141.95383ZM63.51875 140.46945Q63.51875 139.09445 63.128124 138.46945Q62.753124 137.82883 61.909374 137.82883Q61.08125 137.82883 60.690624 138.46945Q60.315624 139.09445 60.315624 140.39133L60.315624 142.1257Q60.315624 143.5007 60.70625 144.17258Q61.1125 144.82883 61.925 144.82883Q62.721874 144.82883 63.1125 144.20383Q63.503124 143.57883 63.51875 142.2507L63.51875 140.46945ZM71.6125 141.95383Q71.6125 143.86008 70.95625 144.79758Q70.31563 145.71945 68.925 145.71945Q67.56563 145.71945 66.90938 144.8132Q66.25313 143.90695 66.22188 142.09445L66.22188 140.65695Q66.22188 138.76633 66.8625 137.86008Q67.51875 136.9382 68.90938 136.9382Q70.28438 136.9382 70.94063 137.82883Q71.59688 138.70383 71.6125 140.54758L71.6125 141.95383ZM70.51875 140.46945Q70.51875 139.09445 70.12813 138.46945Q69.75313 137.82883 68.90938 137.82883Q68.08125 137.82883 67.69063 138.46945Q67.31563 139.09445 67.31563 140.39133L67.31563 142.1257Q67.31563 143.5007 67.70625 144.17258Q68.1125 144.82883 68.925 144.82883Q69.72188 144.82883 70.1125 144.20383Q70.50313 143.57883 70.51875 142.2507L70.51875 140.46945ZM78.6125 141.95383Q78.6125 143.86008 77.95625 144.79758Q77.31563 145.71945 75.925 145.71945Q74.56563 145.71945 73.90938 144.8132Q73.25313 143.90695 73.22188 142.09445L73.22188 140.65695Q73.22188 138.76633 73.8625 137.86008Q74.51875 136.9382 75.90938 136.9382Q77.28438 136.9382 77.94063 137.82883Q78.59688 138.70383 78.6125 140.54758L78.6125 141.95383ZM77.51875 140.46945Q77.51875 139.09445 77.12813 138.46945Q76.75313 137.82883 75.90938 137.82883Q75.08125 137.82883 74.69063 138.46945Q74.31563 139.09445 74.31563 140.39133L74.31563 142.1257Q74.31563 143.5007 74.70625 144.17258Q75.1125 144.82883 75.925 144.82883Q76.72188 144.82883 77.1125 144.20383Q77.50313 143.57883 77.51875 142.2507L77.51875 140.46945Z" fill-rule="nonzero"/><path fill="#757575" d="M55.815624 66.916664L54.7375 66.916664L54.7375 59.697914L52.55 60.49479L52.55 59.510414L55.659374 58.33854L55.815624 58.33854L55.815624 66.916664ZM59.753124 62.635414L60.190624 58.385414L64.56563 58.385414L64.56563 59.385414L61.1125 59.385414L60.846874 61.71354Q61.4875 61.33854 62.284374 61.33854Q63.440624 61.33854 64.12813 62.11979Q64.81563 62.885414 64.81563 64.197914Q64.81563 65.510414 64.09688 66.27604Q63.39375 67.041664 62.1125 67.041664Q60.9875 67.041664 60.26875 66.416664Q59.55 65.77604 59.45625 64.666664L60.471874 64.666664Q60.58125 65.40104 61.003124 65.77604Q61.425 66.15104 62.1125 66.15104Q62.8625 66.15104 63.3 65.635414Q63.7375 65.11979 63.7375 64.21354Q63.7375 63.354164 63.26875 62.83854Q62.8 62.322914 62.01875 62.322914Q61.315624 62.322914 60.909374 62.61979L60.628124 62.854164L59.753124 62.635414ZM71.6125 63.27604Q71.6125 65.18229 70.95625 66.11979Q70.31563 67.041664 68.925 67.041664Q67.56563 67.041664 66.90938 66.135414Q66.25313 65.229164 66.22188 63.416664L66.22188 61.979164Q66.22188 60.08854 66.8625 59.18229Q67.51875 58.260414 68.90938 58.260414Q70.28438 58.260414 70.94063 59.15104Q71.59688 60.02604 71.6125 61.86979L71.6125 63.27604ZM70.51875 61.791664Q70.51875 60.416664 70.12813 59.791664Q69.75313 59.15104 68.90938 59.15104Q68.08125 59.15104 67.69063 59.791664Q67.31563 60.416664 67.31563 61.71354L67.31563 63.447914Q67.31563 64.822914 67.70625 65.49479Q68.1125 66.15104 68.925 66.15104Q69.72188 66.15104 70.1125 65.52604Q70.50313 64.90104 70.51875 63.572914L70.51875 61.791664ZM78.6125 63.27604Q78.6125 65.18229 77.95625 66.11979Q77.31563 67.041664 75.925 67.041664Q74.56563 67.041664 73.90938 66.135414Q73.25313 65.229164 73.22188 63.416664L73.22188 61.979164Q73.22188 60.08854 73.8625 59.18229Q74.51875 58.260414 75.90938 58.260414Q77.28438 58.260414 77.94063 59.15104Q78.59688 60.02604 78.6125 61.86979L78.6125 63.27604ZM77.51875 61.791664Q77.51875 60.416664 77.12813 59.791664Q76.75313 59.15104 75.90938 59.15104Q75.08125 59.15104 74.69063 59.791664Q74.31563 60.416664 74.31563 61.71354L74.31563 63.447914Q74.31563 64.822914 74.70625 65.49479Q75.1125 66.15104 75.925 66.15104Q76.72188 66.15104 77.1125 65.52604Q77.50313 64.90104 77.51875 63.572914L77.51875 61.791664Z" fill-rule="nonzero"/><path fill="#757575" d="M88.1125 312.8094Q88.1125 314.71564 87.45625 315.65314Q86.81563 316.575 85.425 316.575Q84.06563 316.575 83.40938 315.66876Q82.75313 314.7625 82.72188 312.95L82.72188 311.5125Q82.72188 309.6219 83.3625 308.71564Q84.01875 307.79376 85.40938 307.79376Q86.78438 307.79376 87.44063 308.6844Q88.09688 309.5594 88.1125 311.40314L88.1125 312.8094ZM87.01875 311.325Q87.01875 309.95 86.62813 309.325Q86.25313 308.6844 85.40938 308.6844Q84.58125 308.6844 84.19063 309.325Q83.81563 309.95 83.81563 311.2469L83.81563 312.98126Q83.81563 314.35626 84.20625 315.02814Q84.6125 315.6844 85.425 315.6844Q86.22188 315.6844 86.6125 315.0594Q87.00313 314.4344 87.01875 313.10626L87.01875 311.325Z" fill-rule="nonzero"/><path fill="#757575" d="M178.93312 312.16876L179.37062 307.91876L183.74562 307.91876L183.74562 308.91876L180.2925 308.91876L180.02687 311.2469Q180.6675 310.8719 181.46437 310.8719Q182.62062 310.8719 183.30812 311.65314Q183.99562 312.41876 183.99562 313.73126Q183.99562 315.04376 183.27687 315.8094Q182.57375 316.575 181.2925 316.575Q180.1675 316.575 179.44875 315.95Q178.73 315.3094 178.63625 314.2L179.65187 314.2Q179.76125 314.9344 180.18312 315.3094Q180.605 315.6844 181.2925 315.6844Q182.0425 315.6844 182.48 315.16876Q182.9175 314.65314 182.9175 313.7469Q182.9175 312.8875 182.44875 312.3719Q181.98 311.85626 181.19875 311.85626Q180.49562 311.85626 180.08937 312.15314L179.80812 312.3875L178.93312 312.16876ZM190.7925 312.8094Q190.7925 314.71564 190.13625 315.65314Q189.49562 316.575 188.105 316.575Q186.74562 316.575 186.08937 315.66876Q185.43312 314.7625 185.40187 312.95L185.40187 311.5125Q185.40187 309.6219 186.0425 308.71564Q186.69875 307.79376 188.08937 307.79376Q189.46437 307.79376 190.12062 308.6844Q190.77687 309.5594 190.7925 311.40314L190.7925 312.8094ZM189.69875 311.325Q189.69875 309.95 189.30812 309.325Q188.93312 308.6844 188.08937 308.6844Q187.26125 308.6844 186.87062 309.325Q186.49562 309.95 186.49562 311.2469L186.49562 312.98126Q186.49562 314.35626 186.88625 315.02814Q187.2925 315.6844 188.105 315.6844Q188.90187 315.6844 189.2925 315.0594Q189.68312 314.4344 189.69875 313.10626L189.69875 311.325Z" fill-rule="nonzero"/><path fill="#757575" d="M277.67563 316.45L276.5975 316.45L276.5975 309.23126L274.41 310.02814L274.41 309.04376L277.51938 307.8719L277.67563 307.8719L277.67563 316.45ZM286.4725 312.8094Q286.4725 314.71564 285.81625 315.65314Q285.17563 316.575 283.785 316.575Q282.42563 316.575 281.76938 315.66876Q281.11313 314.7625 281.08188 312.95L281.08188 311.5125Q281.08188 309.6219 281.7225 308.71564Q282.37875 307.79376 283.76938 307.79376Q285.14438 307.79376 285.80063 308.6844Q286.45688 309.5594 286.4725 311.40314L286.4725 312.8094ZM285.37875 311.325Q285.37875 309.95 284.98813 309.325Q284.61313 308.6844 283.76938 308.6844Q282.94125 308.6844 282.55063 309.325Q282.17563 309.95 282.17563 311.2469L282.17563 312.98126Q282.17563 314.35626 282.56625 315.02814Q282.9725 315.6844 283.785 315.6844Q284.58188 315.6844 284.9725 315.0594Q285.36313 314.4344 285.37875 313.10626L285.37875 311.325ZM293.4725 312.8094Q293.4725 314.71564 292.81625 315.65314Q292.17563 316.575 290.785 316.575Q289.42563 316.575 288.76938 315.66876Q288.11313 314.7625 288.08188 312.95L288.08188 311.5125Q288.08188 309.6219 288.7225 308.71564Q289.37875 307.79376 290.76938 307.79376Q292.14438 307.79376 292.80063 308.6844Q293.45688 309.5594 293.4725 311.40314L293.4725 312.8094ZM292.37875 311.325Q292.37875 309.95 291.98813 309.325Q291.61313 308.6844 290.76938 308.6844Q289.94125 308.6844 289.55063 309.325Q289.17563 309.95 289.17563 311.2469L289.17563 312.98126Q289.17563 314.35626 289.56625 315.02814Q289.9725 315.6844 290.785 315.6844Q291.58188 315.6844 291.9725 315.0594Q292.36313 314.4344 292.37875 313.10626L292.37875 311.325Z" fill-rule="nonzero"/><path fill="#757575" d="M376.85562 316.45L375.7775 316.45L375.7775 309.23126L373.59 310.02814L373.59 309.04376L376.69937 307.8719L376.85562 307.8719L376.85562 316.45ZM380.79312 312.16876L381.23062 307.91876L385.60562 307.91876L385.60562 308.91876L382.1525 308.91876L381.88687 311.2469Q382.5275 310.8719 383.32437 310.8719Q384.48062 310.8719 385.16812 311.65314Q385.85562 312.41876 385.85562 313.73126Q385.85562 315.04376 385.13687 315.8094Q384.43375 316.575 383.1525 316.575Q382.0275 316.575 381.30875 315.95Q380.59 315.3094 380.49625 314.2L381.51187 314.2Q381.62125 314.9344 382.04312 315.3094Q382.465 315.6844 383.1525 315.6844Q383.9025 315.6844 384.34 315.16876Q384.7775 314.65314 384.7775 313.7469Q384.7775 312.8875 384.30875 312.3719Q383.84 311.85626 383.05875 311.85626Q382.35562 311.85626 381.94937 312.15314L381.66812 312.3875L380.79312 312.16876ZM392.6525 312.8094Q392.6525 314.71564 391.99625 315.65314Q391.35562 316.575 389.965 316.575Q388.60562 316.575 387.94937 315.66876Q387.29312 314.7625 387.26187 312.95L387.26187 311.5125Q387.26187 309.6219 387.9025 308.71564Q388.55875 307.79376 389.94937 307.79376Q391.32437 307.79376 391.98062 308.6844Q392.63687 309.5594 392.6525 311.40314L392.6525 312.8094ZM391.55875 311.325Q391.55875 309.95 391.16812 309.325Q390.79312 308.6844 389.94937 308.6844Q389.12125 308.6844 388.73062 309.325Q388.35562 309.95 388.35562 311.2469L388.35562 312.98126Q388.35562 314.35626 388.74625 315.02814Q389.1525 315.6844 389.965 315.6844Q390.76187 315.6844 391.1525 315.0594Q391.54312 314.4344 391.55875 313.10626L391.55875 311.325Z" fill-rule="nonzero"/><path fill="#757575" d="M478.06686 316.45L472.4731 316.45L472.4731 315.66876L475.42624 312.3875Q476.0825 311.6375 476.3325 311.1844Q476.5825 310.71564 476.5825 310.21564Q476.5825 309.54376 476.17624 309.1219Q475.7856 308.6844 475.0981 308.6844Q474.30124 308.6844 473.8481 309.15314Q473.395 309.60626 473.395 310.4344L472.31686 310.4344Q472.31686 309.2469 473.06686 308.52814Q473.8325 307.79376 475.0981 307.79376Q476.30124 307.79376 476.98874 308.41876Q477.67624 309.04376 477.67624 310.09064Q477.67624 311.34064 476.06686 313.09064L473.7856 315.5594L478.06686 315.5594L478.06686 316.45ZM484.8325 312.8094Q484.8325 314.71564 484.17624 315.65314Q483.5356 316.575 482.145 316.575Q480.7856 316.575 480.12936 315.66876Q479.4731 314.7625 479.44186 312.95L479.44186 311.5125Q479.44186 309.6219 480.0825 308.71564Q480.73874 307.79376 482.12936 307.79376Q483.50436 307.79376 484.1606 308.6844Q484.81686 309.5594 484.8325 311.40314L484.8325 312.8094ZM483.73874 311.325Q483.73874 309.95 483.3481 309.325Q482.9731 308.6844 482.12936 308.6844Q481.30124 308.6844 480.9106 309.325Q480.5356 309.95 480.5356 311.2469L480.5356 312.98126Q480.5356 314.35626 480.92624 315.02814Q481.3325 315.6844 482.145 315.6844Q482.94186 315.6844 483.3325 315.0594Q483.7231 314.4344 483.73874 313.10626L483.73874 311.325ZM491.8325 312.8094Q491.8325 314.71564 491.17624 315.65314Q490.5356 316.575 489.145 316.575Q487.7856 316.575 487.12936 315.66876Q486.4731 314.7625 486.44186 312.95L486.44186 311.5125Q486.44186 309.6219 487.0825 308.71564Q487.73874 307.79376 489.12936 307.79376Q490.50436 307.79376 491.1606 308.6844Q491.81686 309.5594 491.8325 311.40314L491.8325 312.8094ZM490.73874 311.325Q490.73874 309.95 490.3481 309.325Q489.9731 308.6844 489.12936 308.6844Q488.30124 308.6844 487.9106 309.325Q487.5356 309.95 487.5356 311.2469L487.5356 312.98126Q487.5356 314.35626 487.92624 315.02814Q488.3325 315.6844 489.145 315.6844Q489.94186 315.6844 490.3325 315.0594Q490.7231 314.4344 490.73874 313.10626L490.73874 311.325Z" fill-rule="nonzero"/><path fill="#757575" d="M577.2469 316.45L571.65314 316.45L571.65314 315.66876L574.60626 312.3875Q575.2625 311.6375 575.5125 311.1844Q575.7625 310.71564 575.7625 310.21564Q575.7625 309.54376 575.35626 309.1219Q574.96564 308.6844 574.27814 308.6844Q573.48126 308.6844 573.02814 309.15314Q572.575 309.60626 572.575 310.4344L571.4969 310.4344Q571.4969 309.2469 572.2469 308.52814Q573.0125 307.79376 574.27814 307.79376Q575.48126 307.79376 576.16876 308.41876Q576.85626 309.04376 576.85626 310.09064Q576.85626 311.34064 575.2469 313.09064L572.96564 315.5594L577.2469 315.5594L577.2469 316.45ZM579.15314 312.16876L579.59064 307.91876L583.96564 307.91876L583.96564 308.91876L580.5125 308.91876L580.2469 311.2469Q580.8875 310.8719 581.6844 310.8719Q582.84064 310.8719 583.52814 311.65314Q584.21564 312.41876 584.21564 313.73126Q584.21564 315.04376 583.4969 315.8094Q582.79376 316.575 581.5125 316.575Q580.3875 316.575 579.66876 315.95Q578.95 315.3094 578.85626 314.2L579.8719 314.2Q579.98126 314.9344 580.40314 315.3094Q580.825 315.6844 581.5125 315.6844Q582.2625 315.6844 582.7 315.16876Q583.1375 314.65314 583.1375 313.7469Q583.1375 312.8875 582.66876 312.3719Q582.2 311.85626 581.41876 311.85626Q580.71564 311.85626 580.3094 312.15314L580.02814 312.3875L579.15314 312.16876ZM591.0125 312.8094Q591.0125 314.71564 590.35626 315.65314Q589.71564 316.575 588.325 316.575Q586.96564 316.575 586.3094 315.66876Q585.65314 314.7625 585.6219 312.95L585.6219 311.5125Q585.6219 309.6219 586.2625 308.71564Q586.91876 307.79376 588.3094 307.79376Q589.6844 307.79376 590.34064 308.6844Q590.9969 309.5594 591.0125 311.40314L591.0125 312.8094ZM589.91876 311.325Q589.91876 309.95 589.52814 309.325Q589.15314 308.6844 588.3094 308.6844Q587.48126 308.6844 587.09064 309.325Q586.71564 309.95 586.71564 311.2469L586.71564 312.98126Q586.71564 314.35626 587.10626 315.02814Q587.5125 315.6844 588.325 315.6844Q589.1219 315.6844 589.5125 315.0594Q589.90314 314.4344 589.91876 313.10626L589.91876 311.325Z" fill-rule="nonzero"/><path fill="#757575" d="M28.05 33.83125L22.096874 33.83125L20.753124 37.55L18.83125 37.55L24.253124 23.33125L25.89375 23.33125L31.33125 37.55L29.409374 37.55L28.05 33.83125ZM22.659374 32.3L27.503124 32.3L25.08125 25.64375L22.659374 32.3ZM38.01875 28.596874Q37.6125 28.534374 37.14375 28.534374Q35.3625 28.534374 34.721874 30.05L34.721874 37.55L32.925 37.55L32.925 26.9875L34.675 26.9875L34.70625 28.20625Q35.596874 26.784374 37.221874 26.784374Q37.753124 26.784374 38.01875 26.925L38.01875 28.596874ZM44.159374 36.26875Q45.128124 36.26875 45.846874 35.690624Q46.565624 35.096874 46.64375 34.221874L48.3625 34.221874Q48.3 35.128124 47.721874 35.95625Q47.159374 36.76875 46.190624 37.26875Q45.2375 37.753124 44.159374 37.753124Q42.003124 37.753124 40.721874 36.315624Q39.45625 34.8625 39.45625 32.3625L39.45625 32.065624Q39.45625 30.51875 40.01875 29.315624Q40.58125 28.1125 41.64375 27.45625Q42.70625 26.784374 44.14375 26.784374Q45.925 26.784374 47.096874 27.846874Q48.284374 28.909374 48.3625 30.6125L46.64375 30.6125Q46.565624 29.596874 45.8625 28.940624Q45.175 28.26875 44.14375 28.26875Q42.76875 28.26875 42.003124 29.26875Q41.253124 30.253124 41.253124 32.128124L41.253124 32.471874Q41.253124 34.3 42.003124 35.284374Q42.753124 36.26875 44.159374 36.26875ZM52.3625 24.425L52.3625 26.9875L54.346874 26.9875L54.346874 28.378124L52.3625 28.378124L52.3625 34.925Q52.3625 35.565624 52.628124 35.89375Q52.89375 36.20625 53.534374 36.20625Q53.846874 36.20625 54.39375 36.08125L54.39375 37.55Q53.675 37.753124 53.003124 37.753124Q51.8 37.753124 51.175 37.01875Q50.565624 36.284374 50.565624 34.925L50.565624 28.378124L48.64375 28.378124L48.64375 26.9875L50.565624 26.9875L50.565624 24.425L52.3625 24.425ZM58.878124 37.55L57.08125 37.55L57.08125 26.9875L58.878124 26.9875L58.878124 37.55ZM56.925 24.175Q56.925 23.7375 57.190624 23.440624Q57.471874 23.128124 57.9875 23.128124Q58.51875 23.128124 58.784374 23.440624Q59.065624 23.7375 59.065624 24.175Q59.065624 24.6125 58.784374 24.909374Q58.51875 25.20625 57.9875 25.20625Q57.471874 25.20625 57.190624 24.909374Q56.925 24.6125 56.925 24.175ZM66.15938 36.26875Q67.12813 36.26875 67.84688 35.690624Q68.56563 35.096874 68.64375 34.221874L70.3625 34.221874Q70.3 35.128124 69.72188 35.95625Q69.15938 36.76875 68.19063 37.26875Q67.2375 37.753124 66.15938 37.753124Q64.00313 37.753124 62.721874 36.315624Q61.45625 34.8625 61.45625 32.3625L61.45625 32.065624Q61.45625 30.51875 62.01875 29.315624Q62.58125 28.1125 63.64375 27.45625Q64.70625 26.784374 66.14375 26.784374Q67.925 26.784374 69.09688 27.846874Q70.28438 28.909374 70.3625 30.6125L68.64375 30.6125Q68.56563 29.596874 67.8625 28.940624Q67.175 28.26875 66.14375 28.26875Q64.76875 28.26875 64.00313 29.26875Q63.253124 30.253124 63.253124 32.128124L63.253124 32.471874Q63.253124 34.3 64.00313 35.284374Q64.75313 36.26875 66.15938 36.26875ZM87.65938 33.034374Q87.39375 35.3 85.9875 36.534374Q84.59688 37.753124 82.26875 37.753124Q79.75313 37.753124 78.22188 35.940624Q76.70625 34.128124 76.70625 31.096874L76.70625 29.7375Q76.70625 27.753124 77.40938 26.253124Q78.12813 24.753124 79.425 23.940624Q80.72188 23.128124 82.44063 23.128124Q84.70625 23.128124 86.06563 24.39375Q87.44063 25.659374 87.65938 27.89375L85.76875 27.89375Q85.53438 26.20625 84.70625 25.440624Q83.89375 24.675 82.44063 24.675Q80.64375 24.675 79.6125 26.003124Q78.59688 27.33125 78.59688 29.784374L78.59688 31.159374Q78.59688 33.471874 79.56563 34.846874Q80.53438 36.20625 82.26875 36.20625Q83.83125 36.20625 84.65938 35.503124Q85.50313 34.8 85.76875 33.034374L87.65938 33.034374ZM89.44063 32.175Q89.44063 30.6125 90.05 29.378124Q90.65938 28.128124 91.7375 27.45625Q92.83125 26.784374 94.2375 26.784374Q96.39375 26.784374 97.72188 28.284374Q99.06563 29.76875 99.06563 32.253124L99.06563 32.378124Q99.06563 33.925 98.47188 35.159374Q97.87813 36.378124 96.76875 37.065624Q95.675 37.753124 94.25313 37.753124Q92.1125 37.753124 90.76875 36.253124Q89.44063 34.753124 89.44063 32.3L89.44063 32.175ZM91.25313 32.378124Q91.25313 34.14375 92.06563 35.20625Q92.89375 36.26875 94.25313 36.26875Q95.62813 36.26875 96.44063 35.190624Q97.25313 34.1125 97.25313 32.175Q97.25313 30.425 96.425 29.346874Q95.59688 28.26875 94.2375 28.26875Q92.89375 28.26875 92.06563 29.33125Q91.25313 30.39375 91.25313 32.378124ZM100.44063 32.175Q100.44063 30.6125 101.05 29.378124Q101.65938 28.128124 102.7375 27.45625Q103.83125 26.784374 105.2375 26.784374Q107.39375 26.784374 108.72188 28.284374Q110.06563 29.76875 110.06563 32.253124L110.06563 32.378124Q110.06563 33.925 109.47188 35.159374Q108.87813 36.378124 107.76875 37.065624Q106.675 37.753124 105.25313 37.753124Q103.1125 37.753124 101.76875 36.253124Q100.44063 34.753124 100.44063 32.3L100.44063 32.175ZM102.25313 32.378124Q102.25313 34.14375 103.06563 35.20625Q103.89375 36.26875 105.25313 36.26875Q106.62813 36.26875 107.44063 35.190624Q108.25313 34.1125 108.25313 32.175Q108.25313 30.425 107.425 29.346874Q106.59688 28.26875 105.2375 28.26875Q103.89375 28.26875 103.06563 29.33125Q102.25313 30.39375 102.25313 32.378124ZM113.87813 37.55L112.08125 37.55L112.08125 22.55L113.87813 22.55L113.87813 37.55ZM118.87813 37.55L117.08125 37.55L117.08125 26.9875L118.87813 26.9875L118.87813 37.55ZM116.925 24.175Q116.925 23.7375 117.19063 23.440624Q117.47188 23.128124 117.9875 23.128124Q118.51875 23.128124 118.78438 23.440624Q119.06563 23.7375 119.06563 24.175Q119.06563 24.6125 118.78438 24.909374Q118.51875 25.20625 117.9875 25.20625Q117.47188 25.20625 117.19063 24.909374Q116.925 24.6125 116.925 24.175ZM123.62813 26.9875L123.69063 28.315624Q124.89375 26.784374 126.84688 26.784374Q130.20625 26.784374 130.22188 30.565624L130.22188 37.55L128.425 37.55L128.425 30.55Q128.40938 29.409374 127.89375 28.8625Q127.39375 28.315624 126.3 28.315624Q125.425 28.315624 124.75313 28.784374Q124.09688 29.253124 123.72188 30.01875L123.72188 37.55L121.925 37.55L121.925 26.9875L123.62813 26.9875ZM132.4875 32.175Q132.4875 29.70625 133.62813 28.253124Q134.76875 26.784374 136.65938 26.784374Q138.59688 26.784374 139.675 28.159374L139.76875 26.9875L141.40938 26.9875L141.40938 37.3Q141.40938 39.346874 140.19063 40.51875Q138.9875 41.70625 136.925 41.70625Q135.78438 41.70625 134.69063 41.221874Q133.59688 40.7375 133.01875 39.878124L133.95625 38.8Q135.12813 40.2375 136.8 40.2375Q138.12813 40.2375 138.8625 39.4875Q139.59688 38.753124 139.59688 37.409374L139.59688 36.4875Q138.51875 37.753124 136.64375 37.753124Q134.78438 37.753124 133.62813 36.253124Q132.4875 34.753124 132.4875 32.175ZM134.3 32.378124Q134.3 34.175 135.03438 35.190624Q135.76875 36.20625 137.08125 36.20625Q138.8 36.20625 139.59688 34.659374L139.59688 29.83125Q138.76875 28.315624 137.1125 28.315624Q135.78438 28.315624 135.03438 29.346874Q134.3 30.378124 134.3 32.378124ZM159.65938 33.034374Q159.39375 35.3 157.9875 36.534374Q156.59688 37.753124 154.26875 37.753124Q151.75313 37.753124 150.22188 35.940624Q148.70625 34.128124 148.70625 31.096874L148.70625 29.7375Q148.70625 27.753124 149.40938 26.253124Q150.12813 24.753124 151.425 23.940624Q152.72188 23.128124 154.44063 23.128124Q156.70625 23.128124 158.06563 24.39375Q159.44063 25.659374 159.65938 27.89375L157.76875 27.89375Q157.53438 26.20625 156.70625 25.440624Q155.89375 24.675 154.44063 24.675Q152.64375 24.675 151.6125 26.003124Q150.59688 27.33125 150.59688 29.784374L150.59688 31.159374Q150.59688 33.471874 151.56563 34.846874Q152.53438 36.20625 154.26875 36.20625Q155.83125 36.20625 156.65938 35.503124Q157.50313 34.8 157.76875 33.034374L159.65938 33.034374ZM161.44063 32.175Q161.44063 30.6125 162.05 29.378124Q162.65938 28.128124 163.7375 27.45625Q164.83125 26.784374 166.2375 26.784374Q168.39375 26.784374 169.72188 28.284374Q171.06563 29.76875 171.06563 32.253124L171.06563 32.378124Q171.06563 33.925 170.47188 35.159374Q169.87813 36.378124 168.76875 37.065624Q167.675 37.753124 166.25313 37.753124Q164.1125 37.753124 162.76875 36.253124Q161.44063 34.753124 161.44063 32.3L161.44063 32.175ZM163.25313 32.378124Q163.25313 34.14375 164.06563 35.20625Q164.89375 36.26875 166.25313 36.26875Q167.62813 36.26875 168.44063 35.190624Q169.25313 34.1125 169.25313 32.175Q169.25313 30.425 168.425 29.346874Q167.59688 28.26875 166.2375 28.26875Q164.89375 28.26875 164.06563 29.33125Q163.25313 30.39375 163.25313 32.378124ZM174.62813 26.9875L174.69063 28.315624Q175.89375 26.784374 177.84688 26.784374Q181.20625 26.784374 181.22188 30.565624L181.22188 37.55L179.425 37.55L179.425 30.55Q179.40938 29.409374 178.89375 28.8625Q178.39375 28.315624 177.3 28.315624Q176.425 28.315624 175.75313 28.784374Q175.09688 29.253124 174.72188 30.01875L174.72188 37.55L172.925 37.55L172.925 26.9875L174.62813 26.9875ZM185.62813 26.9875L185.69063 28.315624Q186.89375 26.784374 188.84688 26.784374Q192.20625 26.784374 192.22188 30.565624L192.22188 37.55L190.425 37.55L190.425 30.55Q190.40938 29.409374 189.89375 28.8625Q189.39375 28.315624 188.3 28.315624Q187.425 28.315624 186.75313 28.784374Q186.09688 29.253124 185.72188 30.01875L185.72188 37.55L183.925 37.55L183.925 26.9875L185.62813 26.9875ZM199.3 37.753124Q197.15938 37.753124 195.8 36.346874Q194.45625 34.925 194.45625 32.565624L194.45625 32.221874Q194.45625 30.659374 195.05 29.425Q195.65938 28.190624 196.7375 27.4875Q197.81563 26.784374 199.08125 26.784374Q201.14375 26.784374 202.28438 28.14375Q203.425 29.503124 203.425 32.034374L203.425 32.784374L196.26875 32.784374Q196.3 34.346874 197.175 35.315624Q198.05 36.26875 199.39375 36.26875Q200.3625 36.26875 201.01875 35.878124Q201.69063 35.4875 202.19063 34.846874L203.28438 35.70625Q201.95625 37.753124 199.3 37.753124ZM199.08125 28.26875Q197.9875 28.26875 197.2375 29.065624Q196.50313 29.8625 196.33125 31.3L201.6125 31.3L201.6125 31.159374Q201.53438 29.784374 200.8625 29.034374Q200.20625 28.26875 199.08125 28.26875ZM210.15938 36.26875Q211.12813 36.26875 211.84688 35.690624Q212.56563 35.096874 212.64375 34.221874L214.3625 34.221874Q214.3 35.128124 213.72188 35.95625Q213.15938 36.76875 212.19063 37.26875Q211.2375 37.753124 210.15938 37.753124Q208.00313 37.753124 206.72188 36.315624Q205.45625 34.8625 205.45625 32.3625L205.45625 32.065624Q205.45625 30.51875 206.01875 29.315624Q206.58125 28.1125 207.64375 27.45625Q208.70625 26.784374 210.14375 26.784374Q211.925 26.784374 213.09688 27.846874Q214.28438 28.909374 214.3625 30.6125L212.64375 30.6125Q212.56563 29.596874 211.8625 28.940624Q211.175 28.26875 210.14375 28.26875Q208.76875 28.26875 208.00313 29.26875Q207.25313 30.253124 207.25313 32.128124L207.25313 32.471874Q207.25313 34.3 208.00313 35.284374Q208.75313 36.26875 210.15938 36.26875ZM218.3625 24.425L218.3625 26.9875L220.34688 26.9875L220.34688 28.378124L218.3625 28.378124L218.3625 34.925Q218.3625 35.565624 218.62813 35.89375Q218.89375 36.20625 219.53438 36.20625Q219.84688 36.20625 220.39375 36.08125L220.39375 37.55Q219.675 37.753124 219.00313 37.753124Q217.8 37.753124 217.175 37.01875Q216.56563 36.284374 216.56563 34.925L216.56563 28.378124L214.64375 28.378124L214.64375 26.9875L216.56563 26.9875L216.56563 24.425L218.3625 24.425ZM227.3 37.753124Q225.15938 37.753124 223.8 36.346874Q222.45625 34.925 222.45625 32.565624L222.45625 32.221874Q222.45625 30.659374 223.05 29.425Q223.65938 28.190624 224.7375 27.4875Q225.81563 26.784374 227.08125 26.784374Q229.14375 26.784374 230.28438 28.14375Q231.425 29.503124 231.425 32.034374L231.425 32.784374L224.26875 32.784374Q224.3 34.346874 225.175 35.315624Q226.05 36.26875 227.39375 36.26875Q228.3625 36.26875 229.01875 35.878124Q229.69063 35.4875 230.19063 34.846874L231.28438 35.70625Q229.95625 37.753124 227.3 37.753124ZM227.08125 28.26875Q225.9875 28.26875 225.2375 29.065624Q224.50313 29.8625 224.33125 31.3L229.6125 31.3L229.6125 31.159374Q229.53438 29.784374 228.8625 29.034374Q228.20625 28.26875 227.08125 28.26875ZM233.47188 32.175Q233.47188 29.753124 234.62813 28.26875Q235.78438 26.784374 237.64375 26.784374Q239.50313 26.784374 240.58125 28.05L240.58125 22.55L242.39375 22.55L242.39375 37.55L240.7375 37.55L240.64375 36.409374Q239.56563 37.753124 237.62813 37.753124Q235.8 37.753124 234.62813 36.253124Q233.47188 34.7375 233.47188 32.315624L233.47188 32.175ZM235.28438 32.378124Q235.28438 34.175 236.01875 35.190624Q236.76875 36.20625 238.08125 36.20625Q239.8 36.20625 240.58125 34.675L240.58125 29.815624Q239.78438 28.315624 238.09688 28.315624Q236.76875 28.315624 236.01875 29.346874Q235.28438 30.378124 235.28438 32.378124ZM252.3625 24.425L252.3625 26.9875L254.34688 26.9875L254.34688 28.378124L252.3625 28.378124L252.3625 34.925Q252.3625 35.565624 252.62813 35.89375Q252.89375 36.20625 253.53438 36.20625Q253.84688 36.20625 254.39375 36.08125L254.39375 37.55Q253.675 37.753124 253.00313 37.753124Q251.8 37.753124 251.175 37.01875Q250.56563 36.284374 250.56563 34.925L250.56563 28.378124L248.64375 28.378124L248.64375 26.9875L250.56563 26.9875L250.56563 24.425L252.3625 24.425ZM256.4406 32.175Q256.4406 30.6125 257.05 29.378124Q257.65936 28.128124 258.7375 27.45625Q259.83124 26.784374 261.2375 26.784374Q263.39374 26.784374 264.72186 28.284374Q266.0656 29.76875 266.0656 32.253124L266.0656 32.378124Q266.0656 33.925 265.47186 35.159374Q264.8781 36.378124 263.76874 37.065624Q262.675 37.753124 261.2531 37.753124Q259.1125 37.753124 257.76874 36.253124Q256.4406 34.753124 256.4406 32.3L256.4406 32.175ZM258.2531 32.378124Q258.2531 34.14375 259.0656 35.20625Q259.89374 36.26875 261.2531 36.26875Q262.6281 36.26875 263.4406 35.190624Q264.2531 34.1125 264.2531 32.175Q264.2531 30.425 263.425 29.346874Q262.59686 28.26875 261.2375 28.26875Q259.89374 28.26875 259.0656 29.33125Q258.2531 30.39375 258.2531 32.378124ZM279.4406 37.55Q279.28436 37.2375 279.1906 36.440624Q277.925 37.753124 276.175 37.753124Q274.6125 37.753124 273.6125 36.8625Q272.6125 35.971874 272.6125 34.6125Q272.6125 32.971874 273.8625 32.065624Q275.1281 31.14375 277.39374 31.14375L279.15936 31.14375L279.15936 30.315624Q279.15936 29.3625 278.58124 28.8Q278.01874 28.2375 276.925 28.2375Q275.95624 28.2375 275.3 28.7375Q274.64374 29.221874 274.64374 29.909374L272.83124 29.909374Q272.83124 29.128124 273.39374 28.39375Q273.95624 27.64375 274.90936 27.221874Q275.8781 26.784374 277.03436 26.784374Q278.8625 26.784374 279.89374 27.70625Q280.925 28.6125 280.97186 30.221874L280.97186 35.08125Q280.97186 36.534374 281.33124 37.39375L281.33124 37.55L279.4406 37.55ZM276.4406 36.175Q277.3 36.175 278.05 35.7375Q278.8156 35.3 279.15936 34.596874L279.15936 32.425L277.7375 32.425Q274.425 32.425 274.425 34.3625Q274.425 35.221874 274.9875 35.70625Q275.55 36.175 276.4406 36.175ZM291.6281 23.33125L296.26874 34.925L300.925 23.33125L303.34686 23.33125L303.34686 37.55L301.47186 37.55L301.47186 32.01875L301.65936 26.034374L296.9875 37.55L295.55 37.55L290.89374 26.065624L291.08124 32.01875L291.08124 37.55L289.20624 37.55L289.20624 23.33125L291.6281 23.33125ZM305.4406 32.175Q305.4406 30.6125 306.05 29.378124Q306.65936 28.128124 307.7375 27.45625Q308.83124 26.784374 310.2375 26.784374Q312.39374 26.784374 313.72186 28.284374Q315.0656 29.76875 315.0656 32.253124L315.0656 32.378124Q315.0656 33.925 314.47186 35.159374Q313.8781 36.378124 312.76874 37.065624Q311.675 37.753124 310.2531 37.753124Q308.1125 37.753124 306.76874 36.253124Q305.4406 34.753124 305.4406 32.3L305.4406 32.175ZM307.2531 32.378124Q307.2531 34.14375 308.0656 35.20625Q308.89374 36.26875 310.2531 36.26875Q311.6281 36.26875 312.4406 35.190624Q313.2531 34.1125 313.2531 32.175Q313.2531 30.425 312.425 29.346874Q311.59686 28.26875 310.2375 28.26875Q308.89374 28.26875 308.0656 29.33125Q307.2531 30.39375 307.2531 32.378124ZM319.3625 24.425L319.3625 26.9875L321.34686 26.9875L321.34686 28.378124L319.3625 28.378124L319.3625 34.925Q319.3625 35.565624 319.6281 35.89375Q319.89374 36.20625 320.53436 36.20625Q320.84686 36.20625 321.39374 36.08125L321.39374 37.55Q320.675 37.753124 320.0031 37.753124Q318.8 37.753124 318.175 37.01875Q317.5656 36.284374 317.5656 34.925L317.5656 28.378124L315.64374 28.378124L315.64374 26.9875L317.5656 26.9875L317.5656 24.425L319.3625 24.425ZM325.72186 28.26875Q326.925 26.784374 328.84686 26.784374Q332.20624 26.784374 332.22186 30.565624L332.22186 37.55L330.425 37.55L330.425 30.55Q330.40936 29.409374 329.89374 28.8625Q329.39374 28.315624 328.3 28.315624Q327.425 28.315624 326.7531 28.784374Q326.09686 29.253124 325.72186 30.01875L325.72186 37.55L323.925 37.55L323.925 22.55L325.72186 22.55L325.72186 28.26875ZM339.3 37.753124Q337.15936 37.753124 335.8 36.346874Q334.45624 34.925 334.45624 32.565624L334.45624 32.221874Q334.45624 30.659374 335.05 29.425Q335.65936 28.190624 336.7375 27.4875Q337.8156 26.784374 339.08124 26.784374Q341.14374 26.784374 342.28436 28.14375Q343.425 29.503124 343.425 32.034374L343.425 32.784374L336.26874 32.784374Q336.3 34.346874 337.175 35.315624Q338.05 36.26875 339.39374 36.26875Q340.3625 36.26875 341.01874 35.878124Q341.6906 35.4875 342.1906 34.846874L343.28436 35.70625Q341.95624 37.753124 339.3 37.753124ZM339.08124 28.26875Q337.9875 28.26875 337.2375 29.065624Q336.5031 29.8625 336.33124 31.3L341.6125 31.3L341.6125 31.159374Q341.53436 29.784374 340.8625 29.034374Q340.20624 28.26875 339.08124 28.26875ZM351.01874 28.596874Q350.6125 28.534374 350.14374 28.534374Q348.3625 28.534374 347.72186 30.05L347.72186 37.55L345.925 37.55L345.925 26.9875L347.675 26.9875L347.70624 28.20625Q348.59686 26.784374 350.22186 26.784374Q350.7531 26.784374 351.01874 26.925L351.01874 28.596874ZM361.8625 32.378124Q361.8625 34.8 360.7531 36.284374Q359.64374 37.753124 357.76874 37.753124Q355.7531 37.753124 354.65936 36.33125L354.58124 37.55L352.925 37.55L352.925 22.55L354.72186 22.55L354.72186 28.14375Q355.8156 26.784374 357.7375 26.784374Q359.65936 26.784374 360.7531 28.2375Q361.8625 29.690624 361.8625 32.221874L361.8625 32.378124ZM360.05 32.175Q360.05 30.33125 359.33124 29.33125Q358.6281 28.315624 357.3 28.315624Q355.5031 28.315624 354.72186 29.9875L354.72186 34.55Q355.55 36.20625 357.3156 36.20625Q358.6125 36.20625 359.33124 35.20625Q360.05 34.20625 360.05 32.175ZM363.4406 32.175Q363.4406 30.6125 364.05 29.378124Q364.65936 28.128124 365.7375 27.45625Q366.83124 26.784374 368.2375 26.784374Q370.39374 26.784374 371.72186 28.284374Q373.0656 29.76875 373.0656 32.253124L373.0656 32.378124Q373.0656 33.925 372.47186 35.159374Q371.8781 36.378124 370.76874 37.065624Q369.675 37.753124 368.2531 37.753124Q366.1125 37.753124 364.76874 36.253124Q363.4406 34.753124 363.4406 32.3L363.4406 32.175ZM365.2531 32.378124Q365.2531 34.14375 366.0656 35.20625Q366.89374 36.26875 368.2531 36.26875Q369.6281 36.26875 370.4406 35.190624Q371.2531 34.1125 371.2531 32.175Q371.2531 30.425 370.425 29.346874Q369.59686 28.26875 368.2375 28.26875Q366.89374 28.26875 366.0656 29.33125Q365.2531 30.39375 365.2531 32.378124ZM381.4406 37.55Q381.28436 37.2375 381.1906 36.440624Q379.925 37.753124 378.175 37.753124Q376.6125 37.753124 375.6125 36.8625Q374.6125 35.971874 374.6125 34.6125Q374.6125 32.971874 375.8625 32.065624Q377.1281 31.14375 379.39374 31.14375L381.15936 31.14375L381.15936 30.315624Q381.15936 29.3625 380.58124 28.8Q380.01874 28.2375 378.925 28.2375Q377.95624 28.2375 377.3 28.7375Q376.64374 29.221874 376.64374 29.909374L374.83124 29.909374Q374.83124 29.128124 375.39374 28.39375Q375.95624 27.64375 376.90936 27.221874Q377.8781 26.784374 379.03436 26.784374Q380.8625 26.784374 381.89374 27.70625Q382.925 28.6125 382.97186 30.221874L382.97186 35.08125Q382.97186 36.534374 383.33124 37.39375L383.33124 37.55L381.4406 37.55ZM378.4406 36.175Q379.3 36.175 380.05 35.7375Q380.8156 35.3 381.15936 34.596874L381.15936 32.425L379.7375 32.425Q376.425 32.425 376.425 34.3625Q376.425 35.221874 376.9875 35.70625Q377.55 36.175 378.4406 36.175ZM391.01874 28.596874Q390.6125 28.534374 390.14374 28.534374Q388.3625 28.534374 387.72186 30.05L387.72186 37.55L385.925 37.55L385.925 26.9875L387.675 26.9875L387.70624 28.20625Q388.59686 26.784374 390.22186 26.784374Q390.7531 26.784374 391.01874 26.925L391.01874 28.596874ZM392.47186 32.175Q392.47186 29.753124 393.6281 28.26875Q394.78436 26.784374 396.64374 26.784374Q398.5031 26.784374 399.58124 28.05L399.58124 22.55L401.39374 22.55L401.39374 37.55L399.7375 37.55L399.64374 36.409374Q398.5656 37.753124 396.6281 37.753124Q394.8 37.753124 393.6281 36.253124Q392.47186 34.7375 392.47186 32.315624L392.47186 32.175ZM394.28436 32.378124Q394.28436 34.175 395.01874 35.190624Q395.76874 36.20625 397.08124 36.20625Q398.8 36.20625 399.58124 34.675L399.58124 29.815624Q398.78436 28.315624 397.09686 28.315624Q395.76874 28.315624 395.01874 29.346874Q394.28436 30.378124 394.28436 32.378124Z" fill-rule="nonzero"/></svg>