<svg version="1.1" viewBox="0.0 0.0 600.0 371.0" fill="none" stroke="none" stroke-linecap="square" stroke-miterlimit="10" width="600" height="371" xmlns:xlink="http://www.w3.org/1999/xlink" xmlns="http://www.w3.org/2000/svg"><path fill="#ffffff" d="M0 0L600.0 0L600.0 371.0L0 371.0L0 0Z" fill-rule="nonzero"/><path stroke="#333333" stroke-width="1.0" stroke-linecap="butt" d="M85.5 89.5L85.5 298.5" fill-rule="nonzero"/><path stroke="#cccccc" stroke-width="1.0" stroke-linecap="butt" d="M184.5 89.5L184.5 298.5" fill-rule="nonzero"/><path stroke="#cccccc" stroke-width="1.0" stroke-linecap="butt" d="M283.5 89.5L283.5 298.5" fill-rule="nonzero"/><path stroke="#cccccc" stroke-width="1.0" stroke-linecap="butt" d="M383.5 89.5L383.5 298.5" fill-rule="nonzero"/><path stroke="#cccccc" stroke-width="1.0" stroke-linecap="butt" d="M482.5 89.5L482.5 298.5" fill-rule="nonzero"/><path stroke="#cccccc" stroke-width="1.0" stroke-linecap="butt" d="M581.5 89.5L581.5 298.5" fill-rule="nonzero"/><path stroke="#333333" stroke-width="1.0" stroke-linecap="butt" d="M85.5 298.5L581.5 298.5" fill-rule="nonzero"/><path stroke="#cccccc" stroke-width="1.0" stroke-linecap="butt" d="M85.5 228.5L581.5 228.5" fill-rule="nonzero"/><path stroke="#cccccc" stroke-width="1.0" stroke-linecap="butt" d="M85.5 159.5L581.5 159.5" fill-rule="nonzero"/><path stroke="#cccccc" stroke-width="1.0" stroke-linecap="butt" d="M85.5 89.5L581.5 89.5" fill-rule="nonzero"/><clipPath id="id_0"><path d="M85.55 89.78333L581.45 89.78333L581.45 298.45L85.55 298.45L85.55 89.78333Z" clip-rule="nonzero"/></clipPath><path stroke="#4285f4" stroke-width="2.0" stroke-linecap="butt" clip-path="url(#id_0)" d="M85.55 298.45L95.468 298.45L105.386 298.45L115.304 298.45L125.222 298.45L135.14 298.45L145.058 298.45L154.976 298.45L164.894 298.45L174.812 298.45L184.73 298.45L194.648 276.33133L204.566 254.35178L214.484 240.57977L224.402 232.23311L234.32 226.11223L244.238 220.54778L254.156 215.26155L264.074 209.83623L273.992 204.55L283.91 199.6811L293.828 195.09044L303.746 190.36067L313.664 185.77L323.582 181.8749L333.5 177.97978L343.418 173.66733L353.336 169.77222L363.254 165.8771L373.172 162.26022L383.09 158.226L393.008 155.16556L402.926 151.40956L412.844 147.51445L422.762 144.03667L432.68 140.698L442.598 137.22021L452.516 134.29889L462.434 130.5429L472.352 127.760666L482.27 124.97845L492.188 122.05711L502.106 118.57933L512.024 115.51889L521.942 113.01489L531.86 109.954445L541.778 106.47667L551.696 104.52911L561.614 103.277115L571.532 103.277115L581.45 103.277115" fill-rule="nonzero"/><path stroke="#db4437" stroke-width="2.0" stroke-linecap="butt" clip-path="url(#id_0)" d="M95.468 298.45L105.386 298.45L115.304 298.45L125.222 298.45L135.14 298.45L145.058 298.45L154.976 298.45L164.894 298.45L174.812 298.45L184.73 298.45L194.648 276.33133L204.566 276.47046L214.484 284.678L224.402 290.10333L234.32 292.3291L244.238 292.88556L254.156 293.1638L264.074 293.02466L273.992 293.1638L283.91 293.58112L293.828 293.85934L303.746 293.7202L313.664 293.85934L323.582 294.5549L333.5 294.5549L343.418 294.13754L353.336 294.5549L363.254 294.5549L373.172 294.8331L383.09 294.41577L393.008 295.38956L402.926 294.694L412.844 294.5549L422.762 294.97223L432.68 295.11133L442.598 294.97223L452.516 295.52866L462.434 294.694L472.352 295.6678L482.27 295.6678L492.188 295.52866L502.106 294.97223L512.024 295.38956L521.942 295.946L531.86 295.38956L541.778 294.97223L551.696 296.50244L561.614 297.198L571.532 298.45L581.45 298.45" fill-rule="nonzero"/><path fill="#000000" fill-opacity="0.0" clip-path="url(#id_0)" d="M88.55 298.45C88.55 300.10684 87.206856 301.45 85.55 301.45C83.89314 301.45 82.55 300.10684 82.55 298.45C82.55 296.79315 83.89314 295.45 85.55 295.45C87.206856 295.45 88.55 296.79315 88.55 298.45Z" fill-rule="nonzero"/><path fill="#000000" fill-opacity="0.0" clip-path="url(#id_0)" d="M98.468 298.45C98.468 300.10684 97.124855 301.45 95.468 301.45C93.81114 301.45 92.468 300.10684 92.468 298.45C92.468 296.79315 93.81114 295.45 95.468 295.45C97.124855 295.45 98.468 296.79315 98.468 298.45Z" fill-rule="nonzero"/><path fill="#000000" fill-opacity="0.0" clip-path="url(#id_0)" d="M108.386 298.45C108.386 300.10684 107.042854 301.45 105.386 301.45C103.72915 301.45 102.386 300.10684 102.386 298.45C102.386 296.79315 103.72915 295.45 105.386 295.45C107.042854 295.45 108.386 296.79315 108.386 298.45Z" fill-rule="nonzero"/><path fill="#000000" fill-opacity="0.0" clip-path="url(#id_0)" d="M118.304 298.45C118.304 300.10684 116.96085 301.45 115.304 301.45C113.64715 301.45 112.304 300.10684 112.304 298.45C112.304 296.79315 113.64715 295.45 115.304 295.45C116.96085 295.45 118.304 296.79315 118.304 298.45Z" fill-rule="nonzero"/><path fill="#000000" fill-opacity="0.0" clip-path="url(#id_0)" d="M128.222 298.45C128.222 300.10684 126.87885 301.45 125.222 301.45C123.56515 301.45 122.222 300.10684 122.222 298.45C122.222 296.79315 123.56515 295.45 125.222 295.45C126.87885 295.45 128.222 296.79315 128.222 298.45Z" fill-rule="nonzero"/><path fill="#000000" fill-opacity="0.0" clip-path="url(#id_0)" d="M138.14 298.45C138.14 300.10684 136.79686 301.45 135.14 301.45C133.48314 301.45 132.14 300.10684 132.14 298.45C132.14 296.79315 133.48314 295.45 135.14 295.45C136.79686 295.45 138.14 296.79315 138.14 298.45Z" fill-rule="nonzero"/><path fill="#000000" fill-opacity="0.0" clip-path="url(#id_0)" d="M148.058 298.45C148.058 300.10684 146.71486 301.45 145.058 301.45C143.40114 301.45 142.058 300.10684 142.058 298.45C142.058 296.79315 143.40114 295.45 145.058 295.45C146.71486 295.45 148.058 296.79315 148.058 298.45Z" fill-rule="nonzero"/><path fill="#000000" fill-opacity="0.0" clip-path="url(#id_0)" d="M157.976 298.45C157.976 300.10684 156.63286 301.45 154.976 301.45C153.31915 301.45 151.976 300.10684 151.976 298.45C151.976 296.79315 153.31915 295.45 154.976 295.45C156.63286 295.45 157.976 296.79315 157.976 298.45Z" fill-rule="nonzero"/><path fill="#000000" fill-opacity="0.0" clip-path="url(#id_0)" d="M167.894 298.45C167.894 300.10684 166.55086 301.45 164.894 301.45C163.23715 301.45 161.894 300.10684 161.894 298.45C161.894 296.79315 163.23715 295.45 164.894 295.45C166.55086 295.45 167.894 296.79315 167.894 298.45Z" fill-rule="nonzero"/><path fill="#000000" fill-opacity="0.0" clip-path="url(#id_0)" d="M177.812 298.45C177.812 300.10684 176.46886 301.45 174.812 301.45C173.15515 301.45 171.812 300.10684 171.812 298.45C171.812 296.79315 173.15515 295.45 174.812 295.45C176.46886 295.45 177.812 296.79315 177.812 298.45Z" fill-rule="nonzero"/><path fill="#000000" fill-opacity="0.0" clip-path="url(#id_0)" d="M187.73 298.45C187.73 300.10684 186.38686 301.45 184.73 301.45C183.07315 301.45 181.73 300.10684 181.73 298.45C181.73 296.79315 183.07315 295.45 184.73 295.45C186.38686 295.45 187.73 296.79315 187.73 298.45Z" fill-rule="nonzero"/><path fill="#000000" fill-opacity="0.0" clip-path="url(#id_0)" d="M197.648 276.33133C197.648 277.9882 196.30486 279.33133 194.648 279.33133C192.99115 279.33133 191.648 277.9882 191.648 276.33133C191.648 274.67447 192.99115 273.33133 194.648 273.33133C196.30486 273.33133 197.648 274.67447 197.648 276.33133Z" fill-rule="nonzero"/><path fill="#000000" fill-opacity="0.0" clip-path="url(#id_0)" d="M207.566 254.35178C207.566 256.00864 206.22285 257.35178 204.566 257.35178C202.90915 257.35178 201.566 256.00864 201.566 254.35178C201.566 252.69493 202.90915 251.35178 204.566 251.35178C206.22285 251.35178 207.566 252.69493 207.566 254.35178Z" fill-rule="nonzero"/><path fill="#000000" fill-opacity="0.0" clip-path="url(#id_0)" d="M217.484 240.57977C217.484 242.23663 216.14085 243.57977 214.484 243.57977C212.82715 243.57977 211.484 242.23663 211.484 240.57977C211.484 238.92293 212.82715 237.57977 214.484 237.57977C216.14085 237.57977 217.484 238.92293 217.484 240.57977Z" fill-rule="nonzero"/><path fill="#000000" fill-opacity="0.0" clip-path="url(#id_0)" d="M227.402 232.23311C227.402 233.88997 226.05885 235.23311 224.402 235.23311C222.74515 235.23311 221.402 233.88997 221.402 232.23311C221.402 230.57626 222.74515 229.23311 224.402 229.23311C226.05885 229.23311 227.402 230.57626 227.402 232.23311Z" fill-rule="nonzero"/><path fill="#000000" fill-opacity="0.0" clip-path="url(#id_0)" d="M237.32 226.11223C237.32 227.76907 235.97685 229.11223 234.32 229.11223C232.66315 229.11223 231.32 227.76907 231.32 226.11223C231.32 224.45537 232.66315 223.11223 234.32 223.11223C235.97685 223.11223 237.32 224.45537 237.32 226.11223Z" fill-rule="nonzero"/><path fill="#000000" fill-opacity="0.0" clip-path="url(#id_0)" d="M247.238 220.54778C247.238 222.20464 245.89485 223.54778 244.238 223.54778C242.58115 223.54778 241.238 222.20464 241.238 220.54778C241.238 218.89093 242.58115 217.54778 244.238 217.54778C245.89485 217.54778 247.238 218.89093 247.238 220.54778Z" fill-rule="nonzero"/><path fill="#000000" fill-opacity="0.0" clip-path="url(#id_0)" d="M257.156 215.26155C257.156 216.91841 255.81285 218.26155 254.156 218.26155C252.49915 218.26155 251.156 216.91841 251.156 215.26155C251.156 213.6047 252.49915 212.26155 254.156 212.26155C255.81285 212.26155 257.156 213.6047 257.156 215.26155Z" fill-rule="nonzero"/><path fill="#000000" fill-opacity="0.0" clip-path="url(#id_0)" d="M267.074 209.83623C267.074 211.49307 265.73087 212.83623 264.074 212.83623C262.41714 212.83623 261.074 211.49307 261.074 209.83623C261.074 208.17937 262.41714 206.83623 264.074 206.83623C265.73087 206.83623 267.074 208.17937 267.074 209.83623Z" fill-rule="nonzero"/><path fill="#000000" fill-opacity="0.0" clip-path="url(#id_0)" d="M276.992 204.55C276.992 206.20685 275.64886 207.55 273.992 207.55C272.33514 207.55 270.992 206.20685 270.992 204.55C270.992 202.89314 272.33514 201.55 273.992 201.55C275.64886 201.55 276.992 202.89314 276.992 204.55Z" fill-rule="nonzero"/><path fill="#000000" fill-opacity="0.0" clip-path="url(#id_0)" d="M286.91 199.6811C286.91 201.33797 285.56686 202.6811 283.91 202.6811C282.25314 202.6811 280.91 201.33797 280.91 199.6811C280.91 198.02426 282.25314 196.6811 283.91 196.6811C285.56686 196.6811 286.91 198.02426 286.91 199.6811Z" fill-rule="nonzero"/><path fill="#000000" fill-opacity="0.0" clip-path="url(#id_0)" d="M296.828 195.09044C296.828 196.7473 295.48486 198.09044 293.828 198.09044C292.17114 198.09044 290.828 196.7473 290.828 195.09044C290.828 193.4336 292.17114 192.09044 293.828 192.09044C295.48486 192.09044 296.828 193.4336 296.828 195.09044Z" fill-rule="nonzero"/><path fill="#000000" fill-opacity="0.0" clip-path="url(#id_0)" d="M306.746 190.36067C306.746 192.01752 305.40286 193.36067 303.746 193.36067C302.08914 193.36067 300.746 192.01752 300.746 190.36067C300.746 188.70381 302.08914 187.36067 303.746 187.36067C305.40286 187.36067 306.746 188.70381 306.746 190.36067Z" fill-rule="nonzero"/><path fill="#000000" fill-opacity="0.0" clip-path="url(#id_0)" d="M316.664 185.77C316.664 187.42685 315.32086 188.77 313.664 188.77C312.00714 188.77 310.664 187.42685 310.664 185.77C310.664 184.11314 312.00714 182.77 313.664 182.77C315.32086 182.77 316.664 184.11314 316.664 185.77Z" fill-rule="nonzero"/><path fill="#000000" fill-opacity="0.0" clip-path="url(#id_0)" d="M326.582 181.8749C326.582 183.53174 325.23886 184.8749 323.582 184.8749C321.92514 184.8749 320.582 183.53174 320.582 181.8749C320.582 180.21803 321.92514 178.8749 323.582 178.8749C325.23886 178.8749 326.582 180.21803 326.582 181.8749Z" fill-rule="nonzero"/><path fill="#000000" fill-opacity="0.0" clip-path="url(#id_0)" d="M336.5 177.97978C336.5 179.63663 335.15686 180.97978 333.5 180.97978C331.84314 180.97978 330.5 179.63663 330.5 177.97978C330.5 176.32292 331.84314 174.97978 333.5 174.97978C335.15686 174.97978 336.5 176.32292 336.5 177.97978Z" fill-rule="nonzero"/><path fill="#000000" fill-opacity="0.0" clip-path="url(#id_0)" d="M346.418 173.66733C346.418 175.32419 345.07486 176.66733 343.418 176.66733C341.76114 176.66733 340.418 175.32419 340.418 173.66733C340.418 172.01048 341.76114 170.66733 343.418 170.66733C345.07486 170.66733 346.418 172.01048 346.418 173.66733Z" fill-rule="nonzero"/><path fill="#000000" fill-opacity="0.0" clip-path="url(#id_0)" d="M356.336 169.77222C356.336 171.42908 354.99286 172.77222 353.336 172.77222C351.67914 172.77222 350.336 171.42908 350.336 169.77222C350.336 168.11537 351.67914 166.77222 353.336 166.77222C354.99286 166.77222 356.336 168.11537 356.336 169.77222Z" fill-rule="nonzero"/><path fill="#000000" fill-opacity="0.0" clip-path="url(#id_0)" d="M366.254 165.8771C366.254 167.53397 364.91086 168.8771 363.254 168.8771C361.59714 168.8771 360.254 167.53397 360.254 165.8771C360.254 164.22026 361.59714 162.8771 363.254 162.8771C364.91086 162.8771 366.254 164.22026 366.254 165.8771Z" fill-rule="nonzero"/><path fill="#000000" fill-opacity="0.0" clip-path="url(#id_0)" d="M376.172 162.26022C376.172 163.91708 374.82886 165.26022 373.172 165.26022C371.51514 165.26022 370.172 163.91708 370.172 162.26022C370.172 160.60336 371.51514 159.26022 373.172 159.26022C374.82886 159.26022 376.172 160.60336 376.172 162.26022Z" fill-rule="nonzero"/><path fill="#000000" fill-opacity="0.0" clip-path="url(#id_0)" d="M386.09 158.226C386.09 159.88286 384.74686 161.226 383.09 161.226C381.43314 161.226 380.09 159.88286 380.09 158.226C380.09 156.56915 381.43314 155.226 383.09 155.226C384.74686 155.226 386.09 156.56915 386.09 158.226Z" fill-rule="nonzero"/><path fill="#000000" fill-opacity="0.0" clip-path="url(#id_0)" d="M396.008 155.16556C396.008 156.8224 394.66486 158.16556 393.008 158.16556C391.35114 158.16556 390.008 156.8224 390.008 155.16556C390.008 153.5087 391.35114 152.16556 393.008 152.16556C394.66486 152.16556 396.008 153.5087 396.008 155.16556Z" fill-rule="nonzero"/><path fill="#000000" fill-opacity="0.0" clip-path="url(#id_0)" d="M405.926 151.40956C405.926 153.0664 404.58286 154.40956 402.926 154.40956C401.26913 154.40956 399.926 153.0664 399.926 151.40956C399.926 149.7527 401.26913 148.40956 402.926 148.40956C404.58286 148.40956 405.926 149.7527 405.926 151.40956Z" fill-rule="nonzero"/><path fill="#000000" fill-opacity="0.0" clip-path="url(#id_0)" d="M415.844 147.51445C415.844 149.1713 414.50085 150.51445 412.844 150.51445C411.18713 150.51445 409.844 149.1713 409.844 147.51445C409.844 145.85759 411.18713 144.51445 412.844 144.51445C414.50085 144.51445 415.844 145.85759 415.844 147.51445Z" fill-rule="nonzero"/><path fill="#000000" fill-opacity="0.0" clip-path="url(#id_0)" d="M425.762 144.03667C425.762 145.69353 424.41885 147.03667 422.762 147.03667C421.10513 147.03667 419.762 145.69353 419.762 144.03667C419.762 142.3798 421.10513 141.03667 422.762 141.03667C424.41885 141.03667 425.762 142.3798 425.762 144.03667Z" fill-rule="nonzero"/><path fill="#000000" fill-opacity="0.0" clip-path="url(#id_0)" d="M435.68 140.698C435.68 142.35486 434.33685 143.698 432.68 143.698C431.02313 143.698 429.68 142.35486 429.68 140.698C429.68 139.04115 431.02313 137.698 432.68 137.698C434.33685 137.698 435.68 139.04115 435.68 140.698Z" fill-rule="nonzero"/><path fill="#000000" fill-opacity="0.0" clip-path="url(#id_0)" d="M445.598 137.22021C445.598 138.87708 444.25485 140.22021 442.598 140.22021C440.94113 140.22021 439.598 138.87708 439.598 137.22021C439.598 135.56337 440.94113 134.22021 442.598 134.22021C444.25485 134.22021 445.598 135.56337 445.598 137.22021Z" fill-rule="nonzero"/><path fill="#000000" fill-opacity="0.0" clip-path="url(#id_0)" d="M455.516 134.29889C455.516 135.95575 454.17285 137.29889 452.516 137.29889C450.85913 137.29889 449.516 135.95575 449.516 134.29889C449.516 132.64203 450.85913 131.29889 452.516 131.29889C454.17285 131.29889 455.516 132.64203 455.516 134.29889Z" fill-rule="nonzero"/><path fill="#000000" fill-opacity="0.0" clip-path="url(#id_0)" d="M465.434 130.5429C465.434 132.19974 464.09085 133.5429 462.434 133.5429C460.77716 133.5429 459.434 132.19974 459.434 130.5429C459.434 128.88603 460.77716 127.54289 462.434 127.54289C464.09085 127.54289 465.434 128.88603 465.434 130.5429Z" fill-rule="nonzero"/><path fill="#000000" fill-opacity="0.0" clip-path="url(#id_0)" d="M475.352 127.760666C475.352 129.41753 474.00885 130.76067 472.352 130.76067C470.69516 130.76067 469.352 129.41753 469.352 127.760666C469.352 126.10381 470.69516 124.760666 472.352 124.760666C474.00885 124.760666 475.352 126.10381 475.352 127.760666Z" fill-rule="nonzero"/><path fill="#000000" fill-opacity="0.0" clip-path="url(#id_0)" d="M485.27 124.97845C485.27 126.6353 483.92685 127.97845 482.27 127.97845C480.61316 127.97845 479.27 126.6353 479.27 124.97845C479.27 123.32159 480.61316 121.97845 482.27 121.97845C483.92685 121.97845 485.27 123.32159 485.27 124.97845Z" fill-rule="nonzero"/><path fill="#000000" fill-opacity="0.0" clip-path="url(#id_0)" d="M495.188 122.05711C495.188 123.71397 493.84485 125.05711 492.188 125.05711C490.53116 125.05711 489.188 123.71397 489.188 122.05711C489.188 120.40025 490.53116 119.05711 492.188 119.05711C493.84485 119.05711 495.188 120.40025 495.188 122.05711Z" fill-rule="nonzero"/><path fill="#000000" fill-opacity="0.0" clip-path="url(#id_0)" d="M505.106 118.57933C505.106 120.23619 503.76285 121.57933 502.106 121.57933C500.44916 121.57933 499.106 120.23619 499.106 118.57933C499.106 116.92248 500.44916 115.57933 502.106 115.57933C503.76285 115.57933 505.106 116.92248 505.106 118.57933Z" fill-rule="nonzero"/><path fill="#000000" fill-opacity="0.0" clip-path="url(#id_0)" d="M515.024 115.51889C515.024 117.17574 513.68085 118.51889 512.024 118.51889C510.36716 118.51889 509.024 117.17574 509.024 115.51889C509.024 113.86204 510.36716 112.51889 512.024 112.51889C513.68085 112.51889 515.024 113.86204 515.024 115.51889Z" fill-rule="nonzero"/><path fill="#000000" fill-opacity="0.0" clip-path="url(#id_0)" d="M524.942 113.01489C524.942 114.671745 523.5989 116.01489 521.942 116.01489C520.28516 116.01489 518.942 114.671745 518.942 113.01489C518.942 111.35803 520.28516 110.01489 521.942 110.01489C523.5989 110.01489 524.942 111.35803 524.942 113.01489Z" fill-rule="nonzero"/><path fill="#000000" fill-opacity="0.0" clip-path="url(#id_0)" d="M534.86 109.954445C534.86 111.6113 533.51685 112.954445 531.86 112.954445C530.2031 112.954445 528.86 111.6113 528.86 109.954445C528.86 108.29759 530.2031 106.954445 531.86 106.954445C533.51685 106.954445 534.86 108.29759 534.86 109.954445Z" fill-rule="nonzero"/><path fill="#000000" fill-opacity="0.0" clip-path="url(#id_0)" d="M544.778 106.47667C544.778 108.13352 543.4349 109.47667 541.778 109.47667C540.12115 109.47667 538.778 108.13352 538.778 106.47667C538.778 104.81981 540.12115 103.47667 541.778 103.47667C543.4349 103.47667 544.778 104.81981 544.778 106.47667Z" fill-rule="nonzero"/><path fill="#000000" fill-opacity="0.0" clip-path="url(#id_0)" d="M554.696 104.52911C554.696 106.18597 553.35284 107.52911 551.696 107.52911C550.0391 107.52911 548.696 106.18597 548.696 104.52911C548.696 102.87225 550.0391 101.52911 551.696 101.52911C553.35284 101.52911 554.696 102.87225 554.696 104.52911Z" fill-rule="nonzero"/><path fill="#000000" fill-opacity="0.0" clip-path="url(#id_0)" d="M564.614 103.277115C564.614 104.93397 563.2709 106.277115 561.614 106.277115C559.95715 106.277115 558.614 104.93397 558.614 103.277115C558.614 101.620255 559.95715 100.277115 561.614 100.277115C563.2709 100.277115 564.614 101.620255 564.614 103.277115Z" fill-rule="nonzero"/><path fill="#000000" fill-opacity="0.0" clip-path="url(#id_0)" d="M574.532 103.277115C574.532 104.93397 573.18884 106.277115 571.532 106.277115C569.8751 106.277115 568.532 104.93397 568.532 103.277115C568.532 101.620255 569.8751 100.277115 571.532 100.277115C573.18884 100.277115 574.532 101.620255 574.532 103.277115Z" fill-rule="nonzero"/><path fill="#000000" fill-opacity="0.0" clip-path="url(#id_0)" d="M584.45 103.277115C584.45 104.93397 583.1069 106.277115 581.45 106.277115C579.79315 106.277115 578.45 104.93397 578.45 103.277115C578.45 101.620255 579.79315 100.277115 581.45 100.277115C583.1069 100.277115 584.45 101.620255 584.45 103.277115Z" fill-rule="nonzero"/><path fill="#000000" fill-opacity="0.0" clip-path="url(#id_0)" d="M98.468 298.45C98.468 300.10684 97.124855 301.45 95.468 301.45C93.81114 301.45 92.468 300.10684 92.468 298.45C92.468 296.79315 93.81114 295.45 95.468 295.45C97.124855 295.45 98.468 296.79315 98.468 298.45Z" fill-rule="nonzero"/><path fill="#000000" fill-opacity="0.0" clip-path="url(#id_0)" d="M108.386 298.45C108.386 300.10684 107.042854 301.45 105.386 301.45C103.72915 301.45 102.386 300.10684 102.386 298.45C102.386 296.79315 103.72915 295.45 105.386 295.45C107.042854 295.45 108.386 296.79315 108.386 298.45Z" fill-rule="nonzero"/><path fill="#000000" fill-opacity="0.0" clip-path="url(#id_0)" d="M118.304 298.45C118.304 300.10684 116.96085 301.45 115.304 301.45C113.64715 301.45 112.304 300.10684 112.304 298.45C112.304 296.79315 113.64715 295.45 115.304 295.45C116.96085 295.45 118.304 296.79315 118.304 298.45Z" fill-rule="nonzero"/><path fill="#000000" fill-opacity="0.0" clip-path="url(#id_0)" d="M128.222 298.45C128.222 300.10684 126.87885 301.45 125.222 301.45C123.56515 301.45 122.222 300.10684 122.222 298.45C122.222 296.79315 123.56515 295.45 125.222 295.45C126.87885 295.45 128.222 296.79315 128.222 298.45Z" fill-rule="nonzero"/><path fill="#000000" fill-opacity="0.0" clip-path="url(#id_0)" d="M138.14 298.45C138.14 300.10684 136.79686 301.45 135.14 301.45C133.48314 301.45 132.14 300.10684 132.14 298.45C132.14 296.79315 133.48314 295.45 135.14 295.45C136.79686 295.45 138.14 296.79315 138.14 298.45Z" fill-rule="nonzero"/><path fill="#000000" fill-opacity="0.0" clip-path="url(#id_0)" d="M148.058 298.45C148.058 300.10684 146.71486 301.45 145.058 301.45C143.40114 301.45 142.058 300.10684 142.058 298.45C142.058 296.79315 143.40114 295.45 145.058 295.45C146.71486 295.45 148.058 296.79315 148.058 298.45Z" fill-rule="nonzero"/><path fill="#000000" fill-opacity="0.0" clip-path="url(#id_0)" d="M157.976 298.45C157.976 300.10684 156.63286 301.45 154.976 301.45C153.31915 301.45 151.976 300.10684 151.976 298.45C151.976 296.79315 153.31915 295.45 154.976 295.45C156.63286 295.45 157.976 296.79315 157.976 298.45Z" fill-rule="nonzero"/><path fill="#000000" fill-opacity="0.0" clip-path="url(#id_0)" d="M167.894 298.45C167.894 300.10684 166.55086 301.45 164.894 301.45C163.23715 301.45 161.894 300.10684 161.894 298.45C161.894 296.79315 163.23715 295.45 164.894 295.45C166.55086 295.45 167.894 296.79315 167.894 298.45Z" fill-rule="nonzero"/><path fill="#000000" fill-opacity="0.0" clip-path="url(#id_0)" d="M177.812 298.45C177.812 300.10684 176.46886 301.45 174.812 301.45C173.15515 301.45 171.812 300.10684 171.812 298.45C171.812 296.79315 173.15515 295.45 174.812 295.45C176.46886 295.45 177.812 296.79315 177.812 298.45Z" fill-rule="nonzero"/><path fill="#000000" fill-opacity="0.0" clip-path="url(#id_0)" d="M187.73 298.45C187.73 300.10684 186.38686 301.45 184.73 301.45C183.07315 301.45 181.73 300.10684 181.73 298.45C181.73 296.79315 183.07315 295.45 184.73 295.45C186.38686 295.45 187.73 296.79315 187.73 298.45Z" fill-rule="nonzero"/><path fill="#000000" fill-opacity="0.0" clip-path="url(#id_0)" d="M197.648 276.33133C197.648 277.9882 196.30486 279.33133 194.648 279.33133C192.99115 279.33133 191.648 277.9882 191.648 276.33133C191.648 274.67447 192.99115 273.33133 194.648 273.33133C196.30486 273.33133 197.648 274.67447 197.648 276.33133Z" fill-rule="nonzero"/><path fill="#000000" fill-opacity="0.0" clip-path="url(#id_0)" d="M207.566 276.47046C207.566 278.1273 206.22285 279.47046 204.566 279.47046C202.90915 279.47046 201.566 278.1273 201.566 276.47046C201.566 274.8136 202.90915 273.47046 204.566 273.47046C206.22285 273.47046 207.566 274.8136 207.566 276.47046Z" fill-rule="nonzero"/><path fill="#000000" fill-opacity="0.0" clip-path="url(#id_0)" d="M217.484 284.678C217.484 286.33487 216.14085 287.678 214.484 287.678C212.82715 287.678 211.484 286.33487 211.484 284.678C211.484 283.02115 212.82715 281.678 214.484 281.678C216.14085 281.678 217.484 283.02115 217.484 284.678Z" fill-rule="nonzero"/><path fill="#000000" fill-opacity="0.0" clip-path="url(#id_0)" d="M227.402 290.10333C227.402 291.7602 226.05885 293.10333 224.402 293.10333C222.74515 293.10333 221.402 291.7602 221.402 290.10333C221.402 288.44647 222.74515 287.10333 224.402 287.10333C226.05885 287.10333 227.402 288.44647 227.402 290.10333Z" fill-rule="nonzero"/><path fill="#000000" fill-opacity="0.0" clip-path="url(#id_0)" d="M237.32 292.3291C237.32 293.98596 235.97685 295.3291 234.32 295.3291C232.66315 295.3291 231.32 293.98596 231.32 292.3291C231.32 290.67227 232.66315 289.3291 234.32 289.3291C235.97685 289.3291 237.32 290.67227 237.32 292.3291Z" fill-rule="nonzero"/><path fill="#000000" fill-opacity="0.0" clip-path="url(#id_0)" d="M247.238 292.88556C247.238 294.54242 245.89485 295.88556 244.238 295.88556C242.58115 295.88556 241.238 294.54242 241.238 292.88556C241.238 291.2287 242.58115 289.88556 244.238 289.88556C245.89485 289.88556 247.238 291.2287 247.238 292.88556Z" fill-rule="nonzero"/><path fill="#000000" fill-opacity="0.0" clip-path="url(#id_0)" d="M257.156 293.1638C257.156 294.82062 255.81285 296.1638 254.156 296.1638C252.49915 296.1638 251.156 294.82062 251.156 293.1638C251.156 291.50693 252.49915 290.1638 254.156 290.1638C255.81285 290.1638 257.156 291.50693 257.156 293.1638Z" fill-rule="nonzero"/><path fill="#000000" fill-opacity="0.0" clip-path="url(#id_0)" d="M267.074 293.02466C267.074 294.68152 265.73087 296.02466 264.074 296.02466C262.41714 296.02466 261.074 294.68152 261.074 293.02466C261.074 291.3678 262.41714 290.02466 264.074 290.02466C265.73087 290.02466 267.074 291.3678 267.074 293.02466Z" fill-rule="nonzero"/><path fill="#000000" fill-opacity="0.0" clip-path="url(#id_0)" d="M276.992 293.1638C276.992 294.82062 275.64886 296.1638 273.992 296.1638C272.33514 296.1638 270.992 294.82062 270.992 293.1638C270.992 291.50693 272.33514 290.1638 273.992 290.1638C275.64886 290.1638 276.992 291.50693 276.992 293.1638Z" fill-rule="nonzero"/><path fill="#000000" fill-opacity="0.0" clip-path="url(#id_0)" d="M286.91 293.58112C286.91 295.23798 285.56686 296.58112 283.91 296.58112C282.25314 296.58112 280.91 295.23798 280.91 293.58112C280.91 291.92426 282.25314 290.58112 283.91 290.58112C285.56686 290.58112 286.91 291.92426 286.91 293.58112Z" fill-rule="nonzero"/><path fill="#000000" fill-opacity="0.0" clip-path="url(#id_0)" d="M296.828 293.85934C296.828 295.51617 295.48486 296.85934 293.828 296.85934C292.17114 296.85934 290.828 295.51617 290.828 293.85934C290.828 292.20248 292.17114 290.85934 293.828 290.85934C295.48486 290.85934 296.828 292.20248 296.828 293.85934Z" fill-rule="nonzero"/><path fill="#000000" fill-opacity="0.0" clip-path="url(#id_0)" d="M306.746 293.7202C306.746 295.37708 305.40286 296.7202 303.746 296.7202C302.08914 296.7202 300.746 295.37708 300.746 293.7202C300.746 292.06335 302.08914 290.7202 303.746 290.7202C305.40286 290.7202 306.746 292.06335 306.746 293.7202Z" fill-rule="nonzero"/><path fill="#000000" fill-opacity="0.0" clip-path="url(#id_0)" d="M316.664 293.85934C316.664 295.51617 315.32086 296.85934 313.664 296.85934C312.00714 296.85934 310.664 295.51617 310.664 293.85934C310.664 292.20248 312.00714 290.85934 313.664 290.85934C315.32086 290.85934 316.664 292.20248 316.664 293.85934Z" fill-rule="nonzero"/><path fill="#000000" fill-opacity="0.0" clip-path="url(#id_0)" d="M326.582 294.5549C326.582 296.21173 325.23886 297.5549 323.582 297.5549C321.92514 297.5549 320.582 296.21173 320.582 294.5549C320.582 292.89804 321.92514 291.5549 323.582 291.5549C325.23886 291.5549 326.582 292.89804 326.582 294.5549Z" fill-rule="nonzero"/><path fill="#000000" fill-opacity="0.0" clip-path="url(#id_0)" d="M336.5 294.5549C336.5 296.21173 335.15686 297.5549 333.5 297.5549C331.84314 297.5549 330.5 296.21173 330.5 294.5549C330.5 292.89804 331.84314 291.5549 333.5 291.5549C335.15686 291.5549 336.5 292.89804 336.5 294.5549Z" fill-rule="nonzero"/><path fill="#000000" fill-opacity="0.0" clip-path="url(#id_0)" d="M346.418 294.13754C346.418 295.7944 345.07486 297.13754 343.418 297.13754C341.76114 297.13754 340.418 295.7944 340.418 294.13754C340.418 292.4807 341.76114 291.13754 343.418 291.13754C345.07486 291.13754 346.418 292.4807 346.418 294.13754Z" fill-rule="nonzero"/><path fill="#000000" fill-opacity="0.0" clip-path="url(#id_0)" d="M356.336 294.5549C356.336 296.21173 354.99286 297.5549 353.336 297.5549C351.67914 297.5549 350.336 296.21173 350.336 294.5549C350.336 292.89804 351.67914 291.5549 353.336 291.5549C354.99286 291.5549 356.336 292.89804 356.336 294.5549Z" fill-rule="nonzero"/><path fill="#000000" fill-opacity="0.0" clip-path="url(#id_0)" d="M366.254 294.5549C366.254 296.21173 364.91086 297.5549 363.254 297.5549C361.59714 297.5549 360.254 296.21173 360.254 294.5549C360.254 292.89804 361.59714 291.5549 363.254 291.5549C364.91086 291.5549 366.254 292.89804 366.254 294.5549Z" fill-rule="nonzero"/><path fill="#000000" fill-opacity="0.0" clip-path="url(#id_0)" d="M376.172 294.8331C376.172 296.48996 374.82886 297.8331 373.172 297.8331C371.51514 297.8331 370.172 296.48996 370.172 294.8331C370.172 293.17627 371.51514 291.8331 373.172 291.8331C374.82886 291.8331 376.172 293.17627 376.172 294.8331Z" fill-rule="nonzero"/><path fill="#000000" fill-opacity="0.0" clip-path="url(#id_0)" d="M386.09 294.41577C386.09 296.07263 384.74686 297.41577 383.09 297.41577C381.43314 297.41577 380.09 296.07263 380.09 294.41577C380.09 292.7589 381.43314 291.41577 383.09 291.41577C384.74686 291.41577 386.09 292.7589 386.09 294.41577Z" fill-rule="nonzero"/><path fill="#000000" fill-opacity="0.0" clip-path="url(#id_0)" d="M396.008 295.38956C396.008 297.04642 394.66486 298.38956 393.008 298.38956C391.35114 298.38956 390.008 297.04642 390.008 295.38956C390.008 293.7327 391.35114 292.38956 393.008 292.38956C394.66486 292.38956 396.008 293.7327 396.008 295.38956Z" fill-rule="nonzero"/><path fill="#000000" fill-opacity="0.0" clip-path="url(#id_0)" d="M405.926 294.694C405.926 296.35086 404.58286 297.694 402.926 297.694C401.26913 297.694 399.926 296.35086 399.926 294.694C399.926 293.03714 401.26913 291.694 402.926 291.694C404.58286 291.694 405.926 293.03714 405.926 294.694Z" fill-rule="nonzero"/><path fill="#000000" fill-opacity="0.0" clip-path="url(#id_0)" d="M415.844 294.5549C415.844 296.21173 414.50085 297.5549 412.844 297.5549C411.18713 297.5549 409.844 296.21173 409.844 294.5549C409.844 292.89804 411.18713 291.5549 412.844 291.5549C414.50085 291.5549 415.844 292.89804 415.844 294.5549Z" fill-rule="nonzero"/><path fill="#000000" fill-opacity="0.0" clip-path="url(#id_0)" d="M425.762 294.97223C425.762 296.6291 424.41885 297.97223 422.762 297.97223C421.10513 297.97223 419.762 296.6291 419.762 294.97223C419.762 293.31537 421.10513 291.97223 422.762 291.97223C424.41885 291.97223 425.762 293.31537 425.762 294.97223Z" fill-rule="nonzero"/><path fill="#000000" fill-opacity="0.0" clip-path="url(#id_0)" d="M435.68 295.11133C435.68 296.7682 434.33685 298.11133 432.68 298.11133C431.02313 298.11133 429.68 296.7682 429.68 295.11133C429.68 293.45447 431.02313 292.11133 432.68 292.11133C434.33685 292.11133 435.68 293.45447 435.68 295.11133Z" fill-rule="nonzero"/><path fill="#000000" fill-opacity="0.0" clip-path="url(#id_0)" d="M445.598 294.97223C445.598 296.6291 444.25485 297.97223 442.598 297.97223C440.94113 297.97223 439.598 296.6291 439.598 294.97223C439.598 293.31537 440.94113 291.97223 442.598 291.97223C444.25485 291.97223 445.598 293.31537 445.598 294.97223Z" fill-rule="nonzero"/><path fill="#000000" fill-opacity="0.0" clip-path="url(#id_0)" d="M455.516 295.52866C455.516 297.18552 454.17285 298.52866 452.516 298.52866C450.85913 298.52866 449.516 297.18552 449.516 295.52866C449.516 293.87183 450.85913 292.52866 452.516 292.52866C454.17285 292.52866 455.516 293.87183 455.516 295.52866Z" fill-rule="nonzero"/><path fill="#000000" fill-opacity="0.0" clip-path="url(#id_0)" d="M465.434 294.694C465.434 296.35086 464.09085 297.694 462.434 297.694C460.77716 297.694 459.434 296.35086 459.434 294.694C459.434 293.03714 460.77716 291.694 462.434 291.694C464.09085 291.694 465.434 293.03714 465.434 294.694Z" fill-rule="nonzero"/><path fill="#000000" fill-opacity="0.0" clip-path="url(#id_0)" d="M475.352 295.6678C475.352 297.32465 474.00885 298.6678 472.352 298.6678C470.69516 298.6678 469.352 297.32465 469.352 295.6678C469.352 294.01093 470.69516 292.6678 472.352 292.6678C474.00885 292.6678 475.352 294.01093 475.352 295.6678Z" fill-rule="nonzero"/><path fill="#000000" fill-opacity="0.0" clip-path="url(#id_0)" d="M485.27 295.6678C485.27 297.32465 483.92685 298.6678 482.27 298.6678C480.61316 298.6678 479.27 297.32465 479.27 295.6678C479.27 294.01093 480.61316 292.6678 482.27 292.6678C483.92685 292.6678 485.27 294.01093 485.27 295.6678Z" fill-rule="nonzero"/><path fill="#000000" fill-opacity="0.0" clip-path="url(#id_0)" d="M495.188 295.52866C495.188 297.18552 493.84485 298.52866 492.188 298.52866C490.53116 298.52866 489.188 297.18552 489.188 295.52866C489.188 293.87183 490.53116 292.52866 492.188 292.52866C493.84485 292.52866 495.188 293.87183 495.188 295.52866Z" fill-rule="nonzero"/><path fill="#000000" fill-opacity="0.0" clip-path="url(#id_0)" d="M505.106 294.97223C505.106 296.6291 503.76285 297.97223 502.106 297.97223C500.44916 297.97223 499.106 296.6291 499.106 294.97223C499.106 293.31537 500.44916 291.97223 502.106 291.97223C503.76285 291.97223 505.106 293.31537 505.106 294.97223Z" fill-rule="nonzero"/><path fill="#000000" fill-opacity="0.0" clip-path="url(#id_0)" d="M515.024 295.38956C515.024 297.04642 513.68085 298.38956 512.024 298.38956C510.36716 298.38956 509.024 297.04642 509.024 295.38956C509.024 293.7327 510.36716 292.38956 512.024 292.38956C513.68085 292.38956 515.024 293.7327 515.024 295.38956Z" fill-rule="nonzero"/><path fill="#000000" fill-opacity="0.0" clip-path="url(#id_0)" d="M524.942 295.946C524.942 297.60284 523.5989 298.946 521.942 298.946C520.28516 298.946 518.942 297.60284 518.942 295.946C518.942 294.28915 520.28516 292.946 521.942 292.946C523.5989 292.946 524.942 294.28915 524.942 295.946Z" fill-rule="nonzero"/><path fill="#000000" fill-opacity="0.0" clip-path="url(#id_0)" d="M534.86 295.38956C534.86 297.04642 533.51685 298.38956 531.86 298.38956C530.2031 298.38956 528.86 297.04642 528.86 295.38956C528.86 293.7327 530.2031 292.38956 531.86 292.38956C533.51685 292.38956 534.86 293.7327 534.86 295.38956Z" fill-rule="nonzero"/><path fill="#000000" fill-opacity="0.0" clip-path="url(#id_0)" d="M544.778 294.97223C544.778 296.6291 543.4349 297.97223 541.778 297.97223C540.12115 297.97223 538.778 296.6291 538.778 294.97223C538.778 293.31537 540.12115 291.97223 541.778 291.97223C543.4349 291.97223 544.778 293.31537 544.778 294.97223Z" fill-rule="nonzero"/><path fill="#000000" fill-opacity="0.0" clip-path="url(#id_0)" d="M554.696 296.50244C554.696 298.1593 553.35284 299.50244 551.696 299.50244C550.0391 299.50244 548.696 298.1593 548.696 296.50244C548.696 294.84558 550.0391 293.50244 551.696 293.50244C553.35284 293.50244 554.696 294.84558 554.696 296.50244Z" fill-rule="nonzero"/><path fill="#000000" fill-opacity="0.0" clip-path="url(#id_0)" d="M564.614 297.198C564.614 298.85486 563.2709 300.198 561.614 300.198C559.95715 300.198 558.614 298.85486 558.614 297.198C558.614 295.54114 559.95715 294.198 561.614 294.198C563.2709 294.198 564.614 295.54114 564.614 297.198Z" fill-rule="nonzero"/><path fill="#000000" fill-opacity="0.0" clip-path="url(#id_0)" d="M574.532 298.45C574.532 300.10684 573.18884 301.45 571.532 301.45C569.8751 301.45 568.532 300.10684 568.532 298.45C568.532 296.79315 569.8751 295.45 571.532 295.45C573.18884 295.45 574.532 296.79315 574.532 298.45Z" fill-rule="nonzero"/><path fill="#000000" fill-opacity="0.0" clip-path="url(#id_0)" d="M584.45 298.45C584.45 300.10684 583.1069 301.45 581.45 301.45C579.79315 301.45 578.45 300.10684 578.45 298.45C578.45 296.79315 579.79315 295.45 581.45 295.45C583.1069 295.45 584.45 296.79315 584.45 298.45Z" fill-rule="nonzero"/><path fill="#424242" d="M321.10938 346.10626L321.10938 349.45L319.98438 349.45L319.98438 340.91876L323.14062 340.91876Q324.53125 340.91876 325.32812 341.6375Q326.125 342.34064 326.125 343.52814Q326.125 344.7625 325.34375 345.4344Q324.57812 346.10626 323.125 346.10626L321.10938 346.10626ZM321.10938 345.1844L323.14062 345.1844Q324.04688 345.1844 324.51562 344.7625Q325.0 344.34064 325.0 343.54376Q325.0 342.77814 324.51562 342.325Q324.04688 341.85626 323.20312 341.84064L321.10938 341.84064L321.10938 345.1844ZM329.82812 346.7625L330.0 347.8875L330.23438 346.8719L331.92188 340.91876L332.875 340.91876L334.51562 346.8719L334.75 347.90314L334.9375 346.7469L336.26562 340.91876L337.39062 340.91876L335.32812 349.45L334.29688 349.45L332.53125 343.23126L332.40625 342.575L332.26562 343.23126L330.45312 349.45L329.42188 349.45L327.35938 340.91876L328.48438 340.91876L329.82812 346.7625ZM340.4375 340.91876L343.23438 347.8719L346.01562 340.91876L347.48438 340.91876L347.48438 349.45L346.35938 349.45L346.35938 346.1219L346.46875 342.54376L343.65625 349.45L342.79688 349.45L340.0 342.5594L340.10938 346.1219L340.10938 349.45L338.98438 349.45L338.98438 340.91876L340.4375 340.91876Z" fill-rule="nonzero"/><path fill="#424242" d="M27.096888 209.24167L27.096888 211.2573L30.550013 211.2573L30.550013 212.3823L22.018763 212.3823L22.018763 209.55417Q22.018763 208.11667 22.675013 207.35104Q23.331263 206.5698 24.581263 206.5698Q25.378138 206.5698 25.971888 207.0073Q26.565638 207.42917 26.862513 208.1948L30.471888 206.1948L30.550013 206.1948L30.550013 207.39792L27.096888 209.24167ZM26.175013 211.2573L26.175013 209.52292Q26.175013 208.67917 25.753138 208.1948Q25.315638 207.6948 24.581263 207.6948Q23.800013 207.6948 23.378138 208.16354Q22.956263 208.6323 22.940638 209.52292L22.940638 211.2573L26.175013 211.2573ZM27.206263 204.2573L30.550013 204.2573L30.550013 205.3823L22.018763 205.3823L22.018763 202.22604Q22.018763 200.83542 22.737513 200.03854Q23.440638 199.24167 24.628138 199.24167Q25.862513 199.24167 26.534388 200.02292Q27.206263 200.78854 27.206263 202.24167L27.206263 204.2573ZM26.284388 204.2573L26.284388 202.22604Q26.284388 201.3198 25.862513 200.85104Q25.440638 200.36667 24.643763 200.36667Q23.878138 200.36667 23.425013 200.85104Q22.956263 201.3198 22.940638 202.16354L22.940638 204.2573L26.284388 204.2573ZM22.018763 195.92917L28.971888 193.1323L22.018763 190.35104L22.018763 188.8823L30.550013 188.8823L30.550013 190.0073L27.221888 190.0073L23.643763 189.89792L30.550013 192.71042L30.550013 193.5698L23.659388 196.36667L27.221888 196.2573L30.550013 196.2573L30.550013 197.3823L22.018763 197.3823L22.018763 195.92917Z" fill-rule="nonzero"/><path fill="#757575" d="M78.6125 299.3094Q78.6125 301.21564 77.95625 302.15314Q77.31563 303.075 75.925 303.075Q74.56563 303.075 73.90938 302.16876Q73.25313 301.2625 73.22188 299.45L73.22188 298.0125Q73.22188 296.1219 73.8625 295.21564Q74.51875 294.29376 75.90938 294.29376Q77.28438 294.29376 77.94063 295.1844Q78.59688 296.0594 78.6125 297.90314L78.6125 299.3094ZM77.51875 297.825Q77.51875 296.45 77.12813 295.825Q76.75313 295.1844 75.90938 295.1844Q75.08125 295.1844 74.69063 295.825Q74.31563 296.45 74.31563 297.7469L74.31563 299.48126Q74.31563 300.85626 74.70625 301.52814Q75.1125 302.1844 75.925 302.1844Q76.72188 302.1844 77.1125 301.5594Q77.50313 300.9344 77.51875 299.60626L77.51875 297.825Z" fill-rule="nonzero"/><path fill="#757575" d="M59.753124 229.11319L60.190624 224.86319L64.56563 224.86319L64.56563 225.86319L61.1125 225.86319L60.846874 228.19131Q61.4875 227.81631 62.284374 227.81631Q63.440624 227.81631 64.12813 228.59756Q64.81563 229.36319 64.81563 230.67569Q64.81563 231.98819 64.09688 232.75381Q63.39375 233.51944 62.1125 233.51944Q60.9875 233.51944 60.26875 232.89444Q59.55 232.25381 59.45625 231.14444L60.471874 231.14444Q60.58125 231.87881 61.003124 232.25381Q61.425 232.62881 62.1125 232.62881Q62.8625 232.62881 63.3 232.11319Q63.7375 231.59756 63.7375 230.69131Q63.7375 229.83194 63.26875 229.31631Q62.8 228.80069 62.01875 228.80069Q61.315624 228.80069 60.909374 229.09756L60.628124 229.33194L59.753124 229.11319ZM71.6125 229.75381Q71.6125 231.66006 70.95625 232.59756Q70.31563 233.51944 68.925 233.51944Q67.56563 233.51944 66.90938 232.61319Q66.25313 231.70694 66.22188 229.89444L66.22188 228.45694Q66.22188 226.56631 66.8625 225.66006Q67.51875 224.73819 68.90938 224.73819Q70.28438 224.73819 70.94063 225.62881Q71.59688 226.50381 71.6125 228.34756L71.6125 229.75381ZM70.51875 228.26944Q70.51875 226.89444 70.12813 226.26944Q69.75313 225.62881 68.90938 225.62881Q68.08125 225.62881 67.69063 226.26944Q67.31563 226.89444 67.31563 228.19131L67.31563 229.92569Q67.31563 231.30069 67.70625 231.97256Q68.1125 232.62881 68.925 232.62881Q69.72188 232.62881 70.1125 232.00381Q70.50313 231.37881 70.51875 230.05069L70.51875 228.26944ZM78.6125 229.75381Q78.6125 231.66006 77.95625 232.59756Q77.31563 233.51944 75.925 233.51944Q74.56563 233.51944 73.90938 232.61319Q73.25313 231.70694 73.22188 229.89444L73.22188 228.45694Q73.22188 226.56631 73.8625 225.66006Q74.51875 224.73819 75.90938 224.73819Q77.28438 224.73819 77.94063 225.62881Q78.59688 226.50381 78.6125 228.34756L78.6125 229.75381ZM77.51875 228.26944Q77.51875 226.89444 77.12813 226.26944Q76.75313 225.62881 75.90938 225.62881Q75.08125 225.62881 74.69063 226.26944Q74.31563 226.89444 74.31563 228.19131L74.31563 229.92569Q74.31563 231.30069 74.70625 231.97256Q75.1125 232.62881 75.925 232.62881Q76.72188 232.62881 77.1125 232.00381Q77.50313 231.37881 77.51875 230.05069L77.51875 228.26944Z" fill-rule="nonzero"/><path fill="#757575" d="M55.815624 163.83888L54.7375 163.83888L54.7375 156.62013L52.55 157.417L52.55 156.43263L55.659374 155.26076L55.815624 155.26076L55.815624 163.83888ZM64.6125 160.19826Q64.6125 162.1045 63.95625 163.042Q63.315624 163.96388 61.925 163.96388Q60.565624 163.96388 59.909374 163.05763Q59.253124 162.15138 59.221874 160.33888L59.221874 158.90138Q59.221874 157.01076 59.8625 156.1045Q60.51875 155.18263 61.909374 155.18263Q63.284374 155.18263 63.940624 156.07326Q64.59688 156.94826 64.6125 158.792L64.6125 160.19826ZM63.51875 158.71388Q63.51875 157.33888 63.128124 156.71388Q62.753124 156.07326 61.909374 156.07326Q61.08125 156.07326 60.690624 156.71388Q60.315624 157.33888 60.315624 158.63576L60.315624 160.37013Q60.315624 161.74513 60.70625 162.417Q61.1125 163.07326 61.925 163.07326Q62.721874 163.07326 63.1125 162.44826Q63.503124 161.82326 63.51875 160.49513L63.51875 158.71388ZM71.6125 160.19826Q71.6125 162.1045 70.95625 163.042Q70.31563 163.96388 68.925 163.96388Q67.56563 163.96388 66.90938 163.05763Q66.25313 162.15138 66.22188 160.33888L66.22188 158.90138Q66.22188 157.01076 66.8625 156.1045Q67.51875 155.18263 68.90938 155.18263Q70.28438 155.18263 70.94063 156.07326Q71.59688 156.94826 71.6125 158.792L71.6125 160.19826ZM70.51875 158.71388Q70.51875 157.33888 70.12813 156.71388Q69.75313 156.07326 68.90938 156.07326Q68.08125 156.07326 67.69063 156.71388Q67.31563 157.33888 67.31563 158.63576L67.31563 160.37013Q67.31563 161.74513 67.70625 162.417Q68.1125 163.07326 68.925 163.07326Q69.72188 163.07326 70.1125 162.44826Q70.50313 161.82326 70.51875 160.49513L70.51875 158.71388ZM78.6125 160.19826Q78.6125 162.1045 77.95625 163.042Q77.31563 163.96388 75.925 163.96388Q74.56563 163.96388 73.90938 163.05763Q73.25313 162.15138 73.22188 160.33888L73.22188 158.90138Q73.22188 157.01076 73.8625 156.1045Q74.51875 155.18263 75.90938 155.18263Q77.28438 155.18263 77.94063 156.07326Q78.59688 156.94826 78.6125 158.792L78.6125 160.19826ZM77.51875 158.71388Q77.51875 157.33888 77.12813 156.71388Q76.75313 156.07326 75.90938 156.07326Q75.08125 156.07326 74.69063 156.71388Q74.31563 157.33888 74.31563 158.63576L74.31563 160.37013Q74.31563 161.74513 74.70625 162.417Q75.1125 163.07326 75.925 163.07326Q76.72188 163.07326 77.1125 162.44826Q77.50313 161.82326 77.51875 160.49513L77.51875 158.71388Z" fill-rule="nonzero"/><path fill="#757575" d="M55.815624 94.28333L54.7375 94.28333L54.7375 87.06458L52.55 87.86146L52.55 86.87708L55.659374 85.70521L55.815624 85.70521L55.815624 94.28333ZM59.753124 90.00208L60.190624 85.75208L64.56563 85.75208L64.56563 86.75208L61.1125 86.75208L60.846874 89.08021Q61.4875 88.70521 62.284374 88.70521Q63.440624 88.70521 64.12813 89.48646Q64.81563 90.25208 64.81563 91.56458Q64.81563 92.87708 64.09688 93.64271Q63.39375 94.40833 62.1125 94.40833Q60.9875 94.40833 60.26875 93.78333Q59.55 93.14271 59.45625 92.03333L60.471874 92.03333Q60.58125 92.76771 61.003124 93.14271Q61.425 93.51771 62.1125 93.51771Q62.8625 93.51771 63.3 93.00208Q63.7375 92.48646 63.7375 91.58021Q63.7375 90.72083 63.26875 90.20521Q62.8 89.68958 62.01875 89.68958Q61.315624 89.68958 60.909374 89.98646L60.628124 90.22083L59.753124 90.00208ZM71.6125 90.64271Q71.6125 92.54896 70.95625 93.48646Q70.31563 94.40833 68.925 94.40833Q67.56563 94.40833 66.90938 93.50208Q66.25313 92.59583 66.22188 90.78333L66.22188 89.34583Q66.22188 87.45521 66.8625 86.54896Q67.51875 85.62708 68.90938 85.62708Q70.28438 85.62708 70.94063 86.51771Q71.59688 87.39271 71.6125 89.23646L71.6125 90.64271ZM70.51875 89.15833Q70.51875 87.78333 70.12813 87.15833Q69.75313 86.51771 68.90938 86.51771Q68.08125 86.51771 67.69063 87.15833Q67.31563 87.78333 67.31563 89.08021L67.31563 90.81458Q67.31563 92.18958 67.70625 92.86146Q68.1125 93.51771 68.925 93.51771Q69.72188 93.51771 70.1125 92.89271Q70.50313 92.26771 70.51875 90.93958L70.51875 89.15833ZM78.6125 90.64271Q78.6125 92.54896 77.95625 93.48646Q77.31563 94.40833 75.925 94.40833Q74.56563 94.40833 73.90938 93.50208Q73.25313 92.59583 73.22188 90.78333L73.22188 89.34583Q73.22188 87.45521 73.8625 86.54896Q74.51875 85.62708 75.90938 85.62708Q77.28438 85.62708 77.94063 86.51771Q78.59688 87.39271 78.6125 89.23646L78.6125 90.64271ZM77.51875 89.15833Q77.51875 87.78333 77.12813 87.15833Q76.75313 86.51771 75.90938 86.51771Q75.08125 86.51771 74.69063 87.15833Q74.31563 87.78333 74.31563 89.08021L74.31563 90.81458Q74.31563 92.18958 74.70625 92.86146Q75.1125 93.51771 75.925 93.51771Q76.72188 93.51771 77.1125 92.89271Q77.50313 92.26771 77.51875 90.93958L77.51875 89.15833Z" fill-rule="nonzero"/><path fill="#757575" d="M88.1125 312.8094Q88.1125 314.71564 87.45625 315.65314Q86.81563 316.575 85.425 316.575Q84.06563 316.575 83.40938 315.66876Q82.75313 314.7625 82.72188 312.95L82.72188 311.5125Q82.72188 309.6219 83.3625 308.71564Q84.01875 307.79376 85.40938 307.79376Q86.78438 307.79376 87.44063 308.6844Q88.09688 309.5594 88.1125 311.40314L88.1125 312.8094ZM87.01875 311.325Q87.01875 309.95 86.62813 309.325Q86.25313 308.6844 85.40938 308.6844Q84.58125 308.6844 84.19063 309.325Q83.81563 309.95 83.81563 311.2469L83.81563 312.98126Q83.81563 314.35626 84.20625 315.02814Q84.6125 315.6844 85.425 315.6844Q86.22188 315.6844 86.6125 315.0594Q87.00313 314.4344 87.01875 313.10626L87.01875 311.325Z" fill-rule="nonzero"/><path fill="#757575" d="M178.93312 312.16876L179.37062 307.91876L183.74562 307.91876L183.74562 308.91876L180.2925 308.91876L180.02687 311.2469Q180.6675 310.8719 181.46437 310.8719Q182.62062 310.8719 183.30812 311.65314Q183.99562 312.41876 183.99562 313.73126Q183.99562 315.04376 183.27687 315.8094Q182.57375 316.575 181.2925 316.575Q180.1675 316.575 179.44875 315.95Q178.73 315.3094 178.63625 314.2L179.65187 314.2Q179.76125 314.9344 180.18312 315.3094Q180.605 315.6844 181.2925 315.6844Q182.0425 315.6844 182.48 315.16876Q182.9175 314.65314 182.9175 313.7469Q182.9175 312.8875 182.44875 312.3719Q181.98 311.85626 181.19875 311.85626Q180.49562 311.85626 180.08937 312.15314L179.80812 312.3875L178.93312 312.16876ZM190.7925 312.8094Q190.7925 314.71564 190.13625 315.65314Q189.49562 316.575 188.105 316.575Q186.74562 316.575 186.08937 315.66876Q185.43312 314.7625 185.40187 312.95L185.40187 311.5125Q185.40187 309.6219 186.0425 308.71564Q186.69875 307.79376 188.08937 307.79376Q189.46437 307.79376 190.12062 308.6844Q190.77687 309.5594 190.7925 311.40314L190.7925 312.8094ZM189.69875 311.325Q189.69875 309.95 189.30812 309.325Q188.93312 308.6844 188.08937 308.6844Q187.26125 308.6844 186.87062 309.325Q186.49562 309.95 186.49562 311.2469L186.49562 312.98126Q186.49562 314.35626 186.88625 315.02814Q187.2925 315.6844 188.105 315.6844Q188.90187 315.6844 189.2925 315.0594Q189.68312 314.4344 189.69875 313.10626L189.69875 311.325Z" fill-rule="nonzero"/><path fill="#757575" d="M277.67563 316.45L276.5975 316.45L276.5975 309.23126L274.41 310.02814L274.41 309.04376L277.51938 307.8719L277.67563 307.8719L277.67563 316.45ZM286.4725 312.8094Q286.4725 314.71564 285.81625 315.65314Q285.17563 316.575 283.785 316.575Q282.42563 316.575 281.76938 315.66876Q281.11313 314.7625 281.08188 312.95L281.08188 311.5125Q281.08188 309.6219 281.7225 308.71564Q282.37875 307.79376 283.76938 307.79376Q285.14438 307.79376 285.80063 308.6844Q286.45688 309.5594 286.4725 311.40314L286.4725 312.8094ZM285.37875 311.325Q285.37875 309.95 284.98813 309.325Q284.61313 308.6844 283.76938 308.6844Q282.94125 308.6844 282.55063 309.325Q282.17563 309.95 282.17563 311.2469L282.17563 312.98126Q282.17563 314.35626 282.56625 315.02814Q282.9725 315.6844 283.785 315.6844Q284.58188 315.6844 284.9725 315.0594Q285.36313 314.4344 285.37875 313.10626L285.37875 311.325ZM293.4725 312.8094Q293.4725 314.71564 292.81625 315.65314Q292.17563 316.575 290.785 316.575Q289.42563 316.575 288.76938 315.66876Q288.11313 314.7625 288.08188 312.95L288.08188 311.5125Q288.08188 309.6219 288.7225 308.71564Q289.37875 307.79376 290.76938 307.79376Q292.14438 307.79376 292.80063 308.6844Q293.45688 309.5594 293.4725 311.40314L293.4725 312.8094ZM292.37875 311.325Q292.37875 309.95 291.98813 309.325Q291.61313 308.6844 290.76938 308.6844Q289.94125 308.6844 289.55063 309.325Q289.17563 309.95 289.17563 311.2469L289.17563 312.98126Q289.17563 314.35626 289.56625 315.02814Q289.9725 315.6844 290.785 315.6844Q291.58188 315.6844 291.9725 315.0594Q292.36313 314.4344 292.37875 313.10626L292.37875 311.325Z" fill-rule="nonzero"/><path fill="#757575" d="M376.85562 316.45L375.7775 316.45L375.7775 309.23126L373.59 310.02814L373.59 309.04376L376.69937 307.8719L376.85562 307.8719L376.85562 316.45ZM380.79312 312.16876L381.23062 307.91876L385.60562 307.91876L385.60562 308.91876L382.1525 308.91876L381.88687 311.2469Q382.5275 310.8719 383.32437 310.8719Q384.48062 310.8719 385.16812 311.65314Q385.85562 312.41876 385.85562 313.73126Q385.85562 315.04376 385.13687 315.8094Q384.43375 316.575 383.1525 316.575Q382.0275 316.575 381.30875 315.95Q380.59 315.3094 380.49625 314.2L381.51187 314.2Q381.62125 314.9344 382.04312 315.3094Q382.465 315.6844 383.1525 315.6844Q383.9025 315.6844 384.34 315.16876Q384.7775 314.65314 384.7775 313.7469Q384.7775 312.8875 384.30875 312.3719Q383.84 311.85626 383.05875 311.85626Q382.35562 311.85626 381.94937 312.15314L381.66812 312.3875L380.79312 312.16876ZM392.6525 312.8094Q392.6525 314.71564 391.99625 315.65314Q391.35562 316.575 389.965 316.575Q388.60562 316.575 387.94937 315.66876Q387.29312 314.7625 387.26187 312.95L387.26187 311.5125Q387.26187 309.6219 387.9025 308.71564Q388.55875 307.79376 389.94937 307.79376Q391.32437 307.79376 391.98062 308.6844Q392.63687 309.5594 392.6525 311.40314L392.6525 312.8094ZM391.55875 311.325Q391.55875 309.95 391.16812 309.325Q390.79312 308.6844 389.94937 308.6844Q389.12125 308.6844 388.73062 309.325Q388.35562 309.95 388.35562 311.2469L388.35562 312.98126Q388.35562 314.35626 388.74625 315.02814Q389.1525 315.6844 389.965 315.6844Q390.76187 315.6844 391.1525 315.0594Q391.54312 314.4344 391.55875 313.10626L391.55875 311.325Z" fill-rule="nonzero"/><path fill="#757575" d="M478.06686 316.45L472.4731 316.45L472.4731 315.66876L475.42624 312.3875Q476.0825 311.6375 476.3325 311.1844Q476.5825 310.71564 476.5825 310.21564Q476.5825 309.54376 476.17624 309.1219Q475.7856 308.6844 475.0981 308.6844Q474.30124 308.6844 473.8481 309.15314Q473.395 309.60626 473.395 310.4344L472.31686 310.4344Q472.31686 309.2469 473.06686 308.52814Q473.8325 307.79376 475.0981 307.79376Q476.30124 307.79376 476.98874 308.41876Q477.67624 309.04376 477.67624 310.09064Q477.67624 311.34064 476.06686 313.09064L473.7856 315.5594L478.06686 315.5594L478.06686 316.45ZM484.8325 312.8094Q484.8325 314.71564 484.17624 315.65314Q483.5356 316.575 482.145 316.575Q480.7856 316.575 480.12936 315.66876Q479.4731 314.7625 479.44186 312.95L479.44186 311.5125Q479.44186 309.6219 480.0825 308.71564Q480.73874 307.79376 482.12936 307.79376Q483.50436 307.79376 484.1606 308.6844Q484.81686 309.5594 484.8325 311.40314L484.8325 312.8094ZM483.73874 311.325Q483.73874 309.95 483.3481 309.325Q482.9731 308.6844 482.12936 308.6844Q481.30124 308.6844 480.9106 309.325Q480.5356 309.95 480.5356 311.2469L480.5356 312.98126Q480.5356 314.35626 480.92624 315.02814Q481.3325 315.6844 482.145 315.6844Q482.94186 315.6844 483.3325 315.0594Q483.7231 314.4344 483.73874 313.10626L483.73874 311.325ZM491.8325 312.8094Q491.8325 314.71564 491.17624 315.65314Q490.5356 316.575 489.145 316.575Q487.7856 316.575 487.12936 315.66876Q486.4731 314.7625 486.44186 312.95L486.44186 311.5125Q486.44186 309.6219 487.0825 308.71564Q487.73874 307.79376 489.12936 307.79376Q490.50436 307.79376 491.1606 308.6844Q491.81686 309.5594 491.8325 311.40314L491.8325 312.8094ZM490.73874 311.325Q490.73874 309.95 490.3481 309.325Q489.9731 308.6844 489.12936 308.6844Q488.30124 308.6844 487.9106 309.325Q487.5356 309.95 487.5356 311.2469L487.5356 312.98126Q487.5356 314.35626 487.92624 315.02814Q488.3325 315.6844 489.145 315.6844Q489.94186 315.6844 490.3325 315.0594Q490.7231 314.4344 490.73874 313.10626L490.73874 311.325Z" fill-rule="nonzero"/><path fill="#757575" d="M577.2469 316.45L571.65314 316.45L571.65314 315.66876L574.60626 312.3875Q575.2625 311.6375 575.5125 311.1844Q575.7625 310.71564 575.7625 310.21564Q575.7625 309.54376 575.35626 309.1219Q574.96564 308.6844 574.27814 308.6844Q573.48126 308.6844 573.02814 309.15314Q572.575 309.60626 572.575 310.4344L571.4969 310.4344Q571.4969 309.2469 572.2469 308.52814Q573.0125 307.79376 574.27814 307.79376Q575.48126 307.79376 576.16876 308.41876Q576.85626 309.04376 576.85626 310.09064Q576.85626 311.34064 575.2469 313.09064L572.96564 315.5594L577.2469 315.5594L577.2469 316.45ZM579.15314 312.16876L579.59064 307.91876L583.96564 307.91876L583.96564 308.91876L580.5125 308.91876L580.2469 311.2469Q580.8875 310.8719 581.6844 310.8719Q582.84064 310.8719 583.52814 311.65314Q584.21564 312.41876 584.21564 313.73126Q584.21564 315.04376 583.4969 315.8094Q582.79376 316.575 581.5125 316.575Q580.3875 316.575 579.66876 315.95Q578.95 315.3094 578.85626 314.2L579.8719 314.2Q579.98126 314.9344 580.40314 315.3094Q580.825 315.6844 581.5125 315.6844Q582.2625 315.6844 582.7 315.16876Q583.1375 314.65314 583.1375 313.7469Q583.1375 312.8875 582.66876 312.3719Q582.2 311.85626 581.41876 311.85626Q580.71564 311.85626 580.3094 312.15314L580.02814 312.3875L579.15314 312.16876ZM591.0125 312.8094Q591.0125 314.71564 590.35626 315.65314Q589.71564 316.575 588.325 316.575Q586.96564 316.575 586.3094 315.66876Q585.65314 314.7625 585.6219 312.95L585.6219 311.5125Q585.6219 309.6219 586.2625 308.71564Q586.91876 307.79376 588.3094 307.79376Q589.6844 307.79376 590.34064 308.6844Q590.9969 309.5594 591.0125 311.40314L591.0125 312.8094ZM589.91876 311.325Q589.91876 309.95 589.52814 309.325Q589.15314 308.6844 588.3094 308.6844Q587.48126 308.6844 587.09064 309.325Q586.71564 309.95 586.71564 311.2469L586.71564 312.98126Q586.71564 314.35626 587.10626 315.02814Q587.5125 315.6844 588.325 315.6844Q589.1219 315.6844 589.5125 315.0594Q589.90314 314.4344 589.91876 313.10626L589.91876 311.325Z" fill-rule="nonzero"/><path stroke="#4285f4" stroke-width="4.0" stroke-linecap="butt" d="M234.0 62.416668L246.0 62.416668" fill-rule="nonzero"/><path fill="#757575" d="M257.89062 61.541664Q257.64062 61.510414 257.35938 61.510414Q256.28125 61.510414 255.90625 62.416664L255.90625 66.916664L254.82812 66.916664L254.82812 60.572914L255.875 60.572914L255.89062 61.30729Q256.42188 60.46354 257.40625 60.46354Q257.71875 60.46354 257.89062 60.541664L257.89062 61.541664ZM264.17188 63.822914Q264.17188 65.260414 263.51562 66.15104Q262.85938 67.041664 261.71875 67.041664Q260.5625 67.041664 259.90625 66.30729L259.90625 69.354164L258.82812 69.354164L258.82812 60.572914L259.8125 60.572914L259.85938 61.27604Q260.53125 60.46354 261.70312 60.46354Q262.84375 60.46354 263.5 61.322914Q264.17188 62.18229 264.17188 63.71354L264.17188 63.822914ZM263.09375 63.697914Q263.09375 62.61979 262.625 62.010414Q262.17188 61.385414 261.375 61.385414Q260.39062 61.385414 259.90625 62.24479L259.90625 65.27604Q260.39062 66.15104 261.39062 66.15104Q262.17188 66.15104 262.625 65.541664Q263.09375 64.916664 263.09375 63.697914ZM266.84375 60.572914L266.875 61.27604Q267.5625 60.46354 268.75 60.46354Q270.07812 60.46354 270.5625 61.479164Q270.875 61.02604 271.375 60.74479Q271.89062 60.46354 272.57812 60.46354Q274.67188 60.46354 274.70312 62.666664L274.70312 66.916664L273.625 66.916664L273.625 62.729164Q273.625 62.05729 273.3125 61.729164Q273.0 61.385414 272.26562 61.385414Q271.65625 61.385414 271.25 61.74479Q270.85938 62.104164 270.79688 62.71354L270.79688 66.916664L269.71875 66.916664L269.71875 62.760414Q269.71875 61.385414 268.35938 61.385414Q267.29688 61.385414 266.90625 62.291664L266.90625 66.916664L265.8125 66.916664L265.8125 60.572914L266.84375 60.572914Z" fill-rule="nonzero"/><path stroke="#db4437" stroke-width="4.0" stroke-linecap="butt" d="M292.0 62.416668L304.0 62.416668" fill-rule="nonzero"/><path fill="#757575" d="M315.89062 61.541664Q315.64062 61.510414 315.35938 61.510414Q314.28125 61.510414 313.90625 62.416664L313.90625 66.916664L312.82812 66.916664L312.82812 60.572914L313.875 60.572914L313.89062 61.30729Q314.42188 60.46354 315.40625 60.46354Q315.71875 60.46354 315.89062 60.541664L315.89062 61.541664ZM322.17188 63.822914Q322.17188 65.260414 321.51562 66.15104Q320.85938 67.041664 319.71875 67.041664Q318.5625 67.041664 317.90625 66.30729L317.90625 69.354164L316.82812 69.354164L316.82812 60.572914L317.8125 60.572914L317.85938 61.27604Q318.53125 60.46354 319.70312 60.46354Q320.84375 60.46354 321.5 61.322914Q322.17188 62.18229 322.17188 63.71354L322.17188 63.822914ZM321.09375 63.697914Q321.09375 62.61979 320.625 62.010414Q320.17188 61.385414 319.375 61.385414Q318.39062 61.385414 317.90625 62.24479L317.90625 65.27604Q318.39062 66.15104 319.39062 66.15104Q320.17188 66.15104 320.625 65.541664Q321.09375 64.916664 321.09375 63.697914ZM324.84375 60.572914L324.875 61.27604Q325.5625 60.46354 326.75 60.46354Q328.07812 60.46354 328.5625 61.479164Q328.875 61.02604 329.375 60.74479Q329.89062 60.46354 330.57812 60.46354Q332.67188 60.46354 332.70312 62.666664L332.70312 66.916664L331.625 66.916664L331.625 62.729164Q331.625 62.05729 331.3125 61.729164Q331.0 61.385414 330.26562 61.385414Q329.65625 61.385414 329.25 61.74479Q328.85938 62.104164 328.79688 62.71354L328.79688 66.916664L327.71875 66.916664L327.71875 62.760414Q327.71875 61.385414 326.35938 61.385414Q325.29688 61.385414 324.90625 62.291664L324.90625 66.916664L323.8125 66.916664L323.8125 60.572914L324.84375 60.572914ZM339.39062 67.80729L334.03125 67.80729L334.03125 66.916664L339.39062 66.916664L339.39062 67.80729ZM339.5625 63.697914Q339.5625 62.229164 340.25 61.354164Q340.9375 60.46354 342.0625 60.46354Q343.17188 60.46354 343.82812 61.21354L343.82812 57.916664L344.90625 57.916664L344.90625 66.916664L343.90625 66.916664L343.85938 66.229164Q343.20312 67.041664 342.04688 67.041664Q340.95312 67.041664 340.25 66.135414Q339.5625 65.229164 339.5625 63.77604L339.5625 63.697914ZM340.64062 63.822914Q340.64062 64.90104 341.07812 65.510414Q341.53125 66.11979 342.3125 66.11979Q343.34375 66.11979 343.82812 65.18229L343.82812 62.27604Q343.34375 61.385414 342.32812 61.385414Q341.53125 61.385414 341.07812 61.99479Q340.64062 62.604164 340.64062 63.822914ZM349.45312 67.041664Q348.15625 67.041664 347.34375 66.197914Q346.54688 65.33854 346.54688 63.916664L346.54688 63.729164Q346.54688 62.77604 346.90625 62.041664Q347.26562 61.291664 347.90625 60.885414Q348.5625 60.46354 349.3125 60.46354Q350.54688 60.46354 351.23438 61.27604Q351.92188 62.08854 351.92188 63.604164L351.92188 64.05729L347.625 64.05729Q347.65625 64.99479 348.17188 65.572914Q348.70312 66.15104 349.51562 66.15104Q350.07812 66.15104 350.46875 65.916664Q350.875 65.68229 351.1875 65.291664L351.84375 65.80729Q351.04688 67.041664 349.45312 67.041664ZM349.3125 61.354164Q348.65625 61.354164 348.20312 61.83854Q347.76562 62.30729 347.67188 63.166664L350.84375 63.166664L350.84375 63.08854Q350.79688 62.260414 350.39062 61.80729Q350.0 61.354164 349.3125 61.354164ZM354.0 66.916664L352.92188 66.916664L352.92188 57.916664L354.0 57.916664L354.0 66.916664ZM357.29688 59.041664L357.29688 60.572914L358.46875 60.572914L358.46875 61.416664L357.29688 61.416664L357.29688 65.33854Q357.29688 65.729164 357.45312 65.916664Q357.60938 66.104164 357.98438 66.104164Q358.17188 66.104164 358.5 66.041664L358.5 66.916664Q358.07812 67.041664 357.67188 67.041664Q356.95312 67.041664 356.57812 66.604164Q356.20312 66.15104 356.20312 65.33854L356.20312 61.416664L355.04688 61.416664L355.04688 60.572914L356.20312 60.572914L356.20312 59.041664L357.29688 59.041664ZM363.73438 66.916664Q363.64062 66.729164 363.57812 66.24479Q362.82812 67.041664 361.78125 67.041664Q360.84375 67.041664 360.23438 66.510414Q359.64062 65.979164 359.64062 65.15104Q359.64062 64.166664 360.39062 63.61979Q361.14062 63.072914 362.51562 63.072914L363.5625 63.072914L363.5625 62.572914Q363.5625 62.010414 363.21875 61.68229Q362.89062 61.33854 362.21875 61.33854Q361.64062 61.33854 361.25 61.635414Q360.85938 61.916664 360.85938 62.33854L359.76562 62.33854Q359.76562 61.854164 360.09375 61.416664Q360.4375 60.979164 361.01562 60.729164Q361.59375 60.46354 362.28125 60.46354Q363.39062 60.46354 364.0 61.010414Q364.625 61.55729 364.65625 62.510414L364.65625 65.43229Q364.65625 66.30729 364.875 66.822914L364.875 66.916664L363.73438 66.916664ZM361.9375 66.08854Q362.45312 66.08854 362.90625 65.822914Q363.35938 65.55729 363.5625 65.135414L363.5625 63.83854L362.71875 63.83854Q360.71875 63.83854 360.71875 65.010414Q360.71875 65.510414 361.0625 65.80729Q361.40625 66.08854 361.9375 66.08854Z" fill-rule="nonzero"/><path fill="#757575" d="M28.05 33.83125L22.096874 33.83125L20.753124 37.55L18.83125 37.55L24.253124 23.33125L25.89375 23.33125L31.33125 37.55L29.409374 37.55L28.05 33.83125ZM22.659374 32.3L27.503124 32.3L25.08125 25.64375L22.659374 32.3ZM38.01875 28.596874Q37.6125 28.534374 37.14375 28.534374Q35.3625 28.534374 34.721874 30.05L34.721874 37.55L32.925 37.55L32.925 26.9875L34.675 26.9875L34.70625 28.20625Q35.596874 26.784374 37.221874 26.784374Q37.753124 26.784374 38.01875 26.925L38.01875 28.596874ZM44.159374 36.26875Q45.128124 36.26875 45.846874 35.690624Q46.565624 35.096874 46.64375 34.221874L48.3625 34.221874Q48.3 35.128124 47.721874 35.95625Q47.159374 36.76875 46.190624 37.26875Q45.2375 37.753124 44.159374 37.753124Q42.003124 37.753124 40.721874 36.315624Q39.45625 34.8625 39.45625 32.3625L39.45625 32.065624Q39.45625 30.51875 40.01875 29.315624Q40.58125 28.1125 41.64375 27.45625Q42.70625 26.784374 44.14375 26.784374Q45.925 26.784374 47.096874 27.846874Q48.284374 28.909374 48.3625 30.6125L46.64375 30.6125Q46.565624 29.596874 45.8625 28.940624Q45.175 28.26875 44.14375 28.26875Q42.76875 28.26875 42.003124 29.26875Q41.253124 30.253124 41.253124 32.128124L41.253124 32.471874Q41.253124 34.3 42.003124 35.284374Q42.753124 36.26875 44.159374 36.26875ZM52.3625 24.425L52.3625 26.9875L54.346874 26.9875L54.346874 28.378124L52.3625 28.378124L52.3625 34.925Q52.3625 35.565624 52.628124 35.89375Q52.89375 36.20625 53.534374 36.20625Q53.846874 36.20625 54.39375 36.08125L54.39375 37.55Q53.675 37.753124 53.003124 37.753124Q51.8 37.753124 51.175 37.01875Q50.565624 36.284374 50.565624 34.925L50.565624 28.378124L48.64375 28.378124L48.64375 26.9875L50.565624 26.9875L50.565624 24.425L52.3625 24.425ZM58.878124 37.55L57.08125 37.55L57.08125 26.9875L58.878124 26.9875L58.878124 37.55ZM56.925 24.175Q56.925 23.7375 57.190624 23.440624Q57.471874 23.128124 57.9875 23.128124Q58.51875 23.128124 58.784374 23.440624Q59.065624 23.7375 59.065624 24.175Q59.065624 24.6125 58.784374 24.909374Q58.51875 25.20625 57.9875 25.20625Q57.471874 25.20625 57.190624 24.909374Q56.925 24.6125 56.925 24.175ZM66.15938 36.26875Q67.12813 36.26875 67.84688 35.690624Q68.56563 35.096874 68.64375 34.221874L70.3625 34.221874Q70.3 35.128124 69.72188 35.95625Q69.15938 36.76875 68.19063 37.26875Q67.2375 37.753124 66.15938 37.753124Q64.00313 37.753124 62.721874 36.315624Q61.45625 34.8625 61.45625 32.3625L61.45625 32.065624Q61.45625 30.51875 62.01875 29.315624Q62.58125 28.1125 63.64375 27.45625Q64.70625 26.784374 66.14375 26.784374Q67.925 26.784374 69.09688 27.846874Q70.28438 28.909374 70.3625 30.6125L68.64375 30.6125Q68.56563 29.596874 67.8625 28.940624Q67.175 28.26875 66.14375 28.26875Q64.76875 28.26875 64.00313 29.26875Q63.253124 30.253124 63.253124 32.128124L63.253124 32.471874Q63.253124 34.3 64.00313 35.284374Q64.75313 36.26875 66.15938 36.26875ZM87.65938 33.034374Q87.39375 35.3 85.9875 36.534374Q84.59688 37.753124 82.26875 37.753124Q79.75313 37.753124 78.22188 35.940624Q76.70625 34.128124 76.70625 31.096874L76.70625 29.7375Q76.70625 27.753124 77.40938 26.253124Q78.12813 24.753124 79.425 23.940624Q80.72188 23.128124 82.44063 23.128124Q84.70625 23.128124 86.06563 24.39375Q87.44063 25.659374 87.65938 27.89375L85.76875 27.89375Q85.53438 26.20625 84.70625 25.440624Q83.89375 24.675 82.44063 24.675Q80.64375 24.675 79.6125 26.003124Q78.59688 27.33125 78.59688 29.784374L78.59688 31.159374Q78.59688 33.471874 79.56563 34.846874Q80.53438 36.20625 82.26875 36.20625Q83.83125 36.20625 84.65938 35.503124Q85.50313 34.8 85.76875 33.034374L87.65938 33.034374ZM89.44063 32.175Q89.44063 30.6125 90.05 29.378124Q90.65938 28.128124 91.7375 27.45625Q92.83125 26.784374 94.2375 26.784374Q96.39375 26.784374 97.72188 28.284374Q99.06563 29.76875 99.06563 32.253124L99.06563 32.378124Q99.06563 33.925 98.47188 35.159374Q97.87813 36.378124 96.76875 37.065624Q95.675 37.753124 94.25313 37.753124Q92.1125 37.753124 90.76875 36.253124Q89.44063 34.753124 89.44063 32.3L89.44063 32.175ZM91.25313 32.378124Q91.25313 34.14375 92.06563 35.20625Q92.89375 36.26875 94.25313 36.26875Q95.62813 36.26875 96.44063 35.190624Q97.25313 34.1125 97.25313 32.175Q97.25313 30.425 96.425 29.346874Q95.59688 28.26875 94.2375 28.26875Q92.89375 28.26875 92.06563 29.33125Q91.25313 30.39375 91.25313 32.378124ZM100.44063 32.175Q100.44063 30.6125 101.05 29.378124Q101.65938 28.128124 102.7375 27.45625Q103.83125 26.784374 105.2375 26.784374Q107.39375 26.784374 108.72188 28.284374Q110.06563 29.76875 110.06563 32.253124L110.06563 32.378124Q110.06563 33.925 109.47188 35.159374Q108.87813 36.378124 107.76875 37.065624Q106.675 37.753124 105.25313 37.753124Q103.1125 37.753124 101.76875 36.253124Q100.44063 34.753124 100.44063 32.3L100.44063 32.175ZM102.25313 32.378124Q102.25313 34.14375 103.06563 35.20625Q103.89375 36.26875 105.25313 36.26875Q106.62813 36.26875 107.44063 35.190624Q108.25313 34.1125 108.25313 32.175Q108.25313 30.425 107.425 29.346874Q106.59688 28.26875 105.2375 28.26875Q103.89375 28.26875 103.06563 29.33125Q102.25313 30.39375 102.25313 32.378124ZM113.87813 37.55L112.08125 37.55L112.08125 22.55L113.87813 22.55L113.87813 37.55ZM118.87813 37.55L117.08125 37.55L117.08125 26.9875L118.87813 26.9875L118.87813 37.55ZM116.925 24.175Q116.925 23.7375 117.19063 23.440624Q117.47188 23.128124 117.9875 23.128124Q118.51875 23.128124 118.78438 23.440624Q119.06563 23.7375 119.06563 24.175Q119.06563 24.6125 118.78438 24.909374Q118.51875 25.20625 117.9875 25.20625Q117.47188 25.20625 117.19063 24.909374Q116.925 24.6125 116.925 24.175ZM123.62813 26.9875L123.69063 28.315624Q124.89375 26.784374 126.84688 26.784374Q130.20625 26.784374 130.22188 30.565624L130.22188 37.55L128.425 37.55L128.425 30.55Q128.40938 29.409374 127.89375 28.8625Q127.39375 28.315624 126.3 28.315624Q125.425 28.315624 124.75313 28.784374Q124.09688 29.253124 123.72188 30.01875L123.72188 37.55L121.925 37.55L121.925 26.9875L123.62813 26.9875ZM132.4875 32.175Q132.4875 29.70625 133.62813 28.253124Q134.76875 26.784374 136.65938 26.784374Q138.59688 26.784374 139.675 28.159374L139.76875 26.9875L141.40938 26.9875L141.40938 37.3Q141.40938 39.346874 140.19063 40.51875Q138.9875 41.70625 136.925 41.70625Q135.78438 41.70625 134.69063 41.221874Q133.59688 40.7375 133.01875 39.878124L133.95625 38.8Q135.12813 40.2375 136.8 40.2375Q138.12813 40.2375 138.8625 39.4875Q139.59688 38.753124 139.59688 37.409374L139.59688 36.4875Q138.51875 37.753124 136.64375 37.753124Q134.78438 37.753124 133.62813 36.253124Q132.4875 34.753124 132.4875 32.175ZM134.3 32.378124Q134.3 34.175 135.03438 35.190624Q135.76875 36.20625 137.08125 36.20625Q138.8 36.20625 139.59688 34.659374L139.59688 29.83125Q138.76875 28.315624 137.1125 28.315624Q135.78438 28.315624 135.03438 29.346874Q134.3 30.378124 134.3 32.378124ZM159.65938 33.034374Q159.39375 35.3 157.9875 36.534374Q156.59688 37.753124 154.26875 37.753124Q151.75313 37.753124 150.22188 35.940624Q148.70625 34.128124 148.70625 31.096874L148.70625 29.7375Q148.70625 27.753124 149.40938 26.253124Q150.12813 24.753124 151.425 23.940624Q152.72188 23.128124 154.44063 23.128124Q156.70625 23.128124 158.06563 24.39375Q159.44063 25.659374 159.65938 27.89375L157.76875 27.89375Q157.53438 26.20625 156.70625 25.440624Q155.89375 24.675 154.44063 24.675Q152.64375 24.675 151.6125 26.003124Q150.59688 27.33125 150.59688 29.784374L150.59688 31.159374Q150.59688 33.471874 151.56563 34.846874Q152.53438 36.20625 154.26875 36.20625Q155.83125 36.20625 156.65938 35.503124Q157.50313 34.8 157.76875 33.034374L159.65938 33.034374ZM161.44063 32.175Q161.44063 30.6125 162.05 29.378124Q162.65938 28.128124 163.7375 27.45625Q164.83125 26.784374 166.2375 26.784374Q168.39375 26.784374 169.72188 28.284374Q171.06563 29.76875 171.06563 32.253124L171.06563 32.378124Q171.06563 33.925 170.47188 35.159374Q169.87813 36.378124 168.76875 37.065624Q167.675 37.753124 166.25313 37.753124Q164.1125 37.753124 162.76875 36.253124Q161.44063 34.753124 161.44063 32.3L161.44063 32.175ZM163.25313 32.378124Q163.25313 34.14375 164.06563 35.20625Q164.89375 36.26875 166.25313 36.26875Q167.62813 36.26875 168.44063 35.190624Q169.25313 34.1125 169.25313 32.175Q169.25313 30.425 168.425 29.346874Q167.59688 28.26875 166.2375 28.26875Q164.89375 28.26875 164.06563 29.33125Q163.25313 30.39375 163.25313 32.378124ZM174.62813 26.9875L174.69063 28.315624Q175.89375 26.784374 177.84688 26.784374Q181.20625 26.784374 181.22188 30.565624L181.22188 37.55L179.425 37.55L179.425 30.55Q179.40938 29.409374 178.89375 28.8625Q178.39375 28.315624 177.3 28.315624Q176.425 28.315624 175.75313 28.784374Q175.09688 29.253124 174.72188 30.01875L174.72188 37.55L172.925 37.55L172.925 26.9875L174.62813 26.9875ZM185.62813 26.9875L185.69063 28.315624Q186.89375 26.784374 188.84688 26.784374Q192.20625 26.784374 192.22188 30.565624L192.22188 37.55L190.425 37.55L190.425 30.55Q190.40938 29.409374 189.89375 28.8625Q189.39375 28.315624 188.3 28.315624Q187.425 28.315624 186.75313 28.784374Q186.09688 29.253124 185.72188 30.01875L185.72188 37.55L183.925 37.55L183.925 26.9875L185.62813 26.9875ZM199.3 37.753124Q197.15938 37.753124 195.8 36.346874Q194.45625 34.925 194.45625 32.565624L194.45625 32.221874Q194.45625 30.659374 195.05 29.425Q195.65938 28.190624 196.7375 27.4875Q197.81563 26.784374 199.08125 26.784374Q201.14375 26.784374 202.28438 28.14375Q203.425 29.503124 203.425 32.034374L203.425 32.784374L196.26875 32.784374Q196.3 34.346874 197.175 35.315624Q198.05 36.26875 199.39375 36.26875Q200.3625 36.26875 201.01875 35.878124Q201.69063 35.4875 202.19063 34.846874L203.28438 35.70625Q201.95625 37.753124 199.3 37.753124ZM199.08125 28.26875Q197.9875 28.26875 197.2375 29.065624Q196.50313 29.8625 196.33125 31.3L201.6125 31.3L201.6125 31.159374Q201.53438 29.784374 200.8625 29.034374Q200.20625 28.26875 199.08125 28.26875ZM210.15938 36.26875Q211.12813 36.26875 211.84688 35.690624Q212.56563 35.096874 212.64375 34.221874L214.3625 34.221874Q214.3 35.128124 213.72188 35.95625Q213.15938 36.76875 212.19063 37.26875Q211.2375 37.753124 210.15938 37.753124Q208.00313 37.753124 206.72188 36.315624Q205.45625 34.8625 205.45625 32.3625L205.45625 32.065624Q205.45625 30.51875 206.01875 29.315624Q206.58125 28.1125 207.64375 27.45625Q208.70625 26.784374 210.14375 26.784374Q211.925 26.784374 213.09688 27.846874Q214.28438 28.909374 214.3625 30.6125L212.64375 30.6125Q212.56563 29.596874 211.8625 28.940624Q211.175 28.26875 210.14375 28.26875Q208.76875 28.26875 208.00313 29.26875Q207.25313 30.253124 207.25313 32.128124L207.25313 32.471874Q207.25313 34.3 208.00313 35.284374Q208.75313 36.26875 210.15938 36.26875ZM218.3625 24.425L218.3625 26.9875L220.34688 26.9875L220.34688 28.378124L218.3625 28.378124L218.3625 34.925Q218.3625 35.565624 218.62813 35.89375Q218.89375 36.20625 219.53438 36.20625Q219.84688 36.20625 220.39375 36.08125L220.39375 37.55Q219.675 37.753124 219.00313 37.753124Q217.8 37.753124 217.175 37.01875Q216.56563 36.284374 216.56563 34.925L216.56563 28.378124L214.64375 28.378124L214.64375 26.9875L216.56563 26.9875L216.56563 24.425L218.3625 24.425ZM227.3 37.753124Q225.15938 37.753124 223.8 36.346874Q222.45625 34.925 222.45625 32.565624L222.45625 32.221874Q222.45625 30.659374 223.05 29.425Q223.65938 28.190624 224.7375 27.4875Q225.81563 26.784374 227.08125 26.784374Q229.14375 26.784374 230.28438 28.14375Q231.425 29.503124 231.425 32.034374L231.425 32.784374L224.26875 32.784374Q224.3 34.346874 225.175 35.315624Q226.05 36.26875 227.39375 36.26875Q228.3625 36.26875 229.01875 35.878124Q229.69063 35.4875 230.19063 34.846874L231.28438 35.70625Q229.95625 37.753124 227.3 37.753124ZM227.08125 28.26875Q225.9875 28.26875 225.2375 29.065624Q224.50313 29.8625 224.33125 31.3L229.6125 31.3L229.6125 31.159374Q229.53438 29.784374 228.8625 29.034374Q228.20625 28.26875 227.08125 28.26875ZM233.47188 32.175Q233.47188 29.753124 234.62813 28.26875Q235.78438 26.784374 237.64375 26.784374Q239.50313 26.784374 240.58125 28.05L240.58125 22.55L242.39375 22.55L242.39375 37.55L240.7375 37.55L240.64375 36.409374Q239.56563 37.753124 237.62813 37.753124Q235.8 37.753124 234.62813 36.253124Q233.47188 34.7375 233.47188 32.315624L233.47188 32.175ZM235.28438 32.378124Q235.28438 34.175 236.01875 35.190624Q236.76875 36.20625 238.08125 36.20625Q239.8 36.20625 240.58125 34.675L240.58125 29.815624Q239.78438 28.315624 238.09688 28.315624Q236.76875 28.315624 236.01875 29.346874Q235.28438 30.378124 235.28438 32.378124ZM252.3625 24.425L252.3625 26.9875L254.34688 26.9875L254.34688 28.378124L252.3625 28.378124L252.3625 34.925Q252.3625 35.565624 252.62813 35.89375Q252.89375 36.20625 253.53438 36.20625Q253.84688 36.20625 254.39375 36.08125L254.39375 37.55Q253.675 37.753124 253.00313 37.753124Q251.8 37.753124 251.175 37.01875Q250.56563 36.284374 250.56563 34.925L250.56563 28.378124L248.64375 28.378124L248.64375 26.9875L250.56563 26.9875L250.56563 24.425L252.3625 24.425ZM256.4406 32.175Q256.4406 30.6125 257.05 29.378124Q257.65936 28.128124 258.7375 27.45625Q259.83124 26.784374 261.2375 26.784374Q263.39374 26.784374 264.72186 28.284374Q266.0656 29.76875 266.0656 32.253124L266.0656 32.378124Q266.0656 33.925 265.47186 35.159374Q264.8781 36.378124 263.76874 37.065624Q262.675 37.753124 261.2531 37.753124Q259.1125 37.753124 257.76874 36.253124Q256.4406 34.753124 256.4406 32.3L256.4406 32.175ZM258.2531 32.378124Q258.2531 34.14375 259.0656 35.20625Q259.89374 36.26875 261.2531 36.26875Q262.6281 36.26875 263.4406 35.190624Q264.2531 34.1125 264.2531 32.175Q264.2531 30.425 263.425 29.346874Q262.59686 28.26875 261.2375 28.26875Q259.89374 28.26875 259.0656 29.33125Q258.2531 30.39375 258.2531 32.378124ZM279.4406 37.55Q279.28436 37.2375 279.1906 36.440624Q277.925 37.753124 276.175 37.753124Q274.6125 37.753124 273.6125 36.8625Q272.6125 35.971874 272.6125 34.6125Q272.6125 32.971874 273.8625 32.065624Q275.1281 31.14375 277.39374 31.14375L279.15936 31.14375L279.15936 30.315624Q279.15936 29.3625 278.58124 28.8Q278.01874 28.2375 276.925 28.2375Q275.95624 28.2375 275.3 28.7375Q274.64374 29.221874 274.64374 29.909374L272.83124 29.909374Q272.83124 29.128124 273.39374 28.39375Q273.95624 27.64375 274.90936 27.221874Q275.8781 26.784374 277.03436 26.784374Q278.8625 26.784374 279.89374 27.70625Q280.925 28.6125 280.97186 30.221874L280.97186 35.08125Q280.97186 36.534374 281.33124 37.39375L281.33124 37.55L279.4406 37.55ZM276.4406 36.175Q277.3 36.175 278.05 35.7375Q278.8156 35.3 279.15936 34.596874L279.15936 32.425L277.7375 32.425Q274.425 32.425 274.425 34.3625Q274.425 35.221874 274.9875 35.70625Q275.55 36.175 276.4406 36.175ZM291.6281 23.33125L296.26874 34.925L300.925 23.33125L303.34686 23.33125L303.34686 37.55L301.47186 37.55L301.47186 32.01875L301.65936 26.034374L296.9875 37.55L295.55 37.55L290.89374 26.065624L291.08124 32.01875L291.08124 37.55L289.20624 37.55L289.20624 23.33125L291.6281 23.33125ZM305.4406 32.175Q305.4406 30.6125 306.05 29.378124Q306.65936 28.128124 307.7375 27.45625Q308.83124 26.784374 310.2375 26.784374Q312.39374 26.784374 313.72186 28.284374Q315.0656 29.76875 315.0656 32.253124L315.0656 32.378124Q315.0656 33.925 314.47186 35.159374Q313.8781 36.378124 312.76874 37.065624Q311.675 37.753124 310.2531 37.753124Q308.1125 37.753124 306.76874 36.253124Q305.4406 34.753124 305.4406 32.3L305.4406 32.175ZM307.2531 32.378124Q307.2531 34.14375 308.0656 35.20625Q308.89374 36.26875 310.2531 36.26875Q311.6281 36.26875 312.4406 35.190624Q313.2531 34.1125 313.2531 32.175Q313.2531 30.425 312.425 29.346874Q311.59686 28.26875 310.2375 28.26875Q308.89374 28.26875 308.0656 29.33125Q307.2531 30.39375 307.2531 32.378124ZM319.3625 24.425L319.3625 26.9875L321.34686 26.9875L321.34686 28.378124L319.3625 28.378124L319.3625 34.925Q319.3625 35.565624 319.6281 35.89375Q319.89374 36.20625 320.53436 36.20625Q320.84686 36.20625 321.39374 36.08125L321.39374 37.55Q320.675 37.753124 320.0031 37.753124Q318.8 37.753124 318.175 37.01875Q317.5656 36.284374 317.5656 34.925L317.5656 28.378124L315.64374 28.378124L315.64374 26.9875L317.5656 26.9875L317.5656 24.425L319.3625 24.425ZM325.72186 28.26875Q326.925 26.784374 328.84686 26.784374Q332.20624 26.784374 332.22186 30.565624L332.22186 37.55L330.425 37.55L330.425 30.55Q330.40936 29.409374 329.89374 28.8625Q329.39374 28.315624 328.3 28.315624Q327.425 28.315624 326.7531 28.784374Q326.09686 29.253124 325.72186 30.01875L325.72186 37.55L323.925 37.55L323.925 22.55L325.72186 22.55L325.72186 28.26875ZM339.3 37.753124Q337.15936 37.753124 335.8 36.346874Q334.45624 34.925 334.45624 32.565624L334.45624 32.221874Q334.45624 30.659374 335.05 29.425Q335.65936 28.190624 336.7375 27.4875Q337.8156 26.784374 339.08124 26.784374Q341.14374 26.784374 342.28436 28.14375Q343.425 29.503124 343.425 32.034374L343.425 32.784374L336.26874 32.784374Q336.3 34.346874 337.175 35.315624Q338.05 36.26875 339.39374 36.26875Q340.3625 36.26875 341.01874 35.878124Q341.6906 35.4875 342.1906 34.846874L343.28436 35.70625Q341.95624 37.753124 339.3 37.753124ZM339.08124 28.26875Q337.9875 28.26875 337.2375 29.065624Q336.5031 29.8625 336.33124 31.3L341.6125 31.3L341.6125 31.159374Q341.53436 29.784374 340.8625 29.034374Q340.20624 28.26875 339.08124 28.26875ZM351.01874 28.596874Q350.6125 28.534374 350.14374 28.534374Q348.3625 28.534374 347.72186 30.05L347.72186 37.55L345.925 37.55L345.925 26.9875L347.675 26.9875L347.70624 28.20625Q348.59686 26.784374 350.22186 26.784374Q350.7531 26.784374 351.01874 26.925L351.01874 28.596874ZM361.8625 32.378124Q361.8625 34.8 360.7531 36.284374Q359.64374 37.753124 357.76874 37.753124Q355.7531 37.753124 354.65936 36.33125L354.58124 37.55L352.925 37.55L352.925 22.55L354.72186 22.55L354.72186 28.14375Q355.8156 26.784374 357.7375 26.784374Q359.65936 26.784374 360.7531 28.2375Q361.8625 29.690624 361.8625 32.221874L361.8625 32.378124ZM360.05 32.175Q360.05 30.33125 359.33124 29.33125Q358.6281 28.315624 357.3 28.315624Q355.5031 28.315624 354.72186 29.9875L354.72186 34.55Q355.55 36.20625 357.3156 36.20625Q358.6125 36.20625 359.33124 35.20625Q360.05 34.20625 360.05 32.175ZM363.4406 32.175Q363.4406 30.6125 364.05 29.378124Q364.65936 28.128124 365.7375 27.45625Q366.83124 26.784374 368.2375 26.784374Q370.39374 26.784374 371.72186 28.284374Q373.0656 29.76875 373.0656 32.253124L373.0656 32.378124Q373.0656 33.925 372.47186 35.159374Q371.8781 36.378124 370.76874 37.065624Q369.675 37.753124 368.2531 37.753124Q366.1125 37.753124 364.76874 36.253124Q363.4406 34.753124 363.4406 32.3L363.4406 32.175ZM365.2531 32.378124Q365.2531 34.14375 366.0656 35.20625Q366.89374 36.26875 368.2531 36.26875Q369.6281 36.26875 370.4406 35.190624Q371.2531 34.1125 371.2531 32.175Q371.2531 30.425 370.425 29.346874Q369.59686 28.26875 368.2375 28.26875Q366.89374 28.26875 366.0656 29.33125Q365.2531 30.39375 365.2531 32.378124ZM381.4406 37.55Q381.28436 37.2375 381.1906 36.440624Q379.925 37.753124 378.175 37.753124Q376.6125 37.753124 375.6125 36.8625Q374.6125 35.971874 374.6125 34.6125Q374.6125 32.971874 375.8625 32.065624Q377.1281 31.14375 379.39374 31.14375L381.15936 31.14375L381.15936 30.315624Q381.15936 29.3625 380.58124 28.8Q380.01874 28.2375 378.925 28.2375Q377.95624 28.2375 377.3 28.7375Q376.64374 29.221874 376.64374 29.909374L374.83124 29.909374Q374.83124 29.128124 375.39374 28.39375Q375.95624 27.64375 376.90936 27.221874Q377.8781 26.784374 379.03436 26.784374Q380.8625 26.784374 381.89374 27.70625Q382.925 28.6125 382.97186 30.221874L382.97186 35.08125Q382.97186 36.534374 383.33124 37.39375L383.33124 37.55L381.4406 37.55ZM378.4406 36.175Q379.3 36.175 380.05 35.7375Q380.8156 35.3 381.15936 34.596874L381.15936 32.425L379.7375 32.425Q376.425 32.425 376.425 34.3625Q376.425 35.221874 376.9875 35.70625Q377.55 36.175 378.4406 36.175ZM391.01874 28.596874Q390.6125 28.534374 390.14374 28.534374Q388.3625 28.534374 387.72186 30.05L387.72186 37.55L385.925 37.55L385.925 26.9875L387.675 26.9875L387.70624 28.20625Q388.59686 26.784374 390.22186 26.784374Q390.7531 26.784374 391.01874 26.925L391.01874 28.596874ZM392.47186 32.175Q392.47186 29.753124 393.6281 28.26875Q394.78436 26.784374 396.64374 26.784374Q398.5031 26.784374 399.58124 28.05L399.58124 22.55L401.39374 22.55L401.39374 37.55L399.7375 37.55L399.64374 36.409374Q398.5656 37.753124 396.6281 37.753124Q394.8 37.753124 393.6281 36.253124Q392.47186 34.7375 392.47186 32.315624L392.47186 32.175ZM394.28436 32.378124Q394.28436 34.175 395.01874 35.190624Q395.76874 36.20625 397.08124 36.20625Q398.8 36.20625 399.58124 34.675L399.58124 29.815624Q398.78436 28.315624 397.09686 28.315624Q395.76874 28.315624 395.01874 29.346874Q394.28436 30.378124 394.28436 32.378124Z" fill-rule="nonzero"/></svg>