<svg version="1.1" viewBox="0.0 0.0 600.0 371.0" fill="none" stroke="none" stroke-linecap="square" stroke-miterlimit="10" width="600" height="371" xmlns:xlink="http://www.w3.org/1999/xlink" xmlns="http://www.w3.org/2000/svg"><path fill="#ffffff" d="M0 0L600.0 0L600.0 371.0L0 371.0L0 0Z" fill-rule="nonzero"/><path stroke="#333333" stroke-width="1.0" stroke-linecap="butt" d="M85.5 89.5L85.5 298.5" fill-rule="nonzero"/><path stroke="#cccccc" stroke-width="1.0" stroke-linecap="butt" d="M184.5 89.5L184.5 298.5" fill-rule="nonzero"/><path stroke="#cccccc" stroke-width="1.0" stroke-linecap="butt" d="M283.5 89.5L283.5 298.5" fill-rule="nonzero"/><path stroke="#cccccc" stroke-width="1.0" stroke-linecap="butt" d="M383.5 89.5L383.5 298.5" fill-rule="nonzero"/><path stroke="#cccccc" stroke-width="1.0" stroke-linecap="butt" d="M482.5 89.5L482.5 298.5" fill-rule="nonzero"/><path stroke="#cccccc" stroke-width="1.0" stroke-linecap="butt" d="M581.5 89.5L581.5 298.5" fill-rule="nonzero"/><path stroke="#cccccc" stroke-width="1.0" stroke-linecap="butt" d="M85.5 298.5L581.5 298.5" fill-rule="nonzero"/><path stroke="#333333" stroke-width="1.0" stroke-linecap="butt" d="M85.5 263.5L581.5 263.5" fill-rule="nonzero"/><path stroke="#cccccc" stroke-width="1.0" stroke-linecap="butt" d="M85.5 228.5L581.5 228.5" fill-rule="nonzero"/><path stroke="#cccccc" stroke-width="1.0" stroke-linecap="butt" d="M85.5 194.5L581.5 194.5" fill-rule="nonzero"/><path stroke="#cccccc" stroke-width="1.0" stroke-linecap="butt" d="M85.5 159.5L581.5 159.5" fill-rule="nonzero"/><path stroke="#cccccc" stroke-width="1.0" stroke-linecap="butt" d="M85.5 124.5L581.5 124.5" fill-rule="nonzero"/><path stroke="#cccccc" stroke-width="1.0" stroke-linecap="butt" d="M85.5 89.5L581.5 89.5" fill-rule="nonzero"/><clipPath id="id_0"><path d="M85.55 89.78333L581.45 89.78333L581.45 298.45L85.55 298.45L85.55 89.78333Z" clip-rule="nonzero"/></clipPath><path stroke="#4285f4" stroke-width="2.0" stroke-linecap="butt" clip-path="url(#id_0)" d="M85.55 263.6722L95.468 263.6722L105.386 263.6722L115.304 263.6722L125.222 263.6722L135.14 224.72112L145.058 238.63222L154.976 244.19667L164.894 238.63222L174.812 233.06778L184.73 230.28555L194.648 227.50333L204.566 224.72112L214.484 221.93889L224.402 219.15666L234.32 216.37445L244.238 213.59222L254.156 208.02777L264.074 208.02777L273.992 205.24556L283.91 202.46333L293.828 196.8989L303.746 194.11667L313.664 188.55222L323.582 185.77L333.5 182.98778L343.418 177.42334L353.336 177.42334L363.254 171.85889L373.172 169.07666L383.09 169.07666L393.008 163.51222L402.926 163.51222L412.844 160.73L422.762 157.94778L432.68 155.16556L442.598 152.38333L452.516 149.6011L462.434 149.6011L472.352 144.03667L482.27 141.25444L492.188 138.47223L502.106 138.47223L512.024 135.69L521.942 130.12555L531.86 132.90778L541.778 130.12555L551.696 124.56111L561.614 121.77889L571.532 118.996666L581.45 118.996666" fill-rule="nonzero"/><path stroke="#db4437" stroke-width="2.0" stroke-linecap="butt" clip-path="url(#id_0)" d="M95.468 263.6722L105.386 263.6722L115.304 263.6722L125.222 263.6722L135.14 224.72112L145.058 277.58334L154.976 269.23666L164.894 258.1078L174.812 258.1078L184.73 260.89L194.648 260.89L204.566 260.89L214.484 260.89L224.402 260.89L234.32 260.89L244.238 260.89L254.156 258.1078L264.074 263.6722L273.992 260.89L283.91 260.89L293.828 258.1078L303.746 260.89L313.664 258.1078L323.582 260.89L333.5 260.89L343.418 258.1078L353.336 263.6722L363.254 258.1078L373.172 260.89L383.09 263.6722L393.008 258.1078L402.926 263.6722L412.844 260.89L422.762 260.89L432.68 260.89L442.598 260.89L452.516 260.89L462.434 263.6722L472.352 258.1078L482.27 260.89L492.188 260.89L502.106 263.6722L512.024 260.89L521.942 258.1078L531.86 266.45444L541.778 260.89L551.696 258.1078L561.614 260.89L571.532 260.89L581.45 263.6722" fill-rule="nonzero"/><path fill="#000000" fill-opacity="0.0" clip-path="url(#id_0)" d="M88.55 263.6722C88.55 265.32907 87.206856 266.6722 85.55 266.6722C83.89314 266.6722 82.55 265.32907 82.55 263.6722C82.55 262.01538 83.89314 260.6722 85.55 260.6722C87.206856 260.6722 88.55 262.01538 88.55 263.6722Z" fill-rule="nonzero"/><path fill="#000000" fill-opacity="0.0" clip-path="url(#id_0)" d="M98.468 263.6722C98.468 265.32907 97.124855 266.6722 95.468 266.6722C93.81114 266.6722 92.468 265.32907 92.468 263.6722C92.468 262.01538 93.81114 260.6722 95.468 260.6722C97.124855 260.6722 98.468 262.01538 98.468 263.6722Z" fill-rule="nonzero"/><path fill="#000000" fill-opacity="0.0" clip-path="url(#id_0)" d="M108.386 263.6722C108.386 265.32907 107.042854 266.6722 105.386 266.6722C103.72915 266.6722 102.386 265.32907 102.386 263.6722C102.386 262.01538 103.72915 260.6722 105.386 260.6722C107.042854 260.6722 108.386 262.01538 108.386 263.6722Z" fill-rule="nonzero"/><path fill="#000000" fill-opacity="0.0" clip-path="url(#id_0)" d="M118.304 263.6722C118.304 265.32907 116.96085 266.6722 115.304 266.6722C113.64715 266.6722 112.304 265.32907 112.304 263.6722C112.304 262.01538 113.64715 260.6722 115.304 260.6722C116.96085 260.6722 118.304 262.01538 118.304 263.6722Z" fill-rule="nonzero"/><path fill="#000000" fill-opacity="0.0" clip-path="url(#id_0)" d="M128.222 263.6722C128.222 265.32907 126.87885 266.6722 125.222 266.6722C123.56515 266.6722 122.222 265.32907 122.222 263.6722C122.222 262.01538 123.56515 260.6722 125.222 260.6722C126.87885 260.6722 128.222 262.01538 128.222 263.6722Z" fill-rule="nonzero"/><path fill="#000000" fill-opacity="0.0" clip-path="url(#id_0)" d="M138.14 224.72112C138.14 226.37796 136.79686 227.72112 135.14 227.72112C133.48314 227.72112 132.14 226.37796 132.14 224.72112C132.14 223.06425 133.48314 221.72112 135.14 221.72112C136.79686 221.72112 138.14 223.06425 138.14 224.72112Z" fill-rule="nonzero"/><path fill="#000000" fill-opacity="0.0" clip-path="url(#id_0)" d="M148.058 238.63222C148.058 240.28908 146.71486 241.63222 145.058 241.63222C143.40114 241.63222 142.058 240.28908 142.058 238.63222C142.058 236.97537 143.40114 235.63222 145.058 235.63222C146.71486 235.63222 148.058 236.97537 148.058 238.63222Z" fill-rule="nonzero"/><path fill="#000000" fill-opacity="0.0" clip-path="url(#id_0)" d="M157.976 244.19667C157.976 245.85352 156.63286 247.19667 154.976 247.19667C153.31915 247.19667 151.976 245.85352 151.976 244.19667C151.976 242.53981 153.31915 241.19667 154.976 241.19667C156.63286 241.19667 157.976 242.53981 157.976 244.19667Z" fill-rule="nonzero"/><path fill="#000000" fill-opacity="0.0" clip-path="url(#id_0)" d="M167.894 238.63222C167.894 240.28908 166.55086 241.63222 164.894 241.63222C163.23715 241.63222 161.894 240.28908 161.894 238.63222C161.894 236.97537 163.23715 235.63222 164.894 235.63222C166.55086 235.63222 167.894 236.97537 167.894 238.63222Z" fill-rule="nonzero"/><path fill="#000000" fill-opacity="0.0" clip-path="url(#id_0)" d="M177.812 233.06778C177.812 234.72462 176.46886 236.06778 174.812 236.06778C173.15515 236.06778 171.812 234.72462 171.812 233.06778C171.812 231.41092 173.15515 230.06778 174.812 230.06778C176.46886 230.06778 177.812 231.41092 177.812 233.06778Z" fill-rule="nonzero"/><path fill="#000000" fill-opacity="0.0" clip-path="url(#id_0)" d="M187.73 230.28555C187.73 231.94241 186.38686 233.28555 184.73 233.28555C183.07315 233.28555 181.73 231.94241 181.73 230.28555C181.73 228.62871 183.07315 227.28555 184.73 227.28555C186.38686 227.28555 187.73 228.62871 187.73 230.28555Z" fill-rule="nonzero"/><path fill="#000000" fill-opacity="0.0" clip-path="url(#id_0)" d="M197.648 227.50333C197.648 229.16019 196.30486 230.50333 194.648 230.50333C192.99115 230.50333 191.648 229.16019 191.648 227.50333C191.648 225.84648 192.99115 224.50333 194.648 224.50333C196.30486 224.50333 197.648 225.84648 197.648 227.50333Z" fill-rule="nonzero"/><path fill="#000000" fill-opacity="0.0" clip-path="url(#id_0)" d="M207.566 224.72112C207.566 226.37796 206.22285 227.72112 204.566 227.72112C202.90915 227.72112 201.566 226.37796 201.566 224.72112C201.566 223.06425 202.90915 221.72112 204.566 221.72112C206.22285 221.72112 207.566 223.06425 207.566 224.72112Z" fill-rule="nonzero"/><path fill="#000000" fill-opacity="0.0" clip-path="url(#id_0)" d="M217.484 221.93889C217.484 223.59575 216.14085 224.93889 214.484 224.93889C212.82715 224.93889 211.484 223.59575 211.484 221.93889C211.484 220.28203 212.82715 218.93889 214.484 218.93889C216.14085 218.93889 217.484 220.28203 217.484 221.93889Z" fill-rule="nonzero"/><path fill="#000000" fill-opacity="0.0" clip-path="url(#id_0)" d="M227.402 219.15666C227.402 220.81352 226.05885 222.15666 224.402 222.15666C222.74515 222.15666 221.402 220.81352 221.402 219.15666C221.402 217.49982 222.74515 216.15666 224.402 216.15666C226.05885 216.15666 227.402 217.49982 227.402 219.15666Z" fill-rule="nonzero"/><path fill="#000000" fill-opacity="0.0" clip-path="url(#id_0)" d="M237.32 216.37445C237.32 218.0313 235.97685 219.37445 234.32 219.37445C232.66315 219.37445 231.32 218.0313 231.32 216.37445C231.32 214.71759 232.66315 213.37445 234.32 213.37445C235.97685 213.37445 237.32 214.71759 237.32 216.37445Z" fill-rule="nonzero"/><path fill="#000000" fill-opacity="0.0" clip-path="url(#id_0)" d="M247.238 213.59222C247.238 215.24907 245.89485 216.59222 244.238 216.59222C242.58115 216.59222 241.238 215.24907 241.238 213.59222C241.238 211.93536 242.58115 210.59222 244.238 210.59222C245.89485 210.59222 247.238 211.93536 247.238 213.59222Z" fill-rule="nonzero"/><path fill="#000000" fill-opacity="0.0" clip-path="url(#id_0)" d="M257.156 208.02777C257.156 209.68463 255.81285 211.02777 254.156 211.02777C252.49915 211.02777 251.156 209.68463 251.156 208.02777C251.156 206.37093 252.49915 205.02777 254.156 205.02777C255.81285 205.02777 257.156 206.37093 257.156 208.02777Z" fill-rule="nonzero"/><path fill="#000000" fill-opacity="0.0" clip-path="url(#id_0)" d="M267.074 208.02777C267.074 209.68463 265.73087 211.02777 264.074 211.02777C262.41714 211.02777 261.074 209.68463 261.074 208.02777C261.074 206.37093 262.41714 205.02777 264.074 205.02777C265.73087 205.02777 267.074 206.37093 267.074 208.02777Z" fill-rule="nonzero"/><path fill="#000000" fill-opacity="0.0" clip-path="url(#id_0)" d="M276.992 205.24556C276.992 206.9024 275.64886 208.24556 273.992 208.24556C272.33514 208.24556 270.992 206.9024 270.992 205.24556C270.992 203.5887 272.33514 202.24556 273.992 202.24556C275.64886 202.24556 276.992 203.5887 276.992 205.24556Z" fill-rule="nonzero"/><path fill="#000000" fill-opacity="0.0" clip-path="url(#id_0)" d="M286.91 202.46333C286.91 204.1202 285.56686 205.46333 283.91 205.46333C282.25314 205.46333 280.91 204.1202 280.91 202.46333C280.91 200.80647 282.25314 199.46333 283.91 199.46333C285.56686 199.46333 286.91 200.80647 286.91 202.46333Z" fill-rule="nonzero"/><path fill="#000000" fill-opacity="0.0" clip-path="url(#id_0)" d="M296.828 196.8989C296.828 198.55574 295.48486 199.8989 293.828 199.8989C292.17114 199.8989 290.828 198.55574 290.828 196.8989C290.828 195.24203 292.17114 193.8989 293.828 193.8989C295.48486 193.8989 296.828 195.24203 296.828 196.8989Z" fill-rule="nonzero"/><path fill="#000000" fill-opacity="0.0" clip-path="url(#id_0)" d="M306.746 194.11667C306.746 195.77351 305.40286 197.11667 303.746 197.11667C302.08914 197.11667 300.746 195.77351 300.746 194.11667C300.746 192.45981 302.08914 191.11667 303.746 191.11667C305.40286 191.11667 306.746 192.45981 306.746 194.11667Z" fill-rule="nonzero"/><path fill="#000000" fill-opacity="0.0" clip-path="url(#id_0)" d="M316.664 188.55222C316.664 190.20908 315.32086 191.55222 313.664 191.55222C312.00714 191.55222 310.664 190.20908 310.664 188.55222C310.664 186.89537 312.00714 185.55222 313.664 185.55222C315.32086 185.55222 316.664 186.89537 316.664 188.55222Z" fill-rule="nonzero"/><path fill="#000000" fill-opacity="0.0" clip-path="url(#id_0)" d="M326.582 185.77C326.582 187.42685 325.23886 188.77 323.582 188.77C321.92514 188.77 320.582 187.42685 320.582 185.77C320.582 184.11314 321.92514 182.77 323.582 182.77C325.23886 182.77 326.582 184.11314 326.582 185.77Z" fill-rule="nonzero"/><path fill="#000000" fill-opacity="0.0" clip-path="url(#id_0)" d="M336.5 182.98778C336.5 184.64464 335.15686 185.98778 333.5 185.98778C331.84314 185.98778 330.5 184.64464 330.5 182.98778C330.5 181.33092 331.84314 179.98778 333.5 179.98778C335.15686 179.98778 336.5 181.33092 336.5 182.98778Z" fill-rule="nonzero"/><path fill="#000000" fill-opacity="0.0" clip-path="url(#id_0)" d="M346.418 177.42334C346.418 179.08018 345.07486 180.42334 343.418 180.42334C341.76114 180.42334 340.418 179.08018 340.418 177.42334C340.418 175.76648 341.76114 174.42334 343.418 174.42334C345.07486 174.42334 346.418 175.76648 346.418 177.42334Z" fill-rule="nonzero"/><path fill="#000000" fill-opacity="0.0" clip-path="url(#id_0)" d="M356.336 177.42334C356.336 179.08018 354.99286 180.42334 353.336 180.42334C351.67914 180.42334 350.336 179.08018 350.336 177.42334C350.336 175.76648 351.67914 174.42334 353.336 174.42334C354.99286 174.42334 356.336 175.76648 356.336 177.42334Z" fill-rule="nonzero"/><path fill="#000000" fill-opacity="0.0" clip-path="url(#id_0)" d="M366.254 171.85889C366.254 173.51575 364.91086 174.85889 363.254 174.85889C361.59714 174.85889 360.254 173.51575 360.254 171.85889C360.254 170.20204 361.59714 168.85889 363.254 168.85889C364.91086 168.85889 366.254 170.20204 366.254 171.85889Z" fill-rule="nonzero"/><path fill="#000000" fill-opacity="0.0" clip-path="url(#id_0)" d="M376.172 169.07666C376.172 170.73352 374.82886 172.07666 373.172 172.07666C371.51514 172.07666 370.172 170.73352 370.172 169.07666C370.172 167.41982 371.51514 166.07666 373.172 166.07666C374.82886 166.07666 376.172 167.41982 376.172 169.07666Z" fill-rule="nonzero"/><path fill="#000000" fill-opacity="0.0" clip-path="url(#id_0)" d="M386.09 169.07666C386.09 170.73352 384.74686 172.07666 383.09 172.07666C381.43314 172.07666 380.09 170.73352 380.09 169.07666C380.09 167.41982 381.43314 166.07666 383.09 166.07666C384.74686 166.07666 386.09 167.41982 386.09 169.07666Z" fill-rule="nonzero"/><path fill="#000000" fill-opacity="0.0" clip-path="url(#id_0)" d="M396.008 163.51222C396.008 165.16908 394.66486 166.51222 393.008 166.51222C391.35114 166.51222 390.008 165.16908 390.008 163.51222C390.008 161.85536 391.35114 160.51222 393.008 160.51222C394.66486 160.51222 396.008 161.85536 396.008 163.51222Z" fill-rule="nonzero"/><path fill="#000000" fill-opacity="0.0" clip-path="url(#id_0)" d="M405.926 163.51222C405.926 165.16908 404.58286 166.51222 402.926 166.51222C401.26913 166.51222 399.926 165.16908 399.926 163.51222C399.926 161.85536 401.26913 160.51222 402.926 160.51222C404.58286 160.51222 405.926 161.85536 405.926 163.51222Z" fill-rule="nonzero"/><path fill="#000000" fill-opacity="0.0" clip-path="url(#id_0)" d="M415.844 160.73C415.844 162.38686 414.50085 163.73 412.844 163.73C411.18713 163.73 409.844 162.38686 409.844 160.73C409.844 159.07315 411.18713 157.73 412.844 157.73C414.50085 157.73 415.844 159.07315 415.844 160.73Z" fill-rule="nonzero"/><path fill="#000000" fill-opacity="0.0" clip-path="url(#id_0)" d="M425.762 157.94778C425.762 159.60463 424.41885 160.94778 422.762 160.94778C421.10513 160.94778 419.762 159.60463 419.762 157.94778C419.762 156.29092 421.10513 154.94778 422.762 154.94778C424.41885 154.94778 425.762 156.29092 425.762 157.94778Z" fill-rule="nonzero"/><path fill="#000000" fill-opacity="0.0" clip-path="url(#id_0)" d="M435.68 155.16556C435.68 156.8224 434.33685 158.16556 432.68 158.16556C431.02313 158.16556 429.68 156.8224 429.68 155.16556C429.68 153.5087 431.02313 152.16556 432.68 152.16556C434.33685 152.16556 435.68 153.5087 435.68 155.16556Z" fill-rule="nonzero"/><path fill="#000000" fill-opacity="0.0" clip-path="url(#id_0)" d="M445.598 152.38333C445.598 154.04019 444.25485 155.38333 442.598 155.38333C440.94113 155.38333 439.598 154.04019 439.598 152.38333C439.598 150.72649 440.94113 149.38333 442.598 149.38333C444.25485 149.38333 445.598 150.72649 445.598 152.38333Z" fill-rule="nonzero"/><path fill="#000000" fill-opacity="0.0" clip-path="url(#id_0)" d="M455.516 149.6011C455.516 151.25797 454.17285 152.6011 452.516 152.6011C450.85913 152.6011 449.516 151.25797 449.516 149.6011C449.516 147.94426 450.85913 146.6011 452.516 146.6011C454.17285 146.6011 455.516 147.94426 455.516 149.6011Z" fill-rule="nonzero"/><path fill="#000000" fill-opacity="0.0" clip-path="url(#id_0)" d="M465.434 149.6011C465.434 151.25797 464.09085 152.6011 462.434 152.6011C460.77716 152.6011 459.434 151.25797 459.434 149.6011C459.434 147.94426 460.77716 146.6011 462.434 146.6011C464.09085 146.6011 465.434 147.94426 465.434 149.6011Z" fill-rule="nonzero"/><path fill="#000000" fill-opacity="0.0" clip-path="url(#id_0)" d="M475.352 144.03667C475.352 145.69353 474.00885 147.03667 472.352 147.03667C470.69516 147.03667 469.352 145.69353 469.352 144.03667C469.352 142.3798 470.69516 141.03667 472.352 141.03667C474.00885 141.03667 475.352 142.3798 475.352 144.03667Z" fill-rule="nonzero"/><path fill="#000000" fill-opacity="0.0" clip-path="url(#id_0)" d="M485.27 141.25444C485.27 142.9113 483.92685 144.25444 482.27 144.25444C480.61316 144.25444 479.27 142.9113 479.27 141.25444C479.27 139.5976 480.61316 138.25444 482.27 138.25444C483.92685 138.25444 485.27 139.5976 485.27 141.25444Z" fill-rule="nonzero"/><path fill="#000000" fill-opacity="0.0" clip-path="url(#id_0)" d="M495.188 138.47223C495.188 140.12907 493.84485 141.47223 492.188 141.47223C490.53116 141.47223 489.188 140.12907 489.188 138.47223C489.188 136.81537 490.53116 135.47223 492.188 135.47223C493.84485 135.47223 495.188 136.81537 495.188 138.47223Z" fill-rule="nonzero"/><path fill="#000000" fill-opacity="0.0" clip-path="url(#id_0)" d="M505.106 138.47223C505.106 140.12907 503.76285 141.47223 502.106 141.47223C500.44916 141.47223 499.106 140.12907 499.106 138.47223C499.106 136.81537 500.44916 135.47223 502.106 135.47223C503.76285 135.47223 505.106 136.81537 505.106 138.47223Z" fill-rule="nonzero"/><path fill="#000000" fill-opacity="0.0" clip-path="url(#id_0)" d="M515.024 135.69C515.024 137.34685 513.68085 138.69 512.024 138.69C510.36716 138.69 509.024 137.34685 509.024 135.69C509.024 134.03314 510.36716 132.69 512.024 132.69C513.68085 132.69 515.024 134.03314 515.024 135.69Z" fill-rule="nonzero"/><path fill="#000000" fill-opacity="0.0" clip-path="url(#id_0)" d="M524.942 130.12555C524.942 131.78241 523.5989 133.12555 521.942 133.12555C520.28516 133.12555 518.942 131.78241 518.942 130.12555C518.942 128.4687 520.28516 127.12556 521.942 127.12556C523.5989 127.12556 524.942 128.4687 524.942 130.12555Z" fill-rule="nonzero"/><path fill="#000000" fill-opacity="0.0" clip-path="url(#id_0)" d="M534.86 132.90778C534.86 134.56464 533.51685 135.90778 531.86 135.90778C530.2031 135.90778 528.86 134.56464 528.86 132.90778C528.86 131.25093 530.2031 129.90778 531.86 129.90778C533.51685 129.90778 534.86 131.25093 534.86 132.90778Z" fill-rule="nonzero"/><path fill="#000000" fill-opacity="0.0" clip-path="url(#id_0)" d="M544.778 130.12555C544.778 131.78241 543.4349 133.12555 541.778 133.12555C540.12115 133.12555 538.778 131.78241 538.778 130.12555C538.778 128.4687 540.12115 127.12556 541.778 127.12556C543.4349 127.12556 544.778 128.4687 544.778 130.12555Z" fill-rule="nonzero"/><path fill="#000000" fill-opacity="0.0" clip-path="url(#id_0)" d="M554.696 124.56111C554.696 126.217964 553.35284 127.56111 551.696 127.56111C550.0391 127.56111 548.696 126.217964 548.696 124.56111C548.696 122.90426 550.0391 121.56111 551.696 121.56111C553.35284 121.56111 554.696 122.90426 554.696 124.56111Z" fill-rule="nonzero"/><path fill="#000000" fill-opacity="0.0" clip-path="url(#id_0)" d="M564.614 121.77889C564.614 123.435745 563.2709 124.77889 561.614 124.77889C559.95715 124.77889 558.614 123.435745 558.614 121.77889C558.614 120.12203 559.95715 118.77889 561.614 118.77889C563.2709 118.77889 564.614 120.12203 564.614 121.77889Z" fill-rule="nonzero"/><path fill="#000000" fill-opacity="0.0" clip-path="url(#id_0)" d="M574.532 118.996666C574.532 120.65352 573.18884 121.996666 571.532 121.996666C569.8751 121.996666 568.532 120.65352 568.532 118.996666C568.532 117.33981 569.8751 115.996666 571.532 115.996666C573.18884 115.996666 574.532 117.33981 574.532 118.996666Z" fill-rule="nonzero"/><path fill="#000000" fill-opacity="0.0" clip-path="url(#id_0)" d="M584.45 118.996666C584.45 120.65352 583.1069 121.996666 581.45 121.996666C579.79315 121.996666 578.45 120.65352 578.45 118.996666C578.45 117.33981 579.79315 115.996666 581.45 115.996666C583.1069 115.996666 584.45 117.33981 584.45 118.996666Z" fill-rule="nonzero"/><path fill="#000000" fill-opacity="0.0" clip-path="url(#id_0)" d="M98.468 263.6722C98.468 265.32907 97.124855 266.6722 95.468 266.6722C93.81114 266.6722 92.468 265.32907 92.468 263.6722C92.468 262.01538 93.81114 260.6722 95.468 260.6722C97.124855 260.6722 98.468 262.01538 98.468 263.6722Z" fill-rule="nonzero"/><path fill="#000000" fill-opacity="0.0" clip-path="url(#id_0)" d="M108.386 263.6722C108.386 265.32907 107.042854 266.6722 105.386 266.6722C103.72915 266.6722 102.386 265.32907 102.386 263.6722C102.386 262.01538 103.72915 260.6722 105.386 260.6722C107.042854 260.6722 108.386 262.01538 108.386 263.6722Z" fill-rule="nonzero"/><path fill="#000000" fill-opacity="0.0" clip-path="url(#id_0)" d="M118.304 263.6722C118.304 265.32907 116.96085 266.6722 115.304 266.6722C113.64715 266.6722 112.304 265.32907 112.304 263.6722C112.304 262.01538 113.64715 260.6722 115.304 260.6722C116.96085 260.6722 118.304 262.01538 118.304 263.6722Z" fill-rule="nonzero"/><path fill="#000000" fill-opacity="0.0" clip-path="url(#id_0)" d="M128.222 263.6722C128.222 265.32907 126.87885 266.6722 125.222 266.6722C123.56515 266.6722 122.222 265.32907 122.222 263.6722C122.222 262.01538 123.56515 260.6722 125.222 260.6722C126.87885 260.6722 128.222 262.01538 128.222 263.6722Z" fill-rule="nonzero"/><path fill="#000000" fill-opacity="0.0" clip-path="url(#id_0)" d="M138.14 224.72112C138.14 226.37796 136.79686 227.72112 135.14 227.72112C133.48314 227.72112 132.14 226.37796 132.14 224.72112C132.14 223.06425 133.48314 221.72112 135.14 221.72112C136.79686 221.72112 138.14 223.06425 138.14 224.72112Z" fill-rule="nonzero"/><path fill="#000000" fill-opacity="0.0" clip-path="url(#id_0)" d="M148.058 277.58334C148.058 279.24017 146.71486 280.58334 145.058 280.58334C143.40114 280.58334 142.058 279.24017 142.058 277.58334C142.058 275.92648 143.40114 274.58334 145.058 274.58334C146.71486 274.58334 148.058 275.92648 148.058 277.58334Z" fill-rule="nonzero"/><path fill="#000000" fill-opacity="0.0" clip-path="url(#id_0)" d="M157.976 269.23666C157.976 270.89352 156.63286 272.23666 154.976 272.23666C153.31915 272.23666 151.976 270.89352 151.976 269.23666C151.976 267.5798 153.31915 266.23666 154.976 266.23666C156.63286 266.23666 157.976 267.5798 157.976 269.23666Z" fill-rule="nonzero"/><path fill="#000000" fill-opacity="0.0" clip-path="url(#id_0)" d="M167.894 258.1078C167.894 259.76462 166.55086 261.1078 164.894 261.1078C163.23715 261.1078 161.894 259.76462 161.894 258.1078C161.894 256.45093 163.23715 255.10777 164.894 255.10777C166.55086 255.10777 167.894 256.45093 167.894 258.1078Z" fill-rule="nonzero"/><path fill="#000000" fill-opacity="0.0" clip-path="url(#id_0)" d="M177.812 258.1078C177.812 259.76462 176.46886 261.1078 174.812 261.1078C173.15515 261.1078 171.812 259.76462 171.812 258.1078C171.812 256.45093 173.15515 255.10777 174.812 255.10777C176.46886 255.10777 177.812 256.45093 177.812 258.1078Z" fill-rule="nonzero"/><path fill="#000000" fill-opacity="0.0" clip-path="url(#id_0)" d="M187.73 260.89C187.73 262.54684 186.38686 263.89 184.73 263.89C183.07315 263.89 181.73 262.54684 181.73 260.89C181.73 259.23315 183.07315 257.89 184.73 257.89C186.38686 257.89 187.73 259.23315 187.73 260.89Z" fill-rule="nonzero"/><path fill="#000000" fill-opacity="0.0" clip-path="url(#id_0)" d="M197.648 260.89C197.648 262.54684 196.30486 263.89 194.648 263.89C192.99115 263.89 191.648 262.54684 191.648 260.89C191.648 259.23315 192.99115 257.89 194.648 257.89C196.30486 257.89 197.648 259.23315 197.648 260.89Z" fill-rule="nonzero"/><path fill="#000000" fill-opacity="0.0" clip-path="url(#id_0)" d="M207.566 260.89C207.566 262.54684 206.22285 263.89 204.566 263.89C202.90915 263.89 201.566 262.54684 201.566 260.89C201.566 259.23315 202.90915 257.89 204.566 257.89C206.22285 257.89 207.566 259.23315 207.566 260.89Z" fill-rule="nonzero"/><path fill="#000000" fill-opacity="0.0" clip-path="url(#id_0)" d="M217.484 260.89C217.484 262.54684 216.14085 263.89 214.484 263.89C212.82715 263.89 211.484 262.54684 211.484 260.89C211.484 259.23315 212.82715 257.89 214.484 257.89C216.14085 257.89 217.484 259.23315 217.484 260.89Z" fill-rule="nonzero"/><path fill="#000000" fill-opacity="0.0" clip-path="url(#id_0)" d="M227.402 260.89C227.402 262.54684 226.05885 263.89 224.402 263.89C222.74515 263.89 221.402 262.54684 221.402 260.89C221.402 259.23315 222.74515 257.89 224.402 257.89C226.05885 257.89 227.402 259.23315 227.402 260.89Z" fill-rule="nonzero"/><path fill="#000000" fill-opacity="0.0" clip-path="url(#id_0)" d="M237.32 260.89C237.32 262.54684 235.97685 263.89 234.32 263.89C232.66315 263.89 231.32 262.54684 231.32 260.89C231.32 259.23315 232.66315 257.89 234.32 257.89C235.97685 257.89 237.32 259.23315 237.32 260.89Z" fill-rule="nonzero"/><path fill="#000000" fill-opacity="0.0" clip-path="url(#id_0)" d="M247.238 260.89C247.238 262.54684 245.89485 263.89 244.238 263.89C242.58115 263.89 241.238 262.54684 241.238 260.89C241.238 259.23315 242.58115 257.89 244.238 257.89C245.89485 257.89 247.238 259.23315 247.238 260.89Z" fill-rule="nonzero"/><path fill="#000000" fill-opacity="0.0" clip-path="url(#id_0)" d="M257.156 258.1078C257.156 259.76462 255.81285 261.1078 254.156 261.1078C252.49915 261.1078 251.156 259.76462 251.156 258.1078C251.156 256.45093 252.49915 255.10777 254.156 255.10777C255.81285 255.10777 257.156 256.45093 257.156 258.1078Z" fill-rule="nonzero"/><path fill="#000000" fill-opacity="0.0" clip-path="url(#id_0)" d="M267.074 263.6722C267.074 265.32907 265.73087 266.6722 264.074 266.6722C262.41714 266.6722 261.074 265.32907 261.074 263.6722C261.074 262.01538 262.41714 260.6722 264.074 260.6722C265.73087 260.6722 267.074 262.01538 267.074 263.6722Z" fill-rule="nonzero"/><path fill="#000000" fill-opacity="0.0" clip-path="url(#id_0)" d="M276.992 260.89C276.992 262.54684 275.64886 263.89 273.992 263.89C272.33514 263.89 270.992 262.54684 270.992 260.89C270.992 259.23315 272.33514 257.89 273.992 257.89C275.64886 257.89 276.992 259.23315 276.992 260.89Z" fill-rule="nonzero"/><path fill="#000000" fill-opacity="0.0" clip-path="url(#id_0)" d="M286.91 260.89C286.91 262.54684 285.56686 263.89 283.91 263.89C282.25314 263.89 280.91 262.54684 280.91 260.89C280.91 259.23315 282.25314 257.89 283.91 257.89C285.56686 257.89 286.91 259.23315 286.91 260.89Z" fill-rule="nonzero"/><path fill="#000000" fill-opacity="0.0" clip-path="url(#id_0)" d="M296.828 258.1078C296.828 259.76462 295.48486 261.1078 293.828 261.1078C292.17114 261.1078 290.828 259.76462 290.828 258.1078C290.828 256.45093 292.17114 255.10777 293.828 255.10777C295.48486 255.10777 296.828 256.45093 296.828 258.1078Z" fill-rule="nonzero"/><path fill="#000000" fill-opacity="0.0" clip-path="url(#id_0)" d="M306.746 260.89C306.746 262.54684 305.40286 263.89 303.746 263.89C302.08914 263.89 300.746 262.54684 300.746 260.89C300.746 259.23315 302.08914 257.89 303.746 257.89C305.40286 257.89 306.746 259.23315 306.746 260.89Z" fill-rule="nonzero"/><path fill="#000000" fill-opacity="0.0" clip-path="url(#id_0)" d="M316.664 258.1078C316.664 259.76462 315.32086 261.1078 313.664 261.1078C312.00714 261.1078 310.664 259.76462 310.664 258.1078C310.664 256.45093 312.00714 255.10777 313.664 255.10777C315.32086 255.10777 316.664 256.45093 316.664 258.1078Z" fill-rule="nonzero"/><path fill="#000000" fill-opacity="0.0" clip-path="url(#id_0)" d="M326.582 260.89C326.582 262.54684 325.23886 263.89 323.582 263.89C321.92514 263.89 320.582 262.54684 320.582 260.89C320.582 259.23315 321.92514 257.89 323.582 257.89C325.23886 257.89 326.582 259.23315 326.582 260.89Z" fill-rule="nonzero"/><path fill="#000000" fill-opacity="0.0" clip-path="url(#id_0)" d="M336.5 260.89C336.5 262.54684 335.15686 263.89 333.5 263.89C331.84314 263.89 330.5 262.54684 330.5 260.89C330.5 259.23315 331.84314 257.89 333.5 257.89C335.15686 257.89 336.5 259.23315 336.5 260.89Z" fill-rule="nonzero"/><path fill="#000000" fill-opacity="0.0" clip-path="url(#id_0)" d="M346.418 258.1078C346.418 259.76462 345.07486 261.1078 343.418 261.1078C341.76114 261.1078 340.418 259.76462 340.418 258.1078C340.418 256.45093 341.76114 255.10777 343.418 255.10777C345.07486 255.10777 346.418 256.45093 346.418 258.1078Z" fill-rule="nonzero"/><path fill="#000000" fill-opacity="0.0" clip-path="url(#id_0)" d="M356.336 263.6722C356.336 265.32907 354.99286 266.6722 353.336 266.6722C351.67914 266.6722 350.336 265.32907 350.336 263.6722C350.336 262.01538 351.67914 260.6722 353.336 260.6722C354.99286 260.6722 356.336 262.01538 356.336 263.6722Z" fill-rule="nonzero"/><path fill="#000000" fill-opacity="0.0" clip-path="url(#id_0)" d="M366.254 258.1078C366.254 259.76462 364.91086 261.1078 363.254 261.1078C361.59714 261.1078 360.254 259.76462 360.254 258.1078C360.254 256.45093 361.59714 255.10777 363.254 255.10777C364.91086 255.10777 366.254 256.45093 366.254 258.1078Z" fill-rule="nonzero"/><path fill="#000000" fill-opacity="0.0" clip-path="url(#id_0)" d="M376.172 260.89C376.172 262.54684 374.82886 263.89 373.172 263.89C371.51514 263.89 370.172 262.54684 370.172 260.89C370.172 259.23315 371.51514 257.89 373.172 257.89C374.82886 257.89 376.172 259.23315 376.172 260.89Z" fill-rule="nonzero"/><path fill="#000000" fill-opacity="0.0" clip-path="url(#id_0)" d="M386.09 263.6722C386.09 265.32907 384.74686 266.6722 383.09 266.6722C381.43314 266.6722 380.09 265.32907 380.09 263.6722C380.09 262.01538 381.43314 260.6722 383.09 260.6722C384.74686 260.6722 386.09 262.01538 386.09 263.6722Z" fill-rule="nonzero"/><path fill="#000000" fill-opacity="0.0" clip-path="url(#id_0)" d="M396.008 258.1078C396.008 259.76462 394.66486 261.1078 393.008 261.1078C391.35114 261.1078 390.008 259.76462 390.008 258.1078C390.008 256.45093 391.35114 255.10777 393.008 255.10777C394.66486 255.10777 396.008 256.45093 396.008 258.1078Z" fill-rule="nonzero"/><path fill="#000000" fill-opacity="0.0" clip-path="url(#id_0)" d="M405.926 263.6722C405.926 265.32907 404.58286 266.6722 402.926 266.6722C401.26913 266.6722 399.926 265.32907 399.926 263.6722C399.926 262.01538 401.26913 260.6722 402.926 260.6722C404.58286 260.6722 405.926 262.01538 405.926 263.6722Z" fill-rule="nonzero"/><path fill="#000000" fill-opacity="0.0" clip-path="url(#id_0)" d="M415.844 260.89C415.844 262.54684 414.50085 263.89 412.844 263.89C411.18713 263.89 409.844 262.54684 409.844 260.89C409.844 259.23315 411.18713 257.89 412.844 257.89C414.50085 257.89 415.844 259.23315 415.844 260.89Z" fill-rule="nonzero"/><path fill="#000000" fill-opacity="0.0" clip-path="url(#id_0)" d="M425.762 260.89C425.762 262.54684 424.41885 263.89 422.762 263.89C421.10513 263.89 419.762 262.54684 419.762 260.89C419.762 259.23315 421.10513 257.89 422.762 257.89C424.41885 257.89 425.762 259.23315 425.762 260.89Z" fill-rule="nonzero"/><path fill="#000000" fill-opacity="0.0" clip-path="url(#id_0)" d="M435.68 260.89C435.68 262.54684 434.33685 263.89 432.68 263.89C431.02313 263.89 429.68 262.54684 429.68 260.89C429.68 259.23315 431.02313 257.89 432.68 257.89C434.33685 257.89 435.68 259.23315 435.68 260.89Z" fill-rule="nonzero"/><path fill="#000000" fill-opacity="0.0" clip-path="url(#id_0)" d="M445.598 260.89C445.598 262.54684 444.25485 263.89 442.598 263.89C440.94113 263.89 439.598 262.54684 439.598 260.89C439.598 259.23315 440.94113 257.89 442.598 257.89C444.25485 257.89 445.598 259.23315 445.598 260.89Z" fill-rule="nonzero"/><path fill="#000000" fill-opacity="0.0" clip-path="url(#id_0)" d="M455.516 260.89C455.516 262.54684 454.17285 263.89 452.516 263.89C450.85913 263.89 449.516 262.54684 449.516 260.89C449.516 259.23315 450.85913 257.89 452.516 257.89C454.17285 257.89 455.516 259.23315 455.516 260.89Z" fill-rule="nonzero"/><path fill="#000000" fill-opacity="0.0" clip-path="url(#id_0)" d="M465.434 263.6722C465.434 265.32907 464.09085 266.6722 462.434 266.6722C460.77716 266.6722 459.434 265.32907 459.434 263.6722C459.434 262.01538 460.77716 260.6722 462.434 260.6722C464.09085 260.6722 465.434 262.01538 465.434 263.6722Z" fill-rule="nonzero"/><path fill="#000000" fill-opacity="0.0" clip-path="url(#id_0)" d="M475.352 258.1078C475.352 259.76462 474.00885 261.1078 472.352 261.1078C470.69516 261.1078 469.352 259.76462 469.352 258.1078C469.352 256.45093 470.69516 255.10777 472.352 255.10777C474.00885 255.10777 475.352 256.45093 475.352 258.1078Z" fill-rule="nonzero"/><path fill="#000000" fill-opacity="0.0" clip-path="url(#id_0)" d="M485.27 260.89C485.27 262.54684 483.92685 263.89 482.27 263.89C480.61316 263.89 479.27 262.54684 479.27 260.89C479.27 259.23315 480.61316 257.89 482.27 257.89C483.92685 257.89 485.27 259.23315 485.27 260.89Z" fill-rule="nonzero"/><path fill="#000000" fill-opacity="0.0" clip-path="url(#id_0)" d="M495.188 260.89C495.188 262.54684 493.84485 263.89 492.188 263.89C490.53116 263.89 489.188 262.54684 489.188 260.89C489.188 259.23315 490.53116 257.89 492.188 257.89C493.84485 257.89 495.188 259.23315 495.188 260.89Z" fill-rule="nonzero"/><path fill="#000000" fill-opacity="0.0" clip-path="url(#id_0)" d="M505.106 263.6722C505.106 265.32907 503.76285 266.6722 502.106 266.6722C500.44916 266.6722 499.106 265.32907 499.106 263.6722C499.106 262.01538 500.44916 260.6722 502.106 260.6722C503.76285 260.6722 505.106 262.01538 505.106 263.6722Z" fill-rule="nonzero"/><path fill="#000000" fill-opacity="0.0" clip-path="url(#id_0)" d="M515.024 260.89C515.024 262.54684 513.68085 263.89 512.024 263.89C510.36716 263.89 509.024 262.54684 509.024 260.89C509.024 259.23315 510.36716 257.89 512.024 257.89C513.68085 257.89 515.024 259.23315 515.024 260.89Z" fill-rule="nonzero"/><path fill="#000000" fill-opacity="0.0" clip-path="url(#id_0)" d="M524.942 258.1078C524.942 259.76462 523.5989 261.1078 521.942 261.1078C520.28516 261.1078 518.942 259.76462 518.942 258.1078C518.942 256.45093 520.28516 255.10777 521.942 255.10777C523.5989 255.10777 524.942 256.45093 524.942 258.1078Z" fill-rule="nonzero"/><path fill="#000000" fill-opacity="0.0" clip-path="url(#id_0)" d="M534.86 266.45444C534.86 268.1113 533.51685 269.45444 531.86 269.45444C530.2031 269.45444 528.86 268.1113 528.86 266.45444C528.86 264.79758 530.2031 263.45444 531.86 263.45444C533.51685 263.45444 534.86 264.79758 534.86 266.45444Z" fill-rule="nonzero"/><path fill="#000000" fill-opacity="0.0" clip-path="url(#id_0)" d="M544.778 260.89C544.778 262.54684 543.4349 263.89 541.778 263.89C540.12115 263.89 538.778 262.54684 538.778 260.89C538.778 259.23315 540.12115 257.89 541.778 257.89C543.4349 257.89 544.778 259.23315 544.778 260.89Z" fill-rule="nonzero"/><path fill="#000000" fill-opacity="0.0" clip-path="url(#id_0)" d="M554.696 258.1078C554.696 259.76462 553.35284 261.1078 551.696 261.1078C550.0391 261.1078 548.696 259.76462 548.696 258.1078C548.696 256.45093 550.0391 255.10777 551.696 255.10777C553.35284 255.10777 554.696 256.45093 554.696 258.1078Z" fill-rule="nonzero"/><path fill="#000000" fill-opacity="0.0" clip-path="url(#id_0)" d="M564.614 260.89C564.614 262.54684 563.2709 263.89 561.614 263.89C559.95715 263.89 558.614 262.54684 558.614 260.89C558.614 259.23315 559.95715 257.89 561.614 257.89C563.2709 257.89 564.614 259.23315 564.614 260.89Z" fill-rule="nonzero"/><path fill="#000000" fill-opacity="0.0" clip-path="url(#id_0)" d="M574.532 260.89C574.532 262.54684 573.18884 263.89 571.532 263.89C569.8751 263.89 568.532 262.54684 568.532 260.89C568.532 259.23315 569.8751 257.89 571.532 257.89C573.18884 257.89 574.532 259.23315 574.532 260.89Z" fill-rule="nonzero"/><path fill="#000000" fill-opacity="0.0" clip-path="url(#id_0)" d="M584.45 263.6722C584.45 265.32907 583.1069 266.6722 581.45 266.6722C579.79315 266.6722 578.45 265.32907 578.45 263.6722C578.45 262.01538 579.79315 260.6722 581.45 260.6722C583.1069 260.6722 584.45 262.01538 584.45 263.6722Z" fill-rule="nonzero"/><path fill="#424242" d="M321.10938 346.10626L321.10938 349.45L319.98438 349.45L319.98438 340.91876L323.14062 340.91876Q324.53125 340.91876 325.32812 341.6375Q326.125 342.34064 326.125 343.52814Q326.125 344.7625 325.34375 345.4344Q324.57812 346.10626 323.125 346.10626L321.10938 346.10626ZM321.10938 345.1844L323.14062 345.1844Q324.04688 345.1844 324.51562 344.7625Q325.0 344.34064 325.0 343.54376Q325.0 342.77814 324.51562 342.325Q324.04688 341.85626 323.20312 341.84064L321.10938 341.84064L321.10938 345.1844ZM329.82812 346.7625L330.0 347.8875L330.23438 346.8719L331.92188 340.91876L332.875 340.91876L334.51562 346.8719L334.75 347.90314L334.9375 346.7469L336.26562 340.91876L337.39062 340.91876L335.32812 349.45L334.29688 349.45L332.53125 343.23126L332.40625 342.575L332.26562 343.23126L330.45312 349.45L329.42188 349.45L327.35938 340.91876L328.48438 340.91876L329.82812 346.7625ZM340.4375 340.91876L343.23438 347.8719L346.01562 340.91876L347.48438 340.91876L347.48438 349.45L346.35938 349.45L346.35938 346.1219L346.46875 342.54376L343.65625 349.45L342.79688 349.45L340.0 342.5594L340.10938 346.1219L340.10938 349.45L338.98438 349.45L338.98438 340.91876L340.4375 340.91876Z" fill-rule="nonzero"/><path fill="#424242" d="M27.096888 209.24167L27.096888 211.2573L30.550013 211.2573L30.550013 212.3823L22.018763 212.3823L22.018763 209.55417Q22.018763 208.11667 22.675013 207.35104Q23.331263 206.5698 24.581263 206.5698Q25.378138 206.5698 25.971888 207.0073Q26.565638 207.42917 26.862513 208.1948L30.471888 206.1948L30.550013 206.1948L30.550013 207.39792L27.096888 209.24167ZM26.175013 211.2573L26.175013 209.52292Q26.175013 208.67917 25.753138 208.1948Q25.315638 207.6948 24.581263 207.6948Q23.800013 207.6948 23.378138 208.16354Q22.956263 208.6323 22.940638 209.52292L22.940638 211.2573L26.175013 211.2573ZM27.206263 204.2573L30.550013 204.2573L30.550013 205.3823L22.018763 205.3823L22.018763 202.22604Q22.018763 200.83542 22.737513 200.03854Q23.440638 199.24167 24.628138 199.24167Q25.862513 199.24167 26.534388 200.02292Q27.206263 200.78854 27.206263 202.24167L27.206263 204.2573ZM26.284388 204.2573L26.284388 202.22604Q26.284388 201.3198 25.862513 200.85104Q25.440638 200.36667 24.643763 200.36667Q23.878138 200.36667 23.425013 200.85104Q22.956263 201.3198 22.940638 202.16354L22.940638 204.2573L26.284388 204.2573ZM22.018763 195.92917L28.971888 193.1323L22.018763 190.35104L22.018763 188.8823L30.550013 188.8823L30.550013 190.0073L27.221888 190.0073L23.643763 189.89792L30.550013 192.71042L30.550013 193.5698L23.659388 196.36667L27.221888 196.2573L30.550013 196.2573L30.550013 197.3823L22.018763 197.3823L22.018763 195.92917Z" fill-rule="nonzero"/><path fill="#757575" d="M58.628124 299.7625L55.76875 299.7625L55.76875 298.8875L58.628124 298.8875L58.628124 299.7625ZM64.84688 302.95L59.253124 302.95L59.253124 302.16876L62.20625 298.8875Q62.8625 298.1375 63.1125 297.6844Q63.3625 297.21564 63.3625 296.71564Q63.3625 296.04376 62.95625 295.6219Q62.565624 295.1844 61.878124 295.1844Q61.08125 295.1844 60.628124 295.65314Q60.175 296.10626 60.175 296.9344L59.096874 296.9344Q59.096874 295.7469 59.846874 295.02814Q60.6125 294.29376 61.878124 294.29376Q63.08125 294.29376 63.76875 294.91876Q64.45625 295.54376 64.45625 296.59064Q64.45625 297.84064 62.846874 299.59064L60.565624 302.0594L64.84688 302.0594L64.84688 302.95ZM66.75313 298.66876L67.19063 294.41876L71.56563 294.41876L71.56563 295.41876L68.1125 295.41876L67.84688 297.7469Q68.4875 297.3719 69.28438 297.3719Q70.44063 297.3719 71.12813 298.15314Q71.81563 298.91876 71.81563 300.23126Q71.81563 301.54376 71.09688 302.3094Q70.39375 303.075 69.1125 303.075Q67.9875 303.075 67.26875 302.45Q66.55 301.8094 66.45625 300.7L67.47188 300.7Q67.58125 301.4344 68.00313 301.8094Q68.425 302.1844 69.1125 302.1844Q69.8625 302.1844 70.3 301.66876Q70.7375 301.15314 70.7375 300.2469Q70.7375 299.3875 70.26875 298.8719Q69.8 298.35626 69.01875 298.35626Q68.31563 298.35626 67.90938 298.65314L67.62813 298.8875L66.75313 298.66876ZM78.6125 299.3094Q78.6125 301.21564 77.95625 302.15314Q77.31563 303.075 75.925 303.075Q74.56563 303.075 73.90938 302.16876Q73.25313 301.2625 73.22188 299.45L73.22188 298.0125Q73.22188 296.1219 73.8625 295.21564Q74.51875 294.29376 75.90938 294.29376Q77.28438 294.29376 77.94063 295.1844Q78.59688 296.0594 78.6125 297.90314L78.6125 299.3094ZM77.51875 297.825Q77.51875 296.45 77.12813 295.825Q76.75313 295.1844 75.90938 295.1844Q75.08125 295.1844 74.69063 295.825Q74.31563 296.45 74.31563 297.7469L74.31563 299.48126Q74.31563 300.85626 74.70625 301.52814Q75.1125 302.1844 75.925 302.1844Q76.72188 302.1844 77.1125 301.5594Q77.50313 300.9344 77.51875 299.60626L77.51875 297.825Z" fill-rule="nonzero"/><path fill="#757575" d="M78.6125 264.5316Q78.6125 266.43784 77.95625 267.37534Q77.31563 268.2972 75.925 268.2972Q74.56563 268.2972 73.90938 267.39096Q73.25313 266.4847 73.22188 264.6722L73.22188 263.2347Q73.22188 261.3441 73.8625 260.43784Q74.51875 259.51596 75.90938 259.51596Q77.28438 259.51596 77.94063 260.4066Q78.59688 261.2816 78.6125 263.12534L78.6125 264.5316ZM77.51875 263.0472Q77.51875 261.6722 77.12813 261.0472Q76.75313 260.4066 75.90938 260.4066Q75.08125 260.4066 74.69063 261.0472Q74.31563 261.6722 74.31563 262.9691L74.31563 264.70346Q74.31563 266.07846 74.70625 266.75034Q75.1125 267.4066 75.925 267.4066Q76.72188 267.4066 77.1125 266.7816Q77.50313 266.1566 77.51875 264.82846L77.51875 263.0472Z" fill-rule="nonzero"/><path fill="#757575" d="M64.84688 233.39444L59.253124 233.39444L59.253124 232.61319L62.20625 229.33194Q62.8625 228.58194 63.1125 228.12881Q63.3625 227.66006 63.3625 227.16006Q63.3625 226.48819 62.95625 226.06631Q62.565624 225.62881 61.878124 225.62881Q61.08125 225.62881 60.628124 226.09756Q60.175 226.55069 60.175 227.37881L59.096874 227.37881Q59.096874 226.19131 59.846874 225.47256Q60.6125 224.73819 61.878124 224.73819Q63.08125 224.73819 63.76875 225.36319Q64.45625 225.98819 64.45625 227.03506Q64.45625 228.28506 62.846874 230.03506L60.565624 232.50381L64.84688 232.50381L64.84688 233.39444ZM66.75313 229.11319L67.19063 224.86319L71.56563 224.86319L71.56563 225.86319L68.1125 225.86319L67.84688 228.19131Q68.4875 227.81631 69.28438 227.81631Q70.44063 227.81631 71.12813 228.59756Q71.81563 229.36319 71.81563 230.67569Q71.81563 231.98819 71.09688 232.75381Q70.39375 233.51944 69.1125 233.51944Q67.9875 233.51944 67.26875 232.89444Q66.55 232.25381 66.45625 231.14444L67.47188 231.14444Q67.58125 231.87881 68.00313 232.25381Q68.425 232.62881 69.1125 232.62881Q69.8625 232.62881 70.3 232.11319Q70.7375 231.59756 70.7375 230.69131Q70.7375 229.83194 70.26875 229.31631Q69.8 228.80069 69.01875 228.80069Q68.31563 228.80069 67.90938 229.09756L67.62813 229.33194L66.75313 229.11319ZM78.6125 229.75381Q78.6125 231.66006 77.95625 232.59756Q77.31563 233.51944 75.925 233.51944Q74.56563 233.51944 73.90938 232.61319Q73.25313 231.70694 73.22188 229.89444L73.22188 228.45694Q73.22188 226.56631 73.8625 225.66006Q74.51875 224.73819 75.90938 224.73819Q77.28438 224.73819 77.94063 225.62881Q78.59688 226.50381 78.6125 228.34756L78.6125 229.75381ZM77.51875 228.26944Q77.51875 226.89444 77.12813 226.26944Q76.75313 225.62881 75.90938 225.62881Q75.08125 225.62881 74.69063 226.26944Q74.31563 226.89444 74.31563 228.19131L74.31563 229.92569Q74.31563 231.30069 74.70625 231.97256Q75.1125 232.62881 75.925 232.62881Q76.72188 232.62881 77.1125 232.00381Q77.50313 231.37881 77.51875 230.05069L77.51875 228.26944Z" fill-rule="nonzero"/><path fill="#757575" d="M59.753124 194.33542L60.190624 190.08542L64.56563 190.08542L64.56563 191.08542L61.1125 191.08542L60.846874 193.41354Q61.4875 193.03854 62.284374 193.03854Q63.440624 193.03854 64.12813 193.8198Q64.81563 194.58542 64.81563 195.89792Q64.81563 197.21042 64.09688 197.97604Q63.39375 198.74167 62.1125 198.74167Q60.9875 198.74167 60.26875 198.11667Q59.55 197.47604 59.45625 196.36667L60.471874 196.36667Q60.58125 197.10104 61.003124 197.47604Q61.425 197.85104 62.1125 197.85104Q62.8625 197.85104 63.3 197.33542Q63.7375 196.8198 63.7375 195.91354Q63.7375 195.05417 63.26875 194.53854Q62.8 194.02292 62.01875 194.02292Q61.315624 194.02292 60.909374 194.3198L60.628124 194.55417L59.753124 194.33542ZM71.6125 194.97604Q71.6125 196.8823 70.95625 197.8198Q70.31563 198.74167 68.925 198.74167Q67.56563 198.74167 66.90938 197.83542Q66.25313 196.92917 66.22188 195.11667L66.22188 193.67917Q66.22188 191.78854 66.8625 190.8823Q67.51875 189.96042 68.90938 189.96042Q70.28438 189.96042 70.94063 190.85104Q71.59688 191.72604 71.6125 193.5698L71.6125 194.97604ZM70.51875 193.49167Q70.51875 192.11667 70.12813 191.49167Q69.75313 190.85104 68.90938 190.85104Q68.08125 190.85104 67.69063 191.49167Q67.31563 192.11667 67.31563 193.41354L67.31563 195.14792Q67.31563 196.52292 67.70625 197.1948Q68.1125 197.85104 68.925 197.85104Q69.72188 197.85104 70.1125 197.22604Q70.50313 196.60104 70.51875 195.27292L70.51875 193.49167ZM78.6125 194.97604Q78.6125 196.8823 77.95625 197.8198Q77.31563 198.74167 75.925 198.74167Q74.56563 198.74167 73.90938 197.83542Q73.25313 196.92917 73.22188 195.11667L73.22188 193.67917Q73.22188 191.78854 73.8625 190.8823Q74.51875 189.96042 75.90938 189.96042Q77.28438 189.96042 77.94063 190.85104Q78.59688 191.72604 78.6125 193.5698L78.6125 194.97604ZM77.51875 193.49167Q77.51875 192.11667 77.12813 191.49167Q76.75313 190.85104 75.90938 190.85104Q75.08125 190.85104 74.69063 191.49167Q74.31563 192.11667 74.31563 193.41354L74.31563 195.14792Q74.31563 196.52292 74.70625 197.1948Q75.1125 197.85104 75.925 197.85104Q76.72188 197.85104 77.1125 197.22604Q77.50313 196.60104 77.51875 195.27292L77.51875 193.49167Z" fill-rule="nonzero"/><path fill="#757575" d="M64.76875 155.917L61.2375 163.83888L60.096874 163.83888L63.6125 156.19826L59.003124 156.19826L59.003124 155.30763L64.76875 155.30763L64.76875 155.917ZM66.75313 159.55763L67.19063 155.30763L71.56563 155.30763L71.56563 156.30763L68.1125 156.30763L67.84688 158.63576Q68.4875 158.26076 69.28438 158.26076Q70.44063 158.26076 71.12813 159.042Q71.81563 159.80763 71.81563 161.12013Q71.81563 162.43263 71.09688 163.19826Q70.39375 163.96388 69.1125 163.96388Q67.9875 163.96388 67.26875 163.33888Q66.55 162.69826 66.45625 161.58888L67.47188 161.58888Q67.58125 162.32326 68.00313 162.69826Q68.425 163.07326 69.1125 163.07326Q69.8625 163.07326 70.3 162.55763Q70.7375 162.042 70.7375 161.13576Q70.7375 160.27638 70.26875 159.76076Q69.8 159.24513 69.01875 159.24513Q68.31563 159.24513 67.90938 159.542L67.62813 159.77638L66.75313 159.55763ZM78.6125 160.19826Q78.6125 162.1045 77.95625 163.042Q77.31563 163.96388 75.925 163.96388Q74.56563 163.96388 73.90938 163.05763Q73.25313 162.15138 73.22188 160.33888L73.22188 158.90138Q73.22188 157.01076 73.8625 156.1045Q74.51875 155.18263 75.90938 155.18263Q77.28438 155.18263 77.94063 156.07326Q78.59688 156.94826 78.6125 158.792L78.6125 160.19826ZM77.51875 158.71388Q77.51875 157.33888 77.12813 156.71388Q76.75313 156.07326 75.90938 156.07326Q75.08125 156.07326 74.69063 156.71388Q74.31563 157.33888 74.31563 158.63576L74.31563 160.37013Q74.31563 161.74513 74.70625 162.417Q75.1125 163.07326 75.925 163.07326Q76.72188 163.07326 77.1125 162.44826Q77.50313 161.82326 77.51875 160.49513L77.51875 158.71388Z" fill-rule="nonzero"/><path fill="#757575" d="M55.815624 129.06111L54.7375 129.06111L54.7375 121.84236L52.55 122.63924L52.55 121.65486L55.659374 120.48299L55.815624 120.48299L55.815624 129.06111ZM64.6125 125.42049Q64.6125 127.32674 63.95625 128.26424Q63.315624 129.18611 61.925 129.18611Q60.565624 129.18611 59.909374 128.27986Q59.253124 127.37361 59.221874 125.56111L59.221874 124.12361Q59.221874 122.23299 59.8625 121.32674Q60.51875 120.40486 61.909374 120.40486Q63.284374 120.40486 63.940624 121.29549Q64.59688 122.17049 64.6125 124.01424L64.6125 125.42049ZM63.51875 123.93611Q63.51875 122.56111 63.128124 121.93611Q62.753124 121.29549 61.909374 121.29549Q61.08125 121.29549 60.690624 121.93611Q60.315624 122.56111 60.315624 123.85799L60.315624 125.59236Q60.315624 126.96736 60.70625 127.63924Q61.1125 128.29549 61.925 128.29549Q62.721874 128.29549 63.1125 127.67049Q63.503124 127.04549 63.51875 125.71736L63.51875 123.93611ZM71.6125 125.42049Q71.6125 127.32674 70.95625 128.26424Q70.31563 129.18611 68.925 129.18611Q67.56563 129.18611 66.90938 128.27986Q66.25313 127.37361 66.22188 125.56111L66.22188 124.12361Q66.22188 122.23299 66.8625 121.32674Q67.51875 120.40486 68.90938 120.40486Q70.28438 120.40486 70.94063 121.29549Q71.59688 122.17049 71.6125 124.01424L71.6125 125.42049ZM70.51875 123.93611Q70.51875 122.56111 70.12813 121.93611Q69.75313 121.29549 68.90938 121.29549Q68.08125 121.29549 67.69063 121.93611Q67.31563 122.56111 67.31563 123.85799L67.31563 125.59236Q67.31563 126.96736 67.70625 127.63924Q68.1125 128.29549 68.925 128.29549Q69.72188 128.29549 70.1125 127.67049Q70.50313 127.04549 70.51875 125.71736L70.51875 123.93611ZM78.6125 125.42049Q78.6125 127.32674 77.95625 128.26424Q77.31563 129.18611 75.925 129.18611Q74.56563 129.18611 73.90938 128.27986Q73.25313 127.37361 73.22188 125.56111L73.22188 124.12361Q73.22188 122.23299 73.8625 121.32674Q74.51875 120.40486 75.90938 120.40486Q77.28438 120.40486 77.94063 121.29549Q78.59688 122.17049 78.6125 124.01424L78.6125 125.42049ZM77.51875 123.93611Q77.51875 122.56111 77.12813 121.93611Q76.75313 121.29549 75.90938 121.29549Q75.08125 121.29549 74.69063 121.93611Q74.31563 122.56111 74.31563 123.85799L74.31563 125.59236Q74.31563 126.96736 74.70625 127.63924Q75.1125 128.29549 75.925 128.29549Q76.72188 128.29549 77.1125 127.67049Q77.50313 127.04549 77.51875 125.71736L77.51875 123.93611Z" fill-rule="nonzero"/><path fill="#757575" d="M55.815624 94.28333L54.7375 94.28333L54.7375 87.06458L52.55 87.86146L52.55 86.87708L55.659374 85.70521L55.815624 85.70521L55.815624 94.28333ZM64.84688 94.28333L59.253124 94.28333L59.253124 93.50208L62.20625 90.22083Q62.8625 89.47083 63.1125 89.01771Q63.3625 88.54896 63.3625 88.04896Q63.3625 87.37708 62.95625 86.95521Q62.565624 86.51771 61.878124 86.51771Q61.08125 86.51771 60.628124 86.98646Q60.175 87.43958 60.175 88.26771L59.096874 88.26771Q59.096874 87.08021 59.846874 86.36146Q60.6125 85.62708 61.878124 85.62708Q63.08125 85.62708 63.76875 86.25208Q64.45625 86.87708 64.45625 87.92396Q64.45625 89.17396 62.846874 90.92396L60.565624 93.39271L64.84688 93.39271L64.84688 94.28333ZM66.75313 90.00208L67.19063 85.75208L71.56563 85.75208L71.56563 86.75208L68.1125 86.75208L67.84688 89.08021Q68.4875 88.70521 69.28438 88.70521Q70.44063 88.70521 71.12813 89.48646Q71.81563 90.25208 71.81563 91.56458Q71.81563 92.87708 71.09688 93.64271Q70.39375 94.40833 69.1125 94.40833Q67.9875 94.40833 67.26875 93.78333Q66.55 93.14271 66.45625 92.03333L67.47188 92.03333Q67.58125 92.76771 68.00313 93.14271Q68.425 93.51771 69.1125 93.51771Q69.8625 93.51771 70.3 93.00208Q70.7375 92.48646 70.7375 91.58021Q70.7375 90.72083 70.26875 90.20521Q69.8 89.68958 69.01875 89.68958Q68.31563 89.68958 67.90938 89.98646L67.62813 90.22083L66.75313 90.00208ZM78.6125 90.64271Q78.6125 92.54896 77.95625 93.48646Q77.31563 94.40833 75.925 94.40833Q74.56563 94.40833 73.90938 93.50208Q73.25313 92.59583 73.22188 90.78333L73.22188 89.34583Q73.22188 87.45521 73.8625 86.54896Q74.51875 85.62708 75.90938 85.62708Q77.28438 85.62708 77.94063 86.51771Q78.59688 87.39271 78.6125 89.23646L78.6125 90.64271ZM77.51875 89.15833Q77.51875 87.78333 77.12813 87.15833Q76.75313 86.51771 75.90938 86.51771Q75.08125 86.51771 74.69063 87.15833Q74.31563 87.78333 74.31563 89.08021L74.31563 90.81458Q74.31563 92.18958 74.70625 92.86146Q75.1125 93.51771 75.925 93.51771Q76.72188 93.51771 77.1125 92.89271Q77.50313 92.26771 77.51875 90.93958L77.51875 89.15833Z" fill-rule="nonzero"/><path fill="#757575" d="M88.1125 312.8094Q88.1125 314.71564 87.45625 315.65314Q86.81563 316.575 85.425 316.575Q84.06563 316.575 83.40938 315.66876Q82.75313 314.7625 82.72188 312.95L82.72188 311.5125Q82.72188 309.6219 83.3625 308.71564Q84.01875 307.79376 85.40938 307.79376Q86.78438 307.79376 87.44063 308.6844Q88.09688 309.5594 88.1125 311.40314L88.1125 312.8094ZM87.01875 311.325Q87.01875 309.95 86.62813 309.325Q86.25313 308.6844 85.40938 308.6844Q84.58125 308.6844 84.19063 309.325Q83.81563 309.95 83.81563 311.2469L83.81563 312.98126Q83.81563 314.35626 84.20625 315.02814Q84.6125 315.6844 85.425 315.6844Q86.22188 315.6844 86.6125 315.0594Q87.00313 314.4344 87.01875 313.10626L87.01875 311.325Z" fill-rule="nonzero"/><path fill="#757575" d="M178.93312 312.16876L179.37062 307.91876L183.74562 307.91876L183.74562 308.91876L180.2925 308.91876L180.02687 311.2469Q180.6675 310.8719 181.46437 310.8719Q182.62062 310.8719 183.30812 311.65314Q183.99562 312.41876 183.99562 313.73126Q183.99562 315.04376 183.27687 315.8094Q182.57375 316.575 181.2925 316.575Q180.1675 316.575 179.44875 315.95Q178.73 315.3094 178.63625 314.2L179.65187 314.2Q179.76125 314.9344 180.18312 315.3094Q180.605 315.6844 181.2925 315.6844Q182.0425 315.6844 182.48 315.16876Q182.9175 314.65314 182.9175 313.7469Q182.9175 312.8875 182.44875 312.3719Q181.98 311.85626 181.19875 311.85626Q180.49562 311.85626 180.08937 312.15314L179.80812 312.3875L178.93312 312.16876ZM190.7925 312.8094Q190.7925 314.71564 190.13625 315.65314Q189.49562 316.575 188.105 316.575Q186.74562 316.575 186.08937 315.66876Q185.43312 314.7625 185.40187 312.95L185.40187 311.5125Q185.40187 309.6219 186.0425 308.71564Q186.69875 307.79376 188.08937 307.79376Q189.46437 307.79376 190.12062 308.6844Q190.77687 309.5594 190.7925 311.40314L190.7925 312.8094ZM189.69875 311.325Q189.69875 309.95 189.30812 309.325Q188.93312 308.6844 188.08937 308.6844Q187.26125 308.6844 186.87062 309.325Q186.49562 309.95 186.49562 311.2469L186.49562 312.98126Q186.49562 314.35626 186.88625 315.02814Q187.2925 315.6844 188.105 315.6844Q188.90187 315.6844 189.2925 315.0594Q189.68312 314.4344 189.69875 313.10626L189.69875 311.325Z" fill-rule="nonzero"/><path fill="#757575" d="M277.67563 316.45L276.5975 316.45L276.5975 309.23126L274.41 310.02814L274.41 309.04376L277.51938 307.8719L277.67563 307.8719L277.67563 316.45ZM286.4725 312.8094Q286.4725 314.71564 285.81625 315.65314Q285.17563 316.575 283.785 316.575Q282.42563 316.575 281.76938 315.66876Q281.11313 314.7625 281.08188 312.95L281.08188 311.5125Q281.08188 309.6219 281.7225 308.71564Q282.37875 307.79376 283.76938 307.79376Q285.14438 307.79376 285.80063 308.6844Q286.45688 309.5594 286.4725 311.40314L286.4725 312.8094ZM285.37875 311.325Q285.37875 309.95 284.98813 309.325Q284.61313 308.6844 283.76938 308.6844Q282.94125 308.6844 282.55063 309.325Q282.17563 309.95 282.17563 311.2469L282.17563 312.98126Q282.17563 314.35626 282.56625 315.02814Q282.9725 315.6844 283.785 315.6844Q284.58188 315.6844 284.9725 315.0594Q285.36313 314.4344 285.37875 313.10626L285.37875 311.325ZM293.4725 312.8094Q293.4725 314.71564 292.81625 315.65314Q292.17563 316.575 290.785 316.575Q289.42563 316.575 288.76938 315.66876Q288.11313 314.7625 288.08188 312.95L288.08188 311.5125Q288.08188 309.6219 288.7225 308.71564Q289.37875 307.79376 290.76938 307.79376Q292.14438 307.79376 292.80063 308.6844Q293.45688 309.5594 293.4725 311.40314L293.4725 312.8094ZM292.37875 311.325Q292.37875 309.95 291.98813 309.325Q291.61313 308.6844 290.76938 308.6844Q289.94125 308.6844 289.55063 309.325Q289.17563 309.95 289.17563 311.2469L289.17563 312.98126Q289.17563 314.35626 289.56625 315.02814Q289.9725 315.6844 290.785 315.6844Q291.58188 315.6844 291.9725 315.0594Q292.36313 314.4344 292.37875 313.10626L292.37875 311.325Z" fill-rule="nonzero"/><path fill="#757575" d="M376.85562 316.45L375.7775 316.45L375.7775 309.23126L373.59 310.02814L373.59 309.04376L376.69937 307.8719L376.85562 307.8719L376.85562 316.45ZM380.79312 312.16876L381.23062 307.91876L385.60562 307.91876L385.60562 308.91876L382.1525 308.91876L381.88687 311.2469Q382.5275 310.8719 383.32437 310.8719Q384.48062 310.8719 385.16812 311.65314Q385.85562 312.41876 385.85562 313.73126Q385.85562 315.04376 385.13687 315.8094Q384.43375 316.575 383.1525 316.575Q382.0275 316.575 381.30875 315.95Q380.59 315.3094 380.49625 314.2L381.51187 314.2Q381.62125 314.9344 382.04312 315.3094Q382.465 315.6844 383.1525 315.6844Q383.9025 315.6844 384.34 315.16876Q384.7775 314.65314 384.7775 313.7469Q384.7775 312.8875 384.30875 312.3719Q383.84 311.85626 383.05875 311.85626Q382.35562 311.85626 381.94937 312.15314L381.66812 312.3875L380.79312 312.16876ZM392.6525 312.8094Q392.6525 314.71564 391.99625 315.65314Q391.35562 316.575 389.965 316.575Q388.60562 316.575 387.94937 315.66876Q387.29312 314.7625 387.26187 312.95L387.26187 311.5125Q387.26187 309.6219 387.9025 308.71564Q388.55875 307.79376 389.94937 307.79376Q391.32437 307.79376 391.98062 308.6844Q392.63687 309.5594 392.6525 311.40314L392.6525 312.8094ZM391.55875 311.325Q391.55875 309.95 391.16812 309.325Q390.79312 308.6844 389.94937 308.6844Q389.12125 308.6844 388.73062 309.325Q388.35562 309.95 388.35562 311.2469L388.35562 312.98126Q388.35562 314.35626 388.74625 315.02814Q389.1525 315.6844 389.965 315.6844Q390.76187 315.6844 391.1525 315.0594Q391.54312 314.4344 391.55875 313.10626L391.55875 311.325Z" fill-rule="nonzero"/><path fill="#757575" d="M478.06686 316.45L472.4731 316.45L472.4731 315.66876L475.42624 312.3875Q476.0825 311.6375 476.3325 311.1844Q476.5825 310.71564 476.5825 310.21564Q476.5825 309.54376 476.17624 309.1219Q475.7856 308.6844 475.0981 308.6844Q474.30124 308.6844 473.8481 309.15314Q473.395 309.60626 473.395 310.4344L472.31686 310.4344Q472.31686 309.2469 473.06686 308.52814Q473.8325 307.79376 475.0981 307.79376Q476.30124 307.79376 476.98874 308.41876Q477.67624 309.04376 477.67624 310.09064Q477.67624 311.34064 476.06686 313.09064L473.7856 315.5594L478.06686 315.5594L478.06686 316.45ZM484.8325 312.8094Q484.8325 314.71564 484.17624 315.65314Q483.5356 316.575 482.145 316.575Q480.7856 316.575 480.12936 315.66876Q479.4731 314.7625 479.44186 312.95L479.44186 311.5125Q479.44186 309.6219 480.0825 308.71564Q480.73874 307.79376 482.12936 307.79376Q483.50436 307.79376 484.1606 308.6844Q484.81686 309.5594 484.8325 311.40314L484.8325 312.8094ZM483.73874 311.325Q483.73874 309.95 483.3481 309.325Q482.9731 308.6844 482.12936 308.6844Q481.30124 308.6844 480.9106 309.325Q480.5356 309.95 480.5356 311.2469L480.5356 312.98126Q480.5356 314.35626 480.92624 315.02814Q481.3325 315.6844 482.145 315.6844Q482.94186 315.6844 483.3325 315.0594Q483.7231 314.4344 483.73874 313.10626L483.73874 311.325ZM491.8325 312.8094Q491.8325 314.71564 491.17624 315.65314Q490.5356 316.575 489.145 316.575Q487.7856 316.575 487.12936 315.66876Q486.4731 314.7625 486.44186 312.95L486.44186 311.5125Q486.44186 309.6219 487.0825 308.71564Q487.73874 307.79376 489.12936 307.79376Q490.50436 307.79376 491.1606 308.6844Q491.81686 309.5594 491.8325 311.40314L491.8325 312.8094ZM490.73874 311.325Q490.73874 309.95 490.3481 309.325Q489.9731 308.6844 489.12936 308.6844Q488.30124 308.6844 487.9106 309.325Q487.5356 309.95 487.5356 311.2469L487.5356 312.98126Q487.5356 314.35626 487.92624 315.02814Q488.3325 315.6844 489.145 315.6844Q489.94186 315.6844 490.3325 315.0594Q490.7231 314.4344 490.73874 313.10626L490.73874 311.325Z" fill-rule="nonzero"/><path fill="#757575" d="M577.2469 316.45L571.65314 316.45L571.65314 315.66876L574.60626 312.3875Q575.2625 311.6375 575.5125 311.1844Q575.7625 310.71564 575.7625 310.21564Q575.7625 309.54376 575.35626 309.1219Q574.96564 308.6844 574.27814 308.6844Q573.48126 308.6844 573.02814 309.15314Q572.575 309.60626 572.575 310.4344L571.4969 310.4344Q571.4969 309.2469 572.2469 308.52814Q573.0125 307.79376 574.27814 307.79376Q575.48126 307.79376 576.16876 308.41876Q576.85626 309.04376 576.85626 310.09064Q576.85626 311.34064 575.2469 313.09064L572.96564 315.5594L577.2469 315.5594L577.2469 316.45ZM579.15314 312.16876L579.59064 307.91876L583.96564 307.91876L583.96564 308.91876L580.5125 308.91876L580.2469 311.2469Q580.8875 310.8719 581.6844 310.8719Q582.84064 310.8719 583.52814 311.65314Q584.21564 312.41876 584.21564 313.73126Q584.21564 315.04376 583.4969 315.8094Q582.79376 316.575 581.5125 316.575Q580.3875 316.575 579.66876 315.95Q578.95 315.3094 578.85626 314.2L579.8719 314.2Q579.98126 314.9344 580.40314 315.3094Q580.825 315.6844 581.5125 315.6844Q582.2625 315.6844 582.7 315.16876Q583.1375 314.65314 583.1375 313.7469Q583.1375 312.8875 582.66876 312.3719Q582.2 311.85626 581.41876 311.85626Q580.71564 311.85626 580.3094 312.15314L580.02814 312.3875L579.15314 312.16876ZM591.0125 312.8094Q591.0125 314.71564 590.35626 315.65314Q589.71564 316.575 588.325 316.575Q586.96564 316.575 586.3094 315.66876Q585.65314 314.7625 585.6219 312.95L585.6219 311.5125Q585.6219 309.6219 586.2625 308.71564Q586.91876 307.79376 588.3094 307.79376Q589.6844 307.79376 590.34064 308.6844Q590.9969 309.5594 591.0125 311.40314L591.0125 312.8094ZM589.91876 311.325Q589.91876 309.95 589.52814 309.325Q589.15314 308.6844 588.3094 308.6844Q587.48126 308.6844 587.09064 309.325Q586.71564 309.95 586.71564 311.2469L586.71564 312.98126Q586.71564 314.35626 587.10626 315.02814Q587.5125 315.6844 588.325 315.6844Q589.1219 315.6844 589.5125 315.0594Q589.90314 314.4344 589.91876 313.10626L589.91876 311.325Z" fill-rule="nonzero"/><path stroke="#4285f4" stroke-width="4.0" stroke-linecap="butt" d="M234.0 62.416668L246.0 62.416668" fill-rule="nonzero"/><path fill="#757575" d="M257.89062 61.541664Q257.64062 61.510414 257.35938 61.510414Q256.28125 61.510414 255.90625 62.416664L255.90625 66.916664L254.82812 66.916664L254.82812 60.572914L255.875 60.572914L255.89062 61.30729Q256.42188 60.46354 257.40625 60.46354Q257.71875 60.46354 257.89062 60.541664L257.89062 61.541664ZM264.17188 63.822914Q264.17188 65.260414 263.51562 66.15104Q262.85938 67.041664 261.71875 67.041664Q260.5625 67.041664 259.90625 66.30729L259.90625 69.354164L258.82812 69.354164L258.82812 60.572914L259.8125 60.572914L259.85938 61.27604Q260.53125 60.46354 261.70312 60.46354Q262.84375 60.46354 263.5 61.322914Q264.17188 62.18229 264.17188 63.71354L264.17188 63.822914ZM263.09375 63.697914Q263.09375 62.61979 262.625 62.010414Q262.17188 61.385414 261.375 61.385414Q260.39062 61.385414 259.90625 62.24479L259.90625 65.27604Q260.39062 66.15104 261.39062 66.15104Q262.17188 66.15104 262.625 65.541664Q263.09375 64.916664 263.09375 63.697914ZM266.84375 60.572914L266.875 61.27604Q267.5625 60.46354 268.75 60.46354Q270.07812 60.46354 270.5625 61.479164Q270.875 61.02604 271.375 60.74479Q271.89062 60.46354 272.57812 60.46354Q274.67188 60.46354 274.70312 62.666664L274.70312 66.916664L273.625 66.916664L273.625 62.729164Q273.625 62.05729 273.3125 61.729164Q273.0 61.385414 272.26562 61.385414Q271.65625 61.385414 271.25 61.74479Q270.85938 62.104164 270.79688 62.71354L270.79688 66.916664L269.71875 66.916664L269.71875 62.760414Q269.71875 61.385414 268.35938 61.385414Q267.29688 61.385414 266.90625 62.291664L266.90625 66.916664L265.8125 66.916664L265.8125 60.572914L266.84375 60.572914Z" fill-rule="nonzero"/><path stroke="#db4437" stroke-width="4.0" stroke-linecap="butt" d="M292.0 62.416668L304.0 62.416668" fill-rule="nonzero"/><path fill="#757575" d="M315.89062 61.541664Q315.64062 61.510414 315.35938 61.510414Q314.28125 61.510414 313.90625 62.416664L313.90625 66.916664L312.82812 66.916664L312.82812 60.572914L313.875 60.572914L313.89062 61.30729Q314.42188 60.46354 315.40625 60.46354Q315.71875 60.46354 315.89062 60.541664L315.89062 61.541664ZM322.17188 63.822914Q322.17188 65.260414 321.51562 66.15104Q320.85938 67.041664 319.71875 67.041664Q318.5625 67.041664 317.90625 66.30729L317.90625 69.354164L316.82812 69.354164L316.82812 60.572914L317.8125 60.572914L317.85938 61.27604Q318.53125 60.46354 319.70312 60.46354Q320.84375 60.46354 321.5 61.322914Q322.17188 62.18229 322.17188 63.71354L322.17188 63.822914ZM321.09375 63.697914Q321.09375 62.61979 320.625 62.010414Q320.17188 61.385414 319.375 61.385414Q318.39062 61.385414 317.90625 62.24479L317.90625 65.27604Q318.39062 66.15104 319.39062 66.15104Q320.17188 66.15104 320.625 65.541664Q321.09375 64.916664 321.09375 63.697914ZM324.84375 60.572914L324.875 61.27604Q325.5625 60.46354 326.75 60.46354Q328.07812 60.46354 328.5625 61.479164Q328.875 61.02604 329.375 60.74479Q329.89062 60.46354 330.57812 60.46354Q332.67188 60.46354 332.70312 62.666664L332.70312 66.916664L331.625 66.916664L331.625 62.729164Q331.625 62.05729 331.3125 61.729164Q331.0 61.385414 330.26562 61.385414Q329.65625 61.385414 329.25 61.74479Q328.85938 62.104164 328.79688 62.71354L328.79688 66.916664L327.71875 66.916664L327.71875 62.760414Q327.71875 61.385414 326.35938 61.385414Q325.29688 61.385414 324.90625 62.291664L324.90625 66.916664L323.8125 66.916664L323.8125 60.572914L324.84375 60.572914ZM339.39062 67.80729L334.03125 67.80729L334.03125 66.916664L339.39062 66.916664L339.39062 67.80729ZM339.5625 63.697914Q339.5625 62.229164 340.25 61.354164Q340.9375 60.46354 342.0625 60.46354Q343.17188 60.46354 343.82812 61.21354L343.82812 57.916664L344.90625 57.916664L344.90625 66.916664L343.90625 66.916664L343.85938 66.229164Q343.20312 67.041664 342.04688 67.041664Q340.95312 67.041664 340.25 66.135414Q339.5625 65.229164 339.5625 63.77604L339.5625 63.697914ZM340.64062 63.822914Q340.64062 64.90104 341.07812 65.510414Q341.53125 66.11979 342.3125 66.11979Q343.34375 66.11979 343.82812 65.18229L343.82812 62.27604Q343.34375 61.385414 342.32812 61.385414Q341.53125 61.385414 341.07812 61.99479Q340.64062 62.604164 340.64062 63.822914ZM349.45312 67.041664Q348.15625 67.041664 347.34375 66.197914Q346.54688 65.33854 346.54688 63.916664L346.54688 63.729164Q346.54688 62.77604 346.90625 62.041664Q347.26562 61.291664 347.90625 60.885414Q348.5625 60.46354 349.3125 60.46354Q350.54688 60.46354 351.23438 61.27604Q351.92188 62.08854 351.92188 63.604164L351.92188 64.05729L347.625 64.05729Q347.65625 64.99479 348.17188 65.572914Q348.70312 66.15104 349.51562 66.15104Q350.07812 66.15104 350.46875 65.916664Q350.875 65.68229 351.1875 65.291664L351.84375 65.80729Q351.04688 67.041664 349.45312 67.041664ZM349.3125 61.354164Q348.65625 61.354164 348.20312 61.83854Q347.76562 62.30729 347.67188 63.166664L350.84375 63.166664L350.84375 63.08854Q350.79688 62.260414 350.39062 61.80729Q350.0 61.354164 349.3125 61.354164ZM354.0 66.916664L352.92188 66.916664L352.92188 57.916664L354.0 57.916664L354.0 66.916664ZM357.29688 59.041664L357.29688 60.572914L358.46875 60.572914L358.46875 61.416664L357.29688 61.416664L357.29688 65.33854Q357.29688 65.729164 357.45312 65.916664Q357.60938 66.104164 357.98438 66.104164Q358.17188 66.104164 358.5 66.041664L358.5 66.916664Q358.07812 67.041664 357.67188 67.041664Q356.95312 67.041664 356.57812 66.604164Q356.20312 66.15104 356.20312 65.33854L356.20312 61.416664L355.04688 61.416664L355.04688 60.572914L356.20312 60.572914L356.20312 59.041664L357.29688 59.041664ZM363.73438 66.916664Q363.64062 66.729164 363.57812 66.24479Q362.82812 67.041664 361.78125 67.041664Q360.84375 67.041664 360.23438 66.510414Q359.64062 65.979164 359.64062 65.15104Q359.64062 64.166664 360.39062 63.61979Q361.14062 63.072914 362.51562 63.072914L363.5625 63.072914L363.5625 62.572914Q363.5625 62.010414 363.21875 61.68229Q362.89062 61.33854 362.21875 61.33854Q361.64062 61.33854 361.25 61.635414Q360.85938 61.916664 360.85938 62.33854L359.76562 62.33854Q359.76562 61.854164 360.09375 61.416664Q360.4375 60.979164 361.01562 60.729164Q361.59375 60.46354 362.28125 60.46354Q363.39062 60.46354 364.0 61.010414Q364.625 61.55729 364.65625 62.510414L364.65625 65.43229Q364.65625 66.30729 364.875 66.822914L364.875 66.916664L363.73438 66.916664ZM361.9375 66.08854Q362.45312 66.08854 362.90625 65.822914Q363.35938 65.55729 363.5625 65.135414L363.5625 63.83854L362.71875 63.83854Q360.71875 63.83854 360.71875 65.010414Q360.71875 65.510414 361.0625 65.80729Q361.40625 66.08854 361.9375 66.08854Z" fill-rule="nonzero"/><path fill="#757575" d="M31.128124 37.55L29.2375 37.55L22.08125 26.596874L22.08125 37.55L20.20625 37.55L20.20625 23.33125L22.08125 23.33125L29.26875 34.33125L29.26875 23.33125L31.128124 23.33125L31.128124 37.55ZM33.440624 32.175Q33.440624 30.6125 34.05 29.378124Q34.659374 28.128124 35.7375 27.45625Q36.83125 26.784374 38.2375 26.784374Q40.39375 26.784374 41.721874 28.284374Q43.065624 29.76875 43.065624 32.253124L43.065624 32.378124Q43.065624 33.925 42.471874 35.159374Q41.878124 36.378124 40.76875 37.065624Q39.675 37.753124 38.253124 37.753124Q36.1125 37.753124 34.76875 36.253124Q33.440624 34.753124 33.440624 32.3L33.440624 32.175ZM35.253124 32.378124Q35.253124 34.14375 36.065624 35.20625Q36.89375 36.26875 38.253124 36.26875Q39.628124 36.26875 40.440624 35.190624Q41.253124 34.1125 41.253124 32.175Q41.253124 30.425 40.425 29.346874Q39.596874 28.26875 38.2375 28.26875Q36.89375 28.26875 36.065624 29.33125Q35.253124 30.39375 35.253124 32.378124ZM49.159374 36.26875Q50.128124 36.26875 50.846874 35.690624Q51.565624 35.096874 51.64375 34.221874L53.3625 34.221874Q53.3 35.128124 52.721874 35.95625Q52.159374 36.76875 51.190624 37.26875Q50.2375 37.753124 49.159374 37.753124Q47.003124 37.753124 45.721874 36.315624Q44.45625 34.8625 44.45625 32.3625L44.45625 32.065624Q44.45625 30.51875 45.01875 29.315624Q45.58125 28.1125 46.64375 27.45625Q47.70625 26.784374 49.14375 26.784374Q50.925 26.784374 52.096874 27.846874Q53.284374 28.909374 53.3625 30.6125L51.64375 30.6125Q51.565624 29.596874 50.8625 28.940624Q50.175 28.26875 49.14375 28.26875Q47.76875 28.26875 47.003124 29.26875Q46.253124 30.253124 46.253124 32.128124L46.253124 32.471874Q46.253124 34.3 47.003124 35.284374Q47.753124 36.26875 49.159374 36.26875ZM57.3625 24.425L57.3625 26.9875L59.346874 26.9875L59.346874 28.378124L57.3625 28.378124L57.3625 34.925Q57.3625 35.565624 57.628124 35.89375Q57.89375 36.20625 58.534374 36.20625Q58.846874 36.20625 59.39375 36.08125L59.39375 37.55Q58.675 37.753124 58.003124 37.753124Q56.8 37.753124 56.175 37.01875Q55.565624 36.284374 55.565624 34.925L55.565624 28.378124L53.64375 28.378124L53.64375 26.9875L55.565624 26.9875L55.565624 24.425L57.3625 24.425ZM68.44063 36.503124Q67.39375 37.753124 65.34688 37.753124Q63.659374 37.753124 62.76875 36.76875Q61.89375 35.784374 61.878124 33.8625L61.878124 26.9875L63.690624 26.9875L63.690624 33.815624Q63.690624 36.20625 65.64375 36.20625Q67.70625 36.20625 68.39375 34.675L68.39375 26.9875L70.20625 26.9875L70.20625 37.55L68.4875 37.55L68.44063 36.503124ZM79.44063 37.55Q79.28438 37.2375 79.19063 36.440624Q77.925 37.753124 76.175 37.753124Q74.6125 37.753124 73.6125 36.8625Q72.6125 35.971874 72.6125 34.6125Q72.6125 32.971874 73.8625 32.065624Q75.12813 31.14375 77.39375 31.14375L79.15938 31.14375L79.15938 30.315624Q79.15938 29.3625 78.58125 28.8Q78.01875 28.2375 76.925 28.2375Q75.95625 28.2375 75.3 28.7375Q74.64375 29.221874 74.64375 29.909374L72.83125 29.909374Q72.83125 29.128124 73.39375 28.39375Q73.95625 27.64375 74.90938 27.221874Q75.87813 26.784374 77.03438 26.784374Q78.8625 26.784374 79.89375 27.70625Q80.925 28.6125 80.97188 30.221874L80.97188 35.08125Q80.97188 36.534374 81.33125 37.39375L81.33125 37.55L79.44063 37.55ZM76.44063 36.175Q77.3 36.175 78.05 35.7375Q78.81563 35.3 79.15938 34.596874L79.15938 32.425L77.7375 32.425Q74.425 32.425 74.425 34.3625Q74.425 35.221874 74.9875 35.70625Q75.55 36.175 76.44063 36.175ZM99.65938 33.034374Q99.39375 35.3 97.9875 36.534374Q96.59688 37.753124 94.26875 37.753124Q91.75313 37.753124 90.22188 35.940624Q88.70625 34.128124 88.70625 31.096874L88.70625 29.7375Q88.70625 27.753124 89.40938 26.253124Q90.12813 24.753124 91.425 23.940624Q92.72188 23.128124 94.44063 23.128124Q96.70625 23.128124 98.06563 24.39375Q99.44063 25.659374 99.65938 27.89375L97.76875 27.89375Q97.53438 26.20625 96.70625 25.440624Q95.89375 24.675 94.44063 24.675Q92.64375 24.675 91.6125 26.003124Q90.59688 27.33125 90.59688 29.784374L90.59688 31.159374Q90.59688 33.471874 91.56563 34.846874Q92.53438 36.20625 94.26875 36.20625Q95.83125 36.20625 96.65938 35.503124Q97.50313 34.8 97.76875 33.034374L99.65938 33.034374ZM101.44063 32.175Q101.44063 30.6125 102.05 29.378124Q102.65938 28.128124 103.7375 27.45625Q104.83125 26.784374 106.2375 26.784374Q108.39375 26.784374 109.72188 28.284374Q111.06563 29.76875 111.06563 32.253124L111.06563 32.378124Q111.06563 33.925 110.47188 35.159374Q109.87813 36.378124 108.76875 37.065624Q107.675 37.753124 106.25313 37.753124Q104.1125 37.753124 102.76875 36.253124Q101.44063 34.753124 101.44063 32.3L101.44063 32.175ZM103.25313 32.378124Q103.25313 34.14375 104.06563 35.20625Q104.89375 36.26875 106.25313 36.26875Q107.62813 36.26875 108.44063 35.190624Q109.25313 34.1125 109.25313 32.175Q109.25313 30.425 108.425 29.346874Q107.59688 28.26875 106.2375 28.26875Q104.89375 28.26875 104.06563 29.33125Q103.25313 30.39375 103.25313 32.378124ZM114.62813 26.9875L114.69063 28.315624Q115.89375 26.784374 117.84688 26.784374Q121.20625 26.784374 121.22188 30.565624L121.22188 37.55L119.425 37.55L119.425 30.55Q119.40938 29.409374 118.89375 28.8625Q118.39375 28.315624 117.3 28.315624Q116.425 28.315624 115.75313 28.784374Q115.09688 29.253124 114.72188 30.01875L114.72188 37.55L112.925 37.55L112.925 26.9875L114.62813 26.9875ZM125.62813 26.9875L125.69063 28.315624Q126.89375 26.784374 128.84688 26.784374Q132.20625 26.784374 132.22188 30.565624L132.22188 37.55L130.425 37.55L130.425 30.55Q130.40938 29.409374 129.89375 28.8625Q129.39375 28.315624 128.3 28.315624Q127.425 28.315624 126.75313 28.784374Q126.09688 29.253124 125.72188 30.01875L125.72188 37.55L123.925 37.55L123.925 26.9875L125.62813 26.9875ZM139.3 37.753124Q137.15938 37.753124 135.8 36.346874Q134.45625 34.925 134.45625 32.565624L134.45625 32.221874Q134.45625 30.659374 135.05 29.425Q135.65938 28.190624 136.7375 27.4875Q137.81563 26.784374 139.08125 26.784374Q141.14375 26.784374 142.28438 28.14375Q143.425 29.503124 143.425 32.034374L143.425 32.784374L136.26875 32.784374Q136.3 34.346874 137.175 35.315624Q138.05 36.26875 139.39375 36.26875Q140.3625 36.26875 141.01875 35.878124Q141.69063 35.4875 142.19063 34.846874L143.28438 35.70625Q141.95625 37.753124 139.3 37.753124ZM139.08125 28.26875Q137.9875 28.26875 137.2375 29.065624Q136.50313 29.8625 136.33125 31.3L141.6125 31.3L141.6125 31.159374Q141.53438 29.784374 140.8625 29.034374Q140.20625 28.26875 139.08125 28.26875ZM150.15938 36.26875Q151.12813 36.26875 151.84688 35.690624Q152.56563 35.096874 152.64375 34.221874L154.3625 34.221874Q154.3 35.128124 153.72188 35.95625Q153.15938 36.76875 152.19063 37.26875Q151.2375 37.753124 150.15938 37.753124Q148.00313 37.753124 146.72188 36.315624Q145.45625 34.8625 145.45625 32.3625L145.45625 32.065624Q145.45625 30.51875 146.01875 29.315624Q146.58125 28.1125 147.64375 27.45625Q148.70625 26.784374 150.14375 26.784374Q151.925 26.784374 153.09688 27.846874Q154.28438 28.909374 154.3625 30.6125L152.64375 30.6125Q152.56563 29.596874 151.8625 28.940624Q151.175 28.26875 150.14375 28.26875Q148.76875 28.26875 148.00313 29.26875Q147.25313 30.253124 147.25313 32.128124L147.25313 32.471874Q147.25313 34.3 148.00313 35.284374Q148.75313 36.26875 150.15938 36.26875ZM158.3625 24.425L158.3625 26.9875L160.34688 26.9875L160.34688 28.378124L158.3625 28.378124L158.3625 34.925Q158.3625 35.565624 158.62813 35.89375Q158.89375 36.20625 159.53438 36.20625Q159.84688 36.20625 160.39375 36.08125L160.39375 37.55Q159.675 37.753124 159.00313 37.753124Q157.8 37.753124 157.175 37.01875Q156.56563 36.284374 156.56563 34.925L156.56563 28.378124L154.64375 28.378124L154.64375 26.9875L156.56563 26.9875L156.56563 24.425L158.3625 24.425ZM167.3 37.753124Q165.15938 37.753124 163.8 36.346874Q162.45625 34.925 162.45625 32.565624L162.45625 32.221874Q162.45625 30.659374 163.05 29.425Q163.65938 28.190624 164.7375 27.4875Q165.81563 26.784374 167.08125 26.784374Q169.14375 26.784374 170.28438 28.14375Q171.425 29.503124 171.425 32.034374L171.425 32.784374L164.26875 32.784374Q164.3 34.346874 165.175 35.315624Q166.05 36.26875 167.39375 36.26875Q168.3625 36.26875 169.01875 35.878124Q169.69063 35.4875 170.19063 34.846874L171.28438 35.70625Q169.95625 37.753124 167.3 37.753124ZM167.08125 28.26875Q165.9875 28.26875 165.2375 29.065624Q164.50313 29.8625 164.33125 31.3L169.6125 31.3L169.6125 31.159374Q169.53438 29.784374 168.8625 29.034374Q168.20625 28.26875 167.08125 28.26875ZM173.47188 32.175Q173.47188 29.753124 174.62813 28.26875Q175.78438 26.784374 177.64375 26.784374Q179.50313 26.784374 180.58125 28.05L180.58125 22.55L182.39375 22.55L182.39375 37.55L180.7375 37.55L180.64375 36.409374Q179.56563 37.753124 177.62813 37.753124Q175.8 37.753124 174.62813 36.253124Q173.47188 34.7375 173.47188 32.315624L173.47188 32.175ZM175.28438 32.378124Q175.28438 34.175 176.01875 35.190624Q176.76875 36.20625 178.08125 36.20625Q179.8 36.20625 180.58125 34.675L180.58125 29.815624Q179.78438 28.315624 178.09688 28.315624Q176.76875 28.315624 176.01875 29.346874Q175.28438 30.378124 175.28438 32.378124ZM192.3625 24.425L192.3625 26.9875L194.34688 26.9875L194.34688 28.378124L192.3625 28.378124L192.3625 34.925Q192.3625 35.565624 192.62813 35.89375Q192.89375 36.20625 193.53438 36.20625Q193.84688 36.20625 194.39375 36.08125L194.39375 37.55Q193.675 37.753124 193.00313 37.753124Q191.8 37.753124 191.175 37.01875Q190.56563 36.284374 190.56563 34.925L190.56563 28.378124L188.64375 28.378124L188.64375 26.9875L190.56563 26.9875L190.56563 24.425L192.3625 24.425ZM196.44063 32.175Q196.44063 30.6125 197.05 29.378124Q197.65938 28.128124 198.7375 27.45625Q199.83125 26.784374 201.2375 26.784374Q203.39375 26.784374 204.72188 28.284374Q206.06563 29.76875 206.06563 32.253124L206.06563 32.378124Q206.06563 33.925 205.47188 35.159374Q204.87813 36.378124 203.76875 37.065624Q202.675 37.753124 201.25313 37.753124Q199.1125 37.753124 197.76875 36.253124Q196.44063 34.753124 196.44063 32.3L196.44063 32.175ZM198.25313 32.378124Q198.25313 34.14375 199.06563 35.20625Q199.89375 36.26875 201.25313 36.26875Q202.62813 36.26875 203.44063 35.190624Q204.25313 34.1125 204.25313 32.175Q204.25313 30.425 203.425 29.346874Q202.59688 28.26875 201.2375 28.26875Q199.89375 28.26875 199.06563 29.33125Q198.25313 30.39375 198.25313 32.378124ZM219.44063 37.55Q219.28438 37.2375 219.19063 36.440624Q217.925 37.753124 216.175 37.753124Q214.6125 37.753124 213.6125 36.8625Q212.6125 35.971874 212.6125 34.6125Q212.6125 32.971874 213.8625 32.065624Q215.12813 31.14375 217.39375 31.14375L219.15938 31.14375L219.15938 30.315624Q219.15938 29.3625 218.58125 28.8Q218.01875 28.2375 216.925 28.2375Q215.95625 28.2375 215.3 28.7375Q214.64375 29.221874 214.64375 29.909374L212.83125 29.909374Q212.83125 29.128124 213.39375 28.39375Q213.95625 27.64375 214.90938 27.221874Q215.87813 26.784374 217.03438 26.784374Q218.8625 26.784374 219.89375 27.70625Q220.925 28.6125 220.97188 30.221874L220.97188 35.08125Q220.97188 36.534374 221.33125 37.39375L221.33125 37.55L219.44063 37.55ZM216.44063 36.175Q217.3 36.175 218.05 35.7375Q218.81563 35.3 219.15938 34.596874L219.15938 32.425L217.7375 32.425Q214.425 32.425 214.425 34.3625Q214.425 35.221874 214.9875 35.70625Q215.55 36.175 216.44063 36.175ZM225.62813 26.9875L225.69063 28.315624Q226.89375 26.784374 228.84688 26.784374Q232.20625 26.784374 232.22188 30.565624L232.22188 37.55L230.425 37.55L230.425 30.55Q230.40938 29.409374 229.89375 28.8625Q229.39375 28.315624 228.3 28.315624Q227.425 28.315624 226.75313 28.784374Q226.09688 29.253124 225.72188 30.01875L225.72188 37.55L223.925 37.55L223.925 26.9875L225.62813 26.9875ZM248.05 33.83125L242.09688 33.83125L240.75313 37.55L238.83125 37.55L244.25313 23.33125L245.89375 23.33125L251.33125 37.55L249.40938 37.55L248.05 33.83125ZM242.65938 32.3L247.50313 32.3L245.08125 25.64375L242.65938 32.3ZM258.01874 28.596874Q257.6125 28.534374 257.14374 28.534374Q255.3625 28.534374 254.72188 30.05L254.72188 37.55L252.925 37.55L252.925 26.9875L254.675 26.9875L254.70625 28.20625Q255.59688 26.784374 257.22186 26.784374Q257.7531 26.784374 258.01874 26.925L258.01874 28.596874ZM259.47186 32.175Q259.47186 29.753124 260.6281 28.26875Q261.78436 26.784374 263.64374 26.784374Q265.5031 26.784374 266.58124 28.05L266.58124 22.55L268.39374 22.55L268.39374 37.55L266.7375 37.55L266.64374 36.409374Q265.5656 37.753124 263.6281 37.753124Q261.8 37.753124 260.6281 36.253124Q259.47186 34.7375 259.47186 32.315624L259.47186 32.175ZM261.28436 32.378124Q261.28436 34.175 262.01874 35.190624Q262.76874 36.20625 264.08124 36.20625Q265.8 36.20625 266.58124 34.675L266.58124 29.815624Q265.78436 28.315624 264.09686 28.315624Q262.76874 28.315624 262.01874 29.346874Q261.28436 30.378124 261.28436 32.378124ZM277.4406 36.503124Q276.39374 37.753124 274.34686 37.753124Q272.65936 37.753124 271.76874 36.76875Q270.89374 35.784374 270.8781 33.8625L270.8781 26.9875L272.6906 26.9875L272.6906 33.815624Q272.6906 36.20625 274.64374 36.20625Q276.70624 36.20625 277.39374 34.675L277.39374 26.9875L279.20624 26.9875L279.20624 37.55L277.4875 37.55L277.4406 36.503124ZM283.8781 37.55L282.08124 37.55L282.08124 26.9875L283.8781 26.9875L283.8781 37.55ZM281.925 24.175Q281.925 23.7375 282.1906 23.440624Q282.47186 23.128124 282.9875 23.128124Q283.51874 23.128124 283.78436 23.440624Q284.0656 23.7375 284.0656 24.175Q284.0656 24.6125 283.78436 24.909374Q283.51874 25.20625 282.9875 25.20625Q282.47186 25.20625 282.1906 24.909374Q281.925 24.6125 281.925 24.175ZM288.6281 26.9875L288.6906 28.315624Q289.89374 26.784374 291.84686 26.784374Q295.20624 26.784374 295.22186 30.565624L295.22186 37.55L293.425 37.55L293.425 30.55Q293.40936 29.409374 292.89374 28.8625Q292.39374 28.315624 291.3 28.315624Q290.425 28.315624 289.7531 28.784374Q289.09686 29.253124 288.72186 30.01875L288.72186 37.55L286.925 37.55L286.925 26.9875L288.6281 26.9875ZM297.4406 32.175Q297.4406 30.6125 298.05 29.378124Q298.65936 28.128124 299.7375 27.45625Q300.83124 26.784374 302.2375 26.784374Q304.39374 26.784374 305.72186 28.284374Q307.0656 29.76875 307.0656 32.253124L307.0656 32.378124Q307.0656 33.925 306.47186 35.159374Q305.8781 36.378124 304.76874 37.065624Q303.675 37.753124 302.2531 37.753124Q300.1125 37.753124 298.76874 36.253124Q297.4406 34.753124 297.4406 32.3L297.4406 32.175ZM299.2531 32.378124Q299.2531 34.14375 300.0656 35.20625Q300.89374 36.26875 302.2531 36.26875Q303.6281 36.26875 304.4406 35.190624Q305.2531 34.1125 305.2531 32.175Q305.2531 30.425 304.425 29.346874Q303.59686 28.26875 302.2375 28.26875Q300.89374 28.26875 300.0656 29.33125Q299.2531 30.39375 299.2531 32.378124Z" fill-rule="nonzero"/></svg>