<svg version="1.1" viewBox="0.0 0.0 600.0 371.0" fill="none" stroke="none" stroke-linecap="square" stroke-miterlimit="10" width="600" height="371" xmlns:xlink="http://www.w3.org/1999/xlink" xmlns="http://www.w3.org/2000/svg"><path fill="#ffffff" d="M0 0L600.0 0L600.0 371.0L0 371.0L0 0Z" fill-rule="nonzero"/><path stroke="#333333" stroke-width="1.0" stroke-linecap="butt" d="M85.5 62.5L85.5 298.5" fill-rule="nonzero"/><path stroke="#cccccc" stroke-width="1.0" stroke-linecap="butt" d="M184.5 62.5L184.5 298.5" fill-rule="nonzero"/><path stroke="#cccccc" stroke-width="1.0" stroke-linecap="butt" d="M283.5 62.5L283.5 298.5" fill-rule="nonzero"/><path stroke="#cccccc" stroke-width="1.0" stroke-linecap="butt" d="M383.5 62.5L383.5 298.5" fill-rule="nonzero"/><path stroke="#cccccc" stroke-width="1.0" stroke-linecap="butt" d="M482.5 62.5L482.5 298.5" fill-rule="nonzero"/><path stroke="#cccccc" stroke-width="1.0" stroke-linecap="butt" d="M581.5 62.5L581.5 298.5" fill-rule="nonzero"/><path stroke="#333333" stroke-width="1.0" stroke-linecap="butt" d="M85.5 298.5L581.5 298.5" fill-rule="nonzero"/><path stroke="#cccccc" stroke-width="1.0" stroke-linecap="butt" d="M85.5 251.5L581.5 251.5" fill-rule="nonzero"/><path stroke="#cccccc" stroke-width="1.0" stroke-linecap="butt" d="M85.5 204.5L581.5 204.5" fill-rule="nonzero"/><path stroke="#cccccc" stroke-width="1.0" stroke-linecap="butt" d="M85.5 156.5L581.5 156.5" fill-rule="nonzero"/><path stroke="#cccccc" stroke-width="1.0" stroke-linecap="butt" d="M85.5 109.5L581.5 109.5" fill-rule="nonzero"/><path stroke="#cccccc" stroke-width="1.0" stroke-linecap="butt" d="M85.5 62.5L581.5 62.5" fill-rule="nonzero"/><clipPath id="id_0"><path d="M85.55 62.416668L581.45 62.416668L581.45 298.45L85.55 298.45L85.55 62.416668Z" clip-rule="nonzero"/></clipPath><path stroke="#4285f4" stroke-width="2.0" stroke-linecap="butt" clip-path="url(#id_0)" d="M85.55 298.45L95.468 298.45L105.386 298.45L115.304 298.45L125.222 298.45L135.14 245.57854L145.058 264.4612L154.976 272.01425L164.894 264.4612L174.812 256.90814L184.73 253.1316L194.648 249.35507L204.566 245.57854L214.484 241.802L224.402 238.02547L234.32 234.24893L244.238 230.4724L254.156 222.91933L264.074 222.91933L273.992 219.1428L283.91 215.36627L293.828 207.8132L303.746 204.03667L313.664 196.4836L323.582 192.70706L333.5 188.93053L343.418 181.37747L353.336 181.37747L363.254 173.8244L373.172 170.04787L383.09 170.04787L393.008 162.4948L402.926 162.4948L412.844 158.71826L422.762 154.94173L432.68 151.1652L442.598 147.38867L452.516 143.61214L462.434 143.61214L472.352 136.05907L482.27 132.28253L492.188 128.506L502.106 128.506L512.024 124.72947L521.942 117.1764L531.86 120.952934L541.778 117.1764L551.696 109.62334L561.614 105.8468L571.532 102.07027L581.45 102.07027" fill-rule="nonzero"/><path fill="#000000" fill-opacity="0.0" clip-path="url(#id_0)" d="M88.55 298.45C88.55 300.10684 87.206856 301.45 85.55 301.45C83.89314 301.45 82.55 300.10684 82.55 298.45C82.55 296.79315 83.89314 295.45 85.55 295.45C87.206856 295.45 88.55 296.79315 88.55 298.45Z" fill-rule="nonzero"/><path fill="#000000" fill-opacity="0.0" clip-path="url(#id_0)" d="M98.468 298.45C98.468 300.10684 97.124855 301.45 95.468 301.45C93.81114 301.45 92.468 300.10684 92.468 298.45C92.468 296.79315 93.81114 295.45 95.468 295.45C97.124855 295.45 98.468 296.79315 98.468 298.45Z" fill-rule="nonzero"/><path fill="#000000" fill-opacity="0.0" clip-path="url(#id_0)" d="M108.386 298.45C108.386 300.10684 107.042854 301.45 105.386 301.45C103.72915 301.45 102.386 300.10684 102.386 298.45C102.386 296.79315 103.72915 295.45 105.386 295.45C107.042854 295.45 108.386 296.79315 108.386 298.45Z" fill-rule="nonzero"/><path fill="#000000" fill-opacity="0.0" clip-path="url(#id_0)" d="M118.304 298.45C118.304 300.10684 116.96085 301.45 115.304 301.45C113.64715 301.45 112.304 300.10684 112.304 298.45C112.304 296.79315 113.64715 295.45 115.304 295.45C116.96085 295.45 118.304 296.79315 118.304 298.45Z" fill-rule="nonzero"/><path fill="#000000" fill-opacity="0.0" clip-path="url(#id_0)" d="M128.222 298.45C128.222 300.10684 126.87885 301.45 125.222 301.45C123.56515 301.45 122.222 300.10684 122.222 298.45C122.222 296.79315 123.56515 295.45 125.222 295.45C126.87885 295.45 128.222 296.79315 128.222 298.45Z" fill-rule="nonzero"/><path fill="#000000" fill-opacity="0.0" clip-path="url(#id_0)" d="M138.14 245.57854C138.14 247.23538 136.79686 248.57854 135.14 248.57854C133.48314 248.57854 132.14 247.23538 132.14 245.57854C132.14 243.92168 133.48314 242.57854 135.14 242.57854C136.79686 242.57854 138.14 243.92168 138.14 245.57854Z" fill-rule="nonzero"/><path fill="#000000" fill-opacity="0.0" clip-path="url(#id_0)" d="M148.058 264.4612C148.058 266.11804 146.71486 267.4612 145.058 267.4612C143.40114 267.4612 142.058 266.11804 142.058 264.4612C142.058 262.80435 143.40114 261.4612 145.058 261.4612C146.71486 261.4612 148.058 262.80435 148.058 264.4612Z" fill-rule="nonzero"/><path fill="#000000" fill-opacity="0.0" clip-path="url(#id_0)" d="M157.976 272.01425C157.976 273.6711 156.63286 275.01425 154.976 275.01425C153.31915 275.01425 151.976 273.6711 151.976 272.01425C151.976 270.35742 153.31915 269.01425 154.976 269.01425C156.63286 269.01425 157.976 270.35742 157.976 272.01425Z" fill-rule="nonzero"/><path fill="#000000" fill-opacity="0.0" clip-path="url(#id_0)" d="M167.894 264.4612C167.894 266.11804 166.55086 267.4612 164.894 267.4612C163.23715 267.4612 161.894 266.11804 161.894 264.4612C161.894 262.80435 163.23715 261.4612 164.894 261.4612C166.55086 261.4612 167.894 262.80435 167.894 264.4612Z" fill-rule="nonzero"/><path fill="#000000" fill-opacity="0.0" clip-path="url(#id_0)" d="M177.812 256.90814C177.812 258.565 176.46886 259.90814 174.812 259.90814C173.15515 259.90814 171.812 258.565 171.812 256.90814C171.812 255.25128 173.15515 253.90813 174.812 253.90813C176.46886 253.90813 177.812 255.25128 177.812 256.90814Z" fill-rule="nonzero"/><path fill="#000000" fill-opacity="0.0" clip-path="url(#id_0)" d="M187.73 253.1316C187.73 254.78845 186.38686 256.1316 184.73 256.1316C183.07315 256.1316 181.73 254.78845 181.73 253.1316C181.73 251.47475 183.07315 250.1316 184.73 250.1316C186.38686 250.1316 187.73 251.47475 187.73 253.1316Z" fill-rule="nonzero"/><path fill="#000000" fill-opacity="0.0" clip-path="url(#id_0)" d="M197.648 249.35507C197.648 251.01192 196.30486 252.35507 194.648 252.35507C192.99115 252.35507 191.648 251.01192 191.648 249.35507C191.648 247.69821 192.99115 246.35507 194.648 246.35507C196.30486 246.35507 197.648 247.69821 197.648 249.35507Z" fill-rule="nonzero"/><path fill="#000000" fill-opacity="0.0" clip-path="url(#id_0)" d="M207.566 245.57854C207.566 247.23538 206.22285 248.57854 204.566 248.57854C202.90915 248.57854 201.566 247.23538 201.566 245.57854C201.566 243.92168 202.90915 242.57854 204.566 242.57854C206.22285 242.57854 207.566 243.92168 207.566 245.57854Z" fill-rule="nonzero"/><path fill="#000000" fill-opacity="0.0" clip-path="url(#id_0)" d="M217.484 241.802C217.484 243.45885 216.14085 244.802 214.484 244.802C212.82715 244.802 211.484 243.45885 211.484 241.802C211.484 240.14514 212.82715 238.802 214.484 238.802C216.14085 238.802 217.484 240.14514 217.484 241.802Z" fill-rule="nonzero"/><path fill="#000000" fill-opacity="0.0" clip-path="url(#id_0)" d="M227.402 238.02547C227.402 239.68233 226.05885 241.02547 224.402 241.02547C222.74515 241.02547 221.402 239.68233 221.402 238.02547C221.402 236.3686 222.74515 235.02547 224.402 235.02547C226.05885 235.02547 227.402 236.3686 227.402 238.02547Z" fill-rule="nonzero"/><path fill="#000000" fill-opacity="0.0" clip-path="url(#id_0)" d="M237.32 234.24893C237.32 235.90579 235.97685 237.24893 234.32 237.24893C232.66315 237.24893 231.32 235.90579 231.32 234.24893C231.32 232.59207 232.66315 231.24893 234.32 231.24893C235.97685 231.24893 237.32 232.59207 237.32 234.24893Z" fill-rule="nonzero"/><path fill="#000000" fill-opacity="0.0" clip-path="url(#id_0)" d="M247.238 230.4724C247.238 232.12926 245.89485 233.4724 244.238 233.4724C242.58115 233.4724 241.238 232.12926 241.238 230.4724C241.238 228.81555 242.58115 227.4724 244.238 227.4724C245.89485 227.4724 247.238 228.81555 247.238 230.4724Z" fill-rule="nonzero"/><path fill="#000000" fill-opacity="0.0" clip-path="url(#id_0)" d="M257.156 222.91933C257.156 224.57619 255.81285 225.91933 254.156 225.91933C252.49915 225.91933 251.156 224.57619 251.156 222.91933C251.156 221.26248 252.49915 219.91933 254.156 219.91933C255.81285 219.91933 257.156 221.26248 257.156 222.91933Z" fill-rule="nonzero"/><path fill="#000000" fill-opacity="0.0" clip-path="url(#id_0)" d="M267.074 222.91933C267.074 224.57619 265.73087 225.91933 264.074 225.91933C262.41714 225.91933 261.074 224.57619 261.074 222.91933C261.074 221.26248 262.41714 219.91933 264.074 219.91933C265.73087 219.91933 267.074 221.26248 267.074 222.91933Z" fill-rule="nonzero"/><path fill="#000000" fill-opacity="0.0" clip-path="url(#id_0)" d="M276.992 219.1428C276.992 220.79965 275.64886 222.1428 273.992 222.1428C272.33514 222.1428 270.992 220.79965 270.992 219.1428C270.992 217.48595 272.33514 216.1428 273.992 216.1428C275.64886 216.1428 276.992 217.48595 276.992 219.1428Z" fill-rule="nonzero"/><path fill="#000000" fill-opacity="0.0" clip-path="url(#id_0)" d="M286.91 215.36627C286.91 217.02312 285.56686 218.36627 283.91 218.36627C282.25314 218.36627 280.91 217.02312 280.91 215.36627C280.91 213.70941 282.25314 212.36627 283.91 212.36627C285.56686 212.36627 286.91 213.70941 286.91 215.36627Z" fill-rule="nonzero"/><path fill="#000000" fill-opacity="0.0" clip-path="url(#id_0)" d="M296.828 207.8132C296.828 209.47005 295.48486 210.8132 293.828 210.8132C292.17114 210.8132 290.828 209.47005 290.828 207.8132C290.828 206.15634 292.17114 204.8132 293.828 204.8132C295.48486 204.8132 296.828 206.15634 296.828 207.8132Z" fill-rule="nonzero"/><path fill="#000000" fill-opacity="0.0" clip-path="url(#id_0)" d="M306.746 204.03667C306.746 205.69353 305.40286 207.03667 303.746 207.03667C302.08914 207.03667 300.746 205.69353 300.746 204.03667C300.746 202.3798 302.08914 201.03667 303.746 201.03667C305.40286 201.03667 306.746 202.3798 306.746 204.03667Z" fill-rule="nonzero"/><path fill="#000000" fill-opacity="0.0" clip-path="url(#id_0)" d="M316.664 196.4836C316.664 198.14046 315.32086 199.4836 313.664 199.4836C312.00714 199.4836 310.664 198.14046 310.664 196.4836C310.664 194.82675 312.00714 193.4836 313.664 193.4836C315.32086 193.4836 316.664 194.82675 316.664 196.4836Z" fill-rule="nonzero"/><path fill="#000000" fill-opacity="0.0" clip-path="url(#id_0)" d="M326.582 192.70706C326.582 194.36392 325.23886 195.70706 323.582 195.70706C321.92514 195.70706 320.582 194.36392 320.582 192.70706C320.582 191.05022 321.92514 189.70706 323.582 189.70706C325.23886 189.70706 326.582 191.05022 326.582 192.70706Z" fill-rule="nonzero"/><path fill="#000000" fill-opacity="0.0" clip-path="url(#id_0)" d="M336.5 188.93053C336.5 190.58739 335.15686 191.93053 333.5 191.93053C331.84314 191.93053 330.5 190.58739 330.5 188.93053C330.5 187.27368 331.84314 185.93053 333.5 185.93053C335.15686 185.93053 336.5 187.27368 336.5 188.93053Z" fill-rule="nonzero"/><path fill="#000000" fill-opacity="0.0" clip-path="url(#id_0)" d="M346.418 181.37747C346.418 183.03432 345.07486 184.37747 343.418 184.37747C341.76114 184.37747 340.418 183.03432 340.418 181.37747C340.418 179.72061 341.76114 178.37747 343.418 178.37747C345.07486 178.37747 346.418 179.72061 346.418 181.37747Z" fill-rule="nonzero"/><path fill="#000000" fill-opacity="0.0" clip-path="url(#id_0)" d="M356.336 181.37747C356.336 183.03432 354.99286 184.37747 353.336 184.37747C351.67914 184.37747 350.336 183.03432 350.336 181.37747C350.336 179.72061 351.67914 178.37747 353.336 178.37747C354.99286 178.37747 356.336 179.72061 356.336 181.37747Z" fill-rule="nonzero"/><path fill="#000000" fill-opacity="0.0" clip-path="url(#id_0)" d="M366.254 173.8244C366.254 175.48125 364.91086 176.8244 363.254 176.8244C361.59714 176.8244 360.254 175.48125 360.254 173.8244C360.254 172.16754 361.59714 170.8244 363.254 170.8244C364.91086 170.8244 366.254 172.16754 366.254 173.8244Z" fill-rule="nonzero"/><path fill="#000000" fill-opacity="0.0" clip-path="url(#id_0)" d="M376.172 170.04787C376.172 171.70473 374.82886 173.04787 373.172 173.04787C371.51514 173.04787 370.172 171.70473 370.172 170.04787C370.172 168.391 371.51514 167.04787 373.172 167.04787C374.82886 167.04787 376.172 168.391 376.172 170.04787Z" fill-rule="nonzero"/><path fill="#000000" fill-opacity="0.0" clip-path="url(#id_0)" d="M386.09 170.04787C386.09 171.70473 384.74686 173.04787 383.09 173.04787C381.43314 173.04787 380.09 171.70473 380.09 170.04787C380.09 168.391 381.43314 167.04787 383.09 167.04787C384.74686 167.04787 386.09 168.391 386.09 170.04787Z" fill-rule="nonzero"/><path fill="#000000" fill-opacity="0.0" clip-path="url(#id_0)" d="M396.008 162.4948C396.008 164.15166 394.66486 165.4948 393.008 165.4948C391.35114 165.4948 390.008 164.15166 390.008 162.4948C390.008 160.83795 391.35114 159.4948 393.008 159.4948C394.66486 159.4948 396.008 160.83795 396.008 162.4948Z" fill-rule="nonzero"/><path fill="#000000" fill-opacity="0.0" clip-path="url(#id_0)" d="M405.926 162.4948C405.926 164.15166 404.58286 165.4948 402.926 165.4948C401.26913 165.4948 399.926 164.15166 399.926 162.4948C399.926 160.83795 401.26913 159.4948 402.926 159.4948C404.58286 159.4948 405.926 160.83795 405.926 162.4948Z" fill-rule="nonzero"/><path fill="#000000" fill-opacity="0.0" clip-path="url(#id_0)" d="M415.844 158.71826C415.844 160.37512 414.50085 161.71826 412.844 161.71826C411.18713 161.71826 409.844 160.37512 409.844 158.71826C409.844 157.06142 411.18713 155.71826 412.844 155.71826C414.50085 155.71826 415.844 157.06142 415.844 158.71826Z" fill-rule="nonzero"/><path fill="#000000" fill-opacity="0.0" clip-path="url(#id_0)" d="M425.762 154.94173C425.762 156.59859 424.41885 157.94173 422.762 157.94173C421.10513 157.94173 419.762 156.59859 419.762 154.94173C419.762 153.28488 421.10513 151.94173 422.762 151.94173C424.41885 151.94173 425.762 153.28488 425.762 154.94173Z" fill-rule="nonzero"/><path fill="#000000" fill-opacity="0.0" clip-path="url(#id_0)" d="M435.68 151.1652C435.68 152.82205 434.33685 154.1652 432.68 154.1652C431.02313 154.1652 429.68 152.82205 429.68 151.1652C429.68 149.50835 431.02313 148.1652 432.68 148.1652C434.33685 148.1652 435.68 149.50835 435.68 151.1652Z" fill-rule="nonzero"/><path fill="#000000" fill-opacity="0.0" clip-path="url(#id_0)" d="M445.598 147.38867C445.598 149.04552 444.25485 150.38867 442.598 150.38867C440.94113 150.38867 439.598 149.04552 439.598 147.38867C439.598 145.73181 440.94113 144.38867 442.598 144.38867C444.25485 144.38867 445.598 145.73181 445.598 147.38867Z" fill-rule="nonzero"/><path fill="#000000" fill-opacity="0.0" clip-path="url(#id_0)" d="M455.516 143.61214C455.516 145.26898 454.17285 146.61214 452.516 146.61214C450.85913 146.61214 449.516 145.26898 449.516 143.61214C449.516 141.95528 450.85913 140.61214 452.516 140.61214C454.17285 140.61214 455.516 141.95528 455.516 143.61214Z" fill-rule="nonzero"/><path fill="#000000" fill-opacity="0.0" clip-path="url(#id_0)" d="M465.434 143.61214C465.434 145.26898 464.09085 146.61214 462.434 146.61214C460.77716 146.61214 459.434 145.26898 459.434 143.61214C459.434 141.95528 460.77716 140.61214 462.434 140.61214C464.09085 140.61214 465.434 141.95528 465.434 143.61214Z" fill-rule="nonzero"/><path fill="#000000" fill-opacity="0.0" clip-path="url(#id_0)" d="M475.352 136.05907C475.352 137.71593 474.00885 139.05907 472.352 139.05907C470.69516 139.05907 469.352 137.71593 469.352 136.05907C469.352 134.4022 470.69516 133.05907 472.352 133.05907C474.00885 133.05907 475.352 134.4022 475.352 136.05907Z" fill-rule="nonzero"/><path fill="#000000" fill-opacity="0.0" clip-path="url(#id_0)" d="M485.27 132.28253C485.27 133.93939 483.92685 135.28253 482.27 135.28253C480.61316 135.28253 479.27 133.93939 479.27 132.28253C479.27 130.62569 480.61316 129.28253 482.27 129.28253C483.92685 129.28253 485.27 130.62569 485.27 132.28253Z" fill-rule="nonzero"/><path fill="#000000" fill-opacity="0.0" clip-path="url(#id_0)" d="M495.188 128.506C495.188 130.16286 493.84485 131.506 492.188 131.506C490.53116 131.506 489.188 130.16286 489.188 128.506C489.188 126.849144 490.53116 125.506 492.188 125.506C493.84485 125.506 495.188 126.849144 495.188 128.506Z" fill-rule="nonzero"/><path fill="#000000" fill-opacity="0.0" clip-path="url(#id_0)" d="M505.106 128.506C505.106 130.16286 503.76285 131.506 502.106 131.506C500.44916 131.506 499.106 130.16286 499.106 128.506C499.106 126.849144 500.44916 125.506 502.106 125.506C503.76285 125.506 505.106 126.849144 505.106 128.506Z" fill-rule="nonzero"/><path fill="#000000" fill-opacity="0.0" clip-path="url(#id_0)" d="M515.024 124.72947C515.024 126.38632 513.68085 127.72947 512.024 127.72947C510.36716 127.72947 509.024 126.38632 509.024 124.72947C509.024 123.07261 510.36716 121.72947 512.024 121.72947C513.68085 121.72947 515.024 123.07261 515.024 124.72947Z" fill-rule="nonzero"/><path fill="#000000" fill-opacity="0.0" clip-path="url(#id_0)" d="M524.942 117.1764C524.942 118.83325 523.5989 120.1764 521.942 120.1764C520.28516 120.1764 518.942 118.83325 518.942 117.1764C518.942 115.51955 520.28516 114.1764 521.942 114.1764C523.5989 114.1764 524.942 115.51955 524.942 117.1764Z" fill-rule="nonzero"/><path fill="#000000" fill-opacity="0.0" clip-path="url(#id_0)" d="M534.86 120.952934C534.86 122.60979 533.51685 123.952934 531.86 123.952934C530.2031 123.952934 528.86 122.60979 528.86 120.952934C528.86 119.29608 530.2031 117.952934 531.86 117.952934C533.51685 117.952934 534.86 119.29608 534.86 120.952934Z" fill-rule="nonzero"/><path fill="#000000" fill-opacity="0.0" clip-path="url(#id_0)" d="M544.778 117.1764C544.778 118.83325 543.4349 120.1764 541.778 120.1764C540.12115 120.1764 538.778 118.83325 538.778 117.1764C538.778 115.51955 540.12115 114.1764 541.778 114.1764C543.4349 114.1764 544.778 115.51955 544.778 117.1764Z" fill-rule="nonzero"/><path fill="#000000" fill-opacity="0.0" clip-path="url(#id_0)" d="M554.696 109.62334C554.696 111.28019 553.35284 112.62334 551.696 112.62334C550.0391 112.62334 548.696 111.28019 548.696 109.62334C548.696 107.96648 550.0391 106.62334 551.696 106.62334C553.35284 106.62334 554.696 107.96648 554.696 109.62334Z" fill-rule="nonzero"/><path fill="#000000" fill-opacity="0.0" clip-path="url(#id_0)" d="M564.614 105.8468C564.614 107.503654 563.2709 108.8468 561.614 108.8468C559.95715 108.8468 558.614 107.503654 558.614 105.8468C558.614 104.18995 559.95715 102.8468 561.614 102.8468C563.2709 102.8468 564.614 104.18995 564.614 105.8468Z" fill-rule="nonzero"/><path fill="#000000" fill-opacity="0.0" clip-path="url(#id_0)" d="M574.532 102.07027C574.532 103.72712 573.18884 105.07027 571.532 105.07027C569.8751 105.07027 568.532 103.72712 568.532 102.07027C568.532 100.413414 569.8751 99.07027 571.532 99.07027C573.18884 99.07027 574.532 100.413414 574.532 102.07027Z" fill-rule="nonzero"/><path fill="#000000" fill-opacity="0.0" clip-path="url(#id_0)" d="M584.45 102.07027C584.45 103.72712 583.1069 105.07027 581.45 105.07027C579.79315 105.07027 578.45 103.72712 578.45 102.07027C578.45 100.413414 579.79315 99.07027 581.45 99.07027C583.1069 99.07027 584.45 100.413414 584.45 102.07027Z" fill-rule="nonzero"/><path fill="#424242" d="M321.10938 346.10626L321.10938 349.45L319.98438 349.45L319.98438 340.91876L323.14062 340.91876Q324.53125 340.91876 325.32812 341.6375Q326.125 342.34064 326.125 343.52814Q326.125 344.7625 325.34375 345.4344Q324.57812 346.10626 323.125 346.10626L321.10938 346.10626ZM321.10938 345.1844L323.14062 345.1844Q324.04688 345.1844 324.51562 344.7625Q325.0 344.34064 325.0 343.54376Q325.0 342.77814 324.51562 342.325Q324.04688 341.85626 323.20312 341.84064L321.10938 341.84064L321.10938 345.1844ZM329.82812 346.7625L330.0 347.8875L330.23438 346.8719L331.92188 340.91876L332.875 340.91876L334.51562 346.8719L334.75 347.90314L334.9375 346.7469L336.26562 340.91876L337.39062 340.91876L335.32812 349.45L334.29688 349.45L332.53125 343.23126L332.40625 342.575L332.26562 343.23126L330.45312 349.45L329.42188 349.45L327.35938 340.91876L328.48438 340.91876L329.82812 346.7625ZM340.4375 340.91876L343.23438 347.8719L346.01562 340.91876L347.48438 340.91876L347.48438 349.45L346.35938 349.45L346.35938 346.1219L346.46875 342.54376L343.65625 349.45L342.79688 349.45L340.0 342.5594L340.10938 346.1219L340.10938 349.45L338.98438 349.45L338.98438 340.91876L340.4375 340.91876Z" fill-rule="nonzero"/><path fill="#424242" d="M27.096888 195.55833L27.096888 197.57396L30.550013 197.57396L30.550013 198.69896L22.018763 198.69896L22.018763 195.87083Q22.018763 194.43333 22.675013 193.66771Q23.331263 192.88646 24.581263 192.88646Q25.378138 192.88646 25.971888 193.32396Q26.565638 193.74583 26.862513 194.51146L30.471888 192.51146L30.550013 192.51146L30.550013 193.71458L27.096888 195.55833ZM26.175013 197.57396L26.175013 195.83958Q26.175013 194.99583 25.753138 194.51146Q25.315638 194.01146 24.581263 194.01146Q23.800013 194.01146 23.378138 194.48021Q22.956263 194.94896 22.940638 195.83958L22.940638 197.57396L26.175013 197.57396ZM27.206263 190.57396L30.550013 190.57396L30.550013 191.69896L22.018763 191.69896L22.018763 188.54271Q22.018763 187.15208 22.737513 186.35521Q23.440638 185.55833 24.628138 185.55833Q25.862513 185.55833 26.534388 186.33958Q27.206263 187.10521 27.206263 188.55833L27.206263 190.57396ZM26.284388 190.57396L26.284388 188.54271Q26.284388 187.63646 25.862513 187.16771Q25.440638 186.68333 24.643763 186.68333Q23.878138 186.68333 23.425013 187.16771Q22.956263 187.63646 22.940638 188.48021L22.940638 190.57396L26.284388 190.57396ZM22.018763 182.24583L28.971888 179.44896L22.018763 176.66771L22.018763 175.19896L30.550013 175.19896L30.550013 176.32396L27.221888 176.32396L23.643763 176.21458L30.550013 179.02708L30.550013 179.88646L23.659388 182.68333L27.221888 182.57396L30.550013 182.57396L30.550013 183.69896L22.018763 183.69896L22.018763 182.24583Z" fill-rule="nonzero"/><path fill="#757575" d="M78.6125 299.3094Q78.6125 301.21564 77.95625 302.15314Q77.31563 303.075 75.925 303.075Q74.56563 303.075 73.90938 302.16876Q73.25313 301.2625 73.22188 299.45L73.22188 298.0125Q73.22188 296.1219 73.8625 295.21564Q74.51875 294.29376 75.90938 294.29376Q77.28438 294.29376 77.94063 295.1844Q78.59688 296.0594 78.6125 297.90314L78.6125 299.3094ZM77.51875 297.825Q77.51875 296.45 77.12813 295.825Q76.75313 295.1844 75.90938 295.1844Q75.08125 295.1844 74.69063 295.825Q74.31563 296.45 74.31563 297.7469L74.31563 299.48126Q74.31563 300.85626 74.70625 301.52814Q75.1125 302.1844 75.925 302.1844Q76.72188 302.1844 77.1125 301.5594Q77.50313 300.9344 77.51875 299.60626L77.51875 297.825Z" fill-rule="nonzero"/><path fill="#757575" d="M64.84688 255.74333L59.253124 255.74333L59.253124 254.96208L62.20625 251.68083Q62.8625 250.93083 63.1125 250.4777Q63.3625 250.00896 63.3625 249.50896Q63.3625 248.83708 62.95625 248.4152Q62.565624 247.9777 61.878124 247.9777Q61.08125 247.9777 60.628124 248.44646Q60.175 248.89958 60.175 249.7277L59.096874 249.7277Q59.096874 248.5402 59.846874 247.82146Q60.6125 247.08708 61.878124 247.08708Q63.08125 247.08708 63.76875 247.71208Q64.45625 248.33708 64.45625 249.38396Q64.45625 250.63396 62.846874 252.38396L60.565624 254.8527L64.84688 254.8527L64.84688 255.74333ZM66.75313 251.46208L67.19063 247.21208L71.56563 247.21208L71.56563 248.21208L68.1125 248.21208L67.84688 250.5402Q68.4875 250.1652 69.28438 250.1652Q70.44063 250.1652 71.12813 250.94646Q71.81563 251.71208 71.81563 253.02458Q71.81563 254.33708 71.09688 255.1027Q70.39375 255.86833 69.1125 255.86833Q67.9875 255.86833 67.26875 255.24333Q66.55 254.6027 66.45625 253.49333L67.47188 253.49333Q67.58125 254.2277 68.00313 254.6027Q68.425 254.9777 69.1125 254.9777Q69.8625 254.9777 70.3 254.46208Q70.7375 253.94646 70.7375 253.0402Q70.7375 252.18083 70.26875 251.6652Q69.8 251.14958 69.01875 251.14958Q68.31563 251.14958 67.90938 251.44646L67.62813 251.68083L66.75313 251.46208ZM78.6125 252.1027Q78.6125 254.00896 77.95625 254.94646Q77.31563 255.86833 75.925 255.86833Q74.56563 255.86833 73.90938 254.96208Q73.25313 254.05583 73.22188 252.24333L73.22188 250.80583Q73.22188 248.9152 73.8625 248.00896Q74.51875 247.08708 75.90938 247.08708Q77.28438 247.08708 77.94063 247.9777Q78.59688 248.8527 78.6125 250.69646L78.6125 252.1027ZM77.51875 250.61833Q77.51875 249.24333 77.12813 248.61833Q76.75313 247.9777 75.90938 247.9777Q75.08125 247.9777 74.69063 248.61833Q74.31563 249.24333 74.31563 250.5402L74.31563 252.27458Q74.31563 253.64958 74.70625 254.32146Q75.1125 254.9777 75.925 254.9777Q76.72188 254.9777 77.1125 254.3527Q77.50313 253.7277 77.51875 252.39958L77.51875 250.61833Z" fill-rule="nonzero"/><path fill="#757575" d="M59.753124 204.25542L60.190624 200.00542L64.56563 200.00542L64.56563 201.00542L61.1125 201.00542L60.846874 203.33354Q61.4875 202.95854 62.284374 202.95854Q63.440624 202.95854 64.12813 203.73979Q64.81563 204.50542 64.81563 205.81792Q64.81563 207.13042 64.09688 207.89604Q63.39375 208.66167 62.1125 208.66167Q60.9875 208.66167 60.26875 208.03667Q59.55 207.39604 59.45625 206.28667L60.471874 206.28667Q60.58125 207.02104 61.003124 207.39604Q61.425 207.77104 62.1125 207.77104Q62.8625 207.77104 63.3 207.25542Q63.7375 206.73979 63.7375 205.83354Q63.7375 204.97417 63.26875 204.45854Q62.8 203.94292 62.01875 203.94292Q61.315624 203.94292 60.909374 204.23979L60.628124 204.47417L59.753124 204.25542ZM71.6125 204.89604Q71.6125 206.80229 70.95625 207.73979Q70.31563 208.66167 68.925 208.66167Q67.56563 208.66167 66.90938 207.75542Q66.25313 206.84917 66.22188 205.03667L66.22188 203.59917Q66.22188 201.70854 66.8625 200.80229Q67.51875 199.88042 68.90938 199.88042Q70.28438 199.88042 70.94063 200.77104Q71.59688 201.64604 71.6125 203.48979L71.6125 204.89604ZM70.51875 203.41167Q70.51875 202.03667 70.12813 201.41167Q69.75313 200.77104 68.90938 200.77104Q68.08125 200.77104 67.69063 201.41167Q67.31563 202.03667 67.31563 203.33354L67.31563 205.06792Q67.31563 206.44292 67.70625 207.11479Q68.1125 207.77104 68.925 207.77104Q69.72188 207.77104 70.1125 207.14604Q70.50313 206.52104 70.51875 205.19292L70.51875 203.41167ZM78.6125 204.89604Q78.6125 206.80229 77.95625 207.73979Q77.31563 208.66167 75.925 208.66167Q74.56563 208.66167 73.90938 207.75542Q73.25313 206.84917 73.22188 205.03667L73.22188 203.59917Q73.22188 201.70854 73.8625 200.80229Q74.51875 199.88042 75.90938 199.88042Q77.28438 199.88042 77.94063 200.77104Q78.59688 201.64604 78.6125 203.48979L78.6125 204.89604ZM77.51875 203.41167Q77.51875 202.03667 77.12813 201.41167Q76.75313 200.77104 75.90938 200.77104Q75.08125 200.77104 74.69063 201.41167Q74.31563 202.03667 74.31563 203.33354L74.31563 205.06792Q74.31563 206.44292 74.70625 207.11479Q75.1125 207.77104 75.925 207.77104Q76.72188 207.77104 77.1125 207.14604Q77.50313 206.52104 77.51875 205.19292L77.51875 203.41167Z" fill-rule="nonzero"/><path fill="#757575" d="M64.76875 153.40813L61.2375 161.33L60.096874 161.33L63.6125 153.68938L59.003124 153.68938L59.003124 152.79875L64.76875 152.79875L64.76875 153.40813ZM66.75313 157.04875L67.19063 152.79875L71.56563 152.79875L71.56563 153.79875L68.1125 153.79875L67.84688 156.12688Q68.4875 155.75188 69.28438 155.75188Q70.44063 155.75188 71.12813 156.53313Q71.81563 157.29875 71.81563 158.61125Q71.81563 159.92375 71.09688 160.68938Q70.39375 161.455 69.1125 161.455Q67.9875 161.455 67.26875 160.83Q66.55 160.18938 66.45625 159.08L67.47188 159.08Q67.58125 159.81438 68.00313 160.18938Q68.425 160.56438 69.1125 160.56438Q69.8625 160.56438 70.3 160.04875Q70.7375 159.53313 70.7375 158.62688Q70.7375 157.7675 70.26875 157.25188Q69.8 156.73625 69.01875 156.73625Q68.31563 156.73625 67.90938 157.03313L67.62813 157.2675L66.75313 157.04875ZM78.6125 157.68938Q78.6125 159.59563 77.95625 160.53313Q77.31563 161.455 75.925 161.455Q74.56563 161.455 73.90938 160.54875Q73.25313 159.6425 73.22188 157.83L73.22188 156.3925Q73.22188 154.50188 73.8625 153.59563Q74.51875 152.67375 75.90938 152.67375Q77.28438 152.67375 77.94063 153.56438Q78.59688 154.43938 78.6125 156.28313L78.6125 157.68938ZM77.51875 156.205Q77.51875 154.83 77.12813 154.205Q76.75313 153.56438 75.90938 153.56438Q75.08125 153.56438 74.69063 154.205Q74.31563 154.83 74.31563 156.12688L74.31563 157.86125Q74.31563 159.23625 74.70625 159.90813Q75.1125 160.56438 75.925 160.56438Q76.72188 160.56438 77.1125 159.93938Q77.50313 159.31438 77.51875 157.98625L77.51875 156.205Z" fill-rule="nonzero"/><path fill="#757575" d="M55.815624 114.12334L54.7375 114.12334L54.7375 106.90459L52.55 107.70146L52.55 106.71709L55.659374 105.54521L55.815624 105.54521L55.815624 114.12334ZM64.6125 110.48271Q64.6125 112.38896 63.95625 113.32646Q63.315624 114.24834 61.925 114.24834Q60.565624 114.24834 59.909374 113.34209Q59.253124 112.43584 59.221874 110.62334L59.221874 109.18584Q59.221874 107.29521 59.8625 106.38896Q60.51875 105.46709 61.909374 105.46709Q63.284374 105.46709 63.940624 106.35771Q64.59688 107.23271 64.6125 109.07646L64.6125 110.48271ZM63.51875 108.99834Q63.51875 107.62334 63.128124 106.99834Q62.753124 106.35771 61.909374 106.35771Q61.08125 106.35771 60.690624 106.99834Q60.315624 107.62334 60.315624 108.92021L60.315624 110.65459Q60.315624 112.02959 60.70625 112.70146Q61.1125 113.35771 61.925 113.35771Q62.721874 113.35771 63.1125 112.73271Q63.503124 112.10771 63.51875 110.77959L63.51875 108.99834ZM71.6125 110.48271Q71.6125 112.38896 70.95625 113.32646Q70.31563 114.24834 68.925 114.24834Q67.56563 114.24834 66.90938 113.34209Q66.25313 112.43584 66.22188 110.62334L66.22188 109.18584Q66.22188 107.29521 66.8625 106.38896Q67.51875 105.46709 68.90938 105.46709Q70.28438 105.46709 70.94063 106.35771Q71.59688 107.23271 71.6125 109.07646L71.6125 110.48271ZM70.51875 108.99834Q70.51875 107.62334 70.12813 106.99834Q69.75313 106.35771 68.90938 106.35771Q68.08125 106.35771 67.69063 106.99834Q67.31563 107.62334 67.31563 108.92021L67.31563 110.65459Q67.31563 112.02959 67.70625 112.70146Q68.1125 113.35771 68.925 113.35771Q69.72188 113.35771 70.1125 112.73271Q70.50313 112.10771 70.51875 110.77959L70.51875 108.99834ZM78.6125 110.48271Q78.6125 112.38896 77.95625 113.32646Q77.31563 114.24834 75.925 114.24834Q74.56563 114.24834 73.90938 113.34209Q73.25313 112.43584 73.22188 110.62334L73.22188 109.18584Q73.22188 107.29521 73.8625 106.38896Q74.51875 105.46709 75.90938 105.46709Q77.28438 105.46709 77.94063 106.35771Q78.59688 107.23271 78.6125 109.07646L78.6125 110.48271ZM77.51875 108.99834Q77.51875 107.62334 77.12813 106.99834Q76.75313 106.35771 75.90938 106.35771Q75.08125 106.35771 74.69063 106.99834Q74.31563 107.62334 74.31563 108.92021L74.31563 110.65459Q74.31563 112.02959 74.70625 112.70146Q75.1125 113.35771 75.925 113.35771Q76.72188 113.35771 77.1125 112.73271Q77.50313 112.10771 77.51875 110.77959L77.51875 108.99834Z" fill-rule="nonzero"/><path fill="#757575" d="M55.815624 66.916664L54.7375 66.916664L54.7375 59.697914L52.55 60.49479L52.55 59.510414L55.659374 58.33854L55.815624 58.33854L55.815624 66.916664ZM64.84688 66.916664L59.253124 66.916664L59.253124 66.135414L62.20625 62.854164Q62.8625 62.104164 63.1125 61.65104Q63.3625 61.18229 63.3625 60.68229Q63.3625 60.010414 62.95625 59.58854Q62.565624 59.15104 61.878124 59.15104Q61.08125 59.15104 60.628124 59.61979Q60.175 60.072914 60.175 60.90104L59.096874 60.90104Q59.096874 59.71354 59.846874 58.99479Q60.6125 58.260414 61.878124 58.260414Q63.08125 58.260414 63.76875 58.885414Q64.45625 59.510414 64.45625 60.55729Q64.45625 61.80729 62.846874 63.55729L60.565624 66.02604L64.84688 66.02604L64.84688 66.916664ZM66.75313 62.635414L67.19063 58.385414L71.56563 58.385414L71.56563 59.385414L68.1125 59.385414L67.84688 61.71354Q68.4875 61.33854 69.28438 61.33854Q70.44063 61.33854 71.12813 62.11979Q71.81563 62.885414 71.81563 64.197914Q71.81563 65.510414 71.09688 66.27604Q70.39375 67.041664 69.1125 67.041664Q67.9875 67.041664 67.26875 66.416664Q66.55 65.77604 66.45625 64.666664L67.47188 64.666664Q67.58125 65.40104 68.00313 65.77604Q68.425 66.15104 69.1125 66.15104Q69.8625 66.15104 70.3 65.635414Q70.7375 65.11979 70.7375 64.21354Q70.7375 63.354164 70.26875 62.83854Q69.8 62.322914 69.01875 62.322914Q68.31563 62.322914 67.90938 62.61979L67.62813 62.854164L66.75313 62.635414ZM78.6125 63.27604Q78.6125 65.18229 77.95625 66.11979Q77.31563 67.041664 75.925 67.041664Q74.56563 67.041664 73.90938 66.135414Q73.25313 65.229164 73.22188 63.416664L73.22188 61.979164Q73.22188 60.08854 73.8625 59.18229Q74.51875 58.260414 75.90938 58.260414Q77.28438 58.260414 77.94063 59.15104Q78.59688 60.02604 78.6125 61.86979L78.6125 63.27604ZM77.51875 61.791664Q77.51875 60.416664 77.12813 59.791664Q76.75313 59.15104 75.90938 59.15104Q75.08125 59.15104 74.69063 59.791664Q74.31563 60.416664 74.31563 61.71354L74.31563 63.447914Q74.31563 64.822914 74.70625 65.49479Q75.1125 66.15104 75.925 66.15104Q76.72188 66.15104 77.1125 65.52604Q77.50313 64.90104 77.51875 63.572914L77.51875 61.791664Z" fill-rule="nonzero"/><path fill="#757575" d="M88.1125 312.8094Q88.1125 314.71564 87.45625 315.65314Q86.81563 316.575 85.425 316.575Q84.06563 316.575 83.40938 315.66876Q82.75313 314.7625 82.72188 312.95L82.72188 311.5125Q82.72188 309.6219 83.3625 308.71564Q84.01875 307.79376 85.40938 307.79376Q86.78438 307.79376 87.44063 308.6844Q88.09688 309.5594 88.1125 311.40314L88.1125 312.8094ZM87.01875 311.325Q87.01875 309.95 86.62813 309.325Q86.25313 308.6844 85.40938 308.6844Q84.58125 308.6844 84.19063 309.325Q83.81563 309.95 83.81563 311.2469L83.81563 312.98126Q83.81563 314.35626 84.20625 315.02814Q84.6125 315.6844 85.425 315.6844Q86.22188 315.6844 86.6125 315.0594Q87.00313 314.4344 87.01875 313.10626L87.01875 311.325Z" fill-rule="nonzero"/><path fill="#757575" d="M178.93312 312.16876L179.37062 307.91876L183.74562 307.91876L183.74562 308.91876L180.2925 308.91876L180.02687 311.2469Q180.6675 310.8719 181.46437 310.8719Q182.62062 310.8719 183.30812 311.65314Q183.99562 312.41876 183.99562 313.73126Q183.99562 315.04376 183.27687 315.8094Q182.57375 316.575 181.2925 316.575Q180.1675 316.575 179.44875 315.95Q178.73 315.3094 178.63625 314.2L179.65187 314.2Q179.76125 314.9344 180.18312 315.3094Q180.605 315.6844 181.2925 315.6844Q182.0425 315.6844 182.48 315.16876Q182.9175 314.65314 182.9175 313.7469Q182.9175 312.8875 182.44875 312.3719Q181.98 311.85626 181.19875 311.85626Q180.49562 311.85626 180.08937 312.15314L179.80812 312.3875L178.93312 312.16876ZM190.7925 312.8094Q190.7925 314.71564 190.13625 315.65314Q189.49562 316.575 188.105 316.575Q186.74562 316.575 186.08937 315.66876Q185.43312 314.7625 185.40187 312.95L185.40187 311.5125Q185.40187 309.6219 186.0425 308.71564Q186.69875 307.79376 188.08937 307.79376Q189.46437 307.79376 190.12062 308.6844Q190.77687 309.5594 190.7925 311.40314L190.7925 312.8094ZM189.69875 311.325Q189.69875 309.95 189.30812 309.325Q188.93312 308.6844 188.08937 308.6844Q187.26125 308.6844 186.87062 309.325Q186.49562 309.95 186.49562 311.2469L186.49562 312.98126Q186.49562 314.35626 186.88625 315.02814Q187.2925 315.6844 188.105 315.6844Q188.90187 315.6844 189.2925 315.0594Q189.68312 314.4344 189.69875 313.10626L189.69875 311.325Z" fill-rule="nonzero"/><path fill="#757575" d="M277.67563 316.45L276.5975 316.45L276.5975 309.23126L274.41 310.02814L274.41 309.04376L277.51938 307.8719L277.67563 307.8719L277.67563 316.45ZM286.4725 312.8094Q286.4725 314.71564 285.81625 315.65314Q285.17563 316.575 283.785 316.575Q282.42563 316.575 281.76938 315.66876Q281.11313 314.7625 281.08188 312.95L281.08188 311.5125Q281.08188 309.6219 281.7225 308.71564Q282.37875 307.79376 283.76938 307.79376Q285.14438 307.79376 285.80063 308.6844Q286.45688 309.5594 286.4725 311.40314L286.4725 312.8094ZM285.37875 311.325Q285.37875 309.95 284.98813 309.325Q284.61313 308.6844 283.76938 308.6844Q282.94125 308.6844 282.55063 309.325Q282.17563 309.95 282.17563 311.2469L282.17563 312.98126Q282.17563 314.35626 282.56625 315.02814Q282.9725 315.6844 283.785 315.6844Q284.58188 315.6844 284.9725 315.0594Q285.36313 314.4344 285.37875 313.10626L285.37875 311.325ZM293.4725 312.8094Q293.4725 314.71564 292.81625 315.65314Q292.17563 316.575 290.785 316.575Q289.42563 316.575 288.76938 315.66876Q288.11313 314.7625 288.08188 312.95L288.08188 311.5125Q288.08188 309.6219 288.7225 308.71564Q289.37875 307.79376 290.76938 307.79376Q292.14438 307.79376 292.80063 308.6844Q293.45688 309.5594 293.4725 311.40314L293.4725 312.8094ZM292.37875 311.325Q292.37875 309.95 291.98813 309.325Q291.61313 308.6844 290.76938 308.6844Q289.94125 308.6844 289.55063 309.325Q289.17563 309.95 289.17563 311.2469L289.17563 312.98126Q289.17563 314.35626 289.56625 315.02814Q289.9725 315.6844 290.785 315.6844Q291.58188 315.6844 291.9725 315.0594Q292.36313 314.4344 292.37875 313.10626L292.37875 311.325Z" fill-rule="nonzero"/><path fill="#757575" d="M376.85562 316.45L375.7775 316.45L375.7775 309.23126L373.59 310.02814L373.59 309.04376L376.69937 307.8719L376.85562 307.8719L376.85562 316.45ZM380.79312 312.16876L381.23062 307.91876L385.60562 307.91876L385.60562 308.91876L382.1525 308.91876L381.88687 311.2469Q382.5275 310.8719 383.32437 310.8719Q384.48062 310.8719 385.16812 311.65314Q385.85562 312.41876 385.85562 313.73126Q385.85562 315.04376 385.13687 315.8094Q384.43375 316.575 383.1525 316.575Q382.0275 316.575 381.30875 315.95Q380.59 315.3094 380.49625 314.2L381.51187 314.2Q381.62125 314.9344 382.04312 315.3094Q382.465 315.6844 383.1525 315.6844Q383.9025 315.6844 384.34 315.16876Q384.7775 314.65314 384.7775 313.7469Q384.7775 312.8875 384.30875 312.3719Q383.84 311.85626 383.05875 311.85626Q382.35562 311.85626 381.94937 312.15314L381.66812 312.3875L380.79312 312.16876ZM392.6525 312.8094Q392.6525 314.71564 391.99625 315.65314Q391.35562 316.575 389.965 316.575Q388.60562 316.575 387.94937 315.66876Q387.29312 314.7625 387.26187 312.95L387.26187 311.5125Q387.26187 309.6219 387.9025 308.71564Q388.55875 307.79376 389.94937 307.79376Q391.32437 307.79376 391.98062 308.6844Q392.63687 309.5594 392.6525 311.40314L392.6525 312.8094ZM391.55875 311.325Q391.55875 309.95 391.16812 309.325Q390.79312 308.6844 389.94937 308.6844Q389.12125 308.6844 388.73062 309.325Q388.35562 309.95 388.35562 311.2469L388.35562 312.98126Q388.35562 314.35626 388.74625 315.02814Q389.1525 315.6844 389.965 315.6844Q390.76187 315.6844 391.1525 315.0594Q391.54312 314.4344 391.55875 313.10626L391.55875 311.325Z" fill-rule="nonzero"/><path fill="#757575" d="M478.06686 316.45L472.4731 316.45L472.4731 315.66876L475.42624 312.3875Q476.0825 311.6375 476.3325 311.1844Q476.5825 310.71564 476.5825 310.21564Q476.5825 309.54376 476.17624 309.1219Q475.7856 308.6844 475.0981 308.6844Q474.30124 308.6844 473.8481 309.15314Q473.395 309.60626 473.395 310.4344L472.31686 310.4344Q472.31686 309.2469 473.06686 308.52814Q473.8325 307.79376 475.0981 307.79376Q476.30124 307.79376 476.98874 308.41876Q477.67624 309.04376 477.67624 310.09064Q477.67624 311.34064 476.06686 313.09064L473.7856 315.5594L478.06686 315.5594L478.06686 316.45ZM484.8325 312.8094Q484.8325 314.71564 484.17624 315.65314Q483.5356 316.575 482.145 316.575Q480.7856 316.575 480.12936 315.66876Q479.4731 314.7625 479.44186 312.95L479.44186 311.5125Q479.44186 309.6219 480.0825 308.71564Q480.73874 307.79376 482.12936 307.79376Q483.50436 307.79376 484.1606 308.6844Q484.81686 309.5594 484.8325 311.40314L484.8325 312.8094ZM483.73874 311.325Q483.73874 309.95 483.3481 309.325Q482.9731 308.6844 482.12936 308.6844Q481.30124 308.6844 480.9106 309.325Q480.5356 309.95 480.5356 311.2469L480.5356 312.98126Q480.5356 314.35626 480.92624 315.02814Q481.3325 315.6844 482.145 315.6844Q482.94186 315.6844 483.3325 315.0594Q483.7231 314.4344 483.73874 313.10626L483.73874 311.325ZM491.8325 312.8094Q491.8325 314.71564 491.17624 315.65314Q490.5356 316.575 489.145 316.575Q487.7856 316.575 487.12936 315.66876Q486.4731 314.7625 486.44186 312.95L486.44186 311.5125Q486.44186 309.6219 487.0825 308.71564Q487.73874 307.79376 489.12936 307.79376Q490.50436 307.79376 491.1606 308.6844Q491.81686 309.5594 491.8325 311.40314L491.8325 312.8094ZM490.73874 311.325Q490.73874 309.95 490.3481 309.325Q489.9731 308.6844 489.12936 308.6844Q488.30124 308.6844 487.9106 309.325Q487.5356 309.95 487.5356 311.2469L487.5356 312.98126Q487.5356 314.35626 487.92624 315.02814Q488.3325 315.6844 489.145 315.6844Q489.94186 315.6844 490.3325 315.0594Q490.7231 314.4344 490.73874 313.10626L490.73874 311.325Z" fill-rule="nonzero"/><path fill="#757575" d="M577.2469 316.45L571.65314 316.45L571.65314 315.66876L574.60626 312.3875Q575.2625 311.6375 575.5125 311.1844Q575.7625 310.71564 575.7625 310.21564Q575.7625 309.54376 575.35626 309.1219Q574.96564 308.6844 574.27814 308.6844Q573.48126 308.6844 573.02814 309.15314Q572.575 309.60626 572.575 310.4344L571.4969 310.4344Q571.4969 309.2469 572.2469 308.52814Q573.0125 307.79376 574.27814 307.79376Q575.48126 307.79376 576.16876 308.41876Q576.85626 309.04376 576.85626 310.09064Q576.85626 311.34064 575.2469 313.09064L572.96564 315.5594L577.2469 315.5594L577.2469 316.45ZM579.15314 312.16876L579.59064 307.91876L583.96564 307.91876L583.96564 308.91876L580.5125 308.91876L580.2469 311.2469Q580.8875 310.8719 581.6844 310.8719Q582.84064 310.8719 583.52814 311.65314Q584.21564 312.41876 584.21564 313.73126Q584.21564 315.04376 583.4969 315.8094Q582.79376 316.575 581.5125 316.575Q580.3875 316.575 579.66876 315.95Q578.95 315.3094 578.85626 314.2L579.8719 314.2Q579.98126 314.9344 580.40314 315.3094Q580.825 315.6844 581.5125 315.6844Q582.2625 315.6844 582.7 315.16876Q583.1375 314.65314 583.1375 313.7469Q583.1375 312.8875 582.66876 312.3719Q582.2 311.85626 581.41876 311.85626Q580.71564 311.85626 580.3094 312.15314L580.02814 312.3875L579.15314 312.16876ZM591.0125 312.8094Q591.0125 314.71564 590.35626 315.65314Q589.71564 316.575 588.325 316.575Q586.96564 316.575 586.3094 315.66876Q585.65314 314.7625 585.6219 312.95L585.6219 311.5125Q585.6219 309.6219 586.2625 308.71564Q586.91876 307.79376 588.3094 307.79376Q589.6844 307.79376 590.34064 308.6844Q590.9969 309.5594 591.0125 311.40314L591.0125 312.8094ZM589.91876 311.325Q589.91876 309.95 589.52814 309.325Q589.15314 308.6844 588.3094 308.6844Q587.48126 308.6844 587.09064 309.325Q586.71564 309.95 586.71564 311.2469L586.71564 312.98126Q586.71564 314.35626 587.10626 315.02814Q587.5125 315.6844 588.325 315.6844Q589.1219 315.6844 589.5125 315.0594Q589.90314 314.4344 589.91876 313.10626L589.91876 311.325Z" fill-rule="nonzero"/><path fill="#757575" d="M31.128124 37.55L29.2375 37.55L22.08125 26.596874L22.08125 37.55L20.20625 37.55L20.20625 23.33125L22.08125 23.33125L29.26875 34.33125L29.26875 23.33125L31.128124 23.33125L31.128124 37.55ZM33.440624 32.175Q33.440624 30.6125 34.05 29.378124Q34.659374 28.128124 35.7375 27.45625Q36.83125 26.784374 38.2375 26.784374Q40.39375 26.784374 41.721874 28.284374Q43.065624 29.76875 43.065624 32.253124L43.065624 32.378124Q43.065624 33.925 42.471874 35.159374Q41.878124 36.378124 40.76875 37.065624Q39.675 37.753124 38.253124 37.753124Q36.1125 37.753124 34.76875 36.253124Q33.440624 34.753124 33.440624 32.3L33.440624 32.175ZM35.253124 32.378124Q35.253124 34.14375 36.065624 35.20625Q36.89375 36.26875 38.253124 36.26875Q39.628124 36.26875 40.440624 35.190624Q41.253124 34.1125 41.253124 32.175Q41.253124 30.425 40.425 29.346874Q39.596874 28.26875 38.2375 28.26875Q36.89375 28.26875 36.065624 29.33125Q35.253124 30.39375 35.253124 32.378124ZM49.159374 36.26875Q50.128124 36.26875 50.846874 35.690624Q51.565624 35.096874 51.64375 34.221874L53.3625 34.221874Q53.3 35.128124 52.721874 35.95625Q52.159374 36.76875 51.190624 37.26875Q50.2375 37.753124 49.159374 37.753124Q47.003124 37.753124 45.721874 36.315624Q44.45625 34.8625 44.45625 32.3625L44.45625 32.065624Q44.45625 30.51875 45.01875 29.315624Q45.58125 28.1125 46.64375 27.45625Q47.70625 26.784374 49.14375 26.784374Q50.925 26.784374 52.096874 27.846874Q53.284374 28.909374 53.3625 30.6125L51.64375 30.6125Q51.565624 29.596874 50.8625 28.940624Q50.175 28.26875 49.14375 28.26875Q47.76875 28.26875 47.003124 29.26875Q46.253124 30.253124 46.253124 32.128124L46.253124 32.471874Q46.253124 34.3 47.003124 35.284374Q47.753124 36.26875 49.159374 36.26875ZM57.3625 24.425L57.3625 26.9875L59.346874 26.9875L59.346874 28.378124L57.3625 28.378124L57.3625 34.925Q57.3625 35.565624 57.628124 35.89375Q57.89375 36.20625 58.534374 36.20625Q58.846874 36.20625 59.39375 36.08125L59.39375 37.55Q58.675 37.753124 58.003124 37.753124Q56.8 37.753124 56.175 37.01875Q55.565624 36.284374 55.565624 34.925L55.565624 28.378124L53.64375 28.378124L53.64375 26.9875L55.565624 26.9875L55.565624 24.425L57.3625 24.425ZM68.44063 36.503124Q67.39375 37.753124 65.34688 37.753124Q63.659374 37.753124 62.76875 36.76875Q61.89375 35.784374 61.878124 33.8625L61.878124 26.9875L63.690624 26.9875L63.690624 33.815624Q63.690624 36.20625 65.64375 36.20625Q67.70625 36.20625 68.39375 34.675L68.39375 26.9875L70.20625 26.9875L70.20625 37.55L68.4875 37.55L68.44063 36.503124ZM79.44063 37.55Q79.28438 37.2375 79.19063 36.440624Q77.925 37.753124 76.175 37.753124Q74.6125 37.753124 73.6125 36.8625Q72.6125 35.971874 72.6125 34.6125Q72.6125 32.971874 73.8625 32.065624Q75.12813 31.14375 77.39375 31.14375L79.15938 31.14375L79.15938 30.315624Q79.15938 29.3625 78.58125 28.8Q78.01875 28.2375 76.925 28.2375Q75.95625 28.2375 75.3 28.7375Q74.64375 29.221874 74.64375 29.909374L72.83125 29.909374Q72.83125 29.128124 73.39375 28.39375Q73.95625 27.64375 74.90938 27.221874Q75.87813 26.784374 77.03438 26.784374Q78.8625 26.784374 79.89375 27.70625Q80.925 28.6125 80.97188 30.221874L80.97188 35.08125Q80.97188 36.534374 81.33125 37.39375L81.33125 37.55L79.44063 37.55ZM76.44063 36.175Q77.3 36.175 78.05 35.7375Q78.81563 35.3 79.15938 34.596874L79.15938 32.425L77.7375 32.425Q74.425 32.425 74.425 34.3625Q74.425 35.221874 74.9875 35.70625Q75.55 36.175 76.44063 36.175ZM99.65938 33.034374Q99.39375 35.3 97.9875 36.534374Q96.59688 37.753124 94.26875 37.753124Q91.75313 37.753124 90.22188 35.940624Q88.70625 34.128124 88.70625 31.096874L88.70625 29.7375Q88.70625 27.753124 89.40938 26.253124Q90.12813 24.753124 91.425 23.940624Q92.72188 23.128124 94.44063 23.128124Q96.70625 23.128124 98.06563 24.39375Q99.44063 25.659374 99.65938 27.89375L97.76875 27.89375Q97.53438 26.20625 96.70625 25.440624Q95.89375 24.675 94.44063 24.675Q92.64375 24.675 91.6125 26.003124Q90.59688 27.33125 90.59688 29.784374L90.59688 31.159374Q90.59688 33.471874 91.56563 34.846874Q92.53438 36.20625 94.26875 36.20625Q95.83125 36.20625 96.65938 35.503124Q97.50313 34.8 97.76875 33.034374L99.65938 33.034374ZM101.44063 32.175Q101.44063 30.6125 102.05 29.378124Q102.65938 28.128124 103.7375 27.45625Q104.83125 26.784374 106.2375 26.784374Q108.39375 26.784374 109.72188 28.284374Q111.06563 29.76875 111.06563 32.253124L111.06563 32.378124Q111.06563 33.925 110.47188 35.159374Q109.87813 36.378124 108.76875 37.065624Q107.675 37.753124 106.25313 37.753124Q104.1125 37.753124 102.76875 36.253124Q101.44063 34.753124 101.44063 32.3L101.44063 32.175ZM103.25313 32.378124Q103.25313 34.14375 104.06563 35.20625Q104.89375 36.26875 106.25313 36.26875Q107.62813 36.26875 108.44063 35.190624Q109.25313 34.1125 109.25313 32.175Q109.25313 30.425 108.425 29.346874Q107.59688 28.26875 106.2375 28.26875Q104.89375 28.26875 104.06563 29.33125Q103.25313 30.39375 103.25313 32.378124ZM114.62813 26.9875L114.69063 28.315624Q115.89375 26.784374 117.84688 26.784374Q121.20625 26.784374 121.22188 30.565624L121.22188 37.55L119.425 37.55L119.425 30.55Q119.40938 29.409374 118.89375 28.8625Q118.39375 28.315624 117.3 28.315624Q116.425 28.315624 115.75313 28.784374Q115.09688 29.253124 114.72188 30.01875L114.72188 37.55L112.925 37.55L112.925 26.9875L114.62813 26.9875ZM125.62813 26.9875L125.69063 28.315624Q126.89375 26.784374 128.84688 26.784374Q132.20625 26.784374 132.22188 30.565624L132.22188 37.55L130.425 37.55L130.425 30.55Q130.40938 29.409374 129.89375 28.8625Q129.39375 28.315624 128.3 28.315624Q127.425 28.315624 126.75313 28.784374Q126.09688 29.253124 125.72188 30.01875L125.72188 37.55L123.925 37.55L123.925 26.9875L125.62813 26.9875ZM139.3 37.753124Q137.15938 37.753124 135.8 36.346874Q134.45625 34.925 134.45625 32.565624L134.45625 32.221874Q134.45625 30.659374 135.05 29.425Q135.65938 28.190624 136.7375 27.4875Q137.81563 26.784374 139.08125 26.784374Q141.14375 26.784374 142.28438 28.14375Q143.425 29.503124 143.425 32.034374L143.425 32.784374L136.26875 32.784374Q136.3 34.346874 137.175 35.315624Q138.05 36.26875 139.39375 36.26875Q140.3625 36.26875 141.01875 35.878124Q141.69063 35.4875 142.19063 34.846874L143.28438 35.70625Q141.95625 37.753124 139.3 37.753124ZM139.08125 28.26875Q137.9875 28.26875 137.2375 29.065624Q136.50313 29.8625 136.33125 31.3L141.6125 31.3L141.6125 31.159374Q141.53438 29.784374 140.8625 29.034374Q140.20625 28.26875 139.08125 28.26875ZM150.15938 36.26875Q151.12813 36.26875 151.84688 35.690624Q152.56563 35.096874 152.64375 34.221874L154.3625 34.221874Q154.3 35.128124 153.72188 35.95625Q153.15938 36.76875 152.19063 37.26875Q151.2375 37.753124 150.15938 37.753124Q148.00313 37.753124 146.72188 36.315624Q145.45625 34.8625 145.45625 32.3625L145.45625 32.065624Q145.45625 30.51875 146.01875 29.315624Q146.58125 28.1125 147.64375 27.45625Q148.70625 26.784374 150.14375 26.784374Q151.925 26.784374 153.09688 27.846874Q154.28438 28.909374 154.3625 30.6125L152.64375 30.6125Q152.56563 29.596874 151.8625 28.940624Q151.175 28.26875 150.14375 28.26875Q148.76875 28.26875 148.00313 29.26875Q147.25313 30.253124 147.25313 32.128124L147.25313 32.471874Q147.25313 34.3 148.00313 35.284374Q148.75313 36.26875 150.15938 36.26875ZM158.3625 24.425L158.3625 26.9875L160.34688 26.9875L160.34688 28.378124L158.3625 28.378124L158.3625 34.925Q158.3625 35.565624 158.62813 35.89375Q158.89375 36.20625 159.53438 36.20625Q159.84688 36.20625 160.39375 36.08125L160.39375 37.55Q159.675 37.753124 159.00313 37.753124Q157.8 37.753124 157.175 37.01875Q156.56563 36.284374 156.56563 34.925L156.56563 28.378124L154.64375 28.378124L154.64375 26.9875L156.56563 26.9875L156.56563 24.425L158.3625 24.425ZM167.3 37.753124Q165.15938 37.753124 163.8 36.346874Q162.45625 34.925 162.45625 32.565624L162.45625 32.221874Q162.45625 30.659374 163.05 29.425Q163.65938 28.190624 164.7375 27.4875Q165.81563 26.784374 167.08125 26.784374Q169.14375 26.784374 170.28438 28.14375Q171.425 29.503124 171.425 32.034374L171.425 32.784374L164.26875 32.784374Q164.3 34.346874 165.175 35.315624Q166.05 36.26875 167.39375 36.26875Q168.3625 36.26875 169.01875 35.878124Q169.69063 35.4875 170.19063 34.846874L171.28438 35.70625Q169.95625 37.753124 167.3 37.753124ZM167.08125 28.26875Q165.9875 28.26875 165.2375 29.065624Q164.50313 29.8625 164.33125 31.3L169.6125 31.3L169.6125 31.159374Q169.53438 29.784374 168.8625 29.034374Q168.20625 28.26875 167.08125 28.26875ZM173.47188 32.175Q173.47188 29.753124 174.62813 28.26875Q175.78438 26.784374 177.64375 26.784374Q179.50313 26.784374 180.58125 28.05L180.58125 22.55L182.39375 22.55L182.39375 37.55L180.7375 37.55L180.64375 36.409374Q179.56563 37.753124 177.62813 37.753124Q175.8 37.753124 174.62813 36.253124Q173.47188 34.7375 173.47188 32.315624L173.47188 32.175ZM175.28438 32.378124Q175.28438 34.175 176.01875 35.190624Q176.76875 36.20625 178.08125 36.20625Q179.8 36.20625 180.58125 34.675L180.58125 29.815624Q179.78438 28.315624 178.09688 28.315624Q176.76875 28.315624 176.01875 29.346874Q175.28438 30.378124 175.28438 32.378124ZM192.3625 24.425L192.3625 26.9875L194.34688 26.9875L194.34688 28.378124L192.3625 28.378124L192.3625 34.925Q192.3625 35.565624 192.62813 35.89375Q192.89375 36.20625 193.53438 36.20625Q193.84688 36.20625 194.39375 36.08125L194.39375 37.55Q193.675 37.753124 193.00313 37.753124Q191.8 37.753124 191.175 37.01875Q190.56563 36.284374 190.56563 34.925L190.56563 28.378124L188.64375 28.378124L188.64375 26.9875L190.56563 26.9875L190.56563 24.425L192.3625 24.425ZM196.44063 32.175Q196.44063 30.6125 197.05 29.378124Q197.65938 28.128124 198.7375 27.45625Q199.83125 26.784374 201.2375 26.784374Q203.39375 26.784374 204.72188 28.284374Q206.06563 29.76875 206.06563 32.253124L206.06563 32.378124Q206.06563 33.925 205.47188 35.159374Q204.87813 36.378124 203.76875 37.065624Q202.675 37.753124 201.25313 37.753124Q199.1125 37.753124 197.76875 36.253124Q196.44063 34.753124 196.44063 32.3L196.44063 32.175ZM198.25313 32.378124Q198.25313 34.14375 199.06563 35.20625Q199.89375 36.26875 201.25313 36.26875Q202.62813 36.26875 203.44063 35.190624Q204.25313 34.1125 204.25313 32.175Q204.25313 30.425 203.425 29.346874Q202.59688 28.26875 201.2375 28.26875Q199.89375 28.26875 199.06563 29.33125Q198.25313 30.39375 198.25313 32.378124ZM219.44063 37.55Q219.28438 37.2375 219.19063 36.440624Q217.925 37.753124 216.175 37.753124Q214.6125 37.753124 213.6125 36.8625Q212.6125 35.971874 212.6125 34.6125Q212.6125 32.971874 213.8625 32.065624Q215.12813 31.14375 217.39375 31.14375L219.15938 31.14375L219.15938 30.315624Q219.15938 29.3625 218.58125 28.8Q218.01875 28.2375 216.925 28.2375Q215.95625 28.2375 215.3 28.7375Q214.64375 29.221874 214.64375 29.909374L212.83125 29.909374Q212.83125 29.128124 213.39375 28.39375Q213.95625 27.64375 214.90938 27.221874Q215.87813 26.784374 217.03438 26.784374Q218.8625 26.784374 219.89375 27.70625Q220.925 28.6125 220.97188 30.221874L220.97188 35.08125Q220.97188 36.534374 221.33125 37.39375L221.33125 37.55L219.44063 37.55ZM216.44063 36.175Q217.3 36.175 218.05 35.7375Q218.81563 35.3 219.15938 34.596874L219.15938 32.425L217.7375 32.425Q214.425 32.425 214.425 34.3625Q214.425 35.221874 214.9875 35.70625Q215.55 36.175 216.44063 36.175ZM225.62813 26.9875L225.69063 28.315624Q226.89375 26.784374 228.84688 26.784374Q232.20625 26.784374 232.22188 30.565624L232.22188 37.55L230.425 37.55L230.425 30.55Q230.40938 29.409374 229.89375 28.8625Q229.39375 28.315624 228.3 28.315624Q227.425 28.315624 226.75313 28.784374Q226.09688 29.253124 225.72188 30.01875L225.72188 37.55L223.925 37.55L223.925 26.9875L225.62813 26.9875ZM248.05 33.83125L242.09688 33.83125L240.75313 37.55L238.83125 37.55L244.25313 23.33125L245.89375 23.33125L251.33125 37.55L249.40938 37.55L248.05 33.83125ZM242.65938 32.3L247.50313 32.3L245.08125 25.64375L242.65938 32.3ZM258.01874 28.596874Q257.6125 28.534374 257.14374 28.534374Q255.3625 28.534374 254.72188 30.05L254.72188 37.55L252.925 37.55L252.925 26.9875L254.675 26.9875L254.70625 28.20625Q255.59688 26.784374 257.22186 26.784374Q257.7531 26.784374 258.01874 26.925L258.01874 28.596874ZM259.47186 32.175Q259.47186 29.753124 260.6281 28.26875Q261.78436 26.784374 263.64374 26.784374Q265.5031 26.784374 266.58124 28.05L266.58124 22.55L268.39374 22.55L268.39374 37.55L266.7375 37.55L266.64374 36.409374Q265.5656 37.753124 263.6281 37.753124Q261.8 37.753124 260.6281 36.253124Q259.47186 34.7375 259.47186 32.315624L259.47186 32.175ZM261.28436 32.378124Q261.28436 34.175 262.01874 35.190624Q262.76874 36.20625 264.08124 36.20625Q265.8 36.20625 266.58124 34.675L266.58124 29.815624Q265.78436 28.315624 264.09686 28.315624Q262.76874 28.315624 262.01874 29.346874Q261.28436 30.378124 261.28436 32.378124ZM277.4406 36.503124Q276.39374 37.753124 274.34686 37.753124Q272.65936 37.753124 271.76874 36.76875Q270.89374 35.784374 270.8781 33.8625L270.8781 26.9875L272.6906 26.9875L272.6906 33.815624Q272.6906 36.20625 274.64374 36.20625Q276.70624 36.20625 277.39374 34.675L277.39374 26.9875L279.20624 26.9875L279.20624 37.55L277.4875 37.55L277.4406 36.503124ZM283.8781 37.55L282.08124 37.55L282.08124 26.9875L283.8781 26.9875L283.8781 37.55ZM281.925 24.175Q281.925 23.7375 282.1906 23.440624Q282.47186 23.128124 282.9875 23.128124Q283.51874 23.128124 283.78436 23.440624Q284.0656 23.7375 284.0656 24.175Q284.0656 24.6125 283.78436 24.909374Q283.51874 25.20625 282.9875 25.20625Q282.47186 25.20625 282.1906 24.909374Q281.925 24.6125 281.925 24.175ZM288.6281 26.9875L288.6906 28.315624Q289.89374 26.784374 291.84686 26.784374Q295.20624 26.784374 295.22186 30.565624L295.22186 37.55L293.425 37.55L293.425 30.55Q293.40936 29.409374 292.89374 28.8625Q292.39374 28.315624 291.3 28.315624Q290.425 28.315624 289.7531 28.784374Q289.09686 29.253124 288.72186 30.01875L288.72186 37.55L286.925 37.55L286.925 26.9875L288.6281 26.9875ZM297.4406 32.175Q297.4406 30.6125 298.05 29.378124Q298.65936 28.128124 299.7375 27.45625Q300.83124 26.784374 302.2375 26.784374Q304.39374 26.784374 305.72186 28.284374Q307.0656 29.76875 307.0656 32.253124L307.0656 32.378124Q307.0656 33.925 306.47186 35.159374Q305.8781 36.378124 304.76874 37.065624Q303.675 37.753124 302.2531 37.753124Q300.1125 37.753124 298.76874 36.253124Q297.4406 34.753124 297.4406 32.3L297.4406 32.175ZM299.2531 32.378124Q299.2531 34.14375 300.0656 35.20625Q300.89374 36.26875 302.2531 36.26875Q303.6281 36.26875 304.4406 35.190624Q305.2531 34.1125 305.2531 32.175Q305.2531 30.425 304.425 29.346874Q303.59686 28.26875 302.2375 28.26875Q300.89374 28.26875 300.0656 29.33125Q299.2531 30.39375 299.2531 32.378124Z" fill-rule="nonzero"/></svg>