<svg version="1.1" viewBox="0.0 0.0 600.0 371.0" fill="none" stroke="none" stroke-linecap="square" stroke-miterlimit="10" width="600" height="371" xmlns:xlink="http://www.w3.org/1999/xlink" xmlns="http://www.w3.org/2000/svg"><path fill="#ffffff" d="M0 0L600.0 0L600.0 371.0L0 371.0L0 0Z" fill-rule="nonzero"/><path stroke="#333333" stroke-width="1.0" stroke-linecap="butt" d="M85.5 62.5L85.5 298.5" fill-rule="nonzero"/><path stroke="#cccccc" stroke-width="1.0" stroke-linecap="butt" d="M184.5 62.5L184.5 298.5" fill-rule="nonzero"/><path stroke="#cccccc" stroke-width="1.0" stroke-linecap="butt" d="M283.5 62.5L283.5 298.5" fill-rule="nonzero"/><path stroke="#cccccc" stroke-width="1.0" stroke-linecap="butt" d="M383.5 62.5L383.5 298.5" fill-rule="nonzero"/><path stroke="#cccccc" stroke-width="1.0" stroke-linecap="butt" d="M482.5 62.5L482.5 298.5" fill-rule="nonzero"/><path stroke="#cccccc" stroke-width="1.0" stroke-linecap="butt" d="M581.5 62.5L581.5 298.5" fill-rule="nonzero"/><path stroke="#333333" stroke-width="1.0" stroke-linecap="butt" d="M85.5 298.5L581.5 298.5" fill-rule="nonzero"/><path stroke="#cccccc" stroke-width="1.0" stroke-linecap="butt" d="M85.5 251.5L581.5 251.5" fill-rule="nonzero"/><path stroke="#cccccc" stroke-width="1.0" stroke-linecap="butt" d="M85.5 204.5L581.5 204.5" fill-rule="nonzero"/><path stroke="#cccccc" stroke-width="1.0" stroke-linecap="butt" d="M85.5 156.5L581.5 156.5" fill-rule="nonzero"/><path stroke="#cccccc" stroke-width="1.0" stroke-linecap="butt" d="M85.5 109.5L581.5 109.5" fill-rule="nonzero"/><path stroke="#cccccc" stroke-width="1.0" stroke-linecap="butt" d="M85.5 62.5L581.5 62.5" fill-rule="nonzero"/><clipPath id="id_0"><path d="M85.55 62.416668L581.45 62.416668L581.45 298.45L85.55 298.45L85.55 62.416668Z" clip-rule="nonzero"/></clipPath><path stroke="#4285f4" stroke-width="2.0" stroke-linecap="butt" clip-path="url(#id_0)" d="M85.55 298.45L95.468 298.45L105.386 298.45L115.304 298.45L125.222 298.45L135.14 298.45L145.058 298.45L154.976 298.45L164.894 298.45L174.812 298.45L184.73 298.45L194.648 298.45L204.566 298.45L214.484 298.45L224.402 298.45L234.32 298.45L244.238 298.45L254.156 298.45L264.074 298.45L273.992 298.45L283.91 228.58414L293.828 204.60315L303.746 196.29477L313.664 190.8188L323.582 185.9093L333.5 180.99982L343.418 176.27914L353.336 171.55849L363.254 167.02664L373.172 162.68362L383.09 157.58531L393.008 152.86464L402.926 147.38867L412.844 142.668L422.762 138.89146L432.68 134.35962L442.598 130.01662L452.516 125.295944L462.434 120.952934L472.352 116.23227L482.27 111.700424L492.188 107.54624L502.106 103.0144L512.024 99.04904L521.942 95.27251L531.86 90.55184L541.778 86.02L551.696 82.05464L561.614 80.3552L571.532 79.97755L581.45 79.97755" fill-rule="nonzero"/><path fill="#000000" fill-opacity="0.0" clip-path="url(#id_0)" d="M88.55 298.45C88.55 300.10684 87.206856 301.45 85.55 301.45C83.89314 301.45 82.55 300.10684 82.55 298.45C82.55 296.79315 83.89314 295.45 85.55 295.45C87.206856 295.45 88.55 296.79315 88.55 298.45Z" fill-rule="nonzero"/><path fill="#000000" fill-opacity="0.0" clip-path="url(#id_0)" d="M98.468 298.45C98.468 300.10684 97.124855 301.45 95.468 301.45C93.81114 301.45 92.468 300.10684 92.468 298.45C92.468 296.79315 93.81114 295.45 95.468 295.45C97.124855 295.45 98.468 296.79315 98.468 298.45Z" fill-rule="nonzero"/><path fill="#000000" fill-opacity="0.0" clip-path="url(#id_0)" d="M108.386 298.45C108.386 300.10684 107.042854 301.45 105.386 301.45C103.72915 301.45 102.386 300.10684 102.386 298.45C102.386 296.79315 103.72915 295.45 105.386 295.45C107.042854 295.45 108.386 296.79315 108.386 298.45Z" fill-rule="nonzero"/><path fill="#000000" fill-opacity="0.0" clip-path="url(#id_0)" d="M118.304 298.45C118.304 300.10684 116.96085 301.45 115.304 301.45C113.64715 301.45 112.304 300.10684 112.304 298.45C112.304 296.79315 113.64715 295.45 115.304 295.45C116.96085 295.45 118.304 296.79315 118.304 298.45Z" fill-rule="nonzero"/><path fill="#000000" fill-opacity="0.0" clip-path="url(#id_0)" d="M128.222 298.45C128.222 300.10684 126.87885 301.45 125.222 301.45C123.56515 301.45 122.222 300.10684 122.222 298.45C122.222 296.79315 123.56515 295.45 125.222 295.45C126.87885 295.45 128.222 296.79315 128.222 298.45Z" fill-rule="nonzero"/><path fill="#000000" fill-opacity="0.0" clip-path="url(#id_0)" d="M138.14 298.45C138.14 300.10684 136.79686 301.45 135.14 301.45C133.48314 301.45 132.14 300.10684 132.14 298.45C132.14 296.79315 133.48314 295.45 135.14 295.45C136.79686 295.45 138.14 296.79315 138.14 298.45Z" fill-rule="nonzero"/><path fill="#000000" fill-opacity="0.0" clip-path="url(#id_0)" d="M148.058 298.45C148.058 300.10684 146.71486 301.45 145.058 301.45C143.40114 301.45 142.058 300.10684 142.058 298.45C142.058 296.79315 143.40114 295.45 145.058 295.45C146.71486 295.45 148.058 296.79315 148.058 298.45Z" fill-rule="nonzero"/><path fill="#000000" fill-opacity="0.0" clip-path="url(#id_0)" d="M157.976 298.45C157.976 300.10684 156.63286 301.45 154.976 301.45C153.31915 301.45 151.976 300.10684 151.976 298.45C151.976 296.79315 153.31915 295.45 154.976 295.45C156.63286 295.45 157.976 296.79315 157.976 298.45Z" fill-rule="nonzero"/><path fill="#000000" fill-opacity="0.0" clip-path="url(#id_0)" d="M167.894 298.45C167.894 300.10684 166.55086 301.45 164.894 301.45C163.23715 301.45 161.894 300.10684 161.894 298.45C161.894 296.79315 163.23715 295.45 164.894 295.45C166.55086 295.45 167.894 296.79315 167.894 298.45Z" fill-rule="nonzero"/><path fill="#000000" fill-opacity="0.0" clip-path="url(#id_0)" d="M177.812 298.45C177.812 300.10684 176.46886 301.45 174.812 301.45C173.15515 301.45 171.812 300.10684 171.812 298.45C171.812 296.79315 173.15515 295.45 174.812 295.45C176.46886 295.45 177.812 296.79315 177.812 298.45Z" fill-rule="nonzero"/><path fill="#000000" fill-opacity="0.0" clip-path="url(#id_0)" d="M187.73 298.45C187.73 300.10684 186.38686 301.45 184.73 301.45C183.07315 301.45 181.73 300.10684 181.73 298.45C181.73 296.79315 183.07315 295.45 184.73 295.45C186.38686 295.45 187.73 296.79315 187.73 298.45Z" fill-rule="nonzero"/><path fill="#000000" fill-opacity="0.0" clip-path="url(#id_0)" d="M197.648 298.45C197.648 300.10684 196.30486 301.45 194.648 301.45C192.99115 301.45 191.648 300.10684 191.648 298.45C191.648 296.79315 192.99115 295.45 194.648 295.45C196.30486 295.45 197.648 296.79315 197.648 298.45Z" fill-rule="nonzero"/><path fill="#000000" fill-opacity="0.0" clip-path="url(#id_0)" d="M207.566 298.45C207.566 300.10684 206.22285 301.45 204.566 301.45C202.90915 301.45 201.566 300.10684 201.566 298.45C201.566 296.79315 202.90915 295.45 204.566 295.45C206.22285 295.45 207.566 296.79315 207.566 298.45Z" fill-rule="nonzero"/><path fill="#000000" fill-opacity="0.0" clip-path="url(#id_0)" d="M217.484 298.45C217.484 300.10684 216.14085 301.45 214.484 301.45C212.82715 301.45 211.484 300.10684 211.484 298.45C211.484 296.79315 212.82715 295.45 214.484 295.45C216.14085 295.45 217.484 296.79315 217.484 298.45Z" fill-rule="nonzero"/><path fill="#000000" fill-opacity="0.0" clip-path="url(#id_0)" d="M227.402 298.45C227.402 300.10684 226.05885 301.45 224.402 301.45C222.74515 301.45 221.402 300.10684 221.402 298.45C221.402 296.79315 222.74515 295.45 224.402 295.45C226.05885 295.45 227.402 296.79315 227.402 298.45Z" fill-rule="nonzero"/><path fill="#000000" fill-opacity="0.0" clip-path="url(#id_0)" d="M237.32 298.45C237.32 300.10684 235.97685 301.45 234.32 301.45C232.66315 301.45 231.32 300.10684 231.32 298.45C231.32 296.79315 232.66315 295.45 234.32 295.45C235.97685 295.45 237.32 296.79315 237.32 298.45Z" fill-rule="nonzero"/><path fill="#000000" fill-opacity="0.0" clip-path="url(#id_0)" d="M247.238 298.45C247.238 300.10684 245.89485 301.45 244.238 301.45C242.58115 301.45 241.238 300.10684 241.238 298.45C241.238 296.79315 242.58115 295.45 244.238 295.45C245.89485 295.45 247.238 296.79315 247.238 298.45Z" fill-rule="nonzero"/><path fill="#000000" fill-opacity="0.0" clip-path="url(#id_0)" d="M257.156 298.45C257.156 300.10684 255.81285 301.45 254.156 301.45C252.49915 301.45 251.156 300.10684 251.156 298.45C251.156 296.79315 252.49915 295.45 254.156 295.45C255.81285 295.45 257.156 296.79315 257.156 298.45Z" fill-rule="nonzero"/><path fill="#000000" fill-opacity="0.0" clip-path="url(#id_0)" d="M267.074 298.45C267.074 300.10684 265.73087 301.45 264.074 301.45C262.41714 301.45 261.074 300.10684 261.074 298.45C261.074 296.79315 262.41714 295.45 264.074 295.45C265.73087 295.45 267.074 296.79315 267.074 298.45Z" fill-rule="nonzero"/><path fill="#000000" fill-opacity="0.0" clip-path="url(#id_0)" d="M276.992 298.45C276.992 300.10684 275.64886 301.45 273.992 301.45C272.33514 301.45 270.992 300.10684 270.992 298.45C270.992 296.79315 272.33514 295.45 273.992 295.45C275.64886 295.45 276.992 296.79315 276.992 298.45Z" fill-rule="nonzero"/><path fill="#000000" fill-opacity="0.0" clip-path="url(#id_0)" d="M286.91 228.58414C286.91 230.24098 285.56686 231.58414 283.91 231.58414C282.25314 231.58414 280.91 230.24098 280.91 228.58414C280.91 226.92728 282.25314 225.58414 283.91 225.58414C285.56686 225.58414 286.91 226.92728 286.91 228.58414Z" fill-rule="nonzero"/><path fill="#000000" fill-opacity="0.0" clip-path="url(#id_0)" d="M296.828 204.60315C296.828 206.26 295.48486 207.60315 293.828 207.60315C292.17114 207.60315 290.828 206.26 290.828 204.60315C290.828 202.94629 292.17114 201.60315 293.828 201.60315C295.48486 201.60315 296.828 202.94629 296.828 204.60315Z" fill-rule="nonzero"/><path fill="#000000" fill-opacity="0.0" clip-path="url(#id_0)" d="M306.746 196.29477C306.746 197.95163 305.40286 199.29477 303.746 199.29477C302.08914 199.29477 300.746 197.95163 300.746 196.29477C300.746 194.63792 302.08914 193.29477 303.746 193.29477C305.40286 193.29477 306.746 194.63792 306.746 196.29477Z" fill-rule="nonzero"/><path fill="#000000" fill-opacity="0.0" clip-path="url(#id_0)" d="M316.664 190.8188C316.664 192.47565 315.32086 193.8188 313.664 193.8188C312.00714 193.8188 310.664 192.47565 310.664 190.8188C310.664 189.16194 312.00714 187.8188 313.664 187.8188C315.32086 187.8188 316.664 189.16194 316.664 190.8188Z" fill-rule="nonzero"/><path fill="#000000" fill-opacity="0.0" clip-path="url(#id_0)" d="M326.582 185.9093C326.582 187.56616 325.23886 188.9093 323.582 188.9093C321.92514 188.9093 320.582 187.56616 320.582 185.9093C320.582 184.25246 321.92514 182.9093 323.582 182.9093C325.23886 182.9093 326.582 184.25246 326.582 185.9093Z" fill-rule="nonzero"/><path fill="#000000" fill-opacity="0.0" clip-path="url(#id_0)" d="M336.5 180.99982C336.5 182.65666 335.15686 183.99982 333.5 183.99982C331.84314 183.99982 330.5 182.65666 330.5 180.99982C330.5 179.34296 331.84314 177.99982 333.5 177.99982C335.15686 177.99982 336.5 179.34296 336.5 180.99982Z" fill-rule="nonzero"/><path fill="#000000" fill-opacity="0.0" clip-path="url(#id_0)" d="M346.418 176.27914C346.418 177.936 345.07486 179.27914 343.418 179.27914C341.76114 179.27914 340.418 177.936 340.418 176.27914C340.418 174.6223 341.76114 173.27914 343.418 173.27914C345.07486 173.27914 346.418 174.6223 346.418 176.27914Z" fill-rule="nonzero"/><path fill="#000000" fill-opacity="0.0" clip-path="url(#id_0)" d="M356.336 171.55849C356.336 173.21533 354.99286 174.55849 353.336 174.55849C351.67914 174.55849 350.336 173.21533 350.336 171.55849C350.336 169.90163 351.67914 168.55849 353.336 168.55849C354.99286 168.55849 356.336 169.90163 356.336 171.55849Z" fill-rule="nonzero"/><path fill="#000000" fill-opacity="0.0" clip-path="url(#id_0)" d="M366.254 167.02664C366.254 168.68349 364.91086 170.02664 363.254 170.02664C361.59714 170.02664 360.254 168.68349 360.254 167.02664C360.254 165.36978 361.59714 164.02664 363.254 164.02664C364.91086 164.02664 366.254 165.36978 366.254 167.02664Z" fill-rule="nonzero"/><path fill="#000000" fill-opacity="0.0" clip-path="url(#id_0)" d="M376.172 162.68362C376.172 164.34048 374.82886 165.68362 373.172 165.68362C371.51514 165.68362 370.172 164.34048 370.172 162.68362C370.172 161.02678 371.51514 159.68362 373.172 159.68362C374.82886 159.68362 376.172 161.02678 376.172 162.68362Z" fill-rule="nonzero"/><path fill="#000000" fill-opacity="0.0" clip-path="url(#id_0)" d="M386.09 157.58531C386.09 159.24216 384.74686 160.58531 383.09 160.58531C381.43314 160.58531 380.09 159.24216 380.09 157.58531C380.09 155.92845 381.43314 154.58531 383.09 154.58531C384.74686 154.58531 386.09 155.92845 386.09 157.58531Z" fill-rule="nonzero"/><path fill="#000000" fill-opacity="0.0" clip-path="url(#id_0)" d="M396.008 152.86464C396.008 154.5215 394.66486 155.86464 393.008 155.86464C391.35114 155.86464 390.008 154.5215 390.008 152.86464C390.008 151.20778 391.35114 149.86464 393.008 149.86464C394.66486 149.86464 396.008 151.20778 396.008 152.86464Z" fill-rule="nonzero"/><path fill="#000000" fill-opacity="0.0" clip-path="url(#id_0)" d="M405.926 147.38867C405.926 149.04552 404.58286 150.38867 402.926 150.38867C401.26913 150.38867 399.926 149.04552 399.926 147.38867C399.926 145.73181 401.26913 144.38867 402.926 144.38867C404.58286 144.38867 405.926 145.73181 405.926 147.38867Z" fill-rule="nonzero"/><path fill="#000000" fill-opacity="0.0" clip-path="url(#id_0)" d="M415.844 142.668C415.844 144.32486 414.50085 145.668 412.844 145.668C411.18713 145.668 409.844 144.32486 409.844 142.668C409.844 141.01114 411.18713 139.668 412.844 139.668C414.50085 139.668 415.844 141.01114 415.844 142.668Z" fill-rule="nonzero"/><path fill="#000000" fill-opacity="0.0" clip-path="url(#id_0)" d="M425.762 138.89146C425.762 140.54832 424.41885 141.89146 422.762 141.89146C421.10513 141.89146 419.762 140.54832 419.762 138.89146C419.762 137.23462 421.10513 135.89146 422.762 135.89146C424.41885 135.89146 425.762 137.23462 425.762 138.89146Z" fill-rule="nonzero"/><path fill="#000000" fill-opacity="0.0" clip-path="url(#id_0)" d="M435.68 134.35962C435.68 136.01648 434.33685 137.35962 432.68 137.35962C431.02313 137.35962 429.68 136.01648 429.68 134.35962C429.68 132.70277 431.02313 131.35962 432.68 131.35962C434.33685 131.35962 435.68 132.70277 435.68 134.35962Z" fill-rule="nonzero"/><path fill="#000000" fill-opacity="0.0" clip-path="url(#id_0)" d="M445.598 130.01662C445.598 131.67346 444.25485 133.01662 442.598 133.01662C440.94113 133.01662 439.598 131.67346 439.598 130.01662C439.598 128.35976 440.94113 127.01662 442.598 127.01662C444.25485 127.01662 445.598 128.35976 445.598 130.01662Z" fill-rule="nonzero"/><path fill="#000000" fill-opacity="0.0" clip-path="url(#id_0)" d="M455.516 125.295944C455.516 126.952805 454.17285 128.29594 452.516 128.29594C450.85913 128.29594 449.516 126.952805 449.516 125.295944C449.516 123.63909 450.85913 122.295944 452.516 122.295944C454.17285 122.295944 455.516 123.63909 455.516 125.295944Z" fill-rule="nonzero"/><path fill="#000000" fill-opacity="0.0" clip-path="url(#id_0)" d="M465.434 120.952934C465.434 122.60979 464.09085 123.952934 462.434 123.952934C460.77716 123.952934 459.434 122.60979 459.434 120.952934C459.434 119.29608 460.77716 117.952934 462.434 117.952934C464.09085 117.952934 465.434 119.29608 465.434 120.952934Z" fill-rule="nonzero"/><path fill="#000000" fill-opacity="0.0" clip-path="url(#id_0)" d="M475.352 116.23227C475.352 117.88912 474.00885 119.23227 472.352 119.23227C470.69516 119.23227 469.352 117.88912 469.352 116.23227C469.352 114.57541 470.69516 113.23227 472.352 113.23227C474.00885 113.23227 475.352 114.57541 475.352 116.23227Z" fill-rule="nonzero"/><path fill="#000000" fill-opacity="0.0" clip-path="url(#id_0)" d="M485.27 111.700424C485.27 113.357285 483.92685 114.700424 482.27 114.700424C480.61316 114.700424 479.27 113.357285 479.27 111.700424C479.27 110.04357 480.61316 108.700424 482.27 108.700424C483.92685 108.700424 485.27 110.04357 485.27 111.700424Z" fill-rule="nonzero"/><path fill="#000000" fill-opacity="0.0" clip-path="url(#id_0)" d="M495.188 107.54624C495.188 109.203094 493.84485 110.54624 492.188 110.54624C490.53116 110.54624 489.188 109.203094 489.188 107.54624C489.188 105.88939 490.53116 104.54624 492.188 104.54624C493.84485 104.54624 495.188 105.88939 495.188 107.54624Z" fill-rule="nonzero"/><path fill="#000000" fill-opacity="0.0" clip-path="url(#id_0)" d="M505.106 103.0144C505.106 104.67126 503.76285 106.0144 502.106 106.0144C500.44916 106.0144 499.106 104.67126 499.106 103.0144C499.106 101.357544 500.44916 100.0144 502.106 100.0144C503.76285 100.0144 505.106 101.357544 505.106 103.0144Z" fill-rule="nonzero"/><path fill="#000000" fill-opacity="0.0" clip-path="url(#id_0)" d="M515.024 99.04904C515.024 100.705894 513.68085 102.04904 512.024 102.04904C510.36716 102.04904 509.024 100.705894 509.024 99.04904C509.024 97.39219 510.36716 96.04904 512.024 96.04904C513.68085 96.04904 515.024 97.39219 515.024 99.04904Z" fill-rule="nonzero"/><path fill="#000000" fill-opacity="0.0" clip-path="url(#id_0)" d="M524.942 95.27251C524.942 96.92936 523.5989 98.27251 521.942 98.27251C520.28516 98.27251 518.942 96.92936 518.942 95.27251C518.942 93.615654 520.28516 92.27251 521.942 92.27251C523.5989 92.27251 524.942 93.615654 524.942 95.27251Z" fill-rule="nonzero"/><path fill="#000000" fill-opacity="0.0" clip-path="url(#id_0)" d="M534.86 90.55184C534.86 92.208694 533.51685 93.55184 531.86 93.55184C530.2031 93.55184 528.86 92.208694 528.86 90.55184C528.86 88.89499 530.2031 87.55184 531.86 87.55184C533.51685 87.55184 534.86 88.89499 534.86 90.55184Z" fill-rule="nonzero"/><path fill="#000000" fill-opacity="0.0" clip-path="url(#id_0)" d="M544.778 86.02C544.778 87.67686 543.4349 89.02 541.778 89.02C540.12115 89.02 538.778 87.67686 538.778 86.02C538.778 84.363144 540.12115 83.02 541.778 83.02C543.4349 83.02 544.778 84.363144 544.778 86.02Z" fill-rule="nonzero"/><path fill="#000000" fill-opacity="0.0" clip-path="url(#id_0)" d="M554.696 82.05464C554.696 83.711494 553.35284 85.05464 551.696 85.05464C550.0391 85.05464 548.696 83.711494 548.696 82.05464C548.696 80.39779 550.0391 79.05464 551.696 79.05464C553.35284 79.05464 554.696 80.39779 554.696 82.05464Z" fill-rule="nonzero"/><path fill="#000000" fill-opacity="0.0" clip-path="url(#id_0)" d="M564.614 80.3552C564.614 82.012054 563.2709 83.3552 561.614 83.3552C559.95715 83.3552 558.614 82.012054 558.614 80.3552C558.614 78.69835 559.95715 77.3552 561.614 77.3552C563.2709 77.3552 564.614 78.69835 564.614 80.3552Z" fill-rule="nonzero"/><path fill="#000000" fill-opacity="0.0" clip-path="url(#id_0)" d="M574.532 79.97755C574.532 81.6344 573.18884 82.97755 571.532 82.97755C569.8751 82.97755 568.532 81.6344 568.532 79.97755C568.532 78.320694 569.8751 76.97755 571.532 76.97755C573.18884 76.97755 574.532 78.320694 574.532 79.97755Z" fill-rule="nonzero"/><path fill="#000000" fill-opacity="0.0" clip-path="url(#id_0)" d="M584.45 79.97755C584.45 81.6344 583.1069 82.97755 581.45 82.97755C579.79315 82.97755 578.45 81.6344 578.45 79.97755C578.45 78.320694 579.79315 76.97755 581.45 76.97755C583.1069 76.97755 584.45 78.320694 584.45 79.97755Z" fill-rule="nonzero"/><path fill="#424242" d="M321.10938 346.10626L321.10938 349.45L319.98438 349.45L319.98438 340.91876L323.14062 340.91876Q324.53125 340.91876 325.32812 341.6375Q326.125 342.34064 326.125 343.52814Q326.125 344.7625 325.34375 345.4344Q324.57812 346.10626 323.125 346.10626L321.10938 346.10626ZM321.10938 345.1844L323.14062 345.1844Q324.04688 345.1844 324.51562 344.7625Q325.0 344.34064 325.0 343.54376Q325.0 342.77814 324.51562 342.325Q324.04688 341.85626 323.20312 341.84064L321.10938 341.84064L321.10938 345.1844ZM329.82812 346.7625L330.0 347.8875L330.23438 346.8719L331.92188 340.91876L332.875 340.91876L334.51562 346.8719L334.75 347.90314L334.9375 346.7469L336.26562 340.91876L337.39062 340.91876L335.32812 349.45L334.29688 349.45L332.53125 343.23126L332.40625 342.575L332.26562 343.23126L330.45312 349.45L329.42188 349.45L327.35938 340.91876L328.48438 340.91876L329.82812 346.7625ZM340.4375 340.91876L343.23438 347.8719L346.01562 340.91876L347.48438 340.91876L347.48438 349.45L346.35938 349.45L346.35938 346.1219L346.46875 342.54376L343.65625 349.45L342.79688 349.45L340.0 342.5594L340.10938 346.1219L340.10938 349.45L338.98438 349.45L338.98438 340.91876L340.4375 340.91876Z" fill-rule="nonzero"/><path fill="#424242" d="M27.096888 195.55833L27.096888 197.57396L30.550013 197.57396L30.550013 198.69896L22.018763 198.69896L22.018763 195.87083Q22.018763 194.43333 22.675013 193.66771Q23.331263 192.88646 24.581263 192.88646Q25.378138 192.88646 25.971888 193.32396Q26.565638 193.74583 26.862513 194.51146L30.471888 192.51146L30.550013 192.51146L30.550013 193.71458L27.096888 195.55833ZM26.175013 197.57396L26.175013 195.83958Q26.175013 194.99583 25.753138 194.51146Q25.315638 194.01146 24.581263 194.01146Q23.800013 194.01146 23.378138 194.48021Q22.956263 194.94896 22.940638 195.83958L22.940638 197.57396L26.175013 197.57396ZM27.206263 190.57396L30.550013 190.57396L30.550013 191.69896L22.018763 191.69896L22.018763 188.54271Q22.018763 187.15208 22.737513 186.35521Q23.440638 185.55833 24.628138 185.55833Q25.862513 185.55833 26.534388 186.33958Q27.206263 187.10521 27.206263 188.55833L27.206263 190.57396ZM26.284388 190.57396L26.284388 188.54271Q26.284388 187.63646 25.862513 187.16771Q25.440638 186.68333 24.643763 186.68333Q23.878138 186.68333 23.425013 187.16771Q22.956263 187.63646 22.940638 188.48021L22.940638 190.57396L26.284388 190.57396ZM22.018763 182.24583L28.971888 179.44896L22.018763 176.66771L22.018763 175.19896L30.550013 175.19896L30.550013 176.32396L27.221888 176.32396L23.643763 176.21458L30.550013 179.02708L30.550013 179.88646L23.659388 182.68333L27.221888 182.57396L30.550013 182.57396L30.550013 183.69896L22.018763 183.69896L22.018763 182.24583Z" fill-rule="nonzero"/><path fill="#757575" d="M78.6125 299.3094Q78.6125 301.21564 77.95625 302.15314Q77.31563 303.075 75.925 303.075Q74.56563 303.075 73.90938 302.16876Q73.25313 301.2625 73.22188 299.45L73.22188 298.0125Q73.22188 296.1219 73.8625 295.21564Q74.51875 294.29376 75.90938 294.29376Q77.28438 294.29376 77.94063 295.1844Q78.59688 296.0594 78.6125 297.90314L78.6125 299.3094ZM77.51875 297.825Q77.51875 296.45 77.12813 295.825Q76.75313 295.1844 75.90938 295.1844Q75.08125 295.1844 74.69063 295.825Q74.31563 296.45 74.31563 297.7469L74.31563 299.48126Q74.31563 300.85626 74.70625 301.52814Q75.1125 302.1844 75.925 302.1844Q76.72188 302.1844 77.1125 301.5594Q77.50313 300.9344 77.51875 299.60626L77.51875 297.825Z" fill-rule="nonzero"/><path fill="#757575" d="M64.84688 255.74333L59.253124 255.74333L59.253124 254.96208L62.20625 251.68083Q62.8625 250.93083 63.1125 250.4777Q63.3625 250.00896 63.3625 249.50896Q63.3625 248.83708 62.95625 248.4152Q62.565624 247.9777 61.878124 247.9777Q61.08125 247.9777 60.628124 248.44646Q60.175 248.89958 60.175 249.7277L59.096874 249.7277Q59.096874 248.5402 59.846874 247.82146Q60.6125 247.08708 61.878124 247.08708Q63.08125 247.08708 63.76875 247.71208Q64.45625 248.33708 64.45625 249.38396Q64.45625 250.63396 62.846874 252.38396L60.565624 254.8527L64.84688 254.8527L64.84688 255.74333ZM66.75313 251.46208L67.19063 247.21208L71.56563 247.21208L71.56563 248.21208L68.1125 248.21208L67.84688 250.5402Q68.4875 250.1652 69.28438 250.1652Q70.44063 250.1652 71.12813 250.94646Q71.81563 251.71208 71.81563 253.02458Q71.81563 254.33708 71.09688 255.1027Q70.39375 255.86833 69.1125 255.86833Q67.9875 255.86833 67.26875 255.24333Q66.55 254.6027 66.45625 253.49333L67.47188 253.49333Q67.58125 254.2277 68.00313 254.6027Q68.425 254.9777 69.1125 254.9777Q69.8625 254.9777 70.3 254.46208Q70.7375 253.94646 70.7375 253.0402Q70.7375 252.18083 70.26875 251.6652Q69.8 251.14958 69.01875 251.14958Q68.31563 251.14958 67.90938 251.44646L67.62813 251.68083L66.75313 251.46208ZM78.6125 252.1027Q78.6125 254.00896 77.95625 254.94646Q77.31563 255.86833 75.925 255.86833Q74.56563 255.86833 73.90938 254.96208Q73.25313 254.05583 73.22188 252.24333L73.22188 250.80583Q73.22188 248.9152 73.8625 248.00896Q74.51875 247.08708 75.90938 247.08708Q77.28438 247.08708 77.94063 247.9777Q78.59688 248.8527 78.6125 250.69646L78.6125 252.1027ZM77.51875 250.61833Q77.51875 249.24333 77.12813 248.61833Q76.75313 247.9777 75.90938 247.9777Q75.08125 247.9777 74.69063 248.61833Q74.31563 249.24333 74.31563 250.5402L74.31563 252.27458Q74.31563 253.64958 74.70625 254.32146Q75.1125 254.9777 75.925 254.9777Q76.72188 254.9777 77.1125 254.3527Q77.50313 253.7277 77.51875 252.39958L77.51875 250.61833Z" fill-rule="nonzero"/><path fill="#757575" d="M59.753124 204.25542L60.190624 200.00542L64.56563 200.00542L64.56563 201.00542L61.1125 201.00542L60.846874 203.33354Q61.4875 202.95854 62.284374 202.95854Q63.440624 202.95854 64.12813 203.73979Q64.81563 204.50542 64.81563 205.81792Q64.81563 207.13042 64.09688 207.89604Q63.39375 208.66167 62.1125 208.66167Q60.9875 208.66167 60.26875 208.03667Q59.55 207.39604 59.45625 206.28667L60.471874 206.28667Q60.58125 207.02104 61.003124 207.39604Q61.425 207.77104 62.1125 207.77104Q62.8625 207.77104 63.3 207.25542Q63.7375 206.73979 63.7375 205.83354Q63.7375 204.97417 63.26875 204.45854Q62.8 203.94292 62.01875 203.94292Q61.315624 203.94292 60.909374 204.23979L60.628124 204.47417L59.753124 204.25542ZM71.6125 204.89604Q71.6125 206.80229 70.95625 207.73979Q70.31563 208.66167 68.925 208.66167Q67.56563 208.66167 66.90938 207.75542Q66.25313 206.84917 66.22188 205.03667L66.22188 203.59917Q66.22188 201.70854 66.8625 200.80229Q67.51875 199.88042 68.90938 199.88042Q70.28438 199.88042 70.94063 200.77104Q71.59688 201.64604 71.6125 203.48979L71.6125 204.89604ZM70.51875 203.41167Q70.51875 202.03667 70.12813 201.41167Q69.75313 200.77104 68.90938 200.77104Q68.08125 200.77104 67.69063 201.41167Q67.31563 202.03667 67.31563 203.33354L67.31563 205.06792Q67.31563 206.44292 67.70625 207.11479Q68.1125 207.77104 68.925 207.77104Q69.72188 207.77104 70.1125 207.14604Q70.50313 206.52104 70.51875 205.19292L70.51875 203.41167ZM78.6125 204.89604Q78.6125 206.80229 77.95625 207.73979Q77.31563 208.66167 75.925 208.66167Q74.56563 208.66167 73.90938 207.75542Q73.25313 206.84917 73.22188 205.03667L73.22188 203.59917Q73.22188 201.70854 73.8625 200.80229Q74.51875 199.88042 75.90938 199.88042Q77.28438 199.88042 77.94063 200.77104Q78.59688 201.64604 78.6125 203.48979L78.6125 204.89604ZM77.51875 203.41167Q77.51875 202.03667 77.12813 201.41167Q76.75313 200.77104 75.90938 200.77104Q75.08125 200.77104 74.69063 201.41167Q74.31563 202.03667 74.31563 203.33354L74.31563 205.06792Q74.31563 206.44292 74.70625 207.11479Q75.1125 207.77104 75.925 207.77104Q76.72188 207.77104 77.1125 207.14604Q77.50313 206.52104 77.51875 205.19292L77.51875 203.41167Z" fill-rule="nonzero"/><path fill="#757575" d="M64.76875 153.40813L61.2375 161.33L60.096874 161.33L63.6125 153.68938L59.003124 153.68938L59.003124 152.79875L64.76875 152.79875L64.76875 153.40813ZM66.75313 157.04875L67.19063 152.79875L71.56563 152.79875L71.56563 153.79875L68.1125 153.79875L67.84688 156.12688Q68.4875 155.75188 69.28438 155.75188Q70.44063 155.75188 71.12813 156.53313Q71.81563 157.29875 71.81563 158.61125Q71.81563 159.92375 71.09688 160.68938Q70.39375 161.455 69.1125 161.455Q67.9875 161.455 67.26875 160.83Q66.55 160.18938 66.45625 159.08L67.47188 159.08Q67.58125 159.81438 68.00313 160.18938Q68.425 160.56438 69.1125 160.56438Q69.8625 160.56438 70.3 160.04875Q70.7375 159.53313 70.7375 158.62688Q70.7375 157.7675 70.26875 157.25188Q69.8 156.73625 69.01875 156.73625Q68.31563 156.73625 67.90938 157.03313L67.62813 157.2675L66.75313 157.04875ZM78.6125 157.68938Q78.6125 159.59563 77.95625 160.53313Q77.31563 161.455 75.925 161.455Q74.56563 161.455 73.90938 160.54875Q73.25313 159.6425 73.22188 157.83L73.22188 156.3925Q73.22188 154.50188 73.8625 153.59563Q74.51875 152.67375 75.90938 152.67375Q77.28438 152.67375 77.94063 153.56438Q78.59688 154.43938 78.6125 156.28313L78.6125 157.68938ZM77.51875 156.205Q77.51875 154.83 77.12813 154.205Q76.75313 153.56438 75.90938 153.56438Q75.08125 153.56438 74.69063 154.205Q74.31563 154.83 74.31563 156.12688L74.31563 157.86125Q74.31563 159.23625 74.70625 159.90813Q75.1125 160.56438 75.925 160.56438Q76.72188 160.56438 77.1125 159.93938Q77.50313 159.31438 77.51875 157.98625L77.51875 156.205Z" fill-rule="nonzero"/><path fill="#757575" d="M55.815624 114.12334L54.7375 114.12334L54.7375 106.90459L52.55 107.70146L52.55 106.71709L55.659374 105.54521L55.815624 105.54521L55.815624 114.12334ZM64.6125 110.48271Q64.6125 112.38896 63.95625 113.32646Q63.315624 114.24834 61.925 114.24834Q60.565624 114.24834 59.909374 113.34209Q59.253124 112.43584 59.221874 110.62334L59.221874 109.18584Q59.221874 107.29521 59.8625 106.38896Q60.51875 105.46709 61.909374 105.46709Q63.284374 105.46709 63.940624 106.35771Q64.59688 107.23271 64.6125 109.07646L64.6125 110.48271ZM63.51875 108.99834Q63.51875 107.62334 63.128124 106.99834Q62.753124 106.35771 61.909374 106.35771Q61.08125 106.35771 60.690624 106.99834Q60.315624 107.62334 60.315624 108.92021L60.315624 110.65459Q60.315624 112.02959 60.70625 112.70146Q61.1125 113.35771 61.925 113.35771Q62.721874 113.35771 63.1125 112.73271Q63.503124 112.10771 63.51875 110.77959L63.51875 108.99834ZM71.6125 110.48271Q71.6125 112.38896 70.95625 113.32646Q70.31563 114.24834 68.925 114.24834Q67.56563 114.24834 66.90938 113.34209Q66.25313 112.43584 66.22188 110.62334L66.22188 109.18584Q66.22188 107.29521 66.8625 106.38896Q67.51875 105.46709 68.90938 105.46709Q70.28438 105.46709 70.94063 106.35771Q71.59688 107.23271 71.6125 109.07646L71.6125 110.48271ZM70.51875 108.99834Q70.51875 107.62334 70.12813 106.99834Q69.75313 106.35771 68.90938 106.35771Q68.08125 106.35771 67.69063 106.99834Q67.31563 107.62334 67.31563 108.92021L67.31563 110.65459Q67.31563 112.02959 67.70625 112.70146Q68.1125 113.35771 68.925 113.35771Q69.72188 113.35771 70.1125 112.73271Q70.50313 112.10771 70.51875 110.77959L70.51875 108.99834ZM78.6125 110.48271Q78.6125 112.38896 77.95625 113.32646Q77.31563 114.24834 75.925 114.24834Q74.56563 114.24834 73.90938 113.34209Q73.25313 112.43584 73.22188 110.62334L73.22188 109.18584Q73.22188 107.29521 73.8625 106.38896Q74.51875 105.46709 75.90938 105.46709Q77.28438 105.46709 77.94063 106.35771Q78.59688 107.23271 78.6125 109.07646L78.6125 110.48271ZM77.51875 108.99834Q77.51875 107.62334 77.12813 106.99834Q76.75313 106.35771 75.90938 106.35771Q75.08125 106.35771 74.69063 106.99834Q74.31563 107.62334 74.31563 108.92021L74.31563 110.65459Q74.31563 112.02959 74.70625 112.70146Q75.1125 113.35771 75.925 113.35771Q76.72188 113.35771 77.1125 112.73271Q77.50313 112.10771 77.51875 110.77959L77.51875 108.99834Z" fill-rule="nonzero"/><path fill="#757575" d="M55.815624 66.916664L54.7375 66.916664L54.7375 59.697914L52.55 60.49479L52.55 59.510414L55.659374 58.33854L55.815624 58.33854L55.815624 66.916664ZM64.84688 66.916664L59.253124 66.916664L59.253124 66.135414L62.20625 62.854164Q62.8625 62.104164 63.1125 61.65104Q63.3625 61.18229 63.3625 60.68229Q63.3625 60.010414 62.95625 59.58854Q62.565624 59.15104 61.878124 59.15104Q61.08125 59.15104 60.628124 59.61979Q60.175 60.072914 60.175 60.90104L59.096874 60.90104Q59.096874 59.71354 59.846874 58.99479Q60.6125 58.260414 61.878124 58.260414Q63.08125 58.260414 63.76875 58.885414Q64.45625 59.510414 64.45625 60.55729Q64.45625 61.80729 62.846874 63.55729L60.565624 66.02604L64.84688 66.02604L64.84688 66.916664ZM66.75313 62.635414L67.19063 58.385414L71.56563 58.385414L71.56563 59.385414L68.1125 59.385414L67.84688 61.71354Q68.4875 61.33854 69.28438 61.33854Q70.44063 61.33854 71.12813 62.11979Q71.81563 62.885414 71.81563 64.197914Q71.81563 65.510414 71.09688 66.27604Q70.39375 67.041664 69.1125 67.041664Q67.9875 67.041664 67.26875 66.416664Q66.55 65.77604 66.45625 64.666664L67.47188 64.666664Q67.58125 65.40104 68.00313 65.77604Q68.425 66.15104 69.1125 66.15104Q69.8625 66.15104 70.3 65.635414Q70.7375 65.11979 70.7375 64.21354Q70.7375 63.354164 70.26875 62.83854Q69.8 62.322914 69.01875 62.322914Q68.31563 62.322914 67.90938 62.61979L67.62813 62.854164L66.75313 62.635414ZM78.6125 63.27604Q78.6125 65.18229 77.95625 66.11979Q77.31563 67.041664 75.925 67.041664Q74.56563 67.041664 73.90938 66.135414Q73.25313 65.229164 73.22188 63.416664L73.22188 61.979164Q73.22188 60.08854 73.8625 59.18229Q74.51875 58.260414 75.90938 58.260414Q77.28438 58.260414 77.94063 59.15104Q78.59688 60.02604 78.6125 61.86979L78.6125 63.27604ZM77.51875 61.791664Q77.51875 60.416664 77.12813 59.791664Q76.75313 59.15104 75.90938 59.15104Q75.08125 59.15104 74.69063 59.791664Q74.31563 60.416664 74.31563 61.71354L74.31563 63.447914Q74.31563 64.822914 74.70625 65.49479Q75.1125 66.15104 75.925 66.15104Q76.72188 66.15104 77.1125 65.52604Q77.50313 64.90104 77.51875 63.572914L77.51875 61.791664Z" fill-rule="nonzero"/><path fill="#757575" d="M88.1125 312.8094Q88.1125 314.71564 87.45625 315.65314Q86.81563 316.575 85.425 316.575Q84.06563 316.575 83.40938 315.66876Q82.75313 314.7625 82.72188 312.95L82.72188 311.5125Q82.72188 309.6219 83.3625 308.71564Q84.01875 307.79376 85.40938 307.79376Q86.78438 307.79376 87.44063 308.6844Q88.09688 309.5594 88.1125 311.40314L88.1125 312.8094ZM87.01875 311.325Q87.01875 309.95 86.62813 309.325Q86.25313 308.6844 85.40938 308.6844Q84.58125 308.6844 84.19063 309.325Q83.81563 309.95 83.81563 311.2469L83.81563 312.98126Q83.81563 314.35626 84.20625 315.02814Q84.6125 315.6844 85.425 315.6844Q86.22188 315.6844 86.6125 315.0594Q87.00313 314.4344 87.01875 313.10626L87.01875 311.325Z" fill-rule="nonzero"/><path fill="#757575" d="M178.93312 312.16876L179.37062 307.91876L183.74562 307.91876L183.74562 308.91876L180.2925 308.91876L180.02687 311.2469Q180.6675 310.8719 181.46437 310.8719Q182.62062 310.8719 183.30812 311.65314Q183.99562 312.41876 183.99562 313.73126Q183.99562 315.04376 183.27687 315.8094Q182.57375 316.575 181.2925 316.575Q180.1675 316.575 179.44875 315.95Q178.73 315.3094 178.63625 314.2L179.65187 314.2Q179.76125 314.9344 180.18312 315.3094Q180.605 315.6844 181.2925 315.6844Q182.0425 315.6844 182.48 315.16876Q182.9175 314.65314 182.9175 313.7469Q182.9175 312.8875 182.44875 312.3719Q181.98 311.85626 181.19875 311.85626Q180.49562 311.85626 180.08937 312.15314L179.80812 312.3875L178.93312 312.16876ZM190.7925 312.8094Q190.7925 314.71564 190.13625 315.65314Q189.49562 316.575 188.105 316.575Q186.74562 316.575 186.08937 315.66876Q185.43312 314.7625 185.40187 312.95L185.40187 311.5125Q185.40187 309.6219 186.0425 308.71564Q186.69875 307.79376 188.08937 307.79376Q189.46437 307.79376 190.12062 308.6844Q190.77687 309.5594 190.7925 311.40314L190.7925 312.8094ZM189.69875 311.325Q189.69875 309.95 189.30812 309.325Q188.93312 308.6844 188.08937 308.6844Q187.26125 308.6844 186.87062 309.325Q186.49562 309.95 186.49562 311.2469L186.49562 312.98126Q186.49562 314.35626 186.88625 315.02814Q187.2925 315.6844 188.105 315.6844Q188.90187 315.6844 189.2925 315.0594Q189.68312 314.4344 189.69875 313.10626L189.69875 311.325Z" fill-rule="nonzero"/><path fill="#757575" d="M277.67563 316.45L276.5975 316.45L276.5975 309.23126L274.41 310.02814L274.41 309.04376L277.51938 307.8719L277.67563 307.8719L277.67563 316.45ZM286.4725 312.8094Q286.4725 314.71564 285.81625 315.65314Q285.17563 316.575 283.785 316.575Q282.42563 316.575 281.76938 315.66876Q281.11313 314.7625 281.08188 312.95L281.08188 311.5125Q281.08188 309.6219 281.7225 308.71564Q282.37875 307.79376 283.76938 307.79376Q285.14438 307.79376 285.80063 308.6844Q286.45688 309.5594 286.4725 311.40314L286.4725 312.8094ZM285.37875 311.325Q285.37875 309.95 284.98813 309.325Q284.61313 308.6844 283.76938 308.6844Q282.94125 308.6844 282.55063 309.325Q282.17563 309.95 282.17563 311.2469L282.17563 312.98126Q282.17563 314.35626 282.56625 315.02814Q282.9725 315.6844 283.785 315.6844Q284.58188 315.6844 284.9725 315.0594Q285.36313 314.4344 285.37875 313.10626L285.37875 311.325ZM293.4725 312.8094Q293.4725 314.71564 292.81625 315.65314Q292.17563 316.575 290.785 316.575Q289.42563 316.575 288.76938 315.66876Q288.11313 314.7625 288.08188 312.95L288.08188 311.5125Q288.08188 309.6219 288.7225 308.71564Q289.37875 307.79376 290.76938 307.79376Q292.14438 307.79376 292.80063 308.6844Q293.45688 309.5594 293.4725 311.40314L293.4725 312.8094ZM292.37875 311.325Q292.37875 309.95 291.98813 309.325Q291.61313 308.6844 290.76938 308.6844Q289.94125 308.6844 289.55063 309.325Q289.17563 309.95 289.17563 311.2469L289.17563 312.98126Q289.17563 314.35626 289.56625 315.02814Q289.9725 315.6844 290.785 315.6844Q291.58188 315.6844 291.9725 315.0594Q292.36313 314.4344 292.37875 313.10626L292.37875 311.325Z" fill-rule="nonzero"/><path fill="#757575" d="M376.85562 316.45L375.7775 316.45L375.7775 309.23126L373.59 310.02814L373.59 309.04376L376.69937 307.8719L376.85562 307.8719L376.85562 316.45ZM380.79312 312.16876L381.23062 307.91876L385.60562 307.91876L385.60562 308.91876L382.1525 308.91876L381.88687 311.2469Q382.5275 310.8719 383.32437 310.8719Q384.48062 310.8719 385.16812 311.65314Q385.85562 312.41876 385.85562 313.73126Q385.85562 315.04376 385.13687 315.8094Q384.43375 316.575 383.1525 316.575Q382.0275 316.575 381.30875 315.95Q380.59 315.3094 380.49625 314.2L381.51187 314.2Q381.62125 314.9344 382.04312 315.3094Q382.465 315.6844 383.1525 315.6844Q383.9025 315.6844 384.34 315.16876Q384.7775 314.65314 384.7775 313.7469Q384.7775 312.8875 384.30875 312.3719Q383.84 311.85626 383.05875 311.85626Q382.35562 311.85626 381.94937 312.15314L381.66812 312.3875L380.79312 312.16876ZM392.6525 312.8094Q392.6525 314.71564 391.99625 315.65314Q391.35562 316.575 389.965 316.575Q388.60562 316.575 387.94937 315.66876Q387.29312 314.7625 387.26187 312.95L387.26187 311.5125Q387.26187 309.6219 387.9025 308.71564Q388.55875 307.79376 389.94937 307.79376Q391.32437 307.79376 391.98062 308.6844Q392.63687 309.5594 392.6525 311.40314L392.6525 312.8094ZM391.55875 311.325Q391.55875 309.95 391.16812 309.325Q390.79312 308.6844 389.94937 308.6844Q389.12125 308.6844 388.73062 309.325Q388.35562 309.95 388.35562 311.2469L388.35562 312.98126Q388.35562 314.35626 388.74625 315.02814Q389.1525 315.6844 389.965 315.6844Q390.76187 315.6844 391.1525 315.0594Q391.54312 314.4344 391.55875 313.10626L391.55875 311.325Z" fill-rule="nonzero"/><path fill="#757575" d="M478.06686 316.45L472.4731 316.45L472.4731 315.66876L475.42624 312.3875Q476.0825 311.6375 476.3325 311.1844Q476.5825 310.71564 476.5825 310.21564Q476.5825 309.54376 476.17624 309.1219Q475.7856 308.6844 475.0981 308.6844Q474.30124 308.6844 473.8481 309.15314Q473.395 309.60626 473.395 310.4344L472.31686 310.4344Q472.31686 309.2469 473.06686 308.52814Q473.8325 307.79376 475.0981 307.79376Q476.30124 307.79376 476.98874 308.41876Q477.67624 309.04376 477.67624 310.09064Q477.67624 311.34064 476.06686 313.09064L473.7856 315.5594L478.06686 315.5594L478.06686 316.45ZM484.8325 312.8094Q484.8325 314.71564 484.17624 315.65314Q483.5356 316.575 482.145 316.575Q480.7856 316.575 480.12936 315.66876Q479.4731 314.7625 479.44186 312.95L479.44186 311.5125Q479.44186 309.6219 480.0825 308.71564Q480.73874 307.79376 482.12936 307.79376Q483.50436 307.79376 484.1606 308.6844Q484.81686 309.5594 484.8325 311.40314L484.8325 312.8094ZM483.73874 311.325Q483.73874 309.95 483.3481 309.325Q482.9731 308.6844 482.12936 308.6844Q481.30124 308.6844 480.9106 309.325Q480.5356 309.95 480.5356 311.2469L480.5356 312.98126Q480.5356 314.35626 480.92624 315.02814Q481.3325 315.6844 482.145 315.6844Q482.94186 315.6844 483.3325 315.0594Q483.7231 314.4344 483.73874 313.10626L483.73874 311.325ZM491.8325 312.8094Q491.8325 314.71564 491.17624 315.65314Q490.5356 316.575 489.145 316.575Q487.7856 316.575 487.12936 315.66876Q486.4731 314.7625 486.44186 312.95L486.44186 311.5125Q486.44186 309.6219 487.0825 308.71564Q487.73874 307.79376 489.12936 307.79376Q490.50436 307.79376 491.1606 308.6844Q491.81686 309.5594 491.8325 311.40314L491.8325 312.8094ZM490.73874 311.325Q490.73874 309.95 490.3481 309.325Q489.9731 308.6844 489.12936 308.6844Q488.30124 308.6844 487.9106 309.325Q487.5356 309.95 487.5356 311.2469L487.5356 312.98126Q487.5356 314.35626 487.92624 315.02814Q488.3325 315.6844 489.145 315.6844Q489.94186 315.6844 490.3325 315.0594Q490.7231 314.4344 490.73874 313.10626L490.73874 311.325Z" fill-rule="nonzero"/><path fill="#757575" d="M577.2469 316.45L571.65314 316.45L571.65314 315.66876L574.60626 312.3875Q575.2625 311.6375 575.5125 311.1844Q575.7625 310.71564 575.7625 310.21564Q575.7625 309.54376 575.35626 309.1219Q574.96564 308.6844 574.27814 308.6844Q573.48126 308.6844 573.02814 309.15314Q572.575 309.60626 572.575 310.4344L571.4969 310.4344Q571.4969 309.2469 572.2469 308.52814Q573.0125 307.79376 574.27814 307.79376Q575.48126 307.79376 576.16876 308.41876Q576.85626 309.04376 576.85626 310.09064Q576.85626 311.34064 575.2469 313.09064L572.96564 315.5594L577.2469 315.5594L577.2469 316.45ZM579.15314 312.16876L579.59064 307.91876L583.96564 307.91876L583.96564 308.91876L580.5125 308.91876L580.2469 311.2469Q580.8875 310.8719 581.6844 310.8719Q582.84064 310.8719 583.52814 311.65314Q584.21564 312.41876 584.21564 313.73126Q584.21564 315.04376 583.4969 315.8094Q582.79376 316.575 581.5125 316.575Q580.3875 316.575 579.66876 315.95Q578.95 315.3094 578.85626 314.2L579.8719 314.2Q579.98126 314.9344 580.40314 315.3094Q580.825 315.6844 581.5125 315.6844Q582.2625 315.6844 582.7 315.16876Q583.1375 314.65314 583.1375 313.7469Q583.1375 312.8875 582.66876 312.3719Q582.2 311.85626 581.41876 311.85626Q580.71564 311.85626 580.3094 312.15314L580.02814 312.3875L579.15314 312.16876ZM591.0125 312.8094Q591.0125 314.71564 590.35626 315.65314Q589.71564 316.575 588.325 316.575Q586.96564 316.575 586.3094 315.66876Q585.65314 314.7625 585.6219 312.95L585.6219 311.5125Q585.6219 309.6219 586.2625 308.71564Q586.91876 307.79376 588.3094 307.79376Q589.6844 307.79376 590.34064 308.6844Q590.9969 309.5594 591.0125 311.40314L591.0125 312.8094ZM589.91876 311.325Q589.91876 309.95 589.52814 309.325Q589.15314 308.6844 588.3094 308.6844Q587.48126 308.6844 587.09064 309.325Q586.71564 309.95 586.71564 311.2469L586.71564 312.98126Q586.71564 314.35626 587.10626 315.02814Q587.5125 315.6844 588.325 315.6844Q589.1219 315.6844 589.5125 315.0594Q589.90314 314.4344 589.91876 313.10626L589.91876 311.325Z" fill-rule="nonzero"/><path fill="#757575" d="M31.128124 37.55L29.2375 37.55L22.08125 26.596874L22.08125 37.55L20.20625 37.55L20.20625 23.33125L22.08125 23.33125L29.26875 34.33125L29.26875 23.33125L31.128124 23.33125L31.128124 37.55ZM33.440624 32.175Q33.440624 30.6125 34.05 29.378124Q34.659374 28.128124 35.7375 27.45625Q36.83125 26.784374 38.2375 26.784374Q40.39375 26.784374 41.721874 28.284374Q43.065624 29.76875 43.065624 32.253124L43.065624 32.378124Q43.065624 33.925 42.471874 35.159374Q41.878124 36.378124 40.76875 37.065624Q39.675 37.753124 38.253124 37.753124Q36.1125 37.753124 34.76875 36.253124Q33.440624 34.753124 33.440624 32.3L33.440624 32.175ZM35.253124 32.378124Q35.253124 34.14375 36.065624 35.20625Q36.89375 36.26875 38.253124 36.26875Q39.628124 36.26875 40.440624 35.190624Q41.253124 34.1125 41.253124 32.175Q41.253124 30.425 40.425 29.346874Q39.596874 28.26875 38.2375 28.26875Q36.89375 28.26875 36.065624 29.33125Q35.253124 30.39375 35.253124 32.378124ZM49.159374 36.26875Q50.128124 36.26875 50.846874 35.690624Q51.565624 35.096874 51.64375 34.221874L53.3625 34.221874Q53.3 35.128124 52.721874 35.95625Q52.159374 36.76875 51.190624 37.26875Q50.2375 37.753124 49.159374 37.753124Q47.003124 37.753124 45.721874 36.315624Q44.45625 34.8625 44.45625 32.3625L44.45625 32.065624Q44.45625 30.51875 45.01875 29.315624Q45.58125 28.1125 46.64375 27.45625Q47.70625 26.784374 49.14375 26.784374Q50.925 26.784374 52.096874 27.846874Q53.284374 28.909374 53.3625 30.6125L51.64375 30.6125Q51.565624 29.596874 50.8625 28.940624Q50.175 28.26875 49.14375 28.26875Q47.76875 28.26875 47.003124 29.26875Q46.253124 30.253124 46.253124 32.128124L46.253124 32.471874Q46.253124 34.3 47.003124 35.284374Q47.753124 36.26875 49.159374 36.26875ZM57.3625 24.425L57.3625 26.9875L59.346874 26.9875L59.346874 28.378124L57.3625 28.378124L57.3625 34.925Q57.3625 35.565624 57.628124 35.89375Q57.89375 36.20625 58.534374 36.20625Q58.846874 36.20625 59.39375 36.08125L59.39375 37.55Q58.675 37.753124 58.003124 37.753124Q56.8 37.753124 56.175 37.01875Q55.565624 36.284374 55.565624 34.925L55.565624 28.378124L53.64375 28.378124L53.64375 26.9875L55.565624 26.9875L55.565624 24.425L57.3625 24.425ZM68.44063 36.503124Q67.39375 37.753124 65.34688 37.753124Q63.659374 37.753124 62.76875 36.76875Q61.89375 35.784374 61.878124 33.8625L61.878124 26.9875L63.690624 26.9875L63.690624 33.815624Q63.690624 36.20625 65.64375 36.20625Q67.70625 36.20625 68.39375 34.675L68.39375 26.9875L70.20625 26.9875L70.20625 37.55L68.4875 37.55L68.44063 36.503124ZM79.44063 37.55Q79.28438 37.2375 79.19063 36.440624Q77.925 37.753124 76.175 37.753124Q74.6125 37.753124 73.6125 36.8625Q72.6125 35.971874 72.6125 34.6125Q72.6125 32.971874 73.8625 32.065624Q75.12813 31.14375 77.39375 31.14375L79.15938 31.14375L79.15938 30.315624Q79.15938 29.3625 78.58125 28.8Q78.01875 28.2375 76.925 28.2375Q75.95625 28.2375 75.3 28.7375Q74.64375 29.221874 74.64375 29.909374L72.83125 29.909374Q72.83125 29.128124 73.39375 28.39375Q73.95625 27.64375 74.90938 27.221874Q75.87813 26.784374 77.03438 26.784374Q78.8625 26.784374 79.89375 27.70625Q80.925 28.6125 80.97188 30.221874L80.97188 35.08125Q80.97188 36.534374 81.33125 37.39375L81.33125 37.55L79.44063 37.55ZM76.44063 36.175Q77.3 36.175 78.05 35.7375Q78.81563 35.3 79.15938 34.596874L79.15938 32.425L77.7375 32.425Q74.425 32.425 74.425 34.3625Q74.425 35.221874 74.9875 35.70625Q75.55 36.175 76.44063 36.175ZM99.65938 33.034374Q99.39375 35.3 97.9875 36.534374Q96.59688 37.753124 94.26875 37.753124Q91.75313 37.753124 90.22188 35.940624Q88.70625 34.128124 88.70625 31.096874L88.70625 29.7375Q88.70625 27.753124 89.40938 26.253124Q90.12813 24.753124 91.425 23.940624Q92.72188 23.128124 94.44063 23.128124Q96.70625 23.128124 98.06563 24.39375Q99.44063 25.659374 99.65938 27.89375L97.76875 27.89375Q97.53438 26.20625 96.70625 25.440624Q95.89375 24.675 94.44063 24.675Q92.64375 24.675 91.6125 26.003124Q90.59688 27.33125 90.59688 29.784374L90.59688 31.159374Q90.59688 33.471874 91.56563 34.846874Q92.53438 36.20625 94.26875 36.20625Q95.83125 36.20625 96.65938 35.503124Q97.50313 34.8 97.76875 33.034374L99.65938 33.034374ZM101.44063 32.175Q101.44063 30.6125 102.05 29.378124Q102.65938 28.128124 103.7375 27.45625Q104.83125 26.784374 106.2375 26.784374Q108.39375 26.784374 109.72188 28.284374Q111.06563 29.76875 111.06563 32.253124L111.06563 32.378124Q111.06563 33.925 110.47188 35.159374Q109.87813 36.378124 108.76875 37.065624Q107.675 37.753124 106.25313 37.753124Q104.1125 37.753124 102.76875 36.253124Q101.44063 34.753124 101.44063 32.3L101.44063 32.175ZM103.25313 32.378124Q103.25313 34.14375 104.06563 35.20625Q104.89375 36.26875 106.25313 36.26875Q107.62813 36.26875 108.44063 35.190624Q109.25313 34.1125 109.25313 32.175Q109.25313 30.425 108.425 29.346874Q107.59688 28.26875 106.2375 28.26875Q104.89375 28.26875 104.06563 29.33125Q103.25313 30.39375 103.25313 32.378124ZM114.62813 26.9875L114.69063 28.315624Q115.89375 26.784374 117.84688 26.784374Q121.20625 26.784374 121.22188 30.565624L121.22188 37.55L119.425 37.55L119.425 30.55Q119.40938 29.409374 118.89375 28.8625Q118.39375 28.315624 117.3 28.315624Q116.425 28.315624 115.75313 28.784374Q115.09688 29.253124 114.72188 30.01875L114.72188 37.55L112.925 37.55L112.925 26.9875L114.62813 26.9875ZM125.62813 26.9875L125.69063 28.315624Q126.89375 26.784374 128.84688 26.784374Q132.20625 26.784374 132.22188 30.565624L132.22188 37.55L130.425 37.55L130.425 30.55Q130.40938 29.409374 129.89375 28.8625Q129.39375 28.315624 128.3 28.315624Q127.425 28.315624 126.75313 28.784374Q126.09688 29.253124 125.72188 30.01875L125.72188 37.55L123.925 37.55L123.925 26.9875L125.62813 26.9875ZM139.3 37.753124Q137.15938 37.753124 135.8 36.346874Q134.45625 34.925 134.45625 32.565624L134.45625 32.221874Q134.45625 30.659374 135.05 29.425Q135.65938 28.190624 136.7375 27.4875Q137.81563 26.784374 139.08125 26.784374Q141.14375 26.784374 142.28438 28.14375Q143.425 29.503124 143.425 32.034374L143.425 32.784374L136.26875 32.784374Q136.3 34.346874 137.175 35.315624Q138.05 36.26875 139.39375 36.26875Q140.3625 36.26875 141.01875 35.878124Q141.69063 35.4875 142.19063 34.846874L143.28438 35.70625Q141.95625 37.753124 139.3 37.753124ZM139.08125 28.26875Q137.9875 28.26875 137.2375 29.065624Q136.50313 29.8625 136.33125 31.3L141.6125 31.3L141.6125 31.159374Q141.53438 29.784374 140.8625 29.034374Q140.20625 28.26875 139.08125 28.26875ZM150.15938 36.26875Q151.12813 36.26875 151.84688 35.690624Q152.56563 35.096874 152.64375 34.221874L154.3625 34.221874Q154.3 35.128124 153.72188 35.95625Q153.15938 36.76875 152.19063 37.26875Q151.2375 37.753124 150.15938 37.753124Q148.00313 37.753124 146.72188 36.315624Q145.45625 34.8625 145.45625 32.3625L145.45625 32.065624Q145.45625 30.51875 146.01875 29.315624Q146.58125 28.1125 147.64375 27.45625Q148.70625 26.784374 150.14375 26.784374Q151.925 26.784374 153.09688 27.846874Q154.28438 28.909374 154.3625 30.6125L152.64375 30.6125Q152.56563 29.596874 151.8625 28.940624Q151.175 28.26875 150.14375 28.26875Q148.76875 28.26875 148.00313 29.26875Q147.25313 30.253124 147.25313 32.128124L147.25313 32.471874Q147.25313 34.3 148.00313 35.284374Q148.75313 36.26875 150.15938 36.26875ZM158.3625 24.425L158.3625 26.9875L160.34688 26.9875L160.34688 28.378124L158.3625 28.378124L158.3625 34.925Q158.3625 35.565624 158.62813 35.89375Q158.89375 36.20625 159.53438 36.20625Q159.84688 36.20625 160.39375 36.08125L160.39375 37.55Q159.675 37.753124 159.00313 37.753124Q157.8 37.753124 157.175 37.01875Q156.56563 36.284374 156.56563 34.925L156.56563 28.378124L154.64375 28.378124L154.64375 26.9875L156.56563 26.9875L156.56563 24.425L158.3625 24.425ZM167.3 37.753124Q165.15938 37.753124 163.8 36.346874Q162.45625 34.925 162.45625 32.565624L162.45625 32.221874Q162.45625 30.659374 163.05 29.425Q163.65938 28.190624 164.7375 27.4875Q165.81563 26.784374 167.08125 26.784374Q169.14375 26.784374 170.28438 28.14375Q171.425 29.503124 171.425 32.034374L171.425 32.784374L164.26875 32.784374Q164.3 34.346874 165.175 35.315624Q166.05 36.26875 167.39375 36.26875Q168.3625 36.26875 169.01875 35.878124Q169.69063 35.4875 170.19063 34.846874L171.28438 35.70625Q169.95625 37.753124 167.3 37.753124ZM167.08125 28.26875Q165.9875 28.26875 165.2375 29.065624Q164.50313 29.8625 164.33125 31.3L169.6125 31.3L169.6125 31.159374Q169.53438 29.784374 168.8625 29.034374Q168.20625 28.26875 167.08125 28.26875ZM173.47188 32.175Q173.47188 29.753124 174.62813 28.26875Q175.78438 26.784374 177.64375 26.784374Q179.50313 26.784374 180.58125 28.05L180.58125 22.55L182.39375 22.55L182.39375 37.55L180.7375 37.55L180.64375 36.409374Q179.56563 37.753124 177.62813 37.753124Q175.8 37.753124 174.62813 36.253124Q173.47188 34.7375 173.47188 32.315624L173.47188 32.175ZM175.28438 32.378124Q175.28438 34.175 176.01875 35.190624Q176.76875 36.20625 178.08125 36.20625Q179.8 36.20625 180.58125 34.675L180.58125 29.815624Q179.78438 28.315624 178.09688 28.315624Q176.76875 28.315624 176.01875 29.346874Q175.28438 30.378124 175.28438 32.378124ZM192.3625 24.425L192.3625 26.9875L194.34688 26.9875L194.34688 28.378124L192.3625 28.378124L192.3625 34.925Q192.3625 35.565624 192.62813 35.89375Q192.89375 36.20625 193.53438 36.20625Q193.84688 36.20625 194.39375 36.08125L194.39375 37.55Q193.675 37.753124 193.00313 37.753124Q191.8 37.753124 191.175 37.01875Q190.56563 36.284374 190.56563 34.925L190.56563 28.378124L188.64375 28.378124L188.64375 26.9875L190.56563 26.9875L190.56563 24.425L192.3625 24.425ZM196.44063 32.175Q196.44063 30.6125 197.05 29.378124Q197.65938 28.128124 198.7375 27.45625Q199.83125 26.784374 201.2375 26.784374Q203.39375 26.784374 204.72188 28.284374Q206.06563 29.76875 206.06563 32.253124L206.06563 32.378124Q206.06563 33.925 205.47188 35.159374Q204.87813 36.378124 203.76875 37.065624Q202.675 37.753124 201.25313 37.753124Q199.1125 37.753124 197.76875 36.253124Q196.44063 34.753124 196.44063 32.3L196.44063 32.175ZM198.25313 32.378124Q198.25313 34.14375 199.06563 35.20625Q199.89375 36.26875 201.25313 36.26875Q202.62813 36.26875 203.44063 35.190624Q204.25313 34.1125 204.25313 32.175Q204.25313 30.425 203.425 29.346874Q202.59688 28.26875 201.2375 28.26875Q199.89375 28.26875 199.06563 29.33125Q198.25313 30.39375 198.25313 32.378124ZM219.44063 37.55Q219.28438 37.2375 219.19063 36.440624Q217.925 37.753124 216.175 37.753124Q214.6125 37.753124 213.6125 36.8625Q212.6125 35.971874 212.6125 34.6125Q212.6125 32.971874 213.8625 32.065624Q215.12813 31.14375 217.39375 31.14375L219.15938 31.14375L219.15938 30.315624Q219.15938 29.3625 218.58125 28.8Q218.01875 28.2375 216.925 28.2375Q215.95625 28.2375 215.3 28.7375Q214.64375 29.221874 214.64375 29.909374L212.83125 29.909374Q212.83125 29.128124 213.39375 28.39375Q213.95625 27.64375 214.90938 27.221874Q215.87813 26.784374 217.03438 26.784374Q218.8625 26.784374 219.89375 27.70625Q220.925 28.6125 220.97188 30.221874L220.97188 35.08125Q220.97188 36.534374 221.33125 37.39375L221.33125 37.55L219.44063 37.55ZM216.44063 36.175Q217.3 36.175 218.05 35.7375Q218.81563 35.3 219.15938 34.596874L219.15938 32.425L217.7375 32.425Q214.425 32.425 214.425 34.3625Q214.425 35.221874 214.9875 35.70625Q215.55 36.175 216.44063 36.175ZM231.62813 23.33125L236.26875 34.925L240.925 23.33125L243.34688 23.33125L243.34688 37.55L241.47188 37.55L241.47188 32.01875L241.65938 26.034374L236.9875 37.55L235.55 37.55L230.89375 26.065624L231.08125 32.01875L231.08125 37.55L229.20625 37.55L229.20625 23.33125L231.62813 23.33125ZM245.44063 32.175Q245.44063 30.6125 246.05 29.378124Q246.65938 28.128124 247.7375 27.45625Q248.83125 26.784374 250.2375 26.784374Q252.39375 26.784374 253.72188 28.284374Q255.06563 29.76875 255.06563 32.253124L255.06563 32.378124Q255.06563 33.925 254.47188 35.159374Q253.87813 36.378124 252.76875 37.065624Q251.675 37.753124 250.25313 37.753124Q248.1125 37.753124 246.76875 36.253124Q245.44063 34.753124 245.44063 32.3L245.44063 32.175ZM247.25313 32.378124Q247.25313 34.14375 248.06563 35.20625Q248.89375 36.26875 250.25313 36.26875Q251.62813 36.26875 252.44063 35.190624Q253.25313 34.1125 253.25313 32.175Q253.25313 30.425 252.425 29.346874Q251.59688 28.26875 250.2375 28.26875Q248.89375 28.26875 248.06563 29.33125Q247.25313 30.39375 247.25313 32.378124ZM259.3625 24.425L259.3625 26.9875L261.34686 26.9875L261.34686 28.378124L259.3625 28.378124L259.3625 34.925Q259.3625 35.565624 259.6281 35.89375Q259.89374 36.20625 260.53436 36.20625Q260.84686 36.20625 261.39374 36.08125L261.39374 37.55Q260.675 37.753124 260.0031 37.753124Q258.8 37.753124 258.175 37.01875Q257.5656 36.284374 257.5656 34.925L257.5656 28.378124L255.64375 28.378124L255.64375 26.9875L257.5656 26.9875L257.5656 24.425L259.3625 24.425ZM265.72186 28.26875Q266.925 26.784374 268.84686 26.784374Q272.20624 26.784374 272.22186 30.565624L272.22186 37.55L270.425 37.55L270.425 30.55Q270.40936 29.409374 269.89374 28.8625Q269.39374 28.315624 268.3 28.315624Q267.425 28.315624 266.7531 28.784374Q266.09686 29.253124 265.72186 30.01875L265.72186 37.55L263.925 37.55L263.925 22.55L265.72186 22.55L265.72186 28.26875ZM279.3 37.753124Q277.15936 37.753124 275.8 36.346874Q274.45624 34.925 274.45624 32.565624L274.45624 32.221874Q274.45624 30.659374 275.05 29.425Q275.65936 28.190624 276.7375 27.4875Q277.8156 26.784374 279.08124 26.784374Q281.14374 26.784374 282.28436 28.14375Q283.425 29.503124 283.425 32.034374L283.425 32.784374L276.26874 32.784374Q276.3 34.346874 277.175 35.315624Q278.05 36.26875 279.39374 36.26875Q280.3625 36.26875 281.01874 35.878124Q281.6906 35.4875 282.1906 34.846874L283.28436 35.70625Q281.95624 37.753124 279.3 37.753124ZM279.08124 28.26875Q277.9875 28.26875 277.2375 29.065624Q276.5031 29.8625 276.33124 31.3L281.6125 31.3L281.6125 31.159374Q281.53436 29.784374 280.8625 29.034374Q280.20624 28.26875 279.08124 28.26875ZM291.01874 28.596874Q290.6125 28.534374 290.14374 28.534374Q288.3625 28.534374 287.72186 30.05L287.72186 37.55L285.925 37.55L285.925 26.9875L287.675 26.9875L287.70624 28.20625Q288.59686 26.784374 290.22186 26.784374Q290.7531 26.784374 291.01874 26.925L291.01874 28.596874ZM301.8625 32.378124Q301.8625 34.8 300.7531 36.284374Q299.64374 37.753124 297.76874 37.753124Q295.7531 37.753124 294.65936 36.33125L294.58124 37.55L292.925 37.55L292.925 22.55L294.72186 22.55L294.72186 28.14375Q295.8156 26.784374 297.7375 26.784374Q299.65936 26.784374 300.7531 28.2375Q301.8625 29.690624 301.8625 32.221874L301.8625 32.378124ZM300.05 32.175Q300.05 30.33125 299.33124 29.33125Q298.6281 28.315624 297.3 28.315624Q295.5031 28.315624 294.72186 29.9875L294.72186 34.55Q295.55 36.20625 297.3156 36.20625Q298.6125 36.20625 299.33124 35.20625Q300.05 34.20625 300.05 32.175ZM303.4406 32.175Q303.4406 30.6125 304.05 29.378124Q304.65936 28.128124 305.7375 27.45625Q306.83124 26.784374 308.2375 26.784374Q310.39374 26.784374 311.72186 28.284374Q313.0656 29.76875 313.0656 32.253124L313.0656 32.378124Q313.0656 33.925 312.47186 35.159374Q311.8781 36.378124 310.76874 37.065624Q309.675 37.753124 308.2531 37.753124Q306.1125 37.753124 304.76874 36.253124Q303.4406 34.753124 303.4406 32.3L303.4406 32.175ZM305.2531 32.378124Q305.2531 34.14375 306.0656 35.20625Q306.89374 36.26875 308.2531 36.26875Q309.6281 36.26875 310.4406 35.190624Q311.2531 34.1125 311.2531 32.175Q311.2531 30.425 310.425 29.346874Q309.59686 28.26875 308.2375 28.26875Q306.89374 28.26875 306.0656 29.33125Q305.2531 30.39375 305.2531 32.378124ZM321.4406 37.55Q321.28436 37.2375 321.1906 36.440624Q319.925 37.753124 318.175 37.753124Q316.6125 37.753124 315.6125 36.8625Q314.6125 35.971874 314.6125 34.6125Q314.6125 32.971874 315.8625 32.065624Q317.1281 31.14375 319.39374 31.14375L321.15936 31.14375L321.15936 30.315624Q321.15936 29.3625 320.58124 28.8Q320.01874 28.2375 318.925 28.2375Q317.95624 28.2375 317.3 28.7375Q316.64374 29.221874 316.64374 29.909374L314.83124 29.909374Q314.83124 29.128124 315.39374 28.39375Q315.95624 27.64375 316.90936 27.221874Q317.8781 26.784374 319.03436 26.784374Q320.8625 26.784374 321.89374 27.70625Q322.925 28.6125 322.97186 30.221874L322.97186 35.08125Q322.97186 36.534374 323.33124 37.39375L323.33124 37.55L321.4406 37.55ZM318.4406 36.175Q319.3 36.175 320.05 35.7375Q320.8156 35.3 321.15936 34.596874L321.15936 32.425L319.7375 32.425Q316.425 32.425 316.425 34.3625Q316.425 35.221874 316.9875 35.70625Q317.55 36.175 318.4406 36.175ZM331.01874 28.596874Q330.6125 28.534374 330.14374 28.534374Q328.3625 28.534374 327.72186 30.05L327.72186 37.55L325.925 37.55L325.925 26.9875L327.675 26.9875L327.70624 28.20625Q328.59686 26.784374 330.22186 26.784374Q330.7531 26.784374 331.01874 26.925L331.01874 28.596874ZM332.47186 32.175Q332.47186 29.753124 333.6281 28.26875Q334.78436 26.784374 336.64374 26.784374Q338.5031 26.784374 339.58124 28.05L339.58124 22.55L341.39374 22.55L341.39374 37.55L339.7375 37.55L339.64374 36.409374Q338.5656 37.753124 336.6281 37.753124Q334.8 37.753124 333.6281 36.253124Q332.47186 34.7375 332.47186 32.315624L332.47186 32.175ZM334.28436 32.378124Q334.28436 34.175 335.01874 35.190624Q335.76874 36.20625 337.08124 36.20625Q338.8 36.20625 339.58124 34.675L339.58124 29.815624Q338.78436 28.315624 337.09686 28.315624Q335.76874 28.315624 335.01874 29.346874Q334.28436 30.378124 334.28436 32.378124Z" fill-rule="nonzero"/></svg>