<svg version="1.1" viewBox="0.0 0.0 600.0 371.0" fill="none" stroke="none" stroke-linecap="square" stroke-miterlimit="10" width="600" height="371" xmlns:xlink="http://www.w3.org/1999/xlink" xmlns="http://www.w3.org/2000/svg"><path fill="#ffffff" d="M0 0L600.0 0L600.0 371.0L0 371.0L0 0Z" fill-rule="nonzero"/><path stroke="#333333" stroke-width="1.0" stroke-linecap="butt" d="M85.5 89.5L85.5 298.5" fill-rule="nonzero"/><path stroke="#cccccc" stroke-width="1.0" stroke-linecap="butt" d="M184.5 89.5L184.5 298.5" fill-rule="nonzero"/><path stroke="#cccccc" stroke-width="1.0" stroke-linecap="butt" d="M283.5 89.5L283.5 298.5" fill-rule="nonzero"/><path stroke="#cccccc" stroke-width="1.0" stroke-linecap="butt" d="M383.5 89.5L383.5 298.5" fill-rule="nonzero"/><path stroke="#cccccc" stroke-width="1.0" stroke-linecap="butt" d="M482.5 89.5L482.5 298.5" fill-rule="nonzero"/><path stroke="#cccccc" stroke-width="1.0" stroke-linecap="butt" d="M581.5 89.5L581.5 298.5" fill-rule="nonzero"/><path stroke="#333333" stroke-width="1.0" stroke-linecap="butt" d="M85.5 298.5L581.5 298.5" fill-rule="nonzero"/><path stroke="#cccccc" stroke-width="1.0" stroke-linecap="butt" d="M85.5 256.5L581.5 256.5" fill-rule="nonzero"/><path stroke="#cccccc" stroke-width="1.0" stroke-linecap="butt" d="M85.5 214.5L581.5 214.5" fill-rule="nonzero"/><path stroke="#cccccc" stroke-width="1.0" stroke-linecap="butt" d="M85.5 173.5L581.5 173.5" fill-rule="nonzero"/><path stroke="#cccccc" stroke-width="1.0" stroke-linecap="butt" d="M85.5 131.5L581.5 131.5" fill-rule="nonzero"/><path stroke="#cccccc" stroke-width="1.0" stroke-linecap="butt" d="M85.5 89.5L581.5 89.5" fill-rule="nonzero"/><clipPath id="id_0"><path d="M85.55 89.78333L581.45 89.78333L581.45 298.45L85.55 298.45L85.55 89.78333Z" clip-rule="nonzero"/></clipPath><path stroke="#4285f4" stroke-width="2.0" stroke-linecap="butt" clip-path="url(#id_0)" d="M85.55 298.45L95.468 298.45L105.386 298.45L115.304 298.45L125.222 298.45L135.14 298.45L145.058 298.45L154.976 298.45L164.894 298.45L174.812 298.45L184.73 298.45L194.648 298.45L204.566 298.45L214.484 298.45L224.402 298.45L234.32 298.45L244.238 298.45L254.156 298.45L264.074 298.45L273.992 298.45L283.91 236.68466L293.828 215.48413L303.746 208.13907L313.664 203.298L323.582 198.95773L333.5 194.61746L343.418 190.44414L353.336 186.2708L363.254 182.2644L373.172 178.42493L383.09 173.91774L393.008 169.7444L402.926 164.90334L412.844 160.73L422.762 157.39133L432.68 153.38493L442.598 149.54547L452.516 145.37213L462.434 141.53267L472.352 137.35933L482.27 133.35294L492.188 129.6804L502.106 125.674L512.024 122.1684L521.942 118.829735L531.86 114.6564L541.778 110.65L551.696 107.1444L561.614 105.642L571.532 105.308136L581.45 105.308136" fill-rule="nonzero"/><path stroke="#db4437" stroke-width="2.0" stroke-linecap="butt" clip-path="url(#id_0)" d="M95.468 298.45L105.386 298.45L115.304 298.45L125.222 298.45L135.14 298.45L145.058 298.45L154.976 298.45L164.894 298.45L174.812 298.45L184.73 298.45L194.648 298.45L204.566 298.45L214.484 298.45L224.402 298.45L234.32 298.45L244.238 298.45L254.156 298.45L264.074 298.45L273.992 298.45L283.91 236.68466L293.828 277.24948L303.746 291.10492L313.664 293.60895L323.582 294.10974L333.5 294.10974L343.418 294.27667L353.336 294.27667L363.254 294.4436L373.172 294.61053L383.09 293.9428L393.008 294.27667L402.926 293.60895L412.844 294.27667L422.762 295.11133L432.68 294.4436L442.598 294.61053L452.516 294.27667L462.434 294.61053L472.352 294.27667L482.27 294.4436L492.188 294.77747L502.106 294.4436L512.024 294.9444L521.942 295.11133L531.86 294.27667L541.778 294.4436L551.696 294.9444L561.614 296.9476L571.532 298.11612L581.45 298.45" fill-rule="nonzero"/><path fill="#000000" fill-opacity="0.0" clip-path="url(#id_0)" d="M88.55 298.45C88.55 300.10684 87.206856 301.45 85.55 301.45C83.89314 301.45 82.55 300.10684 82.55 298.45C82.55 296.79315 83.89314 295.45 85.55 295.45C87.206856 295.45 88.55 296.79315 88.55 298.45Z" fill-rule="nonzero"/><path fill="#000000" fill-opacity="0.0" clip-path="url(#id_0)" d="M98.468 298.45C98.468 300.10684 97.124855 301.45 95.468 301.45C93.81114 301.45 92.468 300.10684 92.468 298.45C92.468 296.79315 93.81114 295.45 95.468 295.45C97.124855 295.45 98.468 296.79315 98.468 298.45Z" fill-rule="nonzero"/><path fill="#000000" fill-opacity="0.0" clip-path="url(#id_0)" d="M108.386 298.45C108.386 300.10684 107.042854 301.45 105.386 301.45C103.72915 301.45 102.386 300.10684 102.386 298.45C102.386 296.79315 103.72915 295.45 105.386 295.45C107.042854 295.45 108.386 296.79315 108.386 298.45Z" fill-rule="nonzero"/><path fill="#000000" fill-opacity="0.0" clip-path="url(#id_0)" d="M118.304 298.45C118.304 300.10684 116.96085 301.45 115.304 301.45C113.64715 301.45 112.304 300.10684 112.304 298.45C112.304 296.79315 113.64715 295.45 115.304 295.45C116.96085 295.45 118.304 296.79315 118.304 298.45Z" fill-rule="nonzero"/><path fill="#000000" fill-opacity="0.0" clip-path="url(#id_0)" d="M128.222 298.45C128.222 300.10684 126.87885 301.45 125.222 301.45C123.56515 301.45 122.222 300.10684 122.222 298.45C122.222 296.79315 123.56515 295.45 125.222 295.45C126.87885 295.45 128.222 296.79315 128.222 298.45Z" fill-rule="nonzero"/><path fill="#000000" fill-opacity="0.0" clip-path="url(#id_0)" d="M138.14 298.45C138.14 300.10684 136.79686 301.45 135.14 301.45C133.48314 301.45 132.14 300.10684 132.14 298.45C132.14 296.79315 133.48314 295.45 135.14 295.45C136.79686 295.45 138.14 296.79315 138.14 298.45Z" fill-rule="nonzero"/><path fill="#000000" fill-opacity="0.0" clip-path="url(#id_0)" d="M148.058 298.45C148.058 300.10684 146.71486 301.45 145.058 301.45C143.40114 301.45 142.058 300.10684 142.058 298.45C142.058 296.79315 143.40114 295.45 145.058 295.45C146.71486 295.45 148.058 296.79315 148.058 298.45Z" fill-rule="nonzero"/><path fill="#000000" fill-opacity="0.0" clip-path="url(#id_0)" d="M157.976 298.45C157.976 300.10684 156.63286 301.45 154.976 301.45C153.31915 301.45 151.976 300.10684 151.976 298.45C151.976 296.79315 153.31915 295.45 154.976 295.45C156.63286 295.45 157.976 296.79315 157.976 298.45Z" fill-rule="nonzero"/><path fill="#000000" fill-opacity="0.0" clip-path="url(#id_0)" d="M167.894 298.45C167.894 300.10684 166.55086 301.45 164.894 301.45C163.23715 301.45 161.894 300.10684 161.894 298.45C161.894 296.79315 163.23715 295.45 164.894 295.45C166.55086 295.45 167.894 296.79315 167.894 298.45Z" fill-rule="nonzero"/><path fill="#000000" fill-opacity="0.0" clip-path="url(#id_0)" d="M177.812 298.45C177.812 300.10684 176.46886 301.45 174.812 301.45C173.15515 301.45 171.812 300.10684 171.812 298.45C171.812 296.79315 173.15515 295.45 174.812 295.45C176.46886 295.45 177.812 296.79315 177.812 298.45Z" fill-rule="nonzero"/><path fill="#000000" fill-opacity="0.0" clip-path="url(#id_0)" d="M187.73 298.45C187.73 300.10684 186.38686 301.45 184.73 301.45C183.07315 301.45 181.73 300.10684 181.73 298.45C181.73 296.79315 183.07315 295.45 184.73 295.45C186.38686 295.45 187.73 296.79315 187.73 298.45Z" fill-rule="nonzero"/><path fill="#000000" fill-opacity="0.0" clip-path="url(#id_0)" d="M197.648 298.45C197.648 300.10684 196.30486 301.45 194.648 301.45C192.99115 301.45 191.648 300.10684 191.648 298.45C191.648 296.79315 192.99115 295.45 194.648 295.45C196.30486 295.45 197.648 296.79315 197.648 298.45Z" fill-rule="nonzero"/><path fill="#000000" fill-opacity="0.0" clip-path="url(#id_0)" d="M207.566 298.45C207.566 300.10684 206.22285 301.45 204.566 301.45C202.90915 301.45 201.566 300.10684 201.566 298.45C201.566 296.79315 202.90915 295.45 204.566 295.45C206.22285 295.45 207.566 296.79315 207.566 298.45Z" fill-rule="nonzero"/><path fill="#000000" fill-opacity="0.0" clip-path="url(#id_0)" d="M217.484 298.45C217.484 300.10684 216.14085 301.45 214.484 301.45C212.82715 301.45 211.484 300.10684 211.484 298.45C211.484 296.79315 212.82715 295.45 214.484 295.45C216.14085 295.45 217.484 296.79315 217.484 298.45Z" fill-rule="nonzero"/><path fill="#000000" fill-opacity="0.0" clip-path="url(#id_0)" d="M227.402 298.45C227.402 300.10684 226.05885 301.45 224.402 301.45C222.74515 301.45 221.402 300.10684 221.402 298.45C221.402 296.79315 222.74515 295.45 224.402 295.45C226.05885 295.45 227.402 296.79315 227.402 298.45Z" fill-rule="nonzero"/><path fill="#000000" fill-opacity="0.0" clip-path="url(#id_0)" d="M237.32 298.45C237.32 300.10684 235.97685 301.45 234.32 301.45C232.66315 301.45 231.32 300.10684 231.32 298.45C231.32 296.79315 232.66315 295.45 234.32 295.45C235.97685 295.45 237.32 296.79315 237.32 298.45Z" fill-rule="nonzero"/><path fill="#000000" fill-opacity="0.0" clip-path="url(#id_0)" d="M247.238 298.45C247.238 300.10684 245.89485 301.45 244.238 301.45C242.58115 301.45 241.238 300.10684 241.238 298.45C241.238 296.79315 242.58115 295.45 244.238 295.45C245.89485 295.45 247.238 296.79315 247.238 298.45Z" fill-rule="nonzero"/><path fill="#000000" fill-opacity="0.0" clip-path="url(#id_0)" d="M257.156 298.45C257.156 300.10684 255.81285 301.45 254.156 301.45C252.49915 301.45 251.156 300.10684 251.156 298.45C251.156 296.79315 252.49915 295.45 254.156 295.45C255.81285 295.45 257.156 296.79315 257.156 298.45Z" fill-rule="nonzero"/><path fill="#000000" fill-opacity="0.0" clip-path="url(#id_0)" d="M267.074 298.45C267.074 300.10684 265.73087 301.45 264.074 301.45C262.41714 301.45 261.074 300.10684 261.074 298.45C261.074 296.79315 262.41714 295.45 264.074 295.45C265.73087 295.45 267.074 296.79315 267.074 298.45Z" fill-rule="nonzero"/><path fill="#000000" fill-opacity="0.0" clip-path="url(#id_0)" d="M276.992 298.45C276.992 300.10684 275.64886 301.45 273.992 301.45C272.33514 301.45 270.992 300.10684 270.992 298.45C270.992 296.79315 272.33514 295.45 273.992 295.45C275.64886 295.45 276.992 296.79315 276.992 298.45Z" fill-rule="nonzero"/><path fill="#000000" fill-opacity="0.0" clip-path="url(#id_0)" d="M286.91 236.68466C286.91 238.34152 285.56686 239.68466 283.91 239.68466C282.25314 239.68466 280.91 238.34152 280.91 236.68466C280.91 235.02782 282.25314 233.68466 283.91 233.68466C285.56686 233.68466 286.91 235.02782 286.91 236.68466Z" fill-rule="nonzero"/><path fill="#000000" fill-opacity="0.0" clip-path="url(#id_0)" d="M296.828 215.48413C296.828 217.14099 295.48486 218.48413 293.828 218.48413C292.17114 218.48413 290.828 217.14099 290.828 215.48413C290.828 213.82729 292.17114 212.48413 293.828 212.48413C295.48486 212.48413 296.828 213.82729 296.828 215.48413Z" fill-rule="nonzero"/><path fill="#000000" fill-opacity="0.0" clip-path="url(#id_0)" d="M306.746 208.13907C306.746 209.79591 305.40286 211.13907 303.746 211.13907C302.08914 211.13907 300.746 209.79591 300.746 208.13907C300.746 206.48221 302.08914 205.13907 303.746 205.13907C305.40286 205.13907 306.746 206.48221 306.746 208.13907Z" fill-rule="nonzero"/><path fill="#000000" fill-opacity="0.0" clip-path="url(#id_0)" d="M316.664 203.298C316.664 204.95485 315.32086 206.298 313.664 206.298C312.00714 206.298 310.664 204.95485 310.664 203.298C310.664 201.64114 312.00714 200.298 313.664 200.298C315.32086 200.298 316.664 201.64114 316.664 203.298Z" fill-rule="nonzero"/><path fill="#000000" fill-opacity="0.0" clip-path="url(#id_0)" d="M326.582 198.95773C326.582 200.6146 325.23886 201.95773 323.582 201.95773C321.92514 201.95773 320.582 200.6146 320.582 198.95773C320.582 197.30087 321.92514 195.95773 323.582 195.95773C325.23886 195.95773 326.582 197.30087 326.582 198.95773Z" fill-rule="nonzero"/><path fill="#000000" fill-opacity="0.0" clip-path="url(#id_0)" d="M336.5 194.61746C336.5 196.27432 335.15686 197.61746 333.5 197.61746C331.84314 197.61746 330.5 196.27432 330.5 194.61746C330.5 192.96062 331.84314 191.61746 333.5 191.61746C335.15686 191.61746 336.5 192.96062 336.5 194.61746Z" fill-rule="nonzero"/><path fill="#000000" fill-opacity="0.0" clip-path="url(#id_0)" d="M346.418 190.44414C346.418 192.10098 345.07486 193.44414 343.418 193.44414C341.76114 193.44414 340.418 192.10098 340.418 190.44414C340.418 188.78728 341.76114 187.44414 343.418 187.44414C345.07486 187.44414 346.418 188.78728 346.418 190.44414Z" fill-rule="nonzero"/><path fill="#000000" fill-opacity="0.0" clip-path="url(#id_0)" d="M356.336 186.2708C356.336 187.92766 354.99286 189.2708 353.336 189.2708C351.67914 189.2708 350.336 187.92766 350.336 186.2708C350.336 184.61395 351.67914 183.2708 353.336 183.2708C354.99286 183.2708 356.336 184.61395 356.336 186.2708Z" fill-rule="nonzero"/><path fill="#000000" fill-opacity="0.0" clip-path="url(#id_0)" d="M366.254 182.2644C366.254 183.92125 364.91086 185.2644 363.254 185.2644C361.59714 185.2644 360.254 183.92125 360.254 182.2644C360.254 180.60754 361.59714 179.2644 363.254 179.2644C364.91086 179.2644 366.254 180.60754 366.254 182.2644Z" fill-rule="nonzero"/><path fill="#000000" fill-opacity="0.0" clip-path="url(#id_0)" d="M376.172 178.42493C376.172 180.08179 374.82886 181.42493 373.172 181.42493C371.51514 181.42493 370.172 180.08179 370.172 178.42493C370.172 176.76808 371.51514 175.42493 373.172 175.42493C374.82886 175.42493 376.172 176.76808 376.172 178.42493Z" fill-rule="nonzero"/><path fill="#000000" fill-opacity="0.0" clip-path="url(#id_0)" d="M386.09 173.91774C386.09 175.57458 384.74686 176.91774 383.09 176.91774C381.43314 176.91774 380.09 175.57458 380.09 173.91774C380.09 172.26088 381.43314 170.91774 383.09 170.91774C384.74686 170.91774 386.09 172.26088 386.09 173.91774Z" fill-rule="nonzero"/><path fill="#000000" fill-opacity="0.0" clip-path="url(#id_0)" d="M396.008 169.7444C396.008 171.40126 394.66486 172.7444 393.008 172.7444C391.35114 172.7444 390.008 171.40126 390.008 169.7444C390.008 168.08754 391.35114 166.7444 393.008 166.7444C394.66486 166.7444 396.008 168.08754 396.008 169.7444Z" fill-rule="nonzero"/><path fill="#000000" fill-opacity="0.0" clip-path="url(#id_0)" d="M405.926 164.90334C405.926 166.56018 404.58286 167.90334 402.926 167.90334C401.26913 167.90334 399.926 166.56018 399.926 164.90334C399.926 163.24648 401.26913 161.90334 402.926 161.90334C404.58286 161.90334 405.926 163.24648 405.926 164.90334Z" fill-rule="nonzero"/><path fill="#000000" fill-opacity="0.0" clip-path="url(#id_0)" d="M415.844 160.73C415.844 162.38686 414.50085 163.73 412.844 163.73C411.18713 163.73 409.844 162.38686 409.844 160.73C409.844 159.07315 411.18713 157.73 412.844 157.73C414.50085 157.73 415.844 159.07315 415.844 160.73Z" fill-rule="nonzero"/><path fill="#000000" fill-opacity="0.0" clip-path="url(#id_0)" d="M425.762 157.39133C425.762 159.04819 424.41885 160.39133 422.762 160.39133C421.10513 160.39133 419.762 159.04819 419.762 157.39133C419.762 155.73448 421.10513 154.39133 422.762 154.39133C424.41885 154.39133 425.762 155.73448 425.762 157.39133Z" fill-rule="nonzero"/><path fill="#000000" fill-opacity="0.0" clip-path="url(#id_0)" d="M435.68 153.38493C435.68 155.0418 434.33685 156.38493 432.68 156.38493C431.02313 156.38493 429.68 155.0418 429.68 153.38493C429.68 151.72807 431.02313 150.38493 432.68 150.38493C434.33685 150.38493 435.68 151.72807 435.68 153.38493Z" fill-rule="nonzero"/><path fill="#000000" fill-opacity="0.0" clip-path="url(#id_0)" d="M445.598 149.54547C445.598 151.20232 444.25485 152.54547 442.598 152.54547C440.94113 152.54547 439.598 151.20232 439.598 149.54547C439.598 147.88861 440.94113 146.54547 442.598 146.54547C444.25485 146.54547 445.598 147.88861 445.598 149.54547Z" fill-rule="nonzero"/><path fill="#000000" fill-opacity="0.0" clip-path="url(#id_0)" d="M455.516 145.37213C455.516 147.02899 454.17285 148.37213 452.516 148.37213C450.85913 148.37213 449.516 147.02899 449.516 145.37213C449.516 143.71529 450.85913 142.37213 452.516 142.37213C454.17285 142.37213 455.516 143.71529 455.516 145.37213Z" fill-rule="nonzero"/><path fill="#000000" fill-opacity="0.0" clip-path="url(#id_0)" d="M465.434 141.53267C465.434 143.18951 464.09085 144.53267 462.434 144.53267C460.77716 144.53267 459.434 143.18951 459.434 141.53267C459.434 139.87581 460.77716 138.53267 462.434 138.53267C464.09085 138.53267 465.434 139.87581 465.434 141.53267Z" fill-rule="nonzero"/><path fill="#000000" fill-opacity="0.0" clip-path="url(#id_0)" d="M475.352 137.35933C475.352 139.01619 474.00885 140.35933 472.352 140.35933C470.69516 140.35933 469.352 139.01619 469.352 137.35933C469.352 135.70248 470.69516 134.35933 472.352 134.35933C474.00885 134.35933 475.352 135.70248 475.352 137.35933Z" fill-rule="nonzero"/><path fill="#000000" fill-opacity="0.0" clip-path="url(#id_0)" d="M485.27 133.35294C485.27 135.00978 483.92685 136.35294 482.27 136.35294C480.61316 136.35294 479.27 135.00978 479.27 133.35294C479.27 131.69608 480.61316 130.35294 482.27 130.35294C483.92685 130.35294 485.27 131.69608 485.27 133.35294Z" fill-rule="nonzero"/><path fill="#000000" fill-opacity="0.0" clip-path="url(#id_0)" d="M495.188 129.6804C495.188 131.33725 493.84485 132.6804 492.188 132.6804C490.53116 132.6804 489.188 131.33725 489.188 129.6804C489.188 128.02354 490.53116 126.6804 492.188 126.6804C493.84485 126.6804 495.188 128.02354 495.188 129.6804Z" fill-rule="nonzero"/><path fill="#000000" fill-opacity="0.0" clip-path="url(#id_0)" d="M505.106 125.674C505.106 127.33086 503.76285 128.674 502.106 128.674C500.44916 128.674 499.106 127.33086 499.106 125.674C499.106 124.01714 500.44916 122.674 502.106 122.674C503.76285 122.674 505.106 124.01714 505.106 125.674Z" fill-rule="nonzero"/><path fill="#000000" fill-opacity="0.0" clip-path="url(#id_0)" d="M515.024 122.1684C515.024 123.82526 513.68085 125.1684 512.024 125.1684C510.36716 125.1684 509.024 123.82526 509.024 122.1684C509.024 120.51154 510.36716 119.1684 512.024 119.1684C513.68085 119.1684 515.024 120.51154 515.024 122.1684Z" fill-rule="nonzero"/><path fill="#000000" fill-opacity="0.0" clip-path="url(#id_0)" d="M524.942 118.829735C524.942 120.48659 523.5989 121.829735 521.942 121.829735C520.28516 121.829735 518.942 120.48659 518.942 118.829735C518.942 117.17288 520.28516 115.829735 521.942 115.829735C523.5989 115.829735 524.942 117.17288 524.942 118.829735Z" fill-rule="nonzero"/><path fill="#000000" fill-opacity="0.0" clip-path="url(#id_0)" d="M534.86 114.6564C534.86 116.313255 533.51685 117.6564 531.86 117.6564C530.2031 117.6564 528.86 116.313255 528.86 114.6564C528.86 112.99954 530.2031 111.6564 531.86 111.6564C533.51685 111.6564 534.86 112.99954 534.86 114.6564Z" fill-rule="nonzero"/><path fill="#000000" fill-opacity="0.0" clip-path="url(#id_0)" d="M544.778 110.65C544.778 112.306854 543.4349 113.65 541.778 113.65C540.12115 113.65 538.778 112.306854 538.778 110.65C538.778 108.99315 540.12115 107.65 541.778 107.65C543.4349 107.65 544.778 108.99315 544.778 110.65Z" fill-rule="nonzero"/><path fill="#000000" fill-opacity="0.0" clip-path="url(#id_0)" d="M554.696 107.1444C554.696 108.801254 553.35284 110.1444 551.696 110.1444C550.0391 110.1444 548.696 108.801254 548.696 107.1444C548.696 105.48755 550.0391 104.1444 551.696 104.1444C553.35284 104.1444 554.696 105.48755 554.696 107.1444Z" fill-rule="nonzero"/><path fill="#000000" fill-opacity="0.0" clip-path="url(#id_0)" d="M564.614 105.642C564.614 107.29885 563.2709 108.642 561.614 108.642C559.95715 108.642 558.614 107.29885 558.614 105.642C558.614 103.985146 559.95715 102.642 561.614 102.642C563.2709 102.642 564.614 103.985146 564.614 105.642Z" fill-rule="nonzero"/><path fill="#000000" fill-opacity="0.0" clip-path="url(#id_0)" d="M574.532 105.308136C574.532 106.96499 573.18884 108.308136 571.532 108.308136C569.8751 108.308136 568.532 106.96499 568.532 105.308136C568.532 103.651276 569.8751 102.308136 571.532 102.308136C573.18884 102.308136 574.532 103.651276 574.532 105.308136Z" fill-rule="nonzero"/><path fill="#000000" fill-opacity="0.0" clip-path="url(#id_0)" d="M584.45 105.308136C584.45 106.96499 583.1069 108.308136 581.45 108.308136C579.79315 108.308136 578.45 106.96499 578.45 105.308136C578.45 103.651276 579.79315 102.308136 581.45 102.308136C583.1069 102.308136 584.45 103.651276 584.45 105.308136Z" fill-rule="nonzero"/><path fill="#000000" fill-opacity="0.0" clip-path="url(#id_0)" d="M98.468 298.45C98.468 300.10684 97.124855 301.45 95.468 301.45C93.81114 301.45 92.468 300.10684 92.468 298.45C92.468 296.79315 93.81114 295.45 95.468 295.45C97.124855 295.45 98.468 296.79315 98.468 298.45Z" fill-rule="nonzero"/><path fill="#000000" fill-opacity="0.0" clip-path="url(#id_0)" d="M108.386 298.45C108.386 300.10684 107.042854 301.45 105.386 301.45C103.72915 301.45 102.386 300.10684 102.386 298.45C102.386 296.79315 103.72915 295.45 105.386 295.45C107.042854 295.45 108.386 296.79315 108.386 298.45Z" fill-rule="nonzero"/><path fill="#000000" fill-opacity="0.0" clip-path="url(#id_0)" d="M118.304 298.45C118.304 300.10684 116.96085 301.45 115.304 301.45C113.64715 301.45 112.304 300.10684 112.304 298.45C112.304 296.79315 113.64715 295.45 115.304 295.45C116.96085 295.45 118.304 296.79315 118.304 298.45Z" fill-rule="nonzero"/><path fill="#000000" fill-opacity="0.0" clip-path="url(#id_0)" d="M128.222 298.45C128.222 300.10684 126.87885 301.45 125.222 301.45C123.56515 301.45 122.222 300.10684 122.222 298.45C122.222 296.79315 123.56515 295.45 125.222 295.45C126.87885 295.45 128.222 296.79315 128.222 298.45Z" fill-rule="nonzero"/><path fill="#000000" fill-opacity="0.0" clip-path="url(#id_0)" d="M138.14 298.45C138.14 300.10684 136.79686 301.45 135.14 301.45C133.48314 301.45 132.14 300.10684 132.14 298.45C132.14 296.79315 133.48314 295.45 135.14 295.45C136.79686 295.45 138.14 296.79315 138.14 298.45Z" fill-rule="nonzero"/><path fill="#000000" fill-opacity="0.0" clip-path="url(#id_0)" d="M148.058 298.45C148.058 300.10684 146.71486 301.45 145.058 301.45C143.40114 301.45 142.058 300.10684 142.058 298.45C142.058 296.79315 143.40114 295.45 145.058 295.45C146.71486 295.45 148.058 296.79315 148.058 298.45Z" fill-rule="nonzero"/><path fill="#000000" fill-opacity="0.0" clip-path="url(#id_0)" d="M157.976 298.45C157.976 300.10684 156.63286 301.45 154.976 301.45C153.31915 301.45 151.976 300.10684 151.976 298.45C151.976 296.79315 153.31915 295.45 154.976 295.45C156.63286 295.45 157.976 296.79315 157.976 298.45Z" fill-rule="nonzero"/><path fill="#000000" fill-opacity="0.0" clip-path="url(#id_0)" d="M167.894 298.45C167.894 300.10684 166.55086 301.45 164.894 301.45C163.23715 301.45 161.894 300.10684 161.894 298.45C161.894 296.79315 163.23715 295.45 164.894 295.45C166.55086 295.45 167.894 296.79315 167.894 298.45Z" fill-rule="nonzero"/><path fill="#000000" fill-opacity="0.0" clip-path="url(#id_0)" d="M177.812 298.45C177.812 300.10684 176.46886 301.45 174.812 301.45C173.15515 301.45 171.812 300.10684 171.812 298.45C171.812 296.79315 173.15515 295.45 174.812 295.45C176.46886 295.45 177.812 296.79315 177.812 298.45Z" fill-rule="nonzero"/><path fill="#000000" fill-opacity="0.0" clip-path="url(#id_0)" d="M187.73 298.45C187.73 300.10684 186.38686 301.45 184.73 301.45C183.07315 301.45 181.73 300.10684 181.73 298.45C181.73 296.79315 183.07315 295.45 184.73 295.45C186.38686 295.45 187.73 296.79315 187.73 298.45Z" fill-rule="nonzero"/><path fill="#000000" fill-opacity="0.0" clip-path="url(#id_0)" d="M197.648 298.45C197.648 300.10684 196.30486 301.45 194.648 301.45C192.99115 301.45 191.648 300.10684 191.648 298.45C191.648 296.79315 192.99115 295.45 194.648 295.45C196.30486 295.45 197.648 296.79315 197.648 298.45Z" fill-rule="nonzero"/><path fill="#000000" fill-opacity="0.0" clip-path="url(#id_0)" d="M207.566 298.45C207.566 300.10684 206.22285 301.45 204.566 301.45C202.90915 301.45 201.566 300.10684 201.566 298.45C201.566 296.79315 202.90915 295.45 204.566 295.45C206.22285 295.45 207.566 296.79315 207.566 298.45Z" fill-rule="nonzero"/><path fill="#000000" fill-opacity="0.0" clip-path="url(#id_0)" d="M217.484 298.45C217.484 300.10684 216.14085 301.45 214.484 301.45C212.82715 301.45 211.484 300.10684 211.484 298.45C211.484 296.79315 212.82715 295.45 214.484 295.45C216.14085 295.45 217.484 296.79315 217.484 298.45Z" fill-rule="nonzero"/><path fill="#000000" fill-opacity="0.0" clip-path="url(#id_0)" d="M227.402 298.45C227.402 300.10684 226.05885 301.45 224.402 301.45C222.74515 301.45 221.402 300.10684 221.402 298.45C221.402 296.79315 222.74515 295.45 224.402 295.45C226.05885 295.45 227.402 296.79315 227.402 298.45Z" fill-rule="nonzero"/><path fill="#000000" fill-opacity="0.0" clip-path="url(#id_0)" d="M237.32 298.45C237.32 300.10684 235.97685 301.45 234.32 301.45C232.66315 301.45 231.32 300.10684 231.32 298.45C231.32 296.79315 232.66315 295.45 234.32 295.45C235.97685 295.45 237.32 296.79315 237.32 298.45Z" fill-rule="nonzero"/><path fill="#000000" fill-opacity="0.0" clip-path="url(#id_0)" d="M247.238 298.45C247.238 300.10684 245.89485 301.45 244.238 301.45C242.58115 301.45 241.238 300.10684 241.238 298.45C241.238 296.79315 242.58115 295.45 244.238 295.45C245.89485 295.45 247.238 296.79315 247.238 298.45Z" fill-rule="nonzero"/><path fill="#000000" fill-opacity="0.0" clip-path="url(#id_0)" d="M257.156 298.45C257.156 300.10684 255.81285 301.45 254.156 301.45C252.49915 301.45 251.156 300.10684 251.156 298.45C251.156 296.79315 252.49915 295.45 254.156 295.45C255.81285 295.45 257.156 296.79315 257.156 298.45Z" fill-rule="nonzero"/><path fill="#000000" fill-opacity="0.0" clip-path="url(#id_0)" d="M267.074 298.45C267.074 300.10684 265.73087 301.45 264.074 301.45C262.41714 301.45 261.074 300.10684 261.074 298.45C261.074 296.79315 262.41714 295.45 264.074 295.45C265.73087 295.45 267.074 296.79315 267.074 298.45Z" fill-rule="nonzero"/><path fill="#000000" fill-opacity="0.0" clip-path="url(#id_0)" d="M276.992 298.45C276.992 300.10684 275.64886 301.45 273.992 301.45C272.33514 301.45 270.992 300.10684 270.992 298.45C270.992 296.79315 272.33514 295.45 273.992 295.45C275.64886 295.45 276.992 296.79315 276.992 298.45Z" fill-rule="nonzero"/><path fill="#000000" fill-opacity="0.0" clip-path="url(#id_0)" d="M286.91 236.68466C286.91 238.34152 285.56686 239.68466 283.91 239.68466C282.25314 239.68466 280.91 238.34152 280.91 236.68466C280.91 235.02782 282.25314 233.68466 283.91 233.68466C285.56686 233.68466 286.91 235.02782 286.91 236.68466Z" fill-rule="nonzero"/><path fill="#000000" fill-opacity="0.0" clip-path="url(#id_0)" d="M296.828 277.24948C296.828 278.9063 295.48486 280.24948 293.828 280.24948C292.17114 280.24948 290.828 278.9063 290.828 277.24948C290.828 275.59262 292.17114 274.24948 293.828 274.24948C295.48486 274.24948 296.828 275.59262 296.828 277.24948Z" fill-rule="nonzero"/><path fill="#000000" fill-opacity="0.0" clip-path="url(#id_0)" d="M306.746 291.10492C306.746 292.76178 305.40286 294.10492 303.746 294.10492C302.08914 294.10492 300.746 292.76178 300.746 291.10492C300.746 289.4481 302.08914 288.10492 303.746 288.10492C305.40286 288.10492 306.746 289.4481 306.746 291.10492Z" fill-rule="nonzero"/><path fill="#000000" fill-opacity="0.0" clip-path="url(#id_0)" d="M316.664 293.60895C316.664 295.26578 315.32086 296.60895 313.664 296.60895C312.00714 296.60895 310.664 295.26578 310.664 293.60895C310.664 291.9521 312.00714 290.60895 313.664 290.60895C315.32086 290.60895 316.664 291.9521 316.664 293.60895Z" fill-rule="nonzero"/><path fill="#000000" fill-opacity="0.0" clip-path="url(#id_0)" d="M326.582 294.10974C326.582 295.7666 325.23886 297.10974 323.582 297.10974C321.92514 297.10974 320.582 295.7666 320.582 294.10974C320.582 292.45288 321.92514 291.10974 323.582 291.10974C325.23886 291.10974 326.582 292.45288 326.582 294.10974Z" fill-rule="nonzero"/><path fill="#000000" fill-opacity="0.0" clip-path="url(#id_0)" d="M336.5 294.10974C336.5 295.7666 335.15686 297.10974 333.5 297.10974C331.84314 297.10974 330.5 295.7666 330.5 294.10974C330.5 292.45288 331.84314 291.10974 333.5 291.10974C335.15686 291.10974 336.5 292.45288 336.5 294.10974Z" fill-rule="nonzero"/><path fill="#000000" fill-opacity="0.0" clip-path="url(#id_0)" d="M346.418 294.27667C346.418 295.93353 345.07486 297.27667 343.418 297.27667C341.76114 297.27667 340.418 295.93353 340.418 294.27667C340.418 292.6198 341.76114 291.27667 343.418 291.27667C345.07486 291.27667 346.418 292.6198 346.418 294.27667Z" fill-rule="nonzero"/><path fill="#000000" fill-opacity="0.0" clip-path="url(#id_0)" d="M356.336 294.27667C356.336 295.93353 354.99286 297.27667 353.336 297.27667C351.67914 297.27667 350.336 295.93353 350.336 294.27667C350.336 292.6198 351.67914 291.27667 353.336 291.27667C354.99286 291.27667 356.336 292.6198 356.336 294.27667Z" fill-rule="nonzero"/><path fill="#000000" fill-opacity="0.0" clip-path="url(#id_0)" d="M366.254 294.4436C366.254 296.10046 364.91086 297.4436 363.254 297.4436C361.59714 297.4436 360.254 296.10046 360.254 294.4436C360.254 292.78674 361.59714 291.4436 363.254 291.4436C364.91086 291.4436 366.254 292.78674 366.254 294.4436Z" fill-rule="nonzero"/><path fill="#000000" fill-opacity="0.0" clip-path="url(#id_0)" d="M376.172 294.61053C376.172 296.2674 374.82886 297.61053 373.172 297.61053C371.51514 297.61053 370.172 296.2674 370.172 294.61053C370.172 292.95367 371.51514 291.61053 373.172 291.61053C374.82886 291.61053 376.172 292.95367 376.172 294.61053Z" fill-rule="nonzero"/><path fill="#000000" fill-opacity="0.0" clip-path="url(#id_0)" d="M386.09 293.9428C386.09 295.59964 384.74686 296.9428 383.09 296.9428C381.43314 296.9428 380.09 295.59964 380.09 293.9428C380.09 292.28595 381.43314 290.9428 383.09 290.9428C384.74686 290.9428 386.09 292.28595 386.09 293.9428Z" fill-rule="nonzero"/><path fill="#000000" fill-opacity="0.0" clip-path="url(#id_0)" d="M396.008 294.27667C396.008 295.93353 394.66486 297.27667 393.008 297.27667C391.35114 297.27667 390.008 295.93353 390.008 294.27667C390.008 292.6198 391.35114 291.27667 393.008 291.27667C394.66486 291.27667 396.008 292.6198 396.008 294.27667Z" fill-rule="nonzero"/><path fill="#000000" fill-opacity="0.0" clip-path="url(#id_0)" d="M405.926 293.60895C405.926 295.26578 404.58286 296.60895 402.926 296.60895C401.26913 296.60895 399.926 295.26578 399.926 293.60895C399.926 291.9521 401.26913 290.60895 402.926 290.60895C404.58286 290.60895 405.926 291.9521 405.926 293.60895Z" fill-rule="nonzero"/><path fill="#000000" fill-opacity="0.0" clip-path="url(#id_0)" d="M415.844 294.27667C415.844 295.93353 414.50085 297.27667 412.844 297.27667C411.18713 297.27667 409.844 295.93353 409.844 294.27667C409.844 292.6198 411.18713 291.27667 412.844 291.27667C414.50085 291.27667 415.844 292.6198 415.844 294.27667Z" fill-rule="nonzero"/><path fill="#000000" fill-opacity="0.0" clip-path="url(#id_0)" d="M425.762 295.11133C425.762 296.7682 424.41885 298.11133 422.762 298.11133C421.10513 298.11133 419.762 296.7682 419.762 295.11133C419.762 293.45447 421.10513 292.11133 422.762 292.11133C424.41885 292.11133 425.762 293.45447 425.762 295.11133Z" fill-rule="nonzero"/><path fill="#000000" fill-opacity="0.0" clip-path="url(#id_0)" d="M435.68 294.4436C435.68 296.10046 434.33685 297.4436 432.68 297.4436C431.02313 297.4436 429.68 296.10046 429.68 294.4436C429.68 292.78674 431.02313 291.4436 432.68 291.4436C434.33685 291.4436 435.68 292.78674 435.68 294.4436Z" fill-rule="nonzero"/><path fill="#000000" fill-opacity="0.0" clip-path="url(#id_0)" d="M445.598 294.61053C445.598 296.2674 444.25485 297.61053 442.598 297.61053C440.94113 297.61053 439.598 296.2674 439.598 294.61053C439.598 292.95367 440.94113 291.61053 442.598 291.61053C444.25485 291.61053 445.598 292.95367 445.598 294.61053Z" fill-rule="nonzero"/><path fill="#000000" fill-opacity="0.0" clip-path="url(#id_0)" d="M455.516 294.27667C455.516 295.93353 454.17285 297.27667 452.516 297.27667C450.85913 297.27667 449.516 295.93353 449.516 294.27667C449.516 292.6198 450.85913 291.27667 452.516 291.27667C454.17285 291.27667 455.516 292.6198 455.516 294.27667Z" fill-rule="nonzero"/><path fill="#000000" fill-opacity="0.0" clip-path="url(#id_0)" d="M465.434 294.61053C465.434 296.2674 464.09085 297.61053 462.434 297.61053C460.77716 297.61053 459.434 296.2674 459.434 294.61053C459.434 292.95367 460.77716 291.61053 462.434 291.61053C464.09085 291.61053 465.434 292.95367 465.434 294.61053Z" fill-rule="nonzero"/><path fill="#000000" fill-opacity="0.0" clip-path="url(#id_0)" d="M475.352 294.27667C475.352 295.93353 474.00885 297.27667 472.352 297.27667C470.69516 297.27667 469.352 295.93353 469.352 294.27667C469.352 292.6198 470.69516 291.27667 472.352 291.27667C474.00885 291.27667 475.352 292.6198 475.352 294.27667Z" fill-rule="nonzero"/><path fill="#000000" fill-opacity="0.0" clip-path="url(#id_0)" d="M485.27 294.4436C485.27 296.10046 483.92685 297.4436 482.27 297.4436C480.61316 297.4436 479.27 296.10046 479.27 294.4436C479.27 292.78674 480.61316 291.4436 482.27 291.4436C483.92685 291.4436 485.27 292.78674 485.27 294.4436Z" fill-rule="nonzero"/><path fill="#000000" fill-opacity="0.0" clip-path="url(#id_0)" d="M495.188 294.77747C495.188 296.43433 493.84485 297.77747 492.188 297.77747C490.53116 297.77747 489.188 296.43433 489.188 294.77747C489.188 293.1206 490.53116 291.77747 492.188 291.77747C493.84485 291.77747 495.188 293.1206 495.188 294.77747Z" fill-rule="nonzero"/><path fill="#000000" fill-opacity="0.0" clip-path="url(#id_0)" d="M505.106 294.4436C505.106 296.10046 503.76285 297.4436 502.106 297.4436C500.44916 297.4436 499.106 296.10046 499.106 294.4436C499.106 292.78674 500.44916 291.4436 502.106 291.4436C503.76285 291.4436 505.106 292.78674 505.106 294.4436Z" fill-rule="nonzero"/><path fill="#000000" fill-opacity="0.0" clip-path="url(#id_0)" d="M515.024 294.9444C515.024 296.60126 513.68085 297.9444 512.024 297.9444C510.36716 297.9444 509.024 296.60126 509.024 294.9444C509.024 293.28754 510.36716 291.9444 512.024 291.9444C513.68085 291.9444 515.024 293.28754 515.024 294.9444Z" fill-rule="nonzero"/><path fill="#000000" fill-opacity="0.0" clip-path="url(#id_0)" d="M524.942 295.11133C524.942 296.7682 523.5989 298.11133 521.942 298.11133C520.28516 298.11133 518.942 296.7682 518.942 295.11133C518.942 293.45447 520.28516 292.11133 521.942 292.11133C523.5989 292.11133 524.942 293.45447 524.942 295.11133Z" fill-rule="nonzero"/><path fill="#000000" fill-opacity="0.0" clip-path="url(#id_0)" d="M534.86 294.27667C534.86 295.93353 533.51685 297.27667 531.86 297.27667C530.2031 297.27667 528.86 295.93353 528.86 294.27667C528.86 292.6198 530.2031 291.27667 531.86 291.27667C533.51685 291.27667 534.86 292.6198 534.86 294.27667Z" fill-rule="nonzero"/><path fill="#000000" fill-opacity="0.0" clip-path="url(#id_0)" d="M544.778 294.4436C544.778 296.10046 543.4349 297.4436 541.778 297.4436C540.12115 297.4436 538.778 296.10046 538.778 294.4436C538.778 292.78674 540.12115 291.4436 541.778 291.4436C543.4349 291.4436 544.778 292.78674 544.778 294.4436Z" fill-rule="nonzero"/><path fill="#000000" fill-opacity="0.0" clip-path="url(#id_0)" d="M554.696 294.9444C554.696 296.60126 553.35284 297.9444 551.696 297.9444C550.0391 297.9444 548.696 296.60126 548.696 294.9444C548.696 293.28754 550.0391 291.9444 551.696 291.9444C553.35284 291.9444 554.696 293.28754 554.696 294.9444Z" fill-rule="nonzero"/><path fill="#000000" fill-opacity="0.0" clip-path="url(#id_0)" d="M564.614 296.9476C564.614 298.60446 563.2709 299.9476 561.614 299.9476C559.95715 299.9476 558.614 298.60446 558.614 296.9476C558.614 295.29074 559.95715 293.9476 561.614 293.9476C563.2709 293.9476 564.614 295.29074 564.614 296.9476Z" fill-rule="nonzero"/><path fill="#000000" fill-opacity="0.0" clip-path="url(#id_0)" d="M574.532 298.11612C574.532 299.77298 573.18884 301.11612 571.532 301.11612C569.8751 301.11612 568.532 299.77298 568.532 298.11612C568.532 296.4593 569.8751 295.11612 571.532 295.11612C573.18884 295.11612 574.532 296.4593 574.532 298.11612Z" fill-rule="nonzero"/><path fill="#000000" fill-opacity="0.0" clip-path="url(#id_0)" d="M584.45 298.45C584.45 300.10684 583.1069 301.45 581.45 301.45C579.79315 301.45 578.45 300.10684 578.45 298.45C578.45 296.79315 579.79315 295.45 581.45 295.45C583.1069 295.45 584.45 296.79315 584.45 298.45Z" fill-rule="nonzero"/><path fill="#424242" d="M321.10938 346.10626L321.10938 349.45L319.98438 349.45L319.98438 340.91876L323.14062 340.91876Q324.53125 340.91876 325.32812 341.6375Q326.125 342.34064 326.125 343.52814Q326.125 344.7625 325.34375 345.4344Q324.57812 346.10626 323.125 346.10626L321.10938 346.10626ZM321.10938 345.1844L323.14062 345.1844Q324.04688 345.1844 324.51562 344.7625Q325.0 344.34064 325.0 343.54376Q325.0 342.77814 324.51562 342.325Q324.04688 341.85626 323.20312 341.84064L321.10938 341.84064L321.10938 345.1844ZM329.82812 346.7625L330.0 347.8875L330.23438 346.8719L331.92188 340.91876L332.875 340.91876L334.51562 346.8719L334.75 347.90314L334.9375 346.7469L336.26562 340.91876L337.39062 340.91876L335.32812 349.45L334.29688 349.45L332.53125 343.23126L332.40625 342.575L332.26562 343.23126L330.45312 349.45L329.42188 349.45L327.35938 340.91876L328.48438 340.91876L329.82812 346.7625ZM340.4375 340.91876L343.23438 347.8719L346.01562 340.91876L347.48438 340.91876L347.48438 349.45L346.35938 349.45L346.35938 346.1219L346.46875 342.54376L343.65625 349.45L342.79688 349.45L340.0 342.5594L340.10938 346.1219L340.10938 349.45L338.98438 349.45L338.98438 340.91876L340.4375 340.91876Z" fill-rule="nonzero"/><path fill="#424242" d="M27.096888 209.24167L27.096888 211.2573L30.550013 211.2573L30.550013 212.3823L22.018763 212.3823L22.018763 209.55417Q22.018763 208.11667 22.675013 207.35104Q23.331263 206.5698 24.581263 206.5698Q25.378138 206.5698 25.971888 207.0073Q26.565638 207.42917 26.862513 208.1948L30.471888 206.1948L30.550013 206.1948L30.550013 207.39792L27.096888 209.24167ZM26.175013 211.2573L26.175013 209.52292Q26.175013 208.67917 25.753138 208.1948Q25.315638 207.6948 24.581263 207.6948Q23.800013 207.6948 23.378138 208.16354Q22.956263 208.6323 22.940638 209.52292L22.940638 211.2573L26.175013 211.2573ZM27.206263 204.2573L30.550013 204.2573L30.550013 205.3823L22.018763 205.3823L22.018763 202.22604Q22.018763 200.83542 22.737513 200.03854Q23.440638 199.24167 24.628138 199.24167Q25.862513 199.24167 26.534388 200.02292Q27.206263 200.78854 27.206263 202.24167L27.206263 204.2573ZM26.284388 204.2573L26.284388 202.22604Q26.284388 201.3198 25.862513 200.85104Q25.440638 200.36667 24.643763 200.36667Q23.878138 200.36667 23.425013 200.85104Q22.956263 201.3198 22.940638 202.16354L22.940638 204.2573L26.284388 204.2573ZM22.018763 195.92917L28.971888 193.1323L22.018763 190.35104L22.018763 188.8823L30.550013 188.8823L30.550013 190.0073L27.221888 190.0073L23.643763 189.89792L30.550013 192.71042L30.550013 193.5698L23.659388 196.36667L27.221888 196.2573L30.550013 196.2573L30.550013 197.3823L22.018763 197.3823L22.018763 195.92917Z" fill-rule="nonzero"/><path fill="#757575" d="M78.6125 299.3094Q78.6125 301.21564 77.95625 302.15314Q77.31563 303.075 75.925 303.075Q74.56563 303.075 73.90938 302.16876Q73.25313 301.2625 73.22188 299.45L73.22188 298.0125Q73.22188 296.1219 73.8625 295.21564Q74.51875 294.29376 75.90938 294.29376Q77.28438 294.29376 77.94063 295.1844Q78.59688 296.0594 78.6125 297.90314L78.6125 299.3094ZM77.51875 297.825Q77.51875 296.45 77.12813 295.825Q76.75313 295.1844 75.90938 295.1844Q75.08125 295.1844 74.69063 295.825Q74.31563 296.45 74.31563 297.7469L74.31563 299.48126Q74.31563 300.85626 74.70625 301.52814Q75.1125 302.1844 75.925 302.1844Q76.72188 302.1844 77.1125 301.5594Q77.50313 300.9344 77.51875 299.60626L77.51875 297.825Z" fill-rule="nonzero"/><path fill="#757575" d="M64.84688 261.21667L59.253124 261.21667L59.253124 260.43542L62.20625 257.15417Q62.8625 256.40417 63.1125 255.95105Q63.3625 255.4823 63.3625 254.9823Q63.3625 254.31042 62.95625 253.88855Q62.565624 253.45105 61.878124 253.45105Q61.08125 253.45105 60.628124 253.9198Q60.175 254.37292 60.175 255.20105L59.096874 255.20105Q59.096874 254.01355 59.846874 253.2948Q60.6125 252.56042 61.878124 252.56042Q63.08125 252.56042 63.76875 253.18542Q64.45625 253.81042 64.45625 254.8573Q64.45625 256.1073 62.846874 257.8573L60.565624 260.32605L64.84688 260.32605L64.84688 261.21667ZM66.75313 256.93542L67.19063 252.68542L71.56563 252.68542L71.56563 253.68542L68.1125 253.68542L67.84688 256.01355Q68.4875 255.63855 69.28438 255.63855Q70.44063 255.63855 71.12813 256.4198Q71.81563 257.18542 71.81563 258.49792Q71.81563 259.81042 71.09688 260.57605Q70.39375 261.34167 69.1125 261.34167Q67.9875 261.34167 67.26875 260.71667Q66.55 260.07605 66.45625 258.96667L67.47188 258.96667Q67.58125 259.70105 68.00313 260.07605Q68.425 260.45105 69.1125 260.45105Q69.8625 260.45105 70.3 259.93542Q70.7375 259.4198 70.7375 258.51355Q70.7375 257.65417 70.26875 257.13855Q69.8 256.62292 69.01875 256.62292Q68.31563 256.62292 67.90938 256.9198L67.62813 257.15417L66.75313 256.93542ZM78.6125 257.57605Q78.6125 259.4823 77.95625 260.4198Q77.31563 261.34167 75.925 261.34167Q74.56563 261.34167 73.90938 260.43542Q73.25313 259.52917 73.22188 257.71667L73.22188 256.27917Q73.22188 254.38855 73.8625 253.4823Q74.51875 252.56042 75.90938 252.56042Q77.28438 252.56042 77.94063 253.45105Q78.59688 254.32605 78.6125 256.1698L78.6125 257.57605ZM77.51875 256.09167Q77.51875 254.71667 77.12813 254.09167Q76.75313 253.45105 75.90938 253.45105Q75.08125 253.45105 74.69063 254.09167Q74.31563 254.71667 74.31563 256.01355L74.31563 257.74792Q74.31563 259.12292 74.70625 259.7948Q75.1125 260.45105 75.925 260.45105Q76.72188 260.45105 77.1125 259.82605Q77.50313 259.20105 77.51875 257.87292L77.51875 256.09167Z" fill-rule="nonzero"/><path fill="#757575" d="M59.753124 215.20209L60.190624 210.95209L64.56563 210.95209L64.56563 211.95209L61.1125 211.95209L60.846874 214.28021Q61.4875 213.90521 62.284374 213.90521Q63.440624 213.90521 64.12813 214.68646Q64.81563 215.45209 64.81563 216.76459Q64.81563 218.07709 64.09688 218.84271Q63.39375 219.60834 62.1125 219.60834Q60.9875 219.60834 60.26875 218.98334Q59.55 218.34271 59.45625 217.23334L60.471874 217.23334Q60.58125 217.96771 61.003124 218.34271Q61.425 218.71771 62.1125 218.71771Q62.8625 218.71771 63.3 218.20209Q63.7375 217.68646 63.7375 216.78021Q63.7375 215.92084 63.26875 215.40521Q62.8 214.88959 62.01875 214.88959Q61.315624 214.88959 60.909374 215.18646L60.628124 215.42084L59.753124 215.20209ZM71.6125 215.84271Q71.6125 217.74896 70.95625 218.68646Q70.31563 219.60834 68.925 219.60834Q67.56563 219.60834 66.90938 218.70209Q66.25313 217.79584 66.22188 215.98334L66.22188 214.54584Q66.22188 212.65521 66.8625 211.74896Q67.51875 210.82709 68.90938 210.82709Q70.28438 210.82709 70.94063 211.71771Q71.59688 212.59271 71.6125 214.43646L71.6125 215.84271ZM70.51875 214.35834Q70.51875 212.98334 70.12813 212.35834Q69.75313 211.71771 68.90938 211.71771Q68.08125 211.71771 67.69063 212.35834Q67.31563 212.98334 67.31563 214.28021L67.31563 216.01459Q67.31563 217.38959 67.70625 218.06146Q68.1125 218.71771 68.925 218.71771Q69.72188 218.71771 70.1125 218.09271Q70.50313 217.46771 70.51875 216.13959L70.51875 214.35834ZM78.6125 215.84271Q78.6125 217.74896 77.95625 218.68646Q77.31563 219.60834 75.925 219.60834Q74.56563 219.60834 73.90938 218.70209Q73.25313 217.79584 73.22188 215.98334L73.22188 214.54584Q73.22188 212.65521 73.8625 211.74896Q74.51875 210.82709 75.90938 210.82709Q77.28438 210.82709 77.94063 211.71771Q78.59688 212.59271 78.6125 214.43646L78.6125 215.84271ZM77.51875 214.35834Q77.51875 212.98334 77.12813 212.35834Q76.75313 211.71771 75.90938 211.71771Q75.08125 211.71771 74.69063 212.35834Q74.31563 212.98334 74.31563 214.28021L74.31563 216.01459Q74.31563 217.38959 74.70625 218.06146Q75.1125 218.71771 75.925 218.71771Q76.72188 218.71771 77.1125 218.09271Q77.50313 217.46771 77.51875 216.13959L77.51875 214.35834Z" fill-rule="nonzero"/><path fill="#757575" d="M64.76875 169.82812L61.2375 177.75L60.096874 177.75L63.6125 170.10938L59.003124 170.10938L59.003124 169.21875L64.76875 169.21875L64.76875 169.82812ZM66.75313 173.46875L67.19063 169.21875L71.56563 169.21875L71.56563 170.21875L68.1125 170.21875L67.84688 172.54688Q68.4875 172.17188 69.28438 172.17188Q70.44063 172.17188 71.12813 172.95312Q71.81563 173.71875 71.81563 175.03125Q71.81563 176.34375 71.09688 177.10938Q70.39375 177.875 69.1125 177.875Q67.9875 177.875 67.26875 177.25Q66.55 176.60938 66.45625 175.5L67.47188 175.5Q67.58125 176.23438 68.00313 176.60938Q68.425 176.98438 69.1125 176.98438Q69.8625 176.98438 70.3 176.46875Q70.7375 175.95312 70.7375 175.04688Q70.7375 174.1875 70.26875 173.67188Q69.8 173.15625 69.01875 173.15625Q68.31563 173.15625 67.90938 173.45312L67.62813 173.6875L66.75313 173.46875ZM78.6125 174.10938Q78.6125 176.01562 77.95625 176.95312Q77.31563 177.875 75.925 177.875Q74.56563 177.875 73.90938 176.96875Q73.25313 176.0625 73.22188 174.25L73.22188 172.8125Q73.22188 170.92188 73.8625 170.01562Q74.51875 169.09375 75.90938 169.09375Q77.28438 169.09375 77.94063 169.98438Q78.59688 170.85938 78.6125 172.70312L78.6125 174.10938ZM77.51875 172.625Q77.51875 171.25 77.12813 170.625Q76.75313 169.98438 75.90938 169.98438Q75.08125 169.98438 74.69063 170.625Q74.31563 171.25 74.31563 172.54688L74.31563 174.28125Q74.31563 175.65625 74.70625 176.32812Q75.1125 176.98438 75.925 176.98438Q76.72188 176.98438 77.1125 176.35938Q77.50313 175.73438 77.51875 174.40625L77.51875 172.625Z" fill-rule="nonzero"/><path fill="#757575" d="M55.815624 136.01666L54.7375 136.01666L54.7375 128.79791L52.55 129.59479L52.55 128.61041L55.659374 127.43854L55.815624 127.43854L55.815624 136.01666ZM64.6125 132.37604Q64.6125 134.28229 63.95625 135.21979Q63.315624 136.14166 61.925 136.14166Q60.565624 136.14166 59.909374 135.23541Q59.253124 134.32916 59.221874 132.51666L59.221874 131.07916Q59.221874 129.18854 59.8625 128.28229Q60.51875 127.36041 61.909374 127.36041Q63.284374 127.36041 63.940624 128.25104Q64.59688 129.12604 64.6125 130.96979L64.6125 132.37604ZM63.51875 130.89166Q63.51875 129.51666 63.128124 128.89166Q62.753124 128.25104 61.909374 128.25104Q61.08125 128.25104 60.690624 128.89166Q60.315624 129.51666 60.315624 130.81354L60.315624 132.54791Q60.315624 133.92291 60.70625 134.59479Q61.1125 135.25104 61.925 135.25104Q62.721874 135.25104 63.1125 134.62604Q63.503124 134.00104 63.51875 132.67291L63.51875 130.89166ZM71.6125 132.37604Q71.6125 134.28229 70.95625 135.21979Q70.31563 136.14166 68.925 136.14166Q67.56563 136.14166 66.90938 135.23541Q66.25313 134.32916 66.22188 132.51666L66.22188 131.07916Q66.22188 129.18854 66.8625 128.28229Q67.51875 127.36041 68.90938 127.36041Q70.28438 127.36041 70.94063 128.25104Q71.59688 129.12604 71.6125 130.96979L71.6125 132.37604ZM70.51875 130.89166Q70.51875 129.51666 70.12813 128.89166Q69.75313 128.25104 68.90938 128.25104Q68.08125 128.25104 67.69063 128.89166Q67.31563 129.51666 67.31563 130.81354L67.31563 132.54791Q67.31563 133.92291 67.70625 134.59479Q68.1125 135.25104 68.925 135.25104Q69.72188 135.25104 70.1125 134.62604Q70.50313 134.00104 70.51875 132.67291L70.51875 130.89166ZM78.6125 132.37604Q78.6125 134.28229 77.95625 135.21979Q77.31563 136.14166 75.925 136.14166Q74.56563 136.14166 73.90938 135.23541Q73.25313 134.32916 73.22188 132.51666L73.22188 131.07916Q73.22188 129.18854 73.8625 128.28229Q74.51875 127.36041 75.90938 127.36041Q77.28438 127.36041 77.94063 128.25104Q78.59688 129.12604 78.6125 130.96979L78.6125 132.37604ZM77.51875 130.89166Q77.51875 129.51666 77.12813 128.89166Q76.75313 128.25104 75.90938 128.25104Q75.08125 128.25104 74.69063 128.89166Q74.31563 129.51666 74.31563 130.81354L74.31563 132.54791Q74.31563 133.92291 74.70625 134.59479Q75.1125 135.25104 75.925 135.25104Q76.72188 135.25104 77.1125 134.62604Q77.50313 134.00104 77.51875 132.67291L77.51875 130.89166Z" fill-rule="nonzero"/><path fill="#757575" d="M55.815624 94.28333L54.7375 94.28333L54.7375 87.06458L52.55 87.86146L52.55 86.87708L55.659374 85.70521L55.815624 85.70521L55.815624 94.28333ZM64.84688 94.28333L59.253124 94.28333L59.253124 93.50208L62.20625 90.22083Q62.8625 89.47083 63.1125 89.01771Q63.3625 88.54896 63.3625 88.04896Q63.3625 87.37708 62.95625 86.95521Q62.565624 86.51771 61.878124 86.51771Q61.08125 86.51771 60.628124 86.98646Q60.175 87.43958 60.175 88.26771L59.096874 88.26771Q59.096874 87.08021 59.846874 86.36146Q60.6125 85.62708 61.878124 85.62708Q63.08125 85.62708 63.76875 86.25208Q64.45625 86.87708 64.45625 87.92396Q64.45625 89.17396 62.846874 90.92396L60.565624 93.39271L64.84688 93.39271L64.84688 94.28333ZM66.75313 90.00208L67.19063 85.75208L71.56563 85.75208L71.56563 86.75208L68.1125 86.75208L67.84688 89.08021Q68.4875 88.70521 69.28438 88.70521Q70.44063 88.70521 71.12813 89.48646Q71.81563 90.25208 71.81563 91.56458Q71.81563 92.87708 71.09688 93.64271Q70.39375 94.40833 69.1125 94.40833Q67.9875 94.40833 67.26875 93.78333Q66.55 93.14271 66.45625 92.03333L67.47188 92.03333Q67.58125 92.76771 68.00313 93.14271Q68.425 93.51771 69.1125 93.51771Q69.8625 93.51771 70.3 93.00208Q70.7375 92.48646 70.7375 91.58021Q70.7375 90.72083 70.26875 90.20521Q69.8 89.68958 69.01875 89.68958Q68.31563 89.68958 67.90938 89.98646L67.62813 90.22083L66.75313 90.00208ZM78.6125 90.64271Q78.6125 92.54896 77.95625 93.48646Q77.31563 94.40833 75.925 94.40833Q74.56563 94.40833 73.90938 93.50208Q73.25313 92.59583 73.22188 90.78333L73.22188 89.34583Q73.22188 87.45521 73.8625 86.54896Q74.51875 85.62708 75.90938 85.62708Q77.28438 85.62708 77.94063 86.51771Q78.59688 87.39271 78.6125 89.23646L78.6125 90.64271ZM77.51875 89.15833Q77.51875 87.78333 77.12813 87.15833Q76.75313 86.51771 75.90938 86.51771Q75.08125 86.51771 74.69063 87.15833Q74.31563 87.78333 74.31563 89.08021L74.31563 90.81458Q74.31563 92.18958 74.70625 92.86146Q75.1125 93.51771 75.925 93.51771Q76.72188 93.51771 77.1125 92.89271Q77.50313 92.26771 77.51875 90.93958L77.51875 89.15833Z" fill-rule="nonzero"/><path fill="#757575" d="M88.1125 312.8094Q88.1125 314.71564 87.45625 315.65314Q86.81563 316.575 85.425 316.575Q84.06563 316.575 83.40938 315.66876Q82.75313 314.7625 82.72188 312.95L82.72188 311.5125Q82.72188 309.6219 83.3625 308.71564Q84.01875 307.79376 85.40938 307.79376Q86.78438 307.79376 87.44063 308.6844Q88.09688 309.5594 88.1125 311.40314L88.1125 312.8094ZM87.01875 311.325Q87.01875 309.95 86.62813 309.325Q86.25313 308.6844 85.40938 308.6844Q84.58125 308.6844 84.19063 309.325Q83.81563 309.95 83.81563 311.2469L83.81563 312.98126Q83.81563 314.35626 84.20625 315.02814Q84.6125 315.6844 85.425 315.6844Q86.22188 315.6844 86.6125 315.0594Q87.00313 314.4344 87.01875 313.10626L87.01875 311.325Z" fill-rule="nonzero"/><path fill="#757575" d="M178.93312 312.16876L179.37062 307.91876L183.74562 307.91876L183.74562 308.91876L180.2925 308.91876L180.02687 311.2469Q180.6675 310.8719 181.46437 310.8719Q182.62062 310.8719 183.30812 311.65314Q183.99562 312.41876 183.99562 313.73126Q183.99562 315.04376 183.27687 315.8094Q182.57375 316.575 181.2925 316.575Q180.1675 316.575 179.44875 315.95Q178.73 315.3094 178.63625 314.2L179.65187 314.2Q179.76125 314.9344 180.18312 315.3094Q180.605 315.6844 181.2925 315.6844Q182.0425 315.6844 182.48 315.16876Q182.9175 314.65314 182.9175 313.7469Q182.9175 312.8875 182.44875 312.3719Q181.98 311.85626 181.19875 311.85626Q180.49562 311.85626 180.08937 312.15314L179.80812 312.3875L178.93312 312.16876ZM190.7925 312.8094Q190.7925 314.71564 190.13625 315.65314Q189.49562 316.575 188.105 316.575Q186.74562 316.575 186.08937 315.66876Q185.43312 314.7625 185.40187 312.95L185.40187 311.5125Q185.40187 309.6219 186.0425 308.71564Q186.69875 307.79376 188.08937 307.79376Q189.46437 307.79376 190.12062 308.6844Q190.77687 309.5594 190.7925 311.40314L190.7925 312.8094ZM189.69875 311.325Q189.69875 309.95 189.30812 309.325Q188.93312 308.6844 188.08937 308.6844Q187.26125 308.6844 186.87062 309.325Q186.49562 309.95 186.49562 311.2469L186.49562 312.98126Q186.49562 314.35626 186.88625 315.02814Q187.2925 315.6844 188.105 315.6844Q188.90187 315.6844 189.2925 315.0594Q189.68312 314.4344 189.69875 313.10626L189.69875 311.325Z" fill-rule="nonzero"/><path fill="#757575" d="M277.67563 316.45L276.5975 316.45L276.5975 309.23126L274.41 310.02814L274.41 309.04376L277.51938 307.8719L277.67563 307.8719L277.67563 316.45ZM286.4725 312.8094Q286.4725 314.71564 285.81625 315.65314Q285.17563 316.575 283.785 316.575Q282.42563 316.575 281.76938 315.66876Q281.11313 314.7625 281.08188 312.95L281.08188 311.5125Q281.08188 309.6219 281.7225 308.71564Q282.37875 307.79376 283.76938 307.79376Q285.14438 307.79376 285.80063 308.6844Q286.45688 309.5594 286.4725 311.40314L286.4725 312.8094ZM285.37875 311.325Q285.37875 309.95 284.98813 309.325Q284.61313 308.6844 283.76938 308.6844Q282.94125 308.6844 282.55063 309.325Q282.17563 309.95 282.17563 311.2469L282.17563 312.98126Q282.17563 314.35626 282.56625 315.02814Q282.9725 315.6844 283.785 315.6844Q284.58188 315.6844 284.9725 315.0594Q285.36313 314.4344 285.37875 313.10626L285.37875 311.325ZM293.4725 312.8094Q293.4725 314.71564 292.81625 315.65314Q292.17563 316.575 290.785 316.575Q289.42563 316.575 288.76938 315.66876Q288.11313 314.7625 288.08188 312.95L288.08188 311.5125Q288.08188 309.6219 288.7225 308.71564Q289.37875 307.79376 290.76938 307.79376Q292.14438 307.79376 292.80063 308.6844Q293.45688 309.5594 293.4725 311.40314L293.4725 312.8094ZM292.37875 311.325Q292.37875 309.95 291.98813 309.325Q291.61313 308.6844 290.76938 308.6844Q289.94125 308.6844 289.55063 309.325Q289.17563 309.95 289.17563 311.2469L289.17563 312.98126Q289.17563 314.35626 289.56625 315.02814Q289.9725 315.6844 290.785 315.6844Q291.58188 315.6844 291.9725 315.0594Q292.36313 314.4344 292.37875 313.10626L292.37875 311.325Z" fill-rule="nonzero"/><path fill="#757575" d="M376.85562 316.45L375.7775 316.45L375.7775 309.23126L373.59 310.02814L373.59 309.04376L376.69937 307.8719L376.85562 307.8719L376.85562 316.45ZM380.79312 312.16876L381.23062 307.91876L385.60562 307.91876L385.60562 308.91876L382.1525 308.91876L381.88687 311.2469Q382.5275 310.8719 383.32437 310.8719Q384.48062 310.8719 385.16812 311.65314Q385.85562 312.41876 385.85562 313.73126Q385.85562 315.04376 385.13687 315.8094Q384.43375 316.575 383.1525 316.575Q382.0275 316.575 381.30875 315.95Q380.59 315.3094 380.49625 314.2L381.51187 314.2Q381.62125 314.9344 382.04312 315.3094Q382.465 315.6844 383.1525 315.6844Q383.9025 315.6844 384.34 315.16876Q384.7775 314.65314 384.7775 313.7469Q384.7775 312.8875 384.30875 312.3719Q383.84 311.85626 383.05875 311.85626Q382.35562 311.85626 381.94937 312.15314L381.66812 312.3875L380.79312 312.16876ZM392.6525 312.8094Q392.6525 314.71564 391.99625 315.65314Q391.35562 316.575 389.965 316.575Q388.60562 316.575 387.94937 315.66876Q387.29312 314.7625 387.26187 312.95L387.26187 311.5125Q387.26187 309.6219 387.9025 308.71564Q388.55875 307.79376 389.94937 307.79376Q391.32437 307.79376 391.98062 308.6844Q392.63687 309.5594 392.6525 311.40314L392.6525 312.8094ZM391.55875 311.325Q391.55875 309.95 391.16812 309.325Q390.79312 308.6844 389.94937 308.6844Q389.12125 308.6844 388.73062 309.325Q388.35562 309.95 388.35562 311.2469L388.35562 312.98126Q388.35562 314.35626 388.74625 315.02814Q389.1525 315.6844 389.965 315.6844Q390.76187 315.6844 391.1525 315.0594Q391.54312 314.4344 391.55875 313.10626L391.55875 311.325Z" fill-rule="nonzero"/><path fill="#757575" d="M478.06686 316.45L472.4731 316.45L472.4731 315.66876L475.42624 312.3875Q476.0825 311.6375 476.3325 311.1844Q476.5825 310.71564 476.5825 310.21564Q476.5825 309.54376 476.17624 309.1219Q475.7856 308.6844 475.0981 308.6844Q474.30124 308.6844 473.8481 309.15314Q473.395 309.60626 473.395 310.4344L472.31686 310.4344Q472.31686 309.2469 473.06686 308.52814Q473.8325 307.79376 475.0981 307.79376Q476.30124 307.79376 476.98874 308.41876Q477.67624 309.04376 477.67624 310.09064Q477.67624 311.34064 476.06686 313.09064L473.7856 315.5594L478.06686 315.5594L478.06686 316.45ZM484.8325 312.8094Q484.8325 314.71564 484.17624 315.65314Q483.5356 316.575 482.145 316.575Q480.7856 316.575 480.12936 315.66876Q479.4731 314.7625 479.44186 312.95L479.44186 311.5125Q479.44186 309.6219 480.0825 308.71564Q480.73874 307.79376 482.12936 307.79376Q483.50436 307.79376 484.1606 308.6844Q484.81686 309.5594 484.8325 311.40314L484.8325 312.8094ZM483.73874 311.325Q483.73874 309.95 483.3481 309.325Q482.9731 308.6844 482.12936 308.6844Q481.30124 308.6844 480.9106 309.325Q480.5356 309.95 480.5356 311.2469L480.5356 312.98126Q480.5356 314.35626 480.92624 315.02814Q481.3325 315.6844 482.145 315.6844Q482.94186 315.6844 483.3325 315.0594Q483.7231 314.4344 483.73874 313.10626L483.73874 311.325ZM491.8325 312.8094Q491.8325 314.71564 491.17624 315.65314Q490.5356 316.575 489.145 316.575Q487.7856 316.575 487.12936 315.66876Q486.4731 314.7625 486.44186 312.95L486.44186 311.5125Q486.44186 309.6219 487.0825 308.71564Q487.73874 307.79376 489.12936 307.79376Q490.50436 307.79376 491.1606 308.6844Q491.81686 309.5594 491.8325 311.40314L491.8325 312.8094ZM490.73874 311.325Q490.73874 309.95 490.3481 309.325Q489.9731 308.6844 489.12936 308.6844Q488.30124 308.6844 487.9106 309.325Q487.5356 309.95 487.5356 311.2469L487.5356 312.98126Q487.5356 314.35626 487.92624 315.02814Q488.3325 315.6844 489.145 315.6844Q489.94186 315.6844 490.3325 315.0594Q490.7231 314.4344 490.73874 313.10626L490.73874 311.325Z" fill-rule="nonzero"/><path fill="#757575" d="M577.2469 316.45L571.65314 316.45L571.65314 315.66876L574.60626 312.3875Q575.2625 311.6375 575.5125 311.1844Q575.7625 310.71564 575.7625 310.21564Q575.7625 309.54376 575.35626 309.1219Q574.96564 308.6844 574.27814 308.6844Q573.48126 308.6844 573.02814 309.15314Q572.575 309.60626 572.575 310.4344L571.4969 310.4344Q571.4969 309.2469 572.2469 308.52814Q573.0125 307.79376 574.27814 307.79376Q575.48126 307.79376 576.16876 308.41876Q576.85626 309.04376 576.85626 310.09064Q576.85626 311.34064 575.2469 313.09064L572.96564 315.5594L577.2469 315.5594L577.2469 316.45ZM579.15314 312.16876L579.59064 307.91876L583.96564 307.91876L583.96564 308.91876L580.5125 308.91876L580.2469 311.2469Q580.8875 310.8719 581.6844 310.8719Q582.84064 310.8719 583.52814 311.65314Q584.21564 312.41876 584.21564 313.73126Q584.21564 315.04376 583.4969 315.8094Q582.79376 316.575 581.5125 316.575Q580.3875 316.575 579.66876 315.95Q578.95 315.3094 578.85626 314.2L579.8719 314.2Q579.98126 314.9344 580.40314 315.3094Q580.825 315.6844 581.5125 315.6844Q582.2625 315.6844 582.7 315.16876Q583.1375 314.65314 583.1375 313.7469Q583.1375 312.8875 582.66876 312.3719Q582.2 311.85626 581.41876 311.85626Q580.71564 311.85626 580.3094 312.15314L580.02814 312.3875L579.15314 312.16876ZM591.0125 312.8094Q591.0125 314.71564 590.35626 315.65314Q589.71564 316.575 588.325 316.575Q586.96564 316.575 586.3094 315.66876Q585.65314 314.7625 585.6219 312.95L585.6219 311.5125Q585.6219 309.6219 586.2625 308.71564Q586.91876 307.79376 588.3094 307.79376Q589.6844 307.79376 590.34064 308.6844Q590.9969 309.5594 591.0125 311.40314L591.0125 312.8094ZM589.91876 311.325Q589.91876 309.95 589.52814 309.325Q589.15314 308.6844 588.3094 308.6844Q587.48126 308.6844 587.09064 309.325Q586.71564 309.95 586.71564 311.2469L586.71564 312.98126Q586.71564 314.35626 587.10626 315.02814Q587.5125 315.6844 588.325 315.6844Q589.1219 315.6844 589.5125 315.0594Q589.90314 314.4344 589.91876 313.10626L589.91876 311.325Z" fill-rule="nonzero"/><path stroke="#4285f4" stroke-width="4.0" stroke-linecap="butt" d="M234.0 62.416668L246.0 62.416668" fill-rule="nonzero"/><path fill="#757575" d="M257.89062 61.541664Q257.64062 61.510414 257.35938 61.510414Q256.28125 61.510414 255.90625 62.416664L255.90625 66.916664L254.82812 66.916664L254.82812 60.572914L255.875 60.572914L255.89062 61.30729Q256.42188 60.46354 257.40625 60.46354Q257.71875 60.46354 257.89062 60.541664L257.89062 61.541664ZM264.17188 63.822914Q264.17188 65.260414 263.51562 66.15104Q262.85938 67.041664 261.71875 67.041664Q260.5625 67.041664 259.90625 66.30729L259.90625 69.354164L258.82812 69.354164L258.82812 60.572914L259.8125 60.572914L259.85938 61.27604Q260.53125 60.46354 261.70312 60.46354Q262.84375 60.46354 263.5 61.322914Q264.17188 62.18229 264.17188 63.71354L264.17188 63.822914ZM263.09375 63.697914Q263.09375 62.61979 262.625 62.010414Q262.17188 61.385414 261.375 61.385414Q260.39062 61.385414 259.90625 62.24479L259.90625 65.27604Q260.39062 66.15104 261.39062 66.15104Q262.17188 66.15104 262.625 65.541664Q263.09375 64.916664 263.09375 63.697914ZM266.84375 60.572914L266.875 61.27604Q267.5625 60.46354 268.75 60.46354Q270.07812 60.46354 270.5625 61.479164Q270.875 61.02604 271.375 60.74479Q271.89062 60.46354 272.57812 60.46354Q274.67188 60.46354 274.70312 62.666664L274.70312 66.916664L273.625 66.916664L273.625 62.729164Q273.625 62.05729 273.3125 61.729164Q273.0 61.385414 272.26562 61.385414Q271.65625 61.385414 271.25 61.74479Q270.85938 62.104164 270.79688 62.71354L270.79688 66.916664L269.71875 66.916664L269.71875 62.760414Q269.71875 61.385414 268.35938 61.385414Q267.29688 61.385414 266.90625 62.291664L266.90625 66.916664L265.8125 66.916664L265.8125 60.572914L266.84375 60.572914Z" fill-rule="nonzero"/><path stroke="#db4437" stroke-width="4.0" stroke-linecap="butt" d="M292.0 62.416668L304.0 62.416668" fill-rule="nonzero"/><path fill="#757575" d="M315.89062 61.541664Q315.64062 61.510414 315.35938 61.510414Q314.28125 61.510414 313.90625 62.416664L313.90625 66.916664L312.82812 66.916664L312.82812 60.572914L313.875 60.572914L313.89062 61.30729Q314.42188 60.46354 315.40625 60.46354Q315.71875 60.46354 315.89062 60.541664L315.89062 61.541664ZM322.17188 63.822914Q322.17188 65.260414 321.51562 66.15104Q320.85938 67.041664 319.71875 67.041664Q318.5625 67.041664 317.90625 66.30729L317.90625 69.354164L316.82812 69.354164L316.82812 60.572914L317.8125 60.572914L317.85938 61.27604Q318.53125 60.46354 319.70312 60.46354Q320.84375 60.46354 321.5 61.322914Q322.17188 62.18229 322.17188 63.71354L322.17188 63.822914ZM321.09375 63.697914Q321.09375 62.61979 320.625 62.010414Q320.17188 61.385414 319.375 61.385414Q318.39062 61.385414 317.90625 62.24479L317.90625 65.27604Q318.39062 66.15104 319.39062 66.15104Q320.17188 66.15104 320.625 65.541664Q321.09375 64.916664 321.09375 63.697914ZM324.84375 60.572914L324.875 61.27604Q325.5625 60.46354 326.75 60.46354Q328.07812 60.46354 328.5625 61.479164Q328.875 61.02604 329.375 60.74479Q329.89062 60.46354 330.57812 60.46354Q332.67188 60.46354 332.70312 62.666664L332.70312 66.916664L331.625 66.916664L331.625 62.729164Q331.625 62.05729 331.3125 61.729164Q331.0 61.385414 330.26562 61.385414Q329.65625 61.385414 329.25 61.74479Q328.85938 62.104164 328.79688 62.71354L328.79688 66.916664L327.71875 66.916664L327.71875 62.760414Q327.71875 61.385414 326.35938 61.385414Q325.29688 61.385414 324.90625 62.291664L324.90625 66.916664L323.8125 66.916664L323.8125 60.572914L324.84375 60.572914ZM339.39062 67.80729L334.03125 67.80729L334.03125 66.916664L339.39062 66.916664L339.39062 67.80729ZM339.5625 63.697914Q339.5625 62.229164 340.25 61.354164Q340.9375 60.46354 342.0625 60.46354Q343.17188 60.46354 343.82812 61.21354L343.82812 57.916664L344.90625 57.916664L344.90625 66.916664L343.90625 66.916664L343.85938 66.229164Q343.20312 67.041664 342.04688 67.041664Q340.95312 67.041664 340.25 66.135414Q339.5625 65.229164 339.5625 63.77604L339.5625 63.697914ZM340.64062 63.822914Q340.64062 64.90104 341.07812 65.510414Q341.53125 66.11979 342.3125 66.11979Q343.34375 66.11979 343.82812 65.18229L343.82812 62.27604Q343.34375 61.385414 342.32812 61.385414Q341.53125 61.385414 341.07812 61.99479Q340.64062 62.604164 340.64062 63.822914ZM349.45312 67.041664Q348.15625 67.041664 347.34375 66.197914Q346.54688 65.33854 346.54688 63.916664L346.54688 63.729164Q346.54688 62.77604 346.90625 62.041664Q347.26562 61.291664 347.90625 60.885414Q348.5625 60.46354 349.3125 60.46354Q350.54688 60.46354 351.23438 61.27604Q351.92188 62.08854 351.92188 63.604164L351.92188 64.05729L347.625 64.05729Q347.65625 64.99479 348.17188 65.572914Q348.70312 66.15104 349.51562 66.15104Q350.07812 66.15104 350.46875 65.916664Q350.875 65.68229 351.1875 65.291664L351.84375 65.80729Q351.04688 67.041664 349.45312 67.041664ZM349.3125 61.354164Q348.65625 61.354164 348.20312 61.83854Q347.76562 62.30729 347.67188 63.166664L350.84375 63.166664L350.84375 63.08854Q350.79688 62.260414 350.39062 61.80729Q350.0 61.354164 349.3125 61.354164ZM354.0 66.916664L352.92188 66.916664L352.92188 57.916664L354.0 57.916664L354.0 66.916664ZM357.29688 59.041664L357.29688 60.572914L358.46875 60.572914L358.46875 61.416664L357.29688 61.416664L357.29688 65.33854Q357.29688 65.729164 357.45312 65.916664Q357.60938 66.104164 357.98438 66.104164Q358.17188 66.104164 358.5 66.041664L358.5 66.916664Q358.07812 67.041664 357.67188 67.041664Q356.95312 67.041664 356.57812 66.604164Q356.20312 66.15104 356.20312 65.33854L356.20312 61.416664L355.04688 61.416664L355.04688 60.572914L356.20312 60.572914L356.20312 59.041664L357.29688 59.041664ZM363.73438 66.916664Q363.64062 66.729164 363.57812 66.24479Q362.82812 67.041664 361.78125 67.041664Q360.84375 67.041664 360.23438 66.510414Q359.64062 65.979164 359.64062 65.15104Q359.64062 64.166664 360.39062 63.61979Q361.14062 63.072914 362.51562 63.072914L363.5625 63.072914L363.5625 62.572914Q363.5625 62.010414 363.21875 61.68229Q362.89062 61.33854 362.21875 61.33854Q361.64062 61.33854 361.25 61.635414Q360.85938 61.916664 360.85938 62.33854L359.76562 62.33854Q359.76562 61.854164 360.09375 61.416664Q360.4375 60.979164 361.01562 60.729164Q361.59375 60.46354 362.28125 60.46354Q363.39062 60.46354 364.0 61.010414Q364.625 61.55729 364.65625 62.510414L364.65625 65.43229Q364.65625 66.30729 364.875 66.822914L364.875 66.916664L363.73438 66.916664ZM361.9375 66.08854Q362.45312 66.08854 362.90625 65.822914Q363.35938 65.55729 363.5625 65.135414L363.5625 63.83854L362.71875 63.83854Q360.71875 63.83854 360.71875 65.010414Q360.71875 65.510414 361.0625 65.80729Q361.40625 66.08854 361.9375 66.08854Z" fill-rule="nonzero"/><path fill="#757575" d="M31.128124 37.55L29.2375 37.55L22.08125 26.596874L22.08125 37.55L20.20625 37.55L20.20625 23.33125L22.08125 23.33125L29.26875 34.33125L29.26875 23.33125L31.128124 23.33125L31.128124 37.55ZM33.440624 32.175Q33.440624 30.6125 34.05 29.378124Q34.659374 28.128124 35.7375 27.45625Q36.83125 26.784374 38.2375 26.784374Q40.39375 26.784374 41.721874 28.284374Q43.065624 29.76875 43.065624 32.253124L43.065624 32.378124Q43.065624 33.925 42.471874 35.159374Q41.878124 36.378124 40.76875 37.065624Q39.675 37.753124 38.253124 37.753124Q36.1125 37.753124 34.76875 36.253124Q33.440624 34.753124 33.440624 32.3L33.440624 32.175ZM35.253124 32.378124Q35.253124 34.14375 36.065624 35.20625Q36.89375 36.26875 38.253124 36.26875Q39.628124 36.26875 40.440624 35.190624Q41.253124 34.1125 41.253124 32.175Q41.253124 30.425 40.425 29.346874Q39.596874 28.26875 38.2375 28.26875Q36.89375 28.26875 36.065624 29.33125Q35.253124 30.39375 35.253124 32.378124ZM49.159374 36.26875Q50.128124 36.26875 50.846874 35.690624Q51.565624 35.096874 51.64375 34.221874L53.3625 34.221874Q53.3 35.128124 52.721874 35.95625Q52.159374 36.76875 51.190624 37.26875Q50.2375 37.753124 49.159374 37.753124Q47.003124 37.753124 45.721874 36.315624Q44.45625 34.8625 44.45625 32.3625L44.45625 32.065624Q44.45625 30.51875 45.01875 29.315624Q45.58125 28.1125 46.64375 27.45625Q47.70625 26.784374 49.14375 26.784374Q50.925 26.784374 52.096874 27.846874Q53.284374 28.909374 53.3625 30.6125L51.64375 30.6125Q51.565624 29.596874 50.8625 28.940624Q50.175 28.26875 49.14375 28.26875Q47.76875 28.26875 47.003124 29.26875Q46.253124 30.253124 46.253124 32.128124L46.253124 32.471874Q46.253124 34.3 47.003124 35.284374Q47.753124 36.26875 49.159374 36.26875ZM57.3625 24.425L57.3625 26.9875L59.346874 26.9875L59.346874 28.378124L57.3625 28.378124L57.3625 34.925Q57.3625 35.565624 57.628124 35.89375Q57.89375 36.20625 58.534374 36.20625Q58.846874 36.20625 59.39375 36.08125L59.39375 37.55Q58.675 37.753124 58.003124 37.753124Q56.8 37.753124 56.175 37.01875Q55.565624 36.284374 55.565624 34.925L55.565624 28.378124L53.64375 28.378124L53.64375 26.9875L55.565624 26.9875L55.565624 24.425L57.3625 24.425ZM68.44063 36.503124Q67.39375 37.753124 65.34688 37.753124Q63.659374 37.753124 62.76875 36.76875Q61.89375 35.784374 61.878124 33.8625L61.878124 26.9875L63.690624 26.9875L63.690624 33.815624Q63.690624 36.20625 65.64375 36.20625Q67.70625 36.20625 68.39375 34.675L68.39375 26.9875L70.20625 26.9875L70.20625 37.55L68.4875 37.55L68.44063 36.503124ZM79.44063 37.55Q79.28438 37.2375 79.19063 36.440624Q77.925 37.753124 76.175 37.753124Q74.6125 37.753124 73.6125 36.8625Q72.6125 35.971874 72.6125 34.6125Q72.6125 32.971874 73.8625 32.065624Q75.12813 31.14375 77.39375 31.14375L79.15938 31.14375L79.15938 30.315624Q79.15938 29.3625 78.58125 28.8Q78.01875 28.2375 76.925 28.2375Q75.95625 28.2375 75.3 28.7375Q74.64375 29.221874 74.64375 29.909374L72.83125 29.909374Q72.83125 29.128124 73.39375 28.39375Q73.95625 27.64375 74.90938 27.221874Q75.87813 26.784374 77.03438 26.784374Q78.8625 26.784374 79.89375 27.70625Q80.925 28.6125 80.97188 30.221874L80.97188 35.08125Q80.97188 36.534374 81.33125 37.39375L81.33125 37.55L79.44063 37.55ZM76.44063 36.175Q77.3 36.175 78.05 35.7375Q78.81563 35.3 79.15938 34.596874L79.15938 32.425L77.7375 32.425Q74.425 32.425 74.425 34.3625Q74.425 35.221874 74.9875 35.70625Q75.55 36.175 76.44063 36.175ZM99.65938 33.034374Q99.39375 35.3 97.9875 36.534374Q96.59688 37.753124 94.26875 37.753124Q91.75313 37.753124 90.22188 35.940624Q88.70625 34.128124 88.70625 31.096874L88.70625 29.7375Q88.70625 27.753124 89.40938 26.253124Q90.12813 24.753124 91.425 23.940624Q92.72188 23.128124 94.44063 23.128124Q96.70625 23.128124 98.06563 24.39375Q99.44063 25.659374 99.65938 27.89375L97.76875 27.89375Q97.53438 26.20625 96.70625 25.440624Q95.89375 24.675 94.44063 24.675Q92.64375 24.675 91.6125 26.003124Q90.59688 27.33125 90.59688 29.784374L90.59688 31.159374Q90.59688 33.471874 91.56563 34.846874Q92.53438 36.20625 94.26875 36.20625Q95.83125 36.20625 96.65938 35.503124Q97.50313 34.8 97.76875 33.034374L99.65938 33.034374ZM101.44063 32.175Q101.44063 30.6125 102.05 29.378124Q102.65938 28.128124 103.7375 27.45625Q104.83125 26.784374 106.2375 26.784374Q108.39375 26.784374 109.72188 28.284374Q111.06563 29.76875 111.06563 32.253124L111.06563 32.378124Q111.06563 33.925 110.47188 35.159374Q109.87813 36.378124 108.76875 37.065624Q107.675 37.753124 106.25313 37.753124Q104.1125 37.753124 102.76875 36.253124Q101.44063 34.753124 101.44063 32.3L101.44063 32.175ZM103.25313 32.378124Q103.25313 34.14375 104.06563 35.20625Q104.89375 36.26875 106.25313 36.26875Q107.62813 36.26875 108.44063 35.190624Q109.25313 34.1125 109.25313 32.175Q109.25313 30.425 108.425 29.346874Q107.59688 28.26875 106.2375 28.26875Q104.89375 28.26875 104.06563 29.33125Q103.25313 30.39375 103.25313 32.378124ZM114.62813 26.9875L114.69063 28.315624Q115.89375 26.784374 117.84688 26.784374Q121.20625 26.784374 121.22188 30.565624L121.22188 37.55L119.425 37.55L119.425 30.55Q119.40938 29.409374 118.89375 28.8625Q118.39375 28.315624 117.3 28.315624Q116.425 28.315624 115.75313 28.784374Q115.09688 29.253124 114.72188 30.01875L114.72188 37.55L112.925 37.55L112.925 26.9875L114.62813 26.9875ZM125.62813 26.9875L125.69063 28.315624Q126.89375 26.784374 128.84688 26.784374Q132.20625 26.784374 132.22188 30.565624L132.22188 37.55L130.425 37.55L130.425 30.55Q130.40938 29.409374 129.89375 28.8625Q129.39375 28.315624 128.3 28.315624Q127.425 28.315624 126.75313 28.784374Q126.09688 29.253124 125.72188 30.01875L125.72188 37.55L123.925 37.55L123.925 26.9875L125.62813 26.9875ZM139.3 37.753124Q137.15938 37.753124 135.8 36.346874Q134.45625 34.925 134.45625 32.565624L134.45625 32.221874Q134.45625 30.659374 135.05 29.425Q135.65938 28.190624 136.7375 27.4875Q137.81563 26.784374 139.08125 26.784374Q141.14375 26.784374 142.28438 28.14375Q143.425 29.503124 143.425 32.034374L143.425 32.784374L136.26875 32.784374Q136.3 34.346874 137.175 35.315624Q138.05 36.26875 139.39375 36.26875Q140.3625 36.26875 141.01875 35.878124Q141.69063 35.4875 142.19063 34.846874L143.28438 35.70625Q141.95625 37.753124 139.3 37.753124ZM139.08125 28.26875Q137.9875 28.26875 137.2375 29.065624Q136.50313 29.8625 136.33125 31.3L141.6125 31.3L141.6125 31.159374Q141.53438 29.784374 140.8625 29.034374Q140.20625 28.26875 139.08125 28.26875ZM150.15938 36.26875Q151.12813 36.26875 151.84688 35.690624Q152.56563 35.096874 152.64375 34.221874L154.3625 34.221874Q154.3 35.128124 153.72188 35.95625Q153.15938 36.76875 152.19063 37.26875Q151.2375 37.753124 150.15938 37.753124Q148.00313 37.753124 146.72188 36.315624Q145.45625 34.8625 145.45625 32.3625L145.45625 32.065624Q145.45625 30.51875 146.01875 29.315624Q146.58125 28.1125 147.64375 27.45625Q148.70625 26.784374 150.14375 26.784374Q151.925 26.784374 153.09688 27.846874Q154.28438 28.909374 154.3625 30.6125L152.64375 30.6125Q152.56563 29.596874 151.8625 28.940624Q151.175 28.26875 150.14375 28.26875Q148.76875 28.26875 148.00313 29.26875Q147.25313 30.253124 147.25313 32.128124L147.25313 32.471874Q147.25313 34.3 148.00313 35.284374Q148.75313 36.26875 150.15938 36.26875ZM158.3625 24.425L158.3625 26.9875L160.34688 26.9875L160.34688 28.378124L158.3625 28.378124L158.3625 34.925Q158.3625 35.565624 158.62813 35.89375Q158.89375 36.20625 159.53438 36.20625Q159.84688 36.20625 160.39375 36.08125L160.39375 37.55Q159.675 37.753124 159.00313 37.753124Q157.8 37.753124 157.175 37.01875Q156.56563 36.284374 156.56563 34.925L156.56563 28.378124L154.64375 28.378124L154.64375 26.9875L156.56563 26.9875L156.56563 24.425L158.3625 24.425ZM167.3 37.753124Q165.15938 37.753124 163.8 36.346874Q162.45625 34.925 162.45625 32.565624L162.45625 32.221874Q162.45625 30.659374 163.05 29.425Q163.65938 28.190624 164.7375 27.4875Q165.81563 26.784374 167.08125 26.784374Q169.14375 26.784374 170.28438 28.14375Q171.425 29.503124 171.425 32.034374L171.425 32.784374L164.26875 32.784374Q164.3 34.346874 165.175 35.315624Q166.05 36.26875 167.39375 36.26875Q168.3625 36.26875 169.01875 35.878124Q169.69063 35.4875 170.19063 34.846874L171.28438 35.70625Q169.95625 37.753124 167.3 37.753124ZM167.08125 28.26875Q165.9875 28.26875 165.2375 29.065624Q164.50313 29.8625 164.33125 31.3L169.6125 31.3L169.6125 31.159374Q169.53438 29.784374 168.8625 29.034374Q168.20625 28.26875 167.08125 28.26875ZM173.47188 32.175Q173.47188 29.753124 174.62813 28.26875Q175.78438 26.784374 177.64375 26.784374Q179.50313 26.784374 180.58125 28.05L180.58125 22.55L182.39375 22.55L182.39375 37.55L180.7375 37.55L180.64375 36.409374Q179.56563 37.753124 177.62813 37.753124Q175.8 37.753124 174.62813 36.253124Q173.47188 34.7375 173.47188 32.315624L173.47188 32.175ZM175.28438 32.378124Q175.28438 34.175 176.01875 35.190624Q176.76875 36.20625 178.08125 36.20625Q179.8 36.20625 180.58125 34.675L180.58125 29.815624Q179.78438 28.315624 178.09688 28.315624Q176.76875 28.315624 176.01875 29.346874Q175.28438 30.378124 175.28438 32.378124ZM192.3625 24.425L192.3625 26.9875L194.34688 26.9875L194.34688 28.378124L192.3625 28.378124L192.3625 34.925Q192.3625 35.565624 192.62813 35.89375Q192.89375 36.20625 193.53438 36.20625Q193.84688 36.20625 194.39375 36.08125L194.39375 37.55Q193.675 37.753124 193.00313 37.753124Q191.8 37.753124 191.175 37.01875Q190.56563 36.284374 190.56563 34.925L190.56563 28.378124L188.64375 28.378124L188.64375 26.9875L190.56563 26.9875L190.56563 24.425L192.3625 24.425ZM196.44063 32.175Q196.44063 30.6125 197.05 29.378124Q197.65938 28.128124 198.7375 27.45625Q199.83125 26.784374 201.2375 26.784374Q203.39375 26.784374 204.72188 28.284374Q206.06563 29.76875 206.06563 32.253124L206.06563 32.378124Q206.06563 33.925 205.47188 35.159374Q204.87813 36.378124 203.76875 37.065624Q202.675 37.753124 201.25313 37.753124Q199.1125 37.753124 197.76875 36.253124Q196.44063 34.753124 196.44063 32.3L196.44063 32.175ZM198.25313 32.378124Q198.25313 34.14375 199.06563 35.20625Q199.89375 36.26875 201.25313 36.26875Q202.62813 36.26875 203.44063 35.190624Q204.25313 34.1125 204.25313 32.175Q204.25313 30.425 203.425 29.346874Q202.59688 28.26875 201.2375 28.26875Q199.89375 28.26875 199.06563 29.33125Q198.25313 30.39375 198.25313 32.378124ZM219.44063 37.55Q219.28438 37.2375 219.19063 36.440624Q217.925 37.753124 216.175 37.753124Q214.6125 37.753124 213.6125 36.8625Q212.6125 35.971874 212.6125 34.6125Q212.6125 32.971874 213.8625 32.065624Q215.12813 31.14375 217.39375 31.14375L219.15938 31.14375L219.15938 30.315624Q219.15938 29.3625 218.58125 28.8Q218.01875 28.2375 216.925 28.2375Q215.95625 28.2375 215.3 28.7375Q214.64375 29.221874 214.64375 29.909374L212.83125 29.909374Q212.83125 29.128124 213.39375 28.39375Q213.95625 27.64375 214.90938 27.221874Q215.87813 26.784374 217.03438 26.784374Q218.8625 26.784374 219.89375 27.70625Q220.925 28.6125 220.97188 30.221874L220.97188 35.08125Q220.97188 36.534374 221.33125 37.39375L221.33125 37.55L219.44063 37.55ZM216.44063 36.175Q217.3 36.175 218.05 35.7375Q218.81563 35.3 219.15938 34.596874L219.15938 32.425L217.7375 32.425Q214.425 32.425 214.425 34.3625Q214.425 35.221874 214.9875 35.70625Q215.55 36.175 216.44063 36.175ZM231.62813 23.33125L236.26875 34.925L240.925 23.33125L243.34688 23.33125L243.34688 37.55L241.47188 37.55L241.47188 32.01875L241.65938 26.034374L236.9875 37.55L235.55 37.55L230.89375 26.065624L231.08125 32.01875L231.08125 37.55L229.20625 37.55L229.20625 23.33125L231.62813 23.33125ZM245.44063 32.175Q245.44063 30.6125 246.05 29.378124Q246.65938 28.128124 247.7375 27.45625Q248.83125 26.784374 250.2375 26.784374Q252.39375 26.784374 253.72188 28.284374Q255.06563 29.76875 255.06563 32.253124L255.06563 32.378124Q255.06563 33.925 254.47188 35.159374Q253.87813 36.378124 252.76875 37.065624Q251.675 37.753124 250.25313 37.753124Q248.1125 37.753124 246.76875 36.253124Q245.44063 34.753124 245.44063 32.3L245.44063 32.175ZM247.25313 32.378124Q247.25313 34.14375 248.06563 35.20625Q248.89375 36.26875 250.25313 36.26875Q251.62813 36.26875 252.44063 35.190624Q253.25313 34.1125 253.25313 32.175Q253.25313 30.425 252.425 29.346874Q251.59688 28.26875 250.2375 28.26875Q248.89375 28.26875 248.06563 29.33125Q247.25313 30.39375 247.25313 32.378124ZM259.3625 24.425L259.3625 26.9875L261.34686 26.9875L261.34686 28.378124L259.3625 28.378124L259.3625 34.925Q259.3625 35.565624 259.6281 35.89375Q259.89374 36.20625 260.53436 36.20625Q260.84686 36.20625 261.39374 36.08125L261.39374 37.55Q260.675 37.753124 260.0031 37.753124Q258.8 37.753124 258.175 37.01875Q257.5656 36.284374 257.5656 34.925L257.5656 28.378124L255.64375 28.378124L255.64375 26.9875L257.5656 26.9875L257.5656 24.425L259.3625 24.425ZM265.72186 28.26875Q266.925 26.784374 268.84686 26.784374Q272.20624 26.784374 272.22186 30.565624L272.22186 37.55L270.425 37.55L270.425 30.55Q270.40936 29.409374 269.89374 28.8625Q269.39374 28.315624 268.3 28.315624Q267.425 28.315624 266.7531 28.784374Q266.09686 29.253124 265.72186 30.01875L265.72186 37.55L263.925 37.55L263.925 22.55L265.72186 22.55L265.72186 28.26875ZM279.3 37.753124Q277.15936 37.753124 275.8 36.346874Q274.45624 34.925 274.45624 32.565624L274.45624 32.221874Q274.45624 30.659374 275.05 29.425Q275.65936 28.190624 276.7375 27.4875Q277.8156 26.784374 279.08124 26.784374Q281.14374 26.784374 282.28436 28.14375Q283.425 29.503124 283.425 32.034374L283.425 32.784374L276.26874 32.784374Q276.3 34.346874 277.175 35.315624Q278.05 36.26875 279.39374 36.26875Q280.3625 36.26875 281.01874 35.878124Q281.6906 35.4875 282.1906 34.846874L283.28436 35.70625Q281.95624 37.753124 279.3 37.753124ZM279.08124 28.26875Q277.9875 28.26875 277.2375 29.065624Q276.5031 29.8625 276.33124 31.3L281.6125 31.3L281.6125 31.159374Q281.53436 29.784374 280.8625 29.034374Q280.20624 28.26875 279.08124 28.26875ZM291.01874 28.596874Q290.6125 28.534374 290.14374 28.534374Q288.3625 28.534374 287.72186 30.05L287.72186 37.55L285.925 37.55L285.925 26.9875L287.675 26.9875L287.70624 28.20625Q288.59686 26.784374 290.22186 26.784374Q290.7531 26.784374 291.01874 26.925L291.01874 28.596874ZM301.8625 32.378124Q301.8625 34.8 300.7531 36.284374Q299.64374 37.753124 297.76874 37.753124Q295.7531 37.753124 294.65936 36.33125L294.58124 37.55L292.925 37.55L292.925 22.55L294.72186 22.55L294.72186 28.14375Q295.8156 26.784374 297.7375 26.784374Q299.65936 26.784374 300.7531 28.2375Q301.8625 29.690624 301.8625 32.221874L301.8625 32.378124ZM300.05 32.175Q300.05 30.33125 299.33124 29.33125Q298.6281 28.315624 297.3 28.315624Q295.5031 28.315624 294.72186 29.9875L294.72186 34.55Q295.55 36.20625 297.3156 36.20625Q298.6125 36.20625 299.33124 35.20625Q300.05 34.20625 300.05 32.175ZM303.4406 32.175Q303.4406 30.6125 304.05 29.378124Q304.65936 28.128124 305.7375 27.45625Q306.83124 26.784374 308.2375 26.784374Q310.39374 26.784374 311.72186 28.284374Q313.0656 29.76875 313.0656 32.253124L313.0656 32.378124Q313.0656 33.925 312.47186 35.159374Q311.8781 36.378124 310.76874 37.065624Q309.675 37.753124 308.2531 37.753124Q306.1125 37.753124 304.76874 36.253124Q303.4406 34.753124 303.4406 32.3L303.4406 32.175ZM305.2531 32.378124Q305.2531 34.14375 306.0656 35.20625Q306.89374 36.26875 308.2531 36.26875Q309.6281 36.26875 310.4406 35.190624Q311.2531 34.1125 311.2531 32.175Q311.2531 30.425 310.425 29.346874Q309.59686 28.26875 308.2375 28.26875Q306.89374 28.26875 306.0656 29.33125Q305.2531 30.39375 305.2531 32.378124ZM321.4406 37.55Q321.28436 37.2375 321.1906 36.440624Q319.925 37.753124 318.175 37.753124Q316.6125 37.753124 315.6125 36.8625Q314.6125 35.971874 314.6125 34.6125Q314.6125 32.971874 315.8625 32.065624Q317.1281 31.14375 319.39374 31.14375L321.15936 31.14375L321.15936 30.315624Q321.15936 29.3625 320.58124 28.8Q320.01874 28.2375 318.925 28.2375Q317.95624 28.2375 317.3 28.7375Q316.64374 29.221874 316.64374 29.909374L314.83124 29.909374Q314.83124 29.128124 315.39374 28.39375Q315.95624 27.64375 316.90936 27.221874Q317.8781 26.784374 319.03436 26.784374Q320.8625 26.784374 321.89374 27.70625Q322.925 28.6125 322.97186 30.221874L322.97186 35.08125Q322.97186 36.534374 323.33124 37.39375L323.33124 37.55L321.4406 37.55ZM318.4406 36.175Q319.3 36.175 320.05 35.7375Q320.8156 35.3 321.15936 34.596874L321.15936 32.425L319.7375 32.425Q316.425 32.425 316.425 34.3625Q316.425 35.221874 316.9875 35.70625Q317.55 36.175 318.4406 36.175ZM331.01874 28.596874Q330.6125 28.534374 330.14374 28.534374Q328.3625 28.534374 327.72186 30.05L327.72186 37.55L325.925 37.55L325.925 26.9875L327.675 26.9875L327.70624 28.20625Q328.59686 26.784374 330.22186 26.784374Q330.7531 26.784374 331.01874 26.925L331.01874 28.596874ZM332.47186 32.175Q332.47186 29.753124 333.6281 28.26875Q334.78436 26.784374 336.64374 26.784374Q338.5031 26.784374 339.58124 28.05L339.58124 22.55L341.39374 22.55L341.39374 37.55L339.7375 37.55L339.64374 36.409374Q338.5656 37.753124 336.6281 37.753124Q334.8 37.753124 333.6281 36.253124Q332.47186 34.7375 332.47186 32.315624L332.47186 32.175ZM334.28436 32.378124Q334.28436 34.175 335.01874 35.190624Q335.76874 36.20625 337.08124 36.20625Q338.8 36.20625 339.58124 34.675L339.58124 29.815624Q338.78436 28.315624 337.09686 28.315624Q335.76874 28.315624 335.01874 29.346874Q334.28436 30.378124 334.28436 32.378124Z" fill-rule="nonzero"/></svg>